<svg width="29" height="25" viewBox="0 0 29 25" fill="none" xmlns="http://www.w3.org/2000/svg">
<path d="M9.49264 3.58612C9.2434 3.54986 8.98837 3.5311 8.72895 3.5311C5.85589 3.5311 3.52679 5.83314 3.52679 8.67281C3.52679 11.5125 5.85589 13.8145 8.72895 13.8145M6.23306 24H1V20.2682C1 16.7039 3.92339 13.8145 7.52952 13.8145H9.07227M6.23306 24H22.6003V19.0087C22.6003 15.4444 19.6769 12.555 16.0707 12.555H12.7626C9.15644 12.555 6.23306 15.4444 6.23306 19.0087V24ZM20.1044 13.8145C22.9774 13.8145 25.3065 11.5125 25.3065 8.67281C25.3065 5.83314 22.9775 3.5311 20.1044 3.5311C19.8234 3.5311 19.5476 3.55311 19.2786 3.59553M20.1137 13.8145H21.3038C24.9099 13.8145 27.8333 16.7039 27.8333 20.2682V24H22.3962M14.4167 12.555C17.645 12.555 20.2621 9.96834 20.2621 6.77751C20.2621 3.58668 17.645 1 14.4167 1C11.1883 1 8.57123 3.58668 8.57123 6.77751C8.57123 9.96834 11.1883 12.555 14.4167 12.555ZM14.4167 12.555L11.5775 14.866M14.4167 12.555V23.945M14.4167 12.555L17.2559 14.866M17.7206 18.706H19.3907M9.963 3.14593L10.0889 3.3274C11.6826 5.6246 14.3196 6.99761 17.1377 6.99761H19.7611" stroke="white" stroke-miterlimit="10"/>
</svg>
