<svg width="23" height="23" viewBox="0 0 23 23" fill="none" xmlns="http://www.w3.org/2000/svg">
<path d="M21.0833 2.3H19.1667V1.53333C19.1667 1.12667 19.0051 0.736659 18.7176 0.449103C18.43 0.161547 18.04 0 17.6333 0C17.2267 0 16.8367 0.161547 16.5491 0.449103C16.2615 0.736659 16.1 1.12667 16.1 1.53333V2.3H13.0333V1.53333C13.0333 1.12667 12.8718 0.736659 12.5842 0.449103C12.2967 0.161547 11.9067 0 11.5 0C11.0933 0 10.7033 0.161547 10.4158 0.449103C10.1282 0.736659 9.96667 1.12667 9.96667 1.53333V2.3H6.9V1.53333C6.9 1.12667 6.73845 0.736659 6.4509 0.449103C6.16334 0.161547 5.77333 0 5.36667 0C4.96 0 4.56999 0.161547 4.28244 0.449103C3.99488 0.736659 3.83333 1.12667 3.83333 1.53333V2.3H1.91667C1.40833 2.3 0.920823 2.50193 0.561379 2.86138C0.201934 3.22082 0 3.70833 0 4.21667V19.55C0 20.0583 0.201934 20.5458 0.561379 20.9053C0.920823 21.2647 1.40833 21.4667 1.91667 21.4667H12.65C12.7517 21.4667 12.8492 21.4263 12.9211 21.3544C12.9929 21.2825 13.0333 21.185 13.0333 21.0833C13.0333 20.9817 12.9929 20.8842 12.9211 20.8123C12.8492 20.7404 12.7517 20.7 12.65 20.7H1.91667C1.61195 20.6991 1.31997 20.5776 1.1045 20.3622C0.889029 20.1467 0.767577 19.8547 0.766667 19.55V7.66667H22.2333V14.1833C22.2333 14.285 22.2737 14.3825 22.3456 14.4544C22.4175 14.5263 22.515 14.5667 22.6167 14.5667C22.7183 14.5667 22.8158 14.5263 22.8877 14.4544C22.9596 14.3825 23 14.285 23 14.1833V4.21667C23 3.70833 22.7981 3.22082 22.4386 2.86138C22.0792 2.50193 21.5917 2.3 21.0833 2.3ZM16.8667 1.53333C16.8667 1.33 16.9474 1.135 17.0912 0.991218C17.235 0.84744 17.43 0.766667 17.6333 0.766667C17.8367 0.766667 18.0317 0.84744 18.1754 0.991218C18.3192 1.135 18.4 1.33 18.4 1.53333V3.83333C18.4 4.03667 18.3192 4.23167 18.1754 4.37545C18.0317 4.51923 17.8367 4.6 17.6333 4.6C17.43 4.6 17.235 4.51923 17.0912 4.37545C16.9474 4.23167 16.8667 4.03667 16.8667 3.83333V1.53333ZM10.7333 1.53333C10.7333 1.33 10.8141 1.135 10.9579 0.991218C11.1017 0.84744 11.2967 0.766667 11.5 0.766667C11.7033 0.766667 11.8983 0.84744 12.0421 0.991218C12.1859 1.135 12.2667 1.33 12.2667 1.53333V3.83333C12.2667 4.03667 12.1859 4.23167 12.0421 4.37545C11.8983 4.51923 11.7033 4.6 11.5 4.6C11.2967 4.6 11.1017 4.51923 10.9579 4.37545C10.8141 4.23167 10.7333 4.03667 10.7333 3.83333V1.53333ZM4.6 1.53333C4.6 1.33 4.68077 1.135 4.82455 0.991218C4.96833 0.84744 5.16333 0.766667 5.36667 0.766667C5.57 0.766667 5.765 0.84744 5.90878 0.991218C6.05256 1.135 6.13333 1.33 6.13333 1.53333V3.83333C6.13333 4.03667 6.05256 4.23167 5.90878 4.37545C5.765 4.51923 5.57 4.6 5.36667 4.6C5.16333 4.6 4.96833 4.51923 4.82455 4.37545C4.68077 4.23167 4.6 4.03667 4.6 3.83333V1.53333ZM22.2333 6.9H0.766667V4.21667C0.767577 3.91195 0.889029 3.61997 1.1045 3.4045C1.31997 3.18903 1.61195 3.06758 1.91667 3.06667H3.83333V3.83333C3.83333 4.24 3.99488 4.63001 4.28244 4.91756C4.56999 5.20512 4.96 5.36667 5.36667 5.36667C5.77333 5.36667 6.16334 5.20512 6.4509 4.91756C6.73845 4.63001 6.9 4.24 6.9 3.83333V3.06667H9.96667V3.83333C9.96667 4.24 10.1282 4.63001 10.4158 4.91756C10.7033 5.20512 11.0933 5.36667 11.5 5.36667C11.9067 5.36667 12.2967 5.20512 12.5842 4.91756C12.8718 4.63001 13.0333 4.24 13.0333 3.83333V3.06667H16.1V3.83333C16.1 4.24 16.2615 4.63001 16.5491 4.91756C16.8367 5.20512 17.2267 5.36667 17.6333 5.36667C18.04 5.36667 18.43 5.20512 18.7176 4.91756C19.0051 4.63001 19.1667 4.24 19.1667 3.83333V3.06667H21.0833C21.3881 3.06758 21.68 3.18903 21.8955 3.4045C22.111 3.61997 22.2324 3.91195 22.2333 4.21667V6.9Z" fill="white"/>
<path d="M10.7333 10.35C10.7333 10.1467 10.6526 9.95166 10.5088 9.80788C10.365 9.66411 10.17 9.58333 9.96667 9.58333H8.43333C8.23 9.58333 8.035 9.66411 7.89122 9.80788C7.74744 9.95166 7.66667 10.1467 7.66667 10.35V11.5C7.66667 11.7033 7.74744 11.8983 7.89122 12.0421C8.035 12.1859 8.23 12.2667 8.43333 12.2667H9.96667C10.17 12.2667 10.365 12.1859 10.5088 12.0421C10.6526 11.8983 10.7333 11.7033 10.7333 11.5V10.35ZM8.43333 11.5V10.35H9.96667V11.5H8.43333Z" fill="white"/>
<path d="M6.13333 10.35C6.13333 10.1467 6.05256 9.95166 5.90878 9.80788C5.765 9.66411 5.57 9.58333 5.36667 9.58333H3.83333C3.63 9.58333 3.435 9.66411 3.29122 9.80788C3.14744 9.95166 3.06667 10.1467 3.06667 10.35V11.5C3.06667 11.7033 3.14744 11.8983 3.29122 12.0421C3.435 12.1859 3.63 12.2667 3.83333 12.2667H5.36667C5.57 12.2667 5.765 12.1859 5.90878 12.0421C6.05256 11.8983 6.13333 11.7033 6.13333 11.5V10.35ZM3.83333 11.5V10.35H5.36667V11.5H3.83333Z" fill="white"/>
<path d="M19.1667 12.2667C19.37 12.2667 19.565 12.1859 19.7088 12.0421C19.8526 11.8983 19.9333 11.7033 19.9333 11.5V10.35C19.9333 10.1467 19.8526 9.95166 19.7088 9.80788C19.565 9.66411 19.37 9.58333 19.1667 9.58333H17.6333C17.43 9.58333 17.235 9.66411 17.0912 9.80788C16.9474 9.95166 16.8667 10.1467 16.8667 10.35V11.5C16.8667 11.7033 16.9474 11.8983 17.0912 12.0421C17.235 12.1859 17.43 12.2667 17.6333 12.2667H19.1667ZM17.6333 10.35H19.1667V11.5H17.6333V10.35Z" fill="white"/>
<path d="M10.7333 13.8C10.7333 13.5967 10.6526 13.4017 10.5088 13.2579C10.365 13.1141 10.17 13.0333 9.96667 13.0333H8.43333C8.23 13.0333 8.035 13.1141 7.89122 13.2579C7.74744 13.4017 7.66667 13.5967 7.66667 13.8V14.95C7.66667 15.1533 7.74744 15.3483 7.89122 15.4921C8.035 15.6359 8.23 15.7167 8.43333 15.7167H9.96667C10.17 15.7167 10.365 15.6359 10.5088 15.4921C10.6526 15.3483 10.7333 15.1533 10.7333 14.95V13.8ZM8.43333 14.95V13.8H9.96667V14.95H8.43333Z" fill="white"/>
<path d="M6.13333 13.8C6.13333 13.5967 6.05256 13.4017 5.90878 13.2579C5.765 13.1141 5.57 13.0333 5.36667 13.0333H3.83333C3.63 13.0333 3.435 13.1141 3.29122 13.2579C3.14744 13.4017 3.06667 13.5967 3.06667 13.8V14.95C3.06667 15.1533 3.14744 15.3483 3.29122 15.4921C3.435 15.6359 3.63 15.7167 3.83333 15.7167H5.36667C5.57 15.7167 5.765 15.6359 5.90878 15.4921C6.05256 15.3483 6.13333 15.1533 6.13333 14.95V13.8ZM3.83333 14.95V13.8H5.36667V14.95H3.83333Z" fill="white"/>
<path d="M9.96667 16.4833H8.43333C8.23 16.4833 8.035 16.5641 7.89122 16.7079C7.74744 16.8517 7.66667 17.0467 7.66667 17.25V18.4C7.66667 18.6033 7.74744 18.7983 7.89122 18.9421C8.035 19.0859 8.23 19.1667 8.43333 19.1667H9.96667C10.17 19.1667 10.365 19.0859 10.5088 18.9421C10.6526 18.7983 10.7333 18.6033 10.7333 18.4V17.25C10.7333 17.0467 10.6526 16.8517 10.5088 16.7079C10.365 16.5641 10.17 16.4833 9.96667 16.4833ZM8.43333 18.4V17.25H9.96667V18.4H8.43333Z" fill="white"/>
<path d="M13.0333 12.2667H14.5667C14.77 12.2667 14.965 12.1859 15.1088 12.0421C15.2526 11.8983 15.3333 11.7033 15.3333 11.5V10.35C15.3333 10.1467 15.2526 9.95166 15.1088 9.80788C14.965 9.66411 14.77 9.58333 14.5667 9.58333H13.0333C12.83 9.58333 12.635 9.66411 12.4912 9.80788C12.3474 9.95166 12.2667 10.1467 12.2667 10.35V11.5C12.2667 11.7033 12.3474 11.8983 12.4912 12.0421C12.635 12.1859 12.83 12.2667 13.0333 12.2667ZM13.0333 10.35H14.5667V11.5H13.0333V10.35Z" fill="white"/>
<path d="M12.2667 14.95C12.2667 15.1533 12.3474 15.3483 12.4912 15.4921C12.635 15.6359 12.83 15.7167 13.0333 15.7167C13.135 15.7167 13.2325 15.6763 13.3044 15.6044C13.3763 15.5325 13.4167 15.435 13.4167 15.3333C13.4167 15.2317 13.3763 15.1342 13.3044 15.0623C13.2325 14.9904 13.135 14.95 13.0333 14.95V13.8H14.5667C14.6683 13.8 14.7658 13.7596 14.8377 13.6877C14.9096 13.6158 14.95 13.5183 14.95 13.4167C14.95 13.315 14.9096 13.2175 14.8377 13.1456C14.7658 13.0737 14.6683 13.0333 14.5667 13.0333H13.0333C12.83 13.0333 12.635 13.1141 12.4912 13.2579C12.3474 13.4017 12.2667 13.5967 12.2667 13.8V14.95Z" fill="white"/>
<path d="M5.36667 16.4833H3.83333C3.63 16.4833 3.435 16.5641 3.29122 16.7079C3.14744 16.8517 3.06667 17.0467 3.06667 17.25V18.4C3.06667 18.6033 3.14744 18.7983 3.29122 18.9421C3.435 19.0859 3.63 19.1667 3.83333 19.1667H5.36667C5.57 19.1667 5.765 19.0859 5.90878 18.9421C6.05256 18.7983 6.13333 18.6033 6.13333 18.4V17.25C6.13333 17.0467 6.05256 16.8517 5.90878 16.7079C5.765 16.5641 5.57 16.4833 5.36667 16.4833ZM3.83333 18.4V17.25H5.36667V18.4H3.83333Z" fill="white"/>
<path d="M18.0167 13.0333C17.0311 13.0333 16.0676 13.3256 15.2481 13.8732C14.4286 14.4208 13.7898 15.199 13.4127 16.1096C13.0355 17.0202 12.9368 18.0222 13.1291 18.9889C13.3214 19.9555 13.796 20.8435 14.4929 21.5404C15.1898 22.2373 16.0778 22.712 17.0445 22.9042C18.0111 23.0965 19.0131 22.9978 19.9237 22.6207C20.8343 22.2435 21.6126 21.6048 22.1602 20.7853C22.7077 19.9658 23 19.0023 23 18.0167C22.9985 16.6955 22.473 15.4288 21.5387 14.4946C20.6045 13.5604 19.3379 13.0349 18.0167 13.0333ZM18.0167 22.2333C17.1827 22.2333 16.3674 21.986 15.674 21.5227C14.9806 21.0594 14.4401 20.4008 14.121 19.6303C13.8018 18.8598 13.7183 18.012 13.881 17.194C14.0437 16.3761 14.4453 15.6247 15.035 15.035C15.6247 14.4453 16.3761 14.0437 17.194 13.881C18.012 13.7183 18.8598 13.8018 19.6303 14.121C20.4008 14.4401 21.0594 14.9806 21.5227 15.674C21.986 16.3674 22.2333 17.1827 22.2333 18.0167C22.232 19.1346 21.7873 20.2064 20.9968 20.9968C20.2064 21.7873 19.1346 22.232 18.0167 22.2333Z" fill="white"/>
<path d="M20.2316 16.4097L17.25 19.3913L15.8949 18.0358C15.8226 17.966 15.7258 17.9274 15.6253 17.9282C15.5248 17.9291 15.4286 17.9694 15.3576 18.0405C15.2865 18.1116 15.2462 18.2077 15.2453 18.3082C15.2444 18.4087 15.2831 18.5056 15.3529 18.5779L16.979 20.2043C17.0509 20.2762 17.1484 20.3166 17.25 20.3166C17.3516 20.3166 17.4491 20.2762 17.521 20.2043L20.7736 16.9518C20.8434 16.8795 20.8821 16.7826 20.8812 16.6821C20.8803 16.5816 20.84 16.4855 20.7689 16.4144C20.6979 16.3433 20.6017 16.303 20.5012 16.3021C20.4007 16.3013 20.3039 16.3399 20.2316 16.4097Z" fill="white"/>
</svg>
