<svg width="27" height="27" viewBox="0 0 27 27" fill="none" xmlns="http://www.w3.org/2000/svg">
<path d="M13.7704 12.8723C13.6923 13.0093 13.5505 13.0859 13.4047 13.0859C13.3331 13.0859 13.2606 13.0674 13.1941 13.0286L11.0597 11.781C10.9292 11.7047 10.8488 11.5638 10.8488 11.4111V8.17446C10.8488 7.93858 11.0377 7.74733 11.2707 7.74733C11.5036 7.74733 11.6925 7.93858 11.6925 8.17446V11.1645L13.616 12.2889C13.8178 12.4068 13.8869 12.668 13.7704 12.8723ZM11.2707 5.76543C11.5037 5.76543 11.6926 5.57418 11.6926 5.3383V4.59995C11.6926 4.36407 11.5037 4.17282 11.2707 4.17282C11.0377 4.17282 10.8488 4.36407 10.8488 4.59995V5.3383C10.8488 5.57418 11.0377 5.76543 11.2707 5.76543ZM15.7293 6.29289L15.2137 6.8149C15.0489 6.98169 15.0489 7.25212 15.2137 7.41892C15.296 7.50231 15.404 7.54407 15.512 7.54407C15.6199 7.54407 15.7279 7.50237 15.8103 7.41897L16.3259 6.89696C16.4907 6.73017 16.4907 6.45974 16.3259 6.29294C16.1612 6.12615 15.8941 6.12609 15.7293 6.29289ZM6.73107 15.4032L6.21543 15.9253C6.05064 16.0921 6.05069 16.3625 6.21543 16.5293C6.2978 16.6127 6.40575 16.6544 6.51375 16.6544C6.62175 16.6544 6.7297 16.6127 6.81207 16.5293L7.32771 16.0072C7.4925 15.8404 7.49245 15.57 7.32771 15.4032C7.16296 15.2365 6.89581 15.2364 6.73107 15.4032ZM6.81207 6.29289C6.64733 6.12615 6.38023 6.12609 6.21548 6.29294C6.05069 6.45974 6.05074 6.73017 6.21548 6.89696L6.73112 7.41897C6.81349 7.50237 6.92144 7.54407 7.02944 7.54407C7.13744 7.54407 7.24539 7.50237 7.32776 7.41892C7.49255 7.25212 7.4925 6.98169 7.32776 6.8149L6.81207 6.29289ZM17.2688 11.8382H17.998C18.231 11.8382 18.4199 11.647 18.4199 11.4111C18.4199 11.1752 18.231 10.984 17.998 10.984H17.2688C17.0358 10.984 16.8469 11.1752 16.8469 11.4111C16.8469 11.647 17.0358 11.8382 17.2688 11.8382ZM5.27259 10.984H4.54333C4.31035 10.984 4.12146 11.1752 4.12146 11.4111C4.12146 11.647 4.31035 11.8382 4.54333 11.8382H5.27259C5.50557 11.8382 5.69447 11.647 5.69447 11.4111C5.69447 11.1752 5.50557 10.984 5.27259 10.984ZM27 16.1545V18.9513C27 19.5181 26.7675 20.0248 26.3098 20.4607V25.4256C26.3098 26.2937 25.6122 27 24.7548 27H12.9172C12.0597 27 11.3621 26.2937 11.3621 25.4256V22.8212C11.3316 22.8215 11.301 22.8223 11.2707 22.8223C8.26015 22.8223 5.42985 21.6353 3.30107 19.48C1.17234 17.3248 0 14.4591 0 11.4111C0 5.11902 5.05601 0 11.2707 0C17.4854 0 22.5414 5.11902 22.5414 11.4111C22.5414 12.2857 22.4417 13.1573 22.2472 14.0041C22.2691 14.1122 22.2807 14.2242 22.2807 14.3387V15.1394H25.9975C26.5503 15.1394 27 15.5948 27 16.1545ZM25.9975 15.9937H23.2904L23.3007 17.4752C23.3029 17.7841 23.1847 18.0761 22.968 18.2971C22.7496 18.5198 22.4594 18.6424 22.1509 18.6424H15.5211C14.8915 18.6424 14.3757 18.1215 14.3712 17.4812L14.3608 15.9938H11.6745C11.5885 15.9938 11.5158 16.0674 11.5158 16.1545V18.9514C11.5158 19.3209 11.6861 19.6345 12.0517 19.9383C12.1426 20.0139 12.2472 20.0896 12.3625 20.1635C13.1559 20.6717 14.9151 21.0448 17.1075 21.1751C17.3725 20.4695 18.0472 19.9665 18.8361 19.9665C19.6246 19.9665 20.2989 20.469 20.5642 21.1741C22.7595 21.0426 24.519 20.67 25.3097 20.1635C25.4248 20.0897 25.529 20.0142 25.6195 19.9391C25.6197 19.939 25.6198 19.9389 25.62 19.9388C25.6201 19.9386 25.6203 19.9385 25.6204 19.9384C25.986 19.6346 26.1563 19.3209 26.1563 18.9514V16.1545C26.1562 16.0673 26.0835 15.9937 25.9975 15.9937ZM17.8309 21.8383C17.8309 22.3995 18.2817 22.856 18.836 22.856C19.3902 22.856 19.8412 22.3995 19.8412 21.8383C19.8412 21.2772 19.3903 20.8206 18.836 20.8206C18.2818 20.8206 17.8309 21.2772 17.8309 21.8383ZM19.2983 11.4111C19.2983 6.92953 15.6971 3.28353 11.2707 3.28353C6.84424 3.28353 3.24316 6.92953 3.24316 11.4111C3.24316 15.7177 6.56875 19.2521 10.7564 19.5216C10.7003 19.3391 10.6721 19.1488 10.6721 18.9513V16.1544C10.6721 15.5948 11.1218 15.1394 11.6745 15.1394H15.3914V14.3387C15.3914 13.4262 16.1247 12.6838 17.026 12.6838H19.1997C19.2648 12.2641 19.2983 11.8374 19.2983 11.4111ZM20.3634 14.625H17.3087V15.1394H20.3634V14.625ZM15.2046 15.9937L15.215 17.4752C15.2161 17.6477 15.3535 17.7881 15.5211 17.7881H22.151C22.233 17.7881 22.3106 17.7551 22.3693 17.6952C22.4265 17.6369 22.4576 17.5609 22.4571 17.4812L22.4467 15.9937H15.2046ZM21.4369 15.1394V14.3387C21.4369 13.8972 21.0822 13.5381 20.6462 13.5381H17.0259C16.5899 13.5381 16.2351 13.8973 16.2351 14.3387V15.1394H16.4649V14.3387C16.4649 14.0256 16.7165 13.7707 17.0259 13.7707H20.6462C20.9555 13.7707 21.2071 14.0255 21.2071 14.3387V15.1394H21.4369ZM11.3621 21.9669V20.4605C11.3385 20.4381 11.3154 20.4155 11.2931 20.3926C11.2856 20.3926 11.2781 20.393 11.2707 20.393C6.37901 20.393 2.39936 16.3637 2.39936 11.4111C2.39936 6.45846 6.37901 2.42921 11.2707 2.42921C16.1623 2.42921 20.142 6.45846 20.142 11.4111C20.142 11.8369 20.1122 12.2631 20.0532 12.6838H20.6462C20.9942 12.6838 21.3169 12.7948 21.5822 12.9832C21.659 12.4641 21.6976 11.9381 21.6976 11.4111C21.6976 5.59004 17.0201 0.854211 11.2707 0.854211C5.52118 0.854211 0.84375 5.5901 0.84375 11.4111C0.84375 17.2322 5.52124 21.968 11.2707 21.968C11.301 21.968 11.3317 21.9672 11.3621 21.9669ZM25.4661 25.4255V21.0519C24.4843 21.5464 22.7813 21.8924 20.6758 22.0231C20.5838 22.9688 19.7939 23.7102 18.836 23.7102C17.8785 23.7102 17.0887 22.9694 16.9963 22.0241C14.8927 21.8945 13.1896 21.5481 12.2058 21.052V25.4255C12.2058 25.8227 12.5249 26.1457 12.9172 26.1457H24.7548C25.147 26.1457 25.4661 25.8227 25.4661 25.4255Z" fill="white"/>
</svg>
