<svg width="26" height="24" viewBox="0 0 26 24" fill="none" xmlns="http://www.w3.org/2000/svg">
<path d="M25.0838 22.8156L23.4478 13.5366C23.4369 13.4874 23.4206 13.4328 23.3987 13.3892L20.672 7.93089C20.6557 7.90904 20.6393 7.88724 20.623 7.86539C20.6011 7.83264 20.5793 7.80537 20.552 7.77804C20.4975 7.73439 20.4375 7.70164 20.3776 7.66889C20.3394 7.65799 20.3012 7.64704 20.2576 7.64704C20.2357 7.64157 20.2085 7.63614 20.1866 7.63067C20.1812 7.63067 20.1758 7.63614 20.1703 7.63614C20.0994 7.64704 20.0285 7.66342 19.9576 7.68527C19.9521 7.68527 19.9467 7.68527 19.9412 7.69074C19.9194 7.70712 19.8976 7.72349 19.8813 7.73987C19.8486 7.76172 19.8158 7.78351 19.7886 7.81084C19.745 7.86544 19.7122 7.92546 19.6795 7.98549C19.6686 8.02371 19.6577 8.06189 19.6577 8.10011C19.6522 8.12739 19.6468 8.14924 19.6413 8.17651V16.6587L13.0917 22.2698V19.1204C13.0917 18.8475 12.8954 18.6018 12.6282 18.5636C12.2901 18.5145 12.001 18.7765 12.001 19.104V22.2698L5.4569 16.6532V8.17109C5.45143 8.14381 5.44601 8.12196 5.44054 8.09469C5.43507 8.05646 5.42965 8.01829 5.41871 7.98006C5.38599 7.92004 5.35327 7.85996 5.30965 7.80542C5.2824 7.77814 5.24968 7.75629 5.21696 7.73444C5.19513 7.71807 5.17877 7.70169 5.15152 7.68532C5.14605 7.68532 5.14063 7.68532 5.13516 7.67984C5.10244 7.66894 5.06972 7.65799 5.03153 7.65257C4.99334 7.64167 4.96062 7.63619 4.92248 7.63072C4.91701 7.63072 4.91159 7.62524 4.90612 7.62524C4.87887 7.63072 4.85704 7.63072 4.83521 7.64162C4.79701 7.64709 4.7534 7.65252 4.71521 7.66347C4.65524 7.69622 4.59522 7.73444 4.54072 7.77262C4.51347 7.79989 4.49164 7.83264 4.46981 7.86539C4.45345 7.88724 4.43709 7.90904 4.42073 7.93089L1.69403 13.3892C1.6722 13.4383 1.65584 13.4874 1.64495 13.5366L0.0089145 22.8156C-0.0456369 23.1103 0.156157 23.3942 0.450643 23.4487C0.657856 23.487 0.865121 23.3996 0.985063 23.2304L4.99881 17.7066L12.181 23.869C12.3828 24.0437 12.6882 24.0437 12.8899 23.869L20.0776 17.7066L24.0913 23.2304C24.2713 23.476 24.6094 23.5251 24.8548 23.3505C25.0348 23.2304 25.1166 23.023 25.0838 22.8156ZM4.36623 16.746L1.4977 20.6978L2.70837 13.8259L4.36623 10.5018V16.746ZM20.7265 16.746V10.5017L22.3844 13.8203L23.5951 20.6923L20.7265 16.746Z" fill="white"/>
<path d="M12.2083 16.8006C12.4046 16.9588 12.6882 16.9588 12.8845 16.8006C13.1408 16.5986 19.0906 11.7953 19.0906 6.80103C19.0906 3.05119 16.1566 0 12.5464 0C8.93627 0 6.00231 3.05119 6.00231 6.80645C6.00226 11.8171 11.9519 16.6041 12.2083 16.8006ZM12.5464 1.09169C15.5512 1.09169 17.9998 3.65164 17.9998 6.80103C17.9998 10.6273 13.7843 14.5791 12.5464 15.6598C11.303 14.5845 7.09293 10.6491 7.09293 6.80103C7.09293 3.65706 9.53609 1.09169 12.5464 1.09169Z" fill="white"/>
<path d="M15.8184 7.09577C15.8184 5.28907 14.3515 3.82081 12.5464 3.82081C10.7413 3.82081 9.27432 5.28907 9.27432 7.09577C9.27432 8.90248 10.7413 10.3707 12.5464 10.3707C14.3515 10.3707 15.813 8.90248 15.8184 7.09577ZM10.365 7.09577C10.365 5.88951 11.3411 4.91245 12.5464 4.91245C13.7516 4.91245 14.7278 5.88946 14.7278 7.09577C14.7278 8.30203 13.7516 9.2791 12.5464 9.2791C11.3412 9.2791 10.365 8.30203 10.365 7.09577Z" fill="white"/>
</svg>
