<svg width="24" height="24" viewBox="0 0 24 24" fill="none" xmlns="http://www.w3.org/2000/svg">
<path d="M6.91512 10.2524H22.3595C22.8125 10.2524 23.2211 10.4371 23.5179 10.7337V10.7365C23.8145 11.0333 23.9994 11.4419 23.9994 11.8921V22.3605C23.9994 22.8105 23.8145 23.2219 23.5179 23.5185C23.2211 23.8155 22.8125 24 22.3595 24H6.91512C6.46494 24 6.05357 23.8155 5.75695 23.5185C5.46014 23.2219 5.27545 22.8131 5.27545 22.3605V11.8921C5.27545 11.4419 5.46014 11.0305 5.75695 10.7337C6.05376 10.4371 6.46494 10.2524 6.91512 10.2524ZM22.3595 11.002H6.91512C6.67044 11.002 6.44919 11.1035 6.28794 11.2647C6.12651 11.4262 6.02507 11.6474 6.02507 11.8921V22.3605C6.02507 22.6052 6.12651 22.8289 6.28794 22.9903C6.449 23.1514 6.67044 23.2504 6.91512 23.2504H22.3595C22.6042 23.2504 22.8279 23.1516 22.9894 22.9903C23.1506 22.8289 23.2498 22.605 23.2498 22.3605V11.8921C23.2498 11.6474 23.1508 11.4237 22.9894 11.2623V11.2649C22.8279 11.1036 22.6042 11.002 22.3595 11.002Z" fill="white"/>
<path d="M11.5064 7.12656H17.7711C18.1277 7.12656 18.4555 7.27224 18.6898 7.50906C18.924 7.74587 19.0725 8.07137 19.0725 8.42782V11.0018H16.7406V9.4092H12.5371V11.002H10.205V8.42782C10.205 8.07137 10.3507 7.74325 10.5848 7.50906C10.8217 7.27224 11.1473 7.12656 11.5064 7.12656ZM17.7709 7.87619H11.5064C11.3553 7.87619 11.2175 7.93844 11.1158 8.04006C11.017 8.13906 10.9548 8.27688 10.9548 8.42782V10.2522H11.7875V8.65957H17.4902V10.2524H18.3229V8.428C18.3229 8.27688 18.2605 8.13906 18.1616 8.04025H18.1588C18.0598 7.93862 17.922 7.87619 17.7709 7.87619Z" fill="white"/>
<path d="M4.14071 20.3433C4.3464 20.3433 4.51552 20.5097 4.51552 20.718C4.51552 20.9235 4.3464 21.0926 4.14071 21.0926H1.12443C0.817305 21.0926 0.536245 20.9651 0.330559 20.7622V20.7596C0.127499 20.5565 0 20.2757 0 19.9657V1.12463C0 0.817506 0.127499 0.536442 0.330559 0.33094C0.533433 0.127876 0.814493 0.000375003 1.12443 0.000375003H11.6676C11.8291 0.000375003 11.98 0.0316877 12.1208 0.0941257C12.2588 0.156564 12.3837 0.247502 12.4956 0.36469L15.3248 3.39171C15.3325 3.39959 15.3377 3.40728 15.3456 3.41515C15.4364 3.51659 15.5016 3.62872 15.5485 3.74572C15.5954 3.87341 15.6214 4.00859 15.6214 4.15184V5.98936C15.6214 6.19749 15.4523 6.36417 15.2466 6.36417C15.0385 6.36417 14.8692 6.19749 14.8692 5.98936V4.15184C14.8692 4.09972 14.8641 4.05303 14.8484 4.01122C14.8328 3.97747 14.8146 3.94616 14.7912 3.91484C14.7859 3.90978 14.7805 3.90716 14.7754 3.90191L11.9489 0.874882C11.9097 0.833256 11.8656 0.801944 11.8188 0.778506C11.7747 0.760318 11.7252 0.750006 11.6678 0.750006H1.12443C1.02299 0.750006 0.929241 0.791631 0.861555 0.861944L0.85893 0.859319C0.791243 0.92682 0.749618 1.0232 0.749618 1.12463V19.9657C0.749618 20.0698 0.791243 20.1635 0.85893 20.2312L0.861555 20.2338C0.929241 20.2991 1.0228 20.3433 1.12443 20.3433H4.14071Z" fill="white"/>
<path d="M13.2788 17.0848L6.84762 15.8637C6.413 15.7831 6.01194 15.5932 5.72339 15.3042C5.4472 15.0284 5.27545 14.6667 5.27545 14.2319H6.02507C6.02507 14.4532 6.11376 14.6354 6.25419 14.7761C6.43382 14.9529 6.69669 15.0753 6.98562 15.1299L13.4168 16.3505L13.2788 17.0848ZM23.9992 14.2319C23.9992 14.6666 23.8275 15.0258 23.5515 15.3016V15.3042C23.2625 15.5932 22.8619 15.7833 22.4299 15.8637L15.9985 17.0949L15.858 16.361L22.2892 15.1299C22.5808 15.0727 22.8437 14.9531 23.0231 14.7761C23.1637 14.6354 23.2496 14.453 23.2496 14.2319H23.9992Z" fill="white"/>
<path d="M9.55173 3.3499C9.75985 3.3499 9.92653 3.51659 9.92653 3.72472C9.92653 3.93041 9.75985 4.09953 9.55173 4.09953H4.32052C4.11221 4.09953 3.94553 3.93041 3.94553 3.72472C3.94553 3.51659 4.11221 3.3499 4.32052 3.3499H9.55173ZM2.53479 3.3499C2.7431 3.3499 2.91241 3.51659 2.91241 3.72472C2.91241 3.93041 2.74329 4.09953 2.53479 4.09953H2.25392C2.04804 4.09953 1.87892 3.93041 1.87892 3.72472C1.87892 3.51659 2.04804 3.3499 2.25392 3.3499H2.53479Z" fill="white"/>
<path d="M7.08687 6.75174C7.29256 6.75174 7.46168 6.92068 7.46168 7.12656C7.46168 7.33468 7.29256 7.50118 7.08687 7.50118H4.32034C4.11221 7.50118 3.94553 7.33468 3.94553 7.12656C3.94553 6.92087 4.11221 6.75174 4.32034 6.75174H7.08687ZM2.53498 6.75174C2.7431 6.75174 2.91241 6.92068 2.91241 7.12656C2.91241 7.33468 2.74329 7.50118 2.53498 7.50118H2.25392C2.04823 7.50118 1.87892 7.33468 1.87892 7.12656C1.87892 6.92087 2.04804 6.75174 2.25392 6.75174H2.53498Z" fill="white"/>
<path d="M9.55173 5.05204C9.75985 5.05204 9.92653 5.21873 9.92653 5.42686C9.92653 5.63236 9.75985 5.80167 9.55173 5.80167H4.32052C4.11221 5.80167 3.94553 5.63254 3.94553 5.42686C3.94553 5.21873 4.11221 5.05204 4.32052 5.05204H9.55173ZM2.53479 5.05204C2.7431 5.05204 2.91241 5.21873 2.91241 5.42686C2.91241 5.63236 2.74329 5.80167 2.53479 5.80167H2.25392C2.04804 5.80167 1.87892 5.63254 1.87892 5.42686C1.87892 5.21873 2.04804 5.05204 2.25392 5.05204H2.53479Z" fill="white"/>
<path d="M12.053 0.138189L15.4649 3.84191C15.6029 3.99284 15.5952 4.22966 15.4414 4.3701C15.3711 4.43516 15.2804 4.4691 15.189 4.4691H12.8389C12.4383 4.4691 12.0764 4.30503 11.8135 4.04234C11.8058 4.03447 11.7978 4.02678 11.7901 4.01891C11.5401 3.75847 11.3866 3.40465 11.3866 3.01671V0.37519C11.3866 0.169501 11.5533 0.000375003 11.7616 0.000375003C11.8784 0.000375003 11.9826 0.0549379 12.053 0.138189ZM14.3356 3.71965L12.1362 1.33539V3.0169C12.1362 3.20421 12.2091 3.37334 12.3263 3.49821C12.3314 3.50347 12.3368 3.50872 12.3421 3.51397C12.4696 3.64147 12.6464 3.71947 12.8389 3.71947L14.3356 3.71965Z" fill="white"/>
<path d="M17.0423 2.01995C17.0007 2.22283 16.803 2.35296 16.6 2.30889C16.3969 2.26708 16.2668 2.06945 16.3084 1.86883L16.639 0.29944C16.6753 0.122626 16.8315 0 17.0059 0H18.3176C18.5076 0 18.664 0.140626 18.6898 0.325315L18.9656 1.63708C19.1582 1.69183 19.3457 1.75689 19.5278 1.83226C19.7126 1.90783 19.8921 1.99633 20.0638 2.0927L21.2117 1.34307C21.36 1.2467 21.5552 1.27013 21.6774 1.39257H21.6802L22.1435 1.85589C22.1486 1.86376 22.1565 1.86901 22.1619 1.8767L22.6069 2.32183C22.7368 2.44933 22.7501 2.6524 22.6487 2.79808L21.9067 3.93528C22.0055 4.10722 22.0916 4.28666 22.1696 4.47154C22.2425 4.6536 22.3076 4.8411 22.3622 5.03366L23.7 5.31735C23.8848 5.35373 24.0097 5.52042 23.9994 5.70248V6.9938C23.9994 7.18374 23.859 7.34256 23.6741 7.36599L22.3624 7.64181C22.3078 7.837 22.2425 8.0245 22.1698 8.20394C22.0605 8.46682 21.9304 8.71657 21.7821 8.94851C21.6729 9.12532 21.4412 9.17745 21.2642 9.06551C21.0898 8.95357 21.0379 8.722 21.1496 8.54744C21.2773 8.34719 21.3866 8.13625 21.4777 7.91781C21.5662 7.70425 21.6364 7.48562 21.6885 7.26193C21.7119 7.11362 21.8263 6.99118 21.98 6.95743L23.2498 6.69193V6.33792H23.2524V5.98655L21.9797 5.71842C21.8419 5.68992 21.7247 5.58304 21.6907 5.43473C21.6412 5.20317 21.5685 4.97929 21.4774 4.75822C21.3862 4.5396 21.2769 4.32866 21.1492 4.12841C21.0739 4.00859 21.0712 3.85241 21.1519 3.7249L21.8627 2.63702L21.6334 2.40546C21.6257 2.40039 21.6206 2.39496 21.6126 2.38708L21.3628 2.13733L20.2982 2.83221C20.1759 2.92577 20.0066 2.93627 19.8716 2.8504C19.6712 2.7229 19.4604 2.61358 19.2418 2.52246C19.0283 2.43396 18.8072 2.36364 18.5833 2.31171C18.4376 2.28827 18.3126 2.17633 18.2815 2.02014L18.013 0.749818H17.3076L17.1853 1.33801L17.0423 2.01995ZM17.6618 4.01628C17.4535 4.01628 17.2868 3.84959 17.2868 3.64147C17.2868 3.43334 17.4535 3.26665 17.6618 3.26665C18.51 3.26665 19.2778 3.61034 19.8349 4.16722C20.3893 4.72166 20.7328 5.48948 20.7328 6.33792C20.7328 6.5618 20.7094 6.78305 20.6625 6.9938C20.6156 7.20962 20.5453 7.41812 20.4546 7.61837C20.3685 7.80587 20.1473 7.88912 19.9573 7.80325C19.77 7.71719 19.6892 7.49593 19.7753 7.30862C19.8428 7.16293 19.8949 7.00412 19.9313 6.83743C19.9652 6.67618 19.9834 6.50949 19.9834 6.33774C19.9834 5.69742 19.7231 5.11692 19.3041 4.69541C18.8824 4.27672 18.3019 4.01628 17.6618 4.01628Z" fill="white"/>
<path d="M13.4013 14.2426H15.8762C16.0716 14.2426 16.2484 14.3232 16.3761 14.4506L16.3787 14.4532C16.5064 14.5811 16.5868 14.7605 16.5868 14.9557V17.699C16.5868 18.2351 16.3684 18.7218 16.0142 19.0756C15.663 19.4298 15.1737 19.6485 14.6374 19.6485C14.1012 19.6485 13.6144 19.4298 13.2606 19.0756C12.9091 18.7218 12.6878 18.2353 12.6878 17.699V14.9557C12.6878 14.7605 12.7686 14.5807 12.8988 14.4532V14.4506C13.0289 14.3232 13.2061 14.2426 13.4013 14.2426ZM15.8374 14.9922H13.4403V17.699C13.4403 18.0268 13.573 18.3288 13.7916 18.545C14.0102 18.7636 14.3097 18.8988 14.6374 18.8988C14.9682 18.8988 15.2672 18.7636 15.4859 18.545C15.7019 18.329 15.8374 18.0268 15.8374 17.699V14.9922Z" fill="white"/>
<path d="M14.6372 18.0241C14.8442 18.0241 15.0121 17.8563 15.0121 17.6493C15.0121 17.4423 14.8442 17.2745 14.6372 17.2745C14.4302 17.2745 14.2624 17.4423 14.2624 17.6493C14.2624 17.8563 14.4302 18.0241 14.6372 18.0241Z" fill="white"/>
</svg>
