<svg width="26" height="26" viewBox="0 0 26 26" fill="none" xmlns="http://www.w3.org/2000/svg">
<path d="M13.0497 2.45014H14.7742C14.9808 2.45014 15.1494 2.61819 15.1494 2.82535V4.59324M9.25948 4.59324V2.82535C9.25948 2.61819 9.42801 2.45014 9.63469 2.45014H11.3596M16.601 4.59309V2.82521C16.601 1.8188 15.7814 1 14.774 1H9.63493C8.62751 1 7.80789 1.8188 7.80789 2.82521V4.59309M22.4826 10.401V14.3823M1.9262 14.9301V10.401M1.9262 18.9363V16.6203M13.9814 21.7372H4.82798M5.24322 10.967L1.56209 10.0814C1.23227 10.0017 1 9.70712 1 9.36813V5.45714C1 5.05199 1.32885 4.72362 1.734 4.72362H22.6748C23.08 4.72362 23.4089 5.05199 23.4089 5.45714V9.36813C23.4089 9.70712 23.1766 10.0017 22.8468 10.0814L14.695 12.0424M9.79115 12.0608L6.89135 11.3635M13.5915 13.4688V14.0631C13.5915 14.8276 12.9718 15.4474 12.2072 15.4474H12.2016C11.4371 15.4474 10.8173 14.8276 10.8173 14.0631V13.4688M21.702 22.5345C21.0273 23.0371 20.1905 23.3346 19.2842 23.3346C17.0482 23.3346 15.2356 21.5238 15.2356 19.29C15.2356 17.0563 17.0482 15.2455 19.2842 15.2455C21.5202 15.2455 23.3329 17.0563 23.3329 19.29C23.3329 19.9245 23.1867 20.5248 22.9261 21.0592M19.8173 18.6792L21.0049 17.3183M20.6656 20.67L19.8513 19.8565M19.2843 15.2938V16.2566M23.2846 19.29H22.3207M19.2843 23.2863V22.3234M15.2839 19.29H16.2478M25 19.29C25 22.4436 22.441 25 19.2843 25C16.1276 25 13.5686 22.4436 13.5686 19.29C13.5686 16.1365 16.1276 13.5801 19.2843 13.5801C22.441 13.5801 25 16.1365 25 19.29ZM19.9987 19.29C19.9987 19.6842 19.6789 20.0038 19.2843 20.0038C18.8897 20.0038 18.5698 19.6842 18.5698 19.29C18.5698 18.8959 18.8897 18.5763 19.2843 18.5763C19.6789 18.5763 19.9987 18.8959 19.9987 19.29ZM1.6466 19.0178H4.22513C4.47488 19.0178 4.67736 19.2201 4.67736 19.4696V22.043C4.67736 22.1678 4.5761 22.2689 4.45122 22.2689H2.07247C1.69484 22.2689 1.38989 21.9608 1.39414 21.5835L1.42051 19.2411C1.42186 19.1173 1.52269 19.0178 1.6466 19.0178ZM13.9286 13.3638H10.4803C10.0997 13.3638 9.7911 13.0552 9.7911 12.6746V11.2976C9.7911 10.917 10.0997 10.6085 10.4803 10.6085H13.9286C14.3092 10.6085 14.6178 10.917 14.6178 11.2976V12.6746C14.6178 13.0552 14.3092 13.3638 13.9286 13.3638Z" stroke="white" stroke-miterlimit="10" stroke-linecap="round" stroke-linejoin="round"/>
</svg>
