<svg width="26" height="26" viewBox="0 0 26 26" fill="none" xmlns="http://www.w3.org/2000/svg">
<path d="M6.34027 10.3755L12.8399 12.9745C12.9429 13.0154 13.0576 13.0154 13.1606 12.9745L19.6602 10.3755C19.7409 10.3434 19.81 10.2878 19.8587 10.216C19.9073 10.1442 19.9333 10.0594 19.9332 9.97262V5.61064L23.9674 4.31114C24.054 4.28266 24.1295 4.22754 24.183 4.15365C24.2366 4.07975 24.2654 3.99086 24.2654 3.89963C24.2654 3.80841 24.2366 3.71951 24.183 3.64562C24.1295 3.57173 24.054 3.51661 23.9674 3.48813L13.1346 0.0227996C13.0491 -0.00759987 12.9558 -0.00759987 12.8703 0.0227996L2.0375 3.48813C1.95081 3.51661 1.87532 3.57173 1.82181 3.64562C1.7683 3.71951 1.73949 3.80841 1.73949 3.89963C1.73949 3.99086 1.7683 4.07975 1.82181 4.15365C1.87532 4.22754 1.95081 4.28266 2.0375 4.31114L2.6008 4.49307V8.23995C2.49368 8.23931 2.39012 8.27835 2.3101 8.34954C2.23008 8.42073 2.17927 8.51904 2.16749 8.62547L1.73418 12.524C1.72736 12.5847 1.73348 12.6463 1.75215 12.7045C1.77083 12.7627 1.80162 12.8164 1.84251 12.8618C1.88351 12.9073 1.93367 12.9435 1.98968 12.9681C2.0457 12.9927 2.1063 13.0052 2.16749 13.0048H3.90074C3.96193 13.0052 4.02253 12.9927 4.07855 12.9681C4.13456 12.9435 4.18472 12.9073 4.22572 12.8618C4.26584 12.816 4.29584 12.7622 4.31376 12.704C4.33168 12.6458 4.33712 12.5844 4.32971 12.524L3.8964 8.62547C3.8847 8.51978 3.83452 8.42208 3.75541 8.35099C3.6763 8.27989 3.5738 8.24037 3.46742 8.23995V4.77463L6.06729 5.60631V9.97262C6.06721 10.0594 6.09318 10.1442 6.14185 10.216C6.19053 10.2878 6.25965 10.3434 6.34027 10.3755ZM2.6528 12.1384L2.99078 9.10629H3.08178L3.41543 12.1384H2.6528ZM19.0666 9.67807L13.0003 12.1038L6.93391 9.67807V5.88786L12.8703 7.80679C12.9134 7.81332 12.9572 7.81332 13.0003 7.80679C13.0458 7.80591 13.0911 7.79862 13.1346 7.78513L19.0666 5.88786V9.67807ZM13.0003 0.897795L22.4118 3.92996L13.0003 6.94046L3.58875 3.9083L13.0003 0.897795Z" fill="white"/>
<path d="M25.003 16.0369H16.2414C15.8857 15.5008 15.4028 15.0611 14.8357 14.7568C14.2687 14.4526 13.6351 14.2934 12.9916 14.2934C12.3481 14.2934 11.7145 14.4526 11.1475 14.7568C10.5804 15.0611 10.0975 15.5008 9.74176 16.0369H0.945556C0.863883 16.0372 0.783938 16.0605 0.714939 16.1042C0.64594 16.1478 0.590696 16.2101 0.555577 16.2838L0.334588 16.743C0.114383 17.1981 0 17.6972 0 18.2028C0 18.7084 0.114383 19.2074 0.334588 19.6625L0.555577 20.1217C0.590696 20.1954 0.64594 20.2577 0.714939 20.3014C0.783938 20.3451 0.863883 20.3684 0.945556 20.3686H9.7591C9.91398 20.5976 10.0926 20.8096 10.2921 21.001L7.86553 23.4224C7.80983 23.478 7.77032 23.5477 7.75123 23.624C7.73215 23.7003 7.73421 23.7804 7.7572 23.8556C7.7803 23.9311 7.82358 23.9988 7.88239 24.0515C7.94119 24.1042 8.01327 24.1398 8.09085 24.1545L9.33445 24.4014L9.58577 25.6532C9.60119 25.73 9.63714 25.8011 9.68979 25.8591C9.74243 25.9171 9.80981 25.9597 9.88476 25.9824C9.92642 25.9885 9.96875 25.9885 10.0104 25.9824C10.0674 25.9828 10.124 25.9718 10.1768 25.9503C10.2296 25.9287 10.2776 25.897 10.3181 25.8568L12.7836 23.4008L15.2491 25.8698C15.2896 25.91 15.3377 25.9417 15.3904 25.9633C15.4432 25.9848 15.4998 25.9958 15.5568 25.9954C15.5985 26.0015 15.6408 26.0015 15.6825 25.9954C15.7574 25.9727 15.8248 25.9301 15.8774 25.8721C15.9301 25.8141 15.966 25.743 15.9814 25.6662L16.2328 24.4144L17.4764 24.1675C17.5539 24.1528 17.626 24.1171 17.6848 24.0645C17.7436 24.0118 17.7869 23.9441 17.81 23.8686C17.833 23.7934 17.8351 23.7133 17.816 23.637C17.7969 23.5607 17.7574 23.491 17.7017 23.4354L15.4831 21.2219C15.7754 20.9752 16.0307 20.6878 16.2414 20.3686H25.003C25.0717 20.3683 25.1394 20.3516 25.2004 20.32C25.2615 20.2883 25.3141 20.2427 25.354 20.1867C25.7738 19.6103 26 18.9157 26 18.2028C26 17.4898 25.7738 16.7952 25.354 16.2189C25.3141 16.1629 25.2615 16.1172 25.2004 16.0856C25.1394 16.0539 25.0717 16.0373 25.003 16.0369ZM1.21854 19.5023L1.11455 19.29C0.953262 18.9518 0.869565 18.5818 0.869565 18.2071C0.869565 17.8324 0.953262 17.4624 1.11455 17.1242L1.21854 16.9033H9.33012C9.02408 17.7426 9.02408 18.6629 9.33012 19.5023H1.21854ZM10.2747 24.7003L10.1274 23.9595C10.1101 23.8757 10.0684 23.7989 10.0075 23.7388C9.94654 23.6786 9.86916 23.6379 9.7851 23.6217L9.0528 23.4744L10.9854 21.5468C11.5548 21.8921 12.2045 22.0832 12.8703 22.1013L10.2747 24.7003ZM16.5144 23.4744L15.7821 23.6217C15.698 23.6379 15.6207 23.6786 15.5597 23.7388C15.4988 23.7989 15.4571 23.8757 15.4398 23.9595L15.2925 24.7003L13.3946 22.7943L14.3262 21.863C14.4663 21.8124 14.6037 21.7545 14.7378 21.6898L16.5144 23.4744ZM13.0003 21.2349C12.4004 21.2349 11.8139 21.0571 11.3151 20.7239C10.8163 20.3907 10.4275 19.9172 10.198 19.3631C9.9684 18.8091 9.90833 18.1994 10.0254 17.6112C10.1424 17.023 10.4313 16.4828 10.8555 16.0587C11.2797 15.6347 11.8201 15.3459 12.4085 15.2289C12.9969 15.1119 13.6068 15.1719 14.161 15.4014C14.7152 15.6309 15.189 16.0196 15.5223 16.5182C15.8555 17.0168 16.0334 17.6031 16.0334 18.2028C16.0334 19.0069 15.7139 19.7782 15.145 20.3468C14.5762 20.9155 13.8047 21.2349 13.0003 21.2349ZM24.769 19.5023H16.6747C16.9753 18.662 16.9753 17.7436 16.6747 16.9033H24.769C25.0069 17.295 25.1328 17.7445 25.1328 18.2028C25.1328 18.6611 25.0069 19.1105 24.769 19.5023Z" fill="white"/>
<path d="M13.0003 16.0369C12.5718 16.0369 12.1529 16.164 11.7966 16.4019C11.4403 16.6399 11.1626 16.9782 10.9986 17.3739C10.8346 17.7697 10.7917 18.2052 10.8753 18.6253C10.9589 19.0454 11.1653 19.4313 11.4683 19.7342C11.7713 20.0371 12.1573 20.2434 12.5776 20.327C12.9979 20.4106 13.4335 20.3677 13.8294 20.2037C14.2253 20.0398 14.5636 19.7622 14.8017 19.406C15.0397 19.0499 15.1668 18.6311 15.1668 18.2028C15.1668 17.6284 14.9386 17.0775 14.5322 16.6713C14.1259 16.2651 13.5749 16.0369 13.0003 16.0369ZM13.0003 19.5023C12.7432 19.5023 12.4918 19.4261 12.2781 19.2833C12.0643 19.1405 11.8977 18.9375 11.7993 18.7001C11.7009 18.4626 11.6751 18.2013 11.7253 17.9493C11.7755 17.6972 11.8993 17.4656 12.0811 17.2839C12.2629 17.1021 12.4945 16.9784 12.7467 16.9282C12.9988 16.8781 13.2602 16.9038 13.4977 17.0022C13.7353 17.1005 13.9383 17.2671 14.0811 17.4808C14.224 17.6945 14.3002 17.9458 14.3002 18.2028C14.3002 18.5474 14.1632 18.8779 13.9195 19.1217C13.6757 19.3654 13.345 19.5023 13.0003 19.5023Z" fill="white"/>
</svg>
