<svg width="60" height="60" viewBox="0 0 60 60" fill="none" xmlns="http://www.w3.org/2000/svg">
<path d="M0.933126 38.6101L6.15863 39.2668C6.62519 41.0493 7.3717 42.7379 8.30482 44.3328L5.03888 48.5545C4.75894 48.9298 4.75894 49.4927 5.13219 49.7741L10.1711 54.8401C10.451 55.2154 11.0109 55.2154 11.3841 54.934L15.5832 51.6504C17.1695 52.5886 18.8491 53.3391 20.6221 53.8082L21.2753 59.1557C21.3686 59.6247 21.7418 60 22.2084 60H29.3002C29.7667 60 30.14 59.6247 30.2333 59.1557L30.8865 53.8082C31.2597 53.7144 31.7263 53.6205 32.0995 53.4329C32.5661 53.2453 32.846 52.7762 32.6594 52.2133C32.4728 51.7442 32.0062 51.4628 31.4463 51.6504C30.8865 51.838 30.3266 52.0257 29.7667 52.1195C29.3935 52.2133 29.1135 52.4948 29.0202 52.9638L28.367 58.1237H22.9549L22.3017 52.9638C22.2084 52.5886 21.9285 52.2133 21.5552 52.1195C19.5023 51.6504 17.6361 50.8999 15.8631 49.7741C15.4899 49.5865 15.1166 49.5865 14.7434 49.8679L10.7309 53.0576L6.90513 49.2112L10.0778 45.1771C10.3577 44.8957 10.3577 44.4266 10.1711 44.0514C9.05132 42.2689 8.30482 40.3925 7.83826 38.3286C7.74495 37.9533 7.46501 37.6719 6.99845 37.5781L1.86625 36.9214V31.4801L6.99845 30.8234C7.3717 30.7295 7.74495 30.4481 7.83826 30.0728C8.30482 28.0089 9.05132 26.1326 10.1711 24.3501C10.3577 23.9748 10.3577 23.5996 10.0778 23.2243L6.90513 19.1902L10.7309 15.3438L14.7434 18.5335C15.0233 18.815 15.4899 18.815 15.8631 18.6273C17.6361 17.5015 19.5023 16.751 21.5552 16.2819C21.9285 16.1881 22.2084 15.9067 22.3017 15.4376L22.9549 10.2778H28.367L29.0202 15.4376C29.1135 15.8129 29.3935 16.1881 29.7667 16.2819C31.8196 16.751 33.6858 17.5015 35.4588 18.6273C35.832 18.815 36.2053 18.815 36.5785 18.5335L40.591 15.3438L41.804 16.5634L37.7916 20.6913C37.4184 21.0665 37.4184 21.6294 37.7916 22.0047C38.1649 22.38 38.7247 22.38 39.098 22.0047L43.1104 17.8768L44.4168 19.1902L41.2442 23.2243C40.9642 23.5057 40.9642 23.9748 41.1509 24.3501C41.6174 25.1006 42.084 26.0388 42.4572 26.8831C42.7372 27.5398 43.0171 28.1965 43.2037 28.947H39.7512C39.1913 28.947 38.818 29.3223 38.818 29.8852V32.6059C38.818 34.1069 39.6579 35.4203 40.9642 35.9832V39.0791C40.9642 41.7998 42.7372 44.239 45.2566 45.0833C49.3624 46.3967 53.5614 43.3946 53.5614 39.0791V35.9832C57.2006 34.2945 55.8942 28.947 52.0684 28.947H45.1633C44.9767 27.9151 44.1369 25.7573 43.1104 23.9748L46.3764 19.7531C46.6563 19.3779 46.6563 18.815 46.2831 18.5335L44.4168 16.6572L47.1229 13.9366L52.4417 16.0005C52.8149 16.0943 53.1882 16.0943 53.4681 15.8129L59.7201 9.52722C60.1866 9.05815 60 8.21381 59.4401 8.02618L54.1213 5.96223L52.0684 0.614746C51.7885 -0.0419631 51.042 -0.229594 50.5754 0.333299L44.1369 6.43131C43.8569 6.71276 43.7636 7.08802 43.9502 7.46328L45.9098 12.4355L43.1104 15.25L41.2442 13.3737C40.8709 12.9984 40.4044 12.9984 40.0311 13.2798L35.832 16.5634C34.2457 15.6252 32.5661 14.8747 30.7932 14.4056L30.14 9.24578C30.0467 8.7767 29.6734 8.40144 29.2068 8.40144H22.1151C21.6485 8.40144 21.2753 8.7767 21.182 9.24578L20.5288 14.5933C18.7558 15.0623 17.0762 15.8129 15.4899 16.751L11.3841 13.2798C11.0109 12.9984 10.451 12.9984 10.1711 13.3737L5.13219 18.4397C4.75894 18.815 4.75894 19.284 5.03888 19.6593L8.30482 23.881C7.3717 25.4759 6.62519 27.1646 6.15863 28.947L0.839813 29.6038C0.37325 29.6976 0 30.0728 0 30.5419V37.6719C0.0933126 38.141 0.466563 38.5162 0.933126 38.6101ZM51.6952 38.9853C51.6952 42.0812 48.7092 44.1452 45.8165 43.207C44.0435 42.6441 42.8305 40.8616 42.8305 38.9853V36.2647H51.6952V38.9853ZM52.0684 30.7295C53.0949 30.7295 53.8414 31.5739 53.8414 32.512C53.8414 33.544 53.0016 34.2945 52.0684 34.2945C41.6174 34.2945 42.4572 34.2945 42.084 34.2945C41.2442 34.1069 40.6843 33.3564 40.6843 32.512V30.7295H52.0684ZM57.2939 9.05815L52.4417 13.9366L48.7092 12.4355L53.5614 7.5571L57.2939 9.05815ZM50.7621 2.39724L52.2551 6.24368L47.3095 11.1221L45.8165 7.27565L50.7621 2.39724Z" fill="#FF6D3E"/>
<path d="M29.4868 25.7573C29.9533 25.945 30.5132 25.7573 30.6998 25.2882C30.8865 24.8192 30.6998 24.2563 30.2333 24.0686C23.0482 20.7851 14.7434 26.0388 14.7434 34.1069C14.7434 40.2049 19.689 45.0833 25.661 45.0833C33.6858 45.0833 39.0047 36.6399 35.5521 29.4161C35.3655 28.947 34.8056 28.7594 34.339 28.9471C33.8725 29.1347 33.6858 29.6976 33.8725 30.1667C34.4323 31.3863 34.7123 32.6997 34.7123 34.0131C34.7123 39.0791 30.6065 43.1132 25.661 43.1132C20.6221 43.1132 16.6096 38.9853 16.6096 34.0131C16.6096 27.446 23.4215 23.0367 29.4868 25.7573Z" fill="#FF6D3E"/>
<path d="M60 53.2453C60 48.9298 56.4541 45.271 52.1617 45.1771C51.8818 45.1771 51.6952 45.271 51.5086 45.4586L47.2162 49.7741L42.9238 45.4586C42.7372 45.271 42.4572 45.1771 42.2706 45.1771C37.9782 45.271 34.4324 48.8359 34.4324 53.2453V58.3113C34.4324 59.2495 35.1789 60 36.112 60H58.2271C59.1602 60 59.9067 59.2495 59.9067 58.3113V53.2453H60ZM54.6812 58.1237V54.8401C54.6812 54.2772 54.3079 53.902 53.7481 53.902C53.1882 53.902 52.8149 54.2772 52.8149 54.8401V58.1237H41.7107V54.8401C41.7107 54.2772 41.3375 53.902 40.7776 53.902C40.2177 53.902 39.8445 54.2772 39.8445 54.8401V58.1237H36.3919V53.2453C36.3919 50.0555 38.9114 47.3349 41.9907 47.1473C46.7496 51.838 46.563 52.1195 47.3095 52.1195C47.4028 52.1195 47.6827 52.1195 47.9627 51.838L52.6283 47.1473C55.7076 47.4287 58.2271 50.0555 58.2271 53.2453V58.1237H54.6812Z" fill="#FF6D3E"/>
<path d="M38.6314 27.2584C39.098 26.9769 39.1913 26.414 38.9114 25.945C36.112 21.2542 31.1664 18.5335 25.661 18.5335C17.0762 18.5335 10.1711 25.4759 10.1711 34.1069C10.1711 42.7379 17.1695 49.6803 25.661 49.6803C31.7263 49.6803 37.2317 46.1153 39.7512 40.5802C39.9378 40.1111 39.7512 39.5482 39.2846 39.3606C38.818 39.1729 38.2582 39.3606 38.0715 39.8297C35.832 44.7081 30.9798 47.8978 25.661 47.8978C18.1026 47.8978 12.0373 41.706 12.0373 34.2007C12.0373 26.0388 18.6625 20.5975 25.661 20.5036C28.7403 20.5036 31.9129 21.5356 34.619 23.881L25.2877 33.3564V29.2285C25.2877 28.6656 24.9145 28.2903 24.3546 28.2903C23.7947 28.2903 23.4215 28.6656 23.4215 29.2285V35.5141C23.4215 35.8894 23.6081 36.1708 23.9813 36.3585C24.3546 36.4523 24.0747 36.4523 30.6998 36.4523C31.2597 36.4523 31.633 36.077 31.633 35.5141C31.633 34.9512 31.2597 34.576 30.6998 34.576H26.5941L36.0187 25.1006C36.4852 25.6635 36.9518 26.3202 37.4184 26.9769C37.605 27.3522 38.1649 27.5398 38.6314 27.2584Z" fill="#FF6D3E"/>
</svg>
