<svg width="60" height="60" viewBox="0 0 60 60" fill="none" xmlns="http://www.w3.org/2000/svg">
<path d="M14.25 20.25C13.5938 24.9375 14.8125 29.9062 18.375 33.8438C21.1875 37.0312 22.7812 40.875 22.7812 44.8125H22.125C21.5625 44.8125 21.1875 45.1875 21.1875 45.75V53.9062C21.1875 54.4688 21.5625 54.8438 22.125 54.8438H24.75C25.2188 57.75 27.75 60 30.75 60C33.75 60 36.2812 57.75 36.75 54.8438H39.375C39.9375 54.8438 40.3125 54.4688 40.3125 53.9062V45.75C40.3125 45.1875 39.9375 44.8125 39.375 44.8125H38.8125C38.9062 43.4062 39.0938 42.0938 39.4688 40.7812C39.5625 40.3125 39.2812 39.75 38.8125 39.6562C38.3438 39.5625 37.7813 39.8438 37.6875 40.3125C37.3125 41.8125 37.0313 43.3125 36.9375 44.8125H34.4063V39.375C34.4063 38.8125 34.0313 38.4375 33.4688 38.4375C32.9063 38.4375 32.5312 38.8125 32.5312 39.375V44.8125H29.1562V39.375C29.1562 38.8125 28.7812 38.4375 28.2187 38.4375C27.6562 38.4375 27.2813 38.8125 27.2813 39.375V44.8125H24.75C24.75 40.4062 22.9688 36.0938 19.875 32.625C16.7813 29.25 15.4688 24.6562 16.3125 20.0625C17.4375 13.4062 23.3438 7.78125 30.9375 7.78125C39.0938 7.78125 45.8438 14.3438 45.8438 22.5938C45.8438 26.25 44.5312 29.8125 42 32.5313C41.0625 33.5625 40.2188 34.7813 39.5625 36C39.2812 36.4688 39.4688 37.0312 39.9375 37.3125C40.4062 37.5938 40.9688 37.4062 41.25 36.9375C41.9062 35.8125 42.6562 34.7812 43.5 33.75C46.2188 30.6562 47.8125 26.7188 47.8125 22.5938C47.8125 13.2188 40.2188 5.90625 31.125 5.90625C22.125 6 15.4688 12.1875 14.25 20.25ZM30.8438 58.125C28.875 58.125 27.1875 56.7188 26.7188 54.8438H34.875C34.5 56.7188 32.8125 58.125 30.8438 58.125ZM23.0625 46.6875H38.4375V48.9375H23.0625V46.6875ZM23.0625 50.8125H38.4375V53.0625H23.0625V50.8125Z" fill="#FF6D3E"/>
<path d="M36.4688 22.7812C36.4688 19.5938 33.9375 17.0625 30.75 17.0625C27.5625 17.0625 25.0312 19.5938 25.0312 22.7812C25.0312 25.9688 27.5625 28.5 30.75 28.5C33.9375 28.5 36.4688 25.875 36.4688 22.7812ZM27 22.7812C27 20.625 28.6875 18.9375 30.8438 18.9375C32.9062 18.9375 34.6875 20.625 34.6875 22.7812C34.6875 24.9375 33 26.625 30.8438 26.625C28.6875 26.625 27 24.8438 27 22.7812Z" fill="#FF6D3E"/>
<path d="M29.25 35.5313H32.4375C33.5625 35.5313 34.4063 34.6875 34.4063 33.5625C34.5 31.5938 34.3125 31.5938 34.5 31.5C36.2812 30.75 36.5625 30.1875 36.75 30.2813L38.4375 31.2188C39.375 31.7812 40.5938 31.4063 41.1563 30.4688L42.75 27.75C43.3125 26.8125 42.9375 25.5938 42 25.0313C41.8125 24.9375 40.2188 24 40.3125 24.0938L40.2188 24C40.3125 23.1563 40.3125 22.125 40.2188 21.4688C40.2188 21.375 40.5 21.2813 41.9063 20.4375C42.8438 19.875 43.2188 18.6562 42.6562 17.7188L41.0625 15C40.5 14.0625 39.2813 13.7813 38.3438 14.25L36.6562 15.1875H36.5625C35.1562 14.0625 34.4063 14.0625 34.4063 13.875V11.9063C34.4063 10.7812 33.5625 9.9375 32.4375 9.9375H29.25C28.125 9.9375 27.2813 10.7812 27.2813 11.9063C27.2813 13.9688 27.375 13.875 27.1875 13.9688C25.5938 14.625 25.125 15.2813 25.0313 15.1875C23.7188 14.5313 23.0625 13.6875 21.8438 14.0625C21.375 14.1563 20.9062 14.5313 20.625 15L18.9375 17.8125C18.375 18.75 18.75 19.9688 19.6875 20.5313L21.375 21.4688C21.4688 21.5625 21.4688 21.6563 21.375 21.5625C21.2812 22.6875 21.2812 23.25 21.375 24.1875L19.6875 25.125C18.75 25.6875 18.4688 26.9063 18.9375 27.8438L20.5312 30.5625C21.0938 31.5 22.3125 31.875 23.25 31.3125C24.9375 30.375 24.9375 30.2813 25.0313 30.375C26.4375 31.4063 27.1875 31.5 27.1875 31.6875V33.6563C27.2813 34.5938 28.125 35.5313 29.25 35.5313ZM24.9375 28.4063C24.0938 28.4063 23.7188 28.875 22.3125 29.625C22.3125 29.625 22.2188 29.625 22.125 29.625C20.625 27 20.4375 26.9063 20.625 26.7188L22.3125 25.7813C22.9688 25.4063 23.3438 24.6563 23.25 23.8125C23.1562 23.1562 23.1562 22.5 23.25 21.75C23.3438 21 22.9688 20.1563 22.3125 19.7813L20.625 18.8438C20.4375 18.75 20.7188 18.5625 22.2188 16.0313C22.3125 15.8438 22.5938 16.125 24 16.9688C24.6562 17.3438 25.5 17.3438 26.25 16.7813C26.8125 16.4063 27.375 16.0312 27.9375 15.8438C28.6875 15.5625 29.1562 14.8125 29.1562 13.9688C29.1562 12.1875 29.0625 11.9063 29.25 11.9063C32.3438 12 32.5312 11.8125 32.5312 12V13.9688C32.5312 14.7188 33 15.4688 33.75 15.8438C34.3125 16.125 34.875 16.4063 35.4375 16.7813C36.0938 17.25 36.9375 17.3438 37.5938 16.9688L39.2812 16.0313C39.4688 15.9375 39.375 16.125 40.9688 18.75V18.8438L39.2812 19.7813C38.625 20.1563 38.1563 21 38.3438 21.75C38.4375 22.3125 38.4375 23.0625 38.3438 23.8125C38.25 24.5625 38.625 25.3125 39.2812 25.7813C40.875 26.7188 41.0625 26.7188 40.9688 26.9063C39.375 29.625 39.4688 29.7188 39.2812 29.625L37.5938 28.6875C36.9375 28.3125 36 28.3125 35.3438 28.875C34.875 29.25 34.3125 29.5312 33.6563 29.8125C32.9063 30.0938 32.3438 30.8438 32.3438 31.6875C32.3438 33.4688 32.4375 33.75 32.25 33.75C29.1563 33.75 28.9688 33.8438 28.9688 33.6563V31.6875C28.9688 30.8438 28.5 30.1875 27.75 29.8125C26.1562 29.0625 26.0625 28.4063 24.9375 28.4063Z" fill="#FF6D3E"/>
<path d="M29.25 0.9375V3.75C29.25 4.3125 29.625 4.6875 30.1875 4.6875C30.75 4.6875 31.125 4.3125 31.125 3.75V0.9375C31.125 0.375 30.75 0 30.1875 0C29.625 0 29.25 0.375 29.25 0.9375Z" fill="#FF6D3E"/>
<path d="M18.8438 3.375C18.375 3.65625 18.2813 4.21875 18.4688 4.6875L19.875 7.125C20.1562 7.59375 20.7188 7.6875 21.1875 7.5C21.6562 7.125 21.8438 6.5625 21.5625 6.09375L20.1562 3.75C19.875 3.28125 19.3125 3.09375 18.8438 3.375Z" fill="#FF6D3E"/>
<path d="M13.5 14.625C13.9688 14.9063 14.5312 14.7188 14.8125 14.25C15.0938 13.7813 14.9062 13.2188 14.4375 12.9375L12 11.5313C11.5312 11.25 10.9688 11.4375 10.6875 11.9063C10.4062 12.375 10.5938 12.9375 11.0625 13.2188L13.5 14.625Z" fill="#FF6D3E"/>
<path d="M48.9375 10.5L46.5 11.9063C46.0312 12.1875 45.9375 12.75 46.125 13.2188C46.4062 13.6875 46.9687 13.7813 47.4375 13.5938L49.875 12.1875C50.3438 11.9063 50.4375 11.3438 50.25 10.875C49.9687 10.4063 49.4062 10.2188 48.9375 10.5Z" fill="#FF6D3E"/>
<path d="M41.625 2.71875C41.1563 2.4375 40.5938 2.625 40.3125 3.09375L38.9063 5.53125C38.625 6 38.8125 6.5625 39.2812 6.84375C39.75 7.125 40.3125 6.9375 40.5938 6.46875L42 4.03125C42.2812 3.5625 42.0938 3 41.625 2.71875Z" fill="#FF6D3E"/>
<path d="M50.3438 50.9062C50.7188 51.2812 51.2812 51.2812 51.6562 50.9062C52.0312 50.5312 52.0312 49.9688 51.6562 49.5938L48.1875 46.125C47.8125 45.75 47.25 45.75 46.875 46.125L43.4062 49.5938C43.0312 49.9688 43.0312 50.5312 43.4062 50.9062C43.7812 51.2812 44.3437 51.2812 44.7187 50.9062L46.5938 49.0312V58.125H39.375C38.8125 58.125 38.4375 58.5 38.4375 59.0625C38.4375 59.625 38.8125 60 39.375 60H59.0625C59.625 60 60 59.625 60 59.0625C60 58.5 59.625 58.125 59.0625 58.125H56.3438V43.125L58.4062 45.1875C58.7812 45.5625 59.3437 45.5625 59.7187 45.1875C60.0937 44.8125 60.0937 44.25 59.7187 43.875L56.0625 40.2188C55.6875 39.8438 55.125 39.8438 54.75 40.2188L51.0938 43.875C50.7188 44.25 50.7188 44.8125 51.0938 45.1875C51.4688 45.5625 52.0312 45.5625 52.4062 45.1875L54.4687 43.125V58.125H48.5625V49.125L50.3438 50.9062Z" fill="#FF6D3E"/>
<path d="M0.9375 58.125C0.375 58.125 4.19095e-08 58.5 4.19095e-08 59.0625C4.19095e-08 59.625 0.375 60 0.9375 60H22.125C22.6875 60 23.0625 59.625 23.0625 59.0625C23.0625 58.5 22.6875 58.125 22.125 58.125H13.3125V49.125L15.1875 51C15.5625 51.375 16.125 51.375 16.5 51C16.875 50.625 16.875 50.0625 16.5 49.6875L13.125 46.2188C12.75 45.8438 12.1875 45.8438 11.8125 46.2188L8.34375 49.6875C7.96875 50.0625 7.96875 50.625 8.34375 51C8.71875 51.375 9.28125 51.375 9.65625 51L11.5312 49.125V58.125H5.53125V43.125L7.59375 45.1875C7.96875 45.5625 8.53125 45.5625 8.90625 45.1875C9.28125 44.8125 9.28125 44.25 8.90625 43.875L5.25 40.2188C4.875 39.8438 4.3125 39.8438 3.9375 40.2188L0.28125 43.875C-0.09375 44.25 -0.09375 44.8125 0.28125 45.1875C0.65625 45.5625 1.21875 45.5625 1.59375 45.1875L3.65625 43.125V58.125H0.9375Z" fill="#FF6D3E"/>
</svg>
