<svg width="60" height="60" viewBox="0 0 60 60" fill="none" xmlns="http://www.w3.org/2000/svg">
<path fill-rule="evenodd" clip-rule="evenodd" d="M59.3803 25.1676L55.0404 23.497C54.4398 21.1786 53.5209 18.962 52.3034 16.8945L54.1922 12.6419C54.3548 12.2761 54.2752 11.848 53.9921 11.5648L48.4353 6.00838C48.1522 5.72532 47.7241 5.64609 47.3582 5.80831L43.1041 7.69767C41.0365 6.48027 38.8206 5.56153 36.5034 4.96118L34.8325 0.620072C34.6886 0.246529 34.3296 0 33.9292 0H26.0712C25.671 0 25.3119 0.246529 25.1681 0.620072L23.497 4.96118C21.1798 5.56153 18.9639 6.48027 16.8963 7.69767L12.6422 5.80831C12.2764 5.64561 11.8483 5.72532 11.5651 6.00838L6.0085 11.565C5.72544 11.8481 5.64584 12.2762 5.8083 12.642L7.69747 16.8957C6.48004 18.9631 5.56116 21.1792 4.96067 23.4967L0.620084 25.1675C0.246534 25.3113 0 25.6703 0 26.0707V33.9287C0 34.3291 0.246534 34.688 0.620084 34.8318L4.96007 36.5023C5.29914 37.81 5.74395 39.0947 6.28455 40.3338L5.64294 41.7855C5.39108 42.3553 5.37669 42.9904 5.60253 43.5738C5.82826 44.1571 6.26641 44.6171 6.83617 44.8688L9.58022 46.0816C9.88663 46.217 10.2067 46.2811 10.5221 46.2811C11.4199 46.281 12.2779 45.7611 12.6637 44.8884L12.8927 44.3705C13.9341 44.8338 14.2328 44.9578 14.3628 45.0083C14.6171 45.1069 14.7205 45.5684 14.8494 46.2612C14.9223 46.6532 15.0036 47.0797 15.1592 47.4805L14.4456 48.8146C14.0458 49.5622 13.9617 50.4229 14.2087 51.2382C14.4557 52.0535 15.0036 52.7227 15.7511 53.1226C16.1797 53.3518 16.6453 53.474 17.1121 53.4937C17.0062 54.7241 17.6256 55.9593 18.7818 56.5778C19.6995 57.0684 20.7534 57.0608 21.6325 56.6491C21.9228 57.1878 22.3673 57.6439 22.9297 57.9448C23.748 58.3823 24.6866 58.4259 25.511 58.129C25.7928 58.7531 26.2751 59.2844 26.9104 59.6242C27.3766 59.8736 27.8867 60 28.4027 60C28.7138 60 29.0272 59.9539 29.334 59.8609C29.9641 59.67 30.5064 59.2989 30.905 58.7952L31.5371 59.1582C32.0016 59.4249 32.5178 59.5609 33.0433 59.5609C33.3234 59.5609 33.6065 59.5222 33.8853 59.444C34.6925 59.2177 35.3863 58.6686 35.7885 57.9373C36.0267 57.5042 36.1502 57.0373 36.1692 56.5722C36.5976 56.6332 37.0392 56.603 37.4696 56.479C38.2756 56.247 38.9411 55.7166 39.3432 54.9852C39.6004 54.5177 39.7233 54.0102 39.7246 53.508C40.8935 53.5815 42.0583 52.9917 42.6594 51.899C43.0586 51.1731 43.134 50.3509 42.934 49.6013C43.7065 49.358 44.343 48.8379 44.7329 48.1294C45.0493 47.5542 45.167 46.898 45.0883 46.258L47.0647 45.4335L47.2415 45.8894C47.6 46.8145 48.4865 47.3824 49.424 47.3823C49.7044 47.3823 49.9895 47.3315 50.2663 47.2242L53.0637 46.1397C54.2656 45.6736 54.8643 44.3169 54.3984 43.1148L53.5024 40.8038C54.14 39.4187 54.6565 37.9761 55.0387 36.5021L59.3799 34.8312C59.7536 34.6875 60 34.3285 60 33.9281V26.0702C60.0004 25.6703 59.7538 25.3113 59.3803 25.1676ZM10.3626 44.3113L7.61847 43.0985C7.48771 43.0407 7.43013 42.9339 7.4075 42.8751C7.38476 42.8165 7.35537 42.6987 7.41319 42.5679L13.7136 28.3133C13.7714 28.1825 13.8783 28.125 13.9369 28.1023C13.9702 28.0894 14.0227 28.0744 14.0858 28.0744C14.1337 28.0744 14.1878 28.083 14.2443 28.108L16.9883 29.3208C17.1878 29.409 17.2819 29.652 17.1939 29.8515L11.5175 42.6941C11.5174 42.6944 11.5173 42.6946 11.5172 42.6948C11.517 42.6952 11.5169 42.6956 11.5168 42.6958L10.8935 44.106C10.8053 44.3055 10.5621 44.3995 10.3626 44.3113ZM48.7654 28.5844C48.5403 28.0035 48.1011 27.5446 47.5288 27.292C46.9565 27.0397 46.3214 27.0244 45.7406 27.2495L43.6353 28.0657C42.7515 27.2719 41.7463 26.6575 40.6622 26.24C41.8173 25.2529 42.5517 23.7871 42.5517 22.1521C42.5517 19.187 40.1394 16.7748 37.1742 16.7748C34.209 16.7748 31.7967 19.187 31.7967 22.1521C31.7967 23.7898 32.5334 25.2577 33.6918 26.2448C32.7641 26.6018 31.8902 27.0991 31.1091 27.7266C30.7112 28.0463 30.3417 28.3974 30.0011 28.7732C28.9779 27.6464 27.711 26.7837 26.3102 26.2433C27.4676 25.2563 28.2037 23.7889 28.2037 22.1521C28.2037 19.187 25.7913 16.7748 22.8261 16.7748C19.861 16.7748 17.4486 19.187 17.4486 22.1521C17.4486 23.7865 18.1825 25.2519 19.3371 26.239C18.6168 26.5173 17.9296 26.8845 17.2853 27.3359L15.0267 26.3376C14.4569 26.0858 13.8219 26.0714 13.2384 26.2972C12.655 26.5229 12.1951 26.9609 11.9432 27.5307L11.0126 29.6362C11.2072 19.3313 19.6494 11.0079 30.0002 11.0079C40.1757 11.0079 48.5069 19.0518 48.9709 29.1146L48.7654 28.5844ZM18.8918 28.6005C20.0775 27.8979 21.4189 27.5296 22.8263 27.5296C25.1591 27.5296 27.3577 28.5819 28.8252 30.3719C28.4978 30.9274 28.2259 31.515 28.0147 32.1252C26.2682 31.6493 24.7356 32.0077 23.4307 32.3135C22.0333 32.6411 21.1323 32.8166 20.2569 32.3242C20.2343 32.3115 20.2113 32.2996 20.1877 32.2887L18.5637 31.5396L18.9641 30.6338C19.2637 29.9557 19.2125 29.2109 18.8918 28.6005ZM22.8263 25.5941C20.9284 25.5941 19.3842 24.0501 19.3842 22.1523C19.3842 20.2544 20.9284 18.7104 22.8263 18.7104C24.7241 18.7104 26.2683 20.2544 26.2683 22.1523C26.2683 24.0501 24.7243 25.5941 22.8263 25.5941ZM29.8548 32.7194C30.9287 29.6264 33.8297 27.5296 37.1741 27.5296C38.9102 27.5296 40.5533 28.0948 41.9017 29.1375C41.4495 29.7593 41.3104 30.5903 41.6083 31.3589L41.979 32.3149L40.5651 33.0718C39.7818 33.4792 38.9683 33.1818 37.598 32.6218C35.706 31.8483 33.1605 30.809 29.8548 32.7194ZM37.1742 25.5941C35.2763 25.5941 33.7322 24.0501 33.7322 22.1523C33.7322 20.2544 35.2762 18.7104 37.1742 18.7104C39.0722 18.7104 40.6163 20.2544 40.6163 22.1523C40.6163 24.0501 39.0722 25.5941 37.1742 25.5941ZM16.6639 51.416C16.3722 51.2601 16.1581 50.9976 16.061 50.677C15.9638 50.3566 15.9963 50.0192 16.1522 49.7277L17.1087 47.9393C17.1089 47.9388 17.1092 47.9384 17.1094 47.9379L17.5182 47.1736C17.8422 46.5676 18.6 46.3385 19.2073 46.6624C19.7769 46.9664 20.017 47.6592 19.7644 48.2512L17.9926 51.3177C17.6073 51.6006 17.089 51.6434 16.6639 51.416ZM19.6948 54.8713C19.0881 54.5467 18.8585 53.7892 19.1829 53.1827L19.589 52.4235L21.3853 49.3149C21.7713 49.0267 22.2936 48.9818 22.7232 49.2109C23.1941 49.4623 23.4518 50.0058 23.3608 50.5301L21.3867 54.3529C21.0581 54.9621 20.3 55.1947 19.6948 54.8713ZM23.8426 56.2382C23.4197 56.0121 23.1681 55.5603 23.1868 55.0853L25.0736 51.4313C25.4585 51.0729 26.0485 50.99 26.5167 51.24C26.9871 51.4911 27.2449 52.0339 27.1545 52.5578L25.4127 55.9055C25.0422 56.3795 24.3772 56.5243 23.8426 56.2382ZM28.7728 58.009C28.4521 58.1062 28.115 58.0736 27.8234 57.9177C27.3916 57.6868 27.1354 57.2076 27.1699 56.7217L28.8662 53.4614C29.2511 53.1022 29.8416 53.0186 30.3099 53.2688C30.4593 53.3487 30.5862 53.4561 30.6901 53.5864C30.7097 53.618 30.7316 53.6482 30.7549 53.6776C31.0075 54.0601 31.0366 54.5547 30.8214 54.9572L29.5117 57.4061C29.3559 57.6978 29.0934 57.9118 28.7728 58.009ZM34.0929 57.0049C33.9394 57.284 33.6734 57.4938 33.3632 57.5808C33.0654 57.664 32.7593 57.6286 32.5013 57.4803L31.8632 57.1138L32.5284 55.8699C32.6859 55.5753 32.7912 55.2613 32.8486 54.9405L33.5068 55.3118C33.5433 55.3398 33.5813 55.3663 33.6226 55.3895C34.1951 55.7105 34.4062 56.4353 34.0929 57.0049ZM43.0373 47.1971C42.8844 47.4752 42.6297 47.6771 42.32 47.7656C42.018 47.852 41.7044 47.8173 41.4367 47.6673C39.5361 46.6028 37.9529 45.7144 36.3239 44.782C35.86 44.5165 35.2688 44.6772 35.0033 45.141C34.7378 45.6048 34.8986 46.1962 35.3624 46.4616C36.9977 47.3979 38.5842 48.2881 40.4879 49.3541C40.4883 49.3544 40.4886 49.3546 40.489 49.3549C41.0623 49.6775 41.2753 50.4007 40.9638 50.9667C40.6495 51.5384 39.9287 51.7479 39.3567 51.4333L32.6258 47.646C32.16 47.3837 31.57 47.549 31.3078 48.0148C31.0457 48.4806 31.211 49.0707 31.6767 49.3327L37.043 52.3522C37.0835 52.3846 37.1262 52.4149 37.1729 52.4412C37.746 52.7638 37.9591 53.4868 37.6476 54.0529C37.4953 54.3298 37.2421 54.531 36.9345 54.6196C36.6315 54.7068 36.3155 54.6721 36.0449 54.5221L32.1691 52.3349C31.9072 52.0178 31.5895 51.7582 31.2222 51.5619C30.4986 51.1752 29.6824 51.0921 28.9315 51.2846C28.675 50.5522 28.1521 49.9191 27.4279 49.5327C26.7043 49.1464 25.8885 49.0636 25.1379 49.2559C24.8813 48.5233 24.3585 47.8902 23.6342 47.5037C23.0415 47.1874 22.3798 47.0749 21.7409 47.1546C21.5629 46.2445 20.9917 45.4212 20.1185 44.9552C18.9607 44.3373 17.5882 44.5093 16.6237 45.2821C16.4314 44.4722 16.0716 43.5958 15.0631 43.2042C14.9447 43.1581 14.5974 43.0107 13.6749 42.6002L17.781 33.3103L19.3436 34.0311C20.9076 34.893 22.4146 34.5399 23.8724 34.1982C25.1993 33.8871 26.4685 33.5901 27.9152 34.1261C27.6205 34.3833 27.3264 34.6588 27.0345 34.9539C25.6492 36.3538 23.8897 37.6807 21.8059 38.897C21.5001 39.0751 21.2865 39.3765 21.2196 39.7248C21.1523 40.0767 21.2363 40.4258 21.4553 40.7069C24.4168 44.5172 27.8489 43.128 30.6066 42.0115C32.3904 41.2893 33.9307 40.6659 35.1178 41.3424L42.5578 45.5829C42.7763 45.7074 42.9493 45.892 43.0582 46.1165L43.0584 46.1166C43.2293 46.4684 43.2215 46.8622 43.0373 47.1971ZM44.274 44.5014C44.0556 44.2657 43.801 44.0635 43.5165 43.9012L36.0764 39.6608C34.0745 38.5195 31.9423 39.3827 29.8805 40.2175C27.1546 41.321 25.3061 41.9297 23.5154 40.1279C25.43 38.946 27.0738 37.6658 28.4104 36.3151C29.0223 35.697 29.6373 35.1751 30.2399 34.7633C33.0338 32.8469 34.8951 33.6078 36.8657 34.4133C38.3286 35.0112 39.8414 35.6297 41.4684 34.7834L42.6838 34.1329L46.3653 43.6288L44.274 44.5014ZM52.3643 44.3356L49.5671 45.4201C49.3638 45.4987 49.1251 45.3937 49.0463 45.1904L43.4129 30.6593C43.3342 30.456 43.4393 30.2176 43.6426 30.1387L46.44 29.0542C46.4904 29.0348 46.5383 29.0275 46.5816 29.0275C46.6528 29.0275 46.7114 29.047 46.7472 29.0627C46.8048 29.0881 46.9089 29.1506 46.9606 29.2839L52.5941 43.8149C52.6729 44.0183 52.5678 44.2566 52.3643 44.3356ZM58.0649 33.264L53.8738 34.8772C53.5761 34.9917 53.3539 35.2459 53.28 35.5562C53.068 36.4465 52.8021 37.3254 52.4882 38.1873L50.6456 33.4344C50.832 32.3054 50.9277 31.1515 50.9277 29.9997C50.9277 18.4604 41.5396 9.07245 30.0002 9.07245C18.4608 9.07245 9.07263 18.4604 9.07263 29.9998C9.07263 31.1399 9.16626 32.2823 9.34893 33.4007L7.38646 37.8407C7.12613 37.09 6.90258 36.3267 6.71919 35.5559C6.64528 35.2456 6.42318 34.9915 6.12536 34.8769L1.9355 33.2641V26.7351L6.12608 25.122C6.42379 25.0074 6.64601 24.7533 6.71992 24.4429C7.30625 21.9789 8.27884 19.633 9.61058 17.4706C9.77788 17.1988 9.8005 16.8621 9.67095 16.5704L7.84698 12.4636L12.4639 7.84682L16.5712 9.67099C16.863 9.80055 17.1997 9.77793 17.4715 9.61063C19.634 8.27892 21.9798 7.30647 24.4434 6.72003C24.7538 6.64624 25.0079 6.42414 25.1225 6.12633L26.7356 1.93546H33.2648L34.8779 6.12645C34.9924 6.42414 35.2465 6.64636 35.557 6.72015C38.0205 7.30659 40.3662 8.27904 42.5289 9.61075C42.8007 9.77805 43.1375 9.80079 43.4291 9.67111L47.5365 7.84695L52.1535 12.4636L50.3299 16.5694C50.2003 16.8611 50.223 17.1979 50.3904 17.4697C51.7221 19.6319 52.6948 21.9782 53.2813 24.4432C53.3551 24.7536 53.5773 25.0078 53.8751 25.1223L58.0649 26.7352V33.264ZM13.9322 30.3747C13.956 29.8605 14.3922 29.4629 14.9066 29.4867C15.4209 29.5105 15.8184 29.9467 15.7946 30.4611C15.7708 30.9754 15.3346 31.3729 14.8202 31.3491C14.306 31.3251 13.9083 30.8889 13.9322 30.3747ZM46.6469 31.333C46.6469 31.8465 46.2281 32.2652 45.7147 32.2652C45.2012 32.2652 44.7825 31.8464 44.7825 31.333C44.7825 30.8196 45.2013 30.4008 45.7147 30.4008C46.2281 30.4007 46.6469 30.8195 46.6469 31.333Z" fill="#FF6D3E"/>
</svg>
