<svg width="60" height="60" viewBox="0 0 60 60" fill="none" xmlns="http://www.w3.org/2000/svg">
<path d="M11.514 25.3711L13.769 25.8156L15.3637 29.6651L14.0836 31.5742C13.5799 32.3251 13.6783 33.3343 14.3178 33.9736L17.9252 37.581C18.5645 38.2204 19.5734 38.3188 20.3245 37.8152L22.2337 36.5349L26.0832 38.1297L26.5279 40.3845C26.7026 41.2716 27.4858 41.9156 28.39 41.9156H30.9409C31.4648 41.9156 31.8896 41.4909 31.8896 40.967V34.4425C38.9027 33.954 44.4595 28.093 44.4595 20.9577C44.4595 18.076 43.5574 15.3204 41.89 13.0261H44.6533C44.9049 13.0261 45.1461 12.9262 45.3241 12.7483L50.3368 7.7356C50.608 7.46429 50.6892 7.05627 50.5423 6.70184C50.3954 6.34742 50.0496 6.11631 49.6659 6.11631H45.7823V2.23268C45.7823 1.84897 45.5512 1.50308 45.1967 1.35628C44.8421 1.20948 44.434 1.29071 44.1629 1.56189L39.1503 6.57461C38.9724 6.75248 38.8724 6.99378 38.8724 7.2454V11.6846L30.27 20.2871C29.8996 20.6575 29.8996 21.2581 30.27 21.6285C30.4553 21.8138 30.698 21.9064 30.9408 21.9064C31.1837 21.9064 31.4264 21.8138 31.6116 21.6285L34.2553 18.9847C34.6084 19.5773 34.7984 20.257 34.7984 20.9577C34.7984 23.0848 33.0679 24.8153 30.9408 24.8153C28.8138 24.8153 27.0834 23.0848 27.0834 20.9577C27.0834 18.8307 28.8139 17.1002 30.9408 17.1002C31.1832 17.1002 31.4258 17.1227 31.6618 17.1672C32.1769 17.2643 32.6726 16.9254 32.7698 16.4108C32.8668 15.8959 32.5282 15.3999 32.0134 15.3029C31.6617 15.2366 31.3008 15.203 30.9408 15.203C27.7677 15.203 25.1862 17.7845 25.1862 20.9577C25.1862 24.131 27.7677 26.7125 30.9408 26.7125C34.1139 26.7125 36.6956 24.131 36.6956 20.9577C36.6956 19.7515 36.3181 18.5868 35.6244 17.6158L37.0431 16.197C38.1036 17.5526 38.6803 19.2168 38.6803 20.9579C38.6803 25.2253 35.2085 28.6973 30.9408 28.6973C26.6731 28.6973 23.2014 25.2253 23.2014 20.9579C23.2014 16.6904 26.6732 13.2185 30.9408 13.2185C32.0662 13.2185 33.1511 13.4544 34.1651 13.9197C34.6414 14.1382 35.2044 13.9293 35.4228 13.4531C35.6412 12.9769 35.4324 12.4138 34.9561 12.1954C33.6922 11.6153 32.3411 11.3212 30.9407 11.3212C25.627 11.3212 21.3041 15.6442 21.3041 20.9579C21.3041 26.2715 25.627 30.5945 30.9407 30.5945C36.2544 30.5945 40.5775 26.2715 40.5775 20.9579C40.5775 18.7115 39.8043 16.5691 38.391 14.8491L39.8014 13.4387C41.5865 15.5376 42.5621 18.1794 42.5621 20.9579C42.5621 27.3659 37.3487 32.5791 30.9407 32.5791C24.5327 32.5791 19.3195 27.3659 19.3195 20.9579C19.3195 14.5499 24.5327 9.33662 30.9407 9.33662C32.9071 9.33662 34.8497 9.83642 36.5588 10.7821C37.0168 11.0358 37.5943 10.8698 37.848 10.4114C38.1017 9.95298 37.9357 9.37575 37.4773 9.12212C35.7636 8.17386 33.8488 7.6118 31.8893 7.4739V0.948615C31.8893 0.424742 31.4646 0 30.9407 0H28.3898C27.4856 0 26.7024 0.643872 26.5276 1.53095L26.083 3.7858L22.2335 5.38066L20.3243 4.10027C19.5733 3.59703 18.5642 3.69557 17.925 4.33481L14.3176 7.94216C13.678 8.58152 13.5796 9.59073 14.0832 10.3416L15.3635 12.2508L13.7687 16.1002L11.5141 16.5448C10.6268 16.7196 9.98283 17.5028 9.98283 18.407V23.5088C9.98283 24.4131 10.6268 25.1963 11.5138 25.3712L11.514 25.3711ZM40.7697 7.63825L43.885 4.52288V7.06493C43.885 7.5888 44.3098 8.01354 44.8337 8.01354H47.3757L44.2602 11.129H40.7695V7.63836L40.7697 7.63825ZM11.8812 18.406L14.6345 17.8631C14.9459 17.8017 15.2058 17.5887 15.3273 17.2955L17.311 12.5072C17.4324 12.214 17.3992 11.8795 17.2225 11.6158L15.6593 9.2835L19.2679 5.67592L21.599 7.23923C21.8626 7.41603 22.1972 7.44923 22.4904 7.32781L27.2787 5.34414C27.5719 5.22272 27.785 4.96268 27.8463 4.6513L28.39 1.89723H29.9923V7.47319C22.9792 7.96172 17.4225 13.8227 17.4225 20.9579C17.4225 28.093 22.9792 33.954 29.9923 34.4427V40.0183L28.3892 40.0179L27.8463 37.2646C27.7849 36.9532 27.5719 36.6931 27.2787 36.5717L22.4904 34.588C22.1973 34.4665 21.8626 34.4999 21.5991 34.6765L19.2668 36.2398L15.6592 32.6312L17.2225 30.3001C17.3992 30.0365 17.4325 29.702 17.311 29.4086L15.3273 24.6203C15.2059 24.3271 14.9457 24.1141 14.6344 24.0527L11.8803 23.509L11.8812 18.406ZM45.46 43.1498C46.195 43.9781 46.3429 45.1779 45.8557 46.3592C45.7947 46.5069 45.6975 46.6367 45.5729 46.7368C44.8647 47.3059 43.3401 48.1518 42.1431 48.7377C42.1352 48.7416 42.127 48.7454 42.119 48.7492L26.2626 55.9612C23.6129 57.1525 21.6809 57.1129 20.1296 57.0809C19.8169 57.0745 19.5216 57.0684 19.2388 57.0728C18.6236 57.0824 18.0656 57.0703 17.5259 57.0586C14.8631 57.0011 13.1034 56.963 9.62686 59.7876C9.45101 59.9305 9.23935 60 9.02923 60C8.75342 60 8.47986 59.8804 8.29239 59.6495C7.96204 59.2429 8.02382 58.6455 8.43042 58.3151C12.4479 55.0512 14.7075 55.0999 17.5669 55.1617C18.0897 55.1731 18.63 55.185 19.2095 55.1757C19.5265 55.1707 19.8385 55.1772 20.1686 55.184C21.6013 55.2134 23.2248 55.2468 25.4809 54.2324L41.3213 47.0277C42.4332 46.4828 43.5891 45.8265 44.1808 45.4098C44.2674 45.1075 44.3041 44.7055 44.0408 44.4089C43.6424 43.9598 42.483 43.6842 40.4248 44.2582C38.6092 44.7647 36.8307 45.3982 34.9478 46.069C33.0827 46.7334 31.1568 47.4177 29.203 47.9633C29.0878 48.1371 28.9561 48.3024 28.8061 48.4571C26.8675 50.4556 22.5635 50.4437 18.6807 50.2759C18.2965 50.2593 17.9646 50.2449 17.7016 50.2392C17.1778 50.2281 16.7622 49.7944 16.7734 49.2707C16.7845 48.7469 17.2182 48.3306 17.7419 48.3425C18.0259 48.3485 18.3673 48.3632 18.7626 48.3804C21.0912 48.4812 25.9363 48.6907 27.4442 47.1362C27.7599 46.8107 27.8896 46.4246 27.8522 45.9207C27.7861 45.0253 26.9185 44.5635 25.2732 44.5481C21.6306 44.5141 18.3784 44.2428 14.3144 43.816C9.02188 43.4585 4.76153 48.1677 1.65232 51.6072C1.46509 51.8144 1.20718 51.9198 0.948211 51.9198C0.721492 51.9198 0.493943 51.8389 0.31252 51.675C-0.0761748 51.3236 -0.106412 50.7237 0.244932 50.3352C2.17193 48.2033 4.08694 46.1571 6.32556 44.5557C9.0667 42.5951 11.7297 41.7348 14.4622 41.9245C14.4733 41.9253 14.4845 41.9263 14.4955 41.9275C18.5118 42.3494 21.7186 42.6176 25.291 42.651C29.1042 42.6867 29.6757 44.8518 29.7444 45.781C29.7456 45.7969 29.7458 45.8124 29.7468 45.8282C31.2852 45.3586 32.8178 44.8137 34.311 44.2818C36.1418 43.6296 38.0353 42.9552 39.9151 42.4308C43.3377 41.4765 44.8582 42.4716 45.46 43.1498ZM55.5081 30.7231C55.8785 31.0936 55.8785 31.6942 55.5081 32.0646L50.1589 37.4135C49.9804 37.5921 49.7388 37.6913 49.4884 37.6913C49.4625 37.6913 49.4366 37.6902 49.4107 37.6881C49.133 37.6653 48.8795 37.5216 48.7172 37.2951L46.4085 34.0726C46.1034 33.6467 46.2012 33.0541 46.6271 32.7489C47.0531 32.4437 47.6457 32.5418 47.9507 32.9676L49.6083 35.2811L54.1665 30.7229C54.5372 30.3523 55.1376 30.3525 55.5081 30.7229V30.7231ZM51.1181 25.1864C46.2206 25.1864 42.2363 29.1709 42.2363 34.0683C42.2363 38.9658 46.2208 42.9502 51.1181 42.9502C56.0155 42.9502 60 38.9658 60 34.0683C60 29.1709 56.0156 25.1864 51.1181 25.1864ZM51.1181 41.053C47.2668 41.053 44.1336 37.9197 44.1336 34.0683C44.1336 30.2169 47.2668 27.0837 51.1181 27.0837C54.9694 27.0837 58.1028 30.2169 58.1028 34.0683C58.1028 37.9197 54.9694 41.053 51.1181 41.053Z" fill="#FF6D3E"/>
</svg>
