<svg width="56" height="60" viewBox="0 0 56 60" fill="none" xmlns="http://www.w3.org/2000/svg">
<path d="M23.6046 52.2172L22.1741 52.2183L21.9724 44.2316C21.8966 41.1522 20.7062 38.5415 18.4339 36.4687C17.1398 35.2911 15.8468 34.1135 14.5527 32.9347C13.6654 32.1262 12.777 31.3176 11.8886 30.5091L11.7732 25.8877C11.7161 23.7668 9.9544 22.083 7.84531 22.1369C7.8045 22.1381 7.76253 22.1404 7.72172 22.1428L7.6576 19.5789C7.60513 17.4569 5.84347 15.7719 3.73205 15.8258C1.62295 15.8785 -0.0512649 17.6502 0.00120018 19.7746L0.485044 39.0782C0.544505 41.3854 1.43641 43.3387 3.13395 44.8831L5.97056 47.468C7.27635 48.6562 7.9619 50.1584 8.00737 51.9313L8.01436 52.2359L6.65493 52.2371C5.72339 52.2371 4.96556 52.9987 4.96556 53.935L4.96906 58.3021C4.96906 59.2383 5.72805 60 6.66193 60L23.6128 59.9836C24.5432 59.9836 25.301 59.2208 25.301 58.281L25.294 53.915C25.2952 52.9788 24.5374 52.2172 23.6046 52.2172ZM7.89428 24.0105C8.97389 23.9824 9.88095 24.8484 9.9101 25.9381L9.98472 28.9073C9.34231 28.5453 8.60897 28.3754 7.87912 28.4175L7.76953 24.0199C7.8115 24.0152 7.8523 24.0117 7.89428 24.0105ZM9.87046 51.8832C9.811 49.576 8.91909 47.6227 7.22156 46.0783L4.38495 43.4934C3.07915 42.3052 2.39361 40.803 2.34814 39.029L1.86546 19.7278C1.83864 18.6357 2.69674 17.7252 3.77985 17.6983H3.82998C4.89211 17.6983 5.77002 18.5525 5.79684 19.6258L6.03002 29.0187C5.74321 29.2026 5.48671 29.4217 5.26403 29.6725C3.84631 31.2462 3.96756 33.6858 5.53335 35.1095C7.72872 37.1132 9.92292 39.1122 12.1206 41.1124C12.299 41.2753 12.5229 41.3549 12.7455 41.3549C12.9997 41.3549 13.2527 41.2507 13.4369 41.0468C13.782 40.6636 13.7529 40.0707 13.3716 39.7239C11.1739 37.7248 8.97972 35.7258 6.78435 33.7221C5.97988 32.9897 5.91693 31.7371 6.65027 30.9239C6.80767 30.747 6.99887 30.6005 7.21806 30.4904C7.23671 30.481 7.2542 30.4705 7.27286 30.4599C7.29501 30.4529 7.31716 30.4459 7.33815 30.4365C8.04001 30.1389 8.85847 30.2783 9.42159 30.7892C10.7157 31.9668 12.0087 33.1444 13.3028 34.3232C14.597 35.502 15.8911 36.6796 17.1841 37.8572C19.0635 39.5715 20.0475 41.7311 20.1105 44.2785L20.311 52.2207L9.87979 52.2324L9.87046 51.8832ZM6.83332 58.1264L6.82982 54.1107L21.2519 54.0931C21.2565 54.0931 21.26 54.0943 21.2647 54.0943H21.2938L23.4309 54.092L23.4368 58.1111L6.83332 58.1264ZM52.2657 15.827C51.2409 15.8012 50.2755 16.1785 49.5329 16.8898C48.7902 17.5998 48.3682 18.556 48.3425 19.5801L48.2784 22.1451C48.2364 22.1428 48.1933 22.1404 48.1513 22.1392C46.0469 22.0853 44.2817 23.7703 44.2281 25.8924L44.1127 30.5091C43.2231 31.3188 42.3347 32.1273 41.4463 32.937C40.1521 34.1146 38.8591 35.2934 37.5638 36.4722C35.2927 38.5474 34.1023 41.1581 34.0265 44.2328L33.8283 52.2195L32.3943 52.2183C31.4627 52.2183 30.7049 52.98 30.7049 53.915L30.7014 58.2834C30.7014 59.2208 31.4581 59.9836 32.3896 59.9836L49.3417 60C50.2732 60 51.031 59.2383 51.031 58.3033L51.0345 53.942C51.038 53.4885 50.8643 53.062 50.546 52.7386C50.2266 52.4152 49.801 52.2371 49.3498 52.2371L47.9892 52.2359L47.9974 51.9313C48.0405 50.1584 48.7249 48.6562 50.0319 47.4668L52.8673 44.8831C54.5695 43.3352 55.4603 41.3807 55.5162 39.077L55.9989 19.7758C56.049 17.6514 54.376 15.8797 52.2657 15.827ZM48.0545 24.0094C48.0709 24.0094 48.0872 24.0094 48.1035 24.0105C48.1466 24.0117 48.1886 24.0164 48.2317 24.0199L48.121 28.4175C47.3911 28.3754 46.659 28.5441 46.0177 28.905L46.0923 25.9369C46.1191 24.8648 46.9947 24.0094 48.0545 24.0094ZM49.1668 58.1264L32.5668 58.1099L32.5703 54.0908L34.7109 54.0931H34.7284L49.1703 54.1107L49.1668 58.1264ZM53.6508 39.0313C53.6077 40.803 52.9221 42.3041 51.6128 43.4957L48.7774 46.0795C47.0775 47.6262 46.1879 49.5795 46.1308 51.8844L46.1215 52.2336L35.6903 52.2218L35.8873 44.2797C35.9503 41.7358 36.9354 39.575 38.8137 37.8596C40.1078 36.682 41.402 35.5032 42.6949 34.3256C43.9891 33.1479 45.282 31.9691 46.5762 30.7927C47.1393 30.2806 47.9578 30.1424 48.6596 30.44C48.6841 30.4505 48.7086 30.4576 48.7331 30.4658C48.7494 30.4751 48.7657 30.4857 48.7832 30.4939C48.9989 30.6017 49.1913 30.7493 49.3545 30.931C50.0808 31.7395 50.0179 32.9933 49.2158 33.7256C47.018 35.7281 44.8238 37.7272 42.6261 39.7274C42.2449 40.0742 42.2157 40.6671 42.5609 41.0503C42.7451 41.2542 42.9981 41.3585 43.2522 41.3585C43.4749 41.3585 43.6988 41.2788 43.8771 41.1159C46.0748 39.1157 48.2702 37.1167 50.4679 35.113C52.029 33.6881 52.1515 31.2497 50.7384 29.676C50.5099 29.4217 50.2511 29.2026 49.9689 29.0198L50.1123 23.3321C50.1123 23.3204 50.1135 23.3098 50.1135 23.2981L50.2056 19.6282C50.2184 19.1032 50.4364 18.6134 50.8177 18.2478C51.1989 17.8822 51.6956 17.6866 52.2179 17.7018C53.2999 17.7287 54.1591 18.6392 54.1323 19.7313L53.6508 39.0313ZM39.0702 9.11044C41.5698 9.11044 43.6043 7.06572 43.6043 4.55346C43.6043 2.04238 41.5698 0 39.0702 0C36.5717 0 34.5395 2.04238 34.5395 4.55346C34.5384 7.06572 36.5717 9.11044 39.0702 9.11044ZM39.0702 1.87247C40.5427 1.87247 41.7401 3.0747 41.7401 4.55346C41.7401 6.03339 40.5427 7.23679 39.0702 7.23679C37.6 7.23679 36.4026 6.03339 36.4026 4.55346C36.4026 3.0747 37.5988 1.87247 39.0702 1.87247ZM16.9299 9.11044C19.4284 9.11044 21.4606 7.06572 21.4606 4.55346C21.4606 2.04238 19.4284 0 16.9299 0C14.4314 0 12.3993 2.04238 12.3993 4.55346C12.3993 7.06572 14.4314 9.11044 16.9299 9.11044ZM16.9299 1.87247C18.4001 1.87247 19.5975 3.0747 19.5975 4.55346C19.5975 6.03339 18.4013 7.23679 16.9299 7.23679C15.4597 7.23679 14.2624 6.03339 14.2624 4.55346C14.2635 3.0747 15.4597 1.87247 16.9299 1.87247ZM28.0012 10.8341C30.8343 10.8341 33.1405 8.51753 33.1405 5.66898C33.1405 2.82043 30.8355 0.503857 28.0012 0.503857C25.1669 0.503857 22.862 2.82043 22.862 5.66898C22.862 8.51753 25.1681 10.8341 28.0012 10.8341ZM28.0012 2.3775C29.8072 2.3775 31.2762 3.85392 31.2762 5.66898C31.2762 7.48403 29.8072 8.96045 28.0012 8.96045C26.1953 8.96045 24.7262 7.48403 24.7262 5.66898C24.7262 3.85392 26.1953 2.3775 28.0012 2.3775ZM37.3085 21.9975H43.9179C45.0384 21.9975 45.9501 21.1479 45.9501 20.1039V14.9728C45.9501 12.28 43.4994 10.09 40.4867 10.09H37.6548C35.4722 10.09 33.5287 11.2723 32.6671 12.9901C31.7729 12.5484 30.7469 12.2953 29.6533 12.2953H26.3445C25.252 12.2953 24.2261 12.5484 23.333 12.9901C22.4691 11.2723 20.5255 10.09 18.343 10.09H15.5145C12.5019 10.09 10.0512 12.28 10.0512 14.9728V20.1039C10.0512 21.1479 10.9629 21.9975 12.0833 21.9975H18.6927C16.9019 24.2531 17.043 27.5633 19.1206 29.6549L26.067 36.6363C26.5823 37.1542 27.2667 37.4389 27.9966 37.4389C28.7264 37.4389 29.4119 37.1542 29.9261 36.6363L36.8771 29.6537C38.9571 27.5633 39.0993 24.2543 37.3085 21.9975ZM37.6548 11.9637H40.4867C42.4711 11.9637 44.0858 13.3135 44.0858 14.9728V20.0711C44.0637 20.091 44.0077 20.1238 43.9168 20.1238H35.8826V17.8447C35.8826 16.3918 35.2519 15.0677 34.2212 14.0775C34.6853 12.8448 36.0703 11.9637 37.6548 11.9637ZM29.6544 14.1689C30.7574 14.1689 31.7659 14.5158 32.5354 15.0864C32.5797 15.1286 32.6275 15.1661 32.6799 15.1989C33.5054 15.868 34.0207 16.8077 34.0207 17.8459V19.9574C32.1891 19.5696 30.2036 20.0875 28.7847 21.5147L28.0024 22.3009L27.2201 21.5147C25.8 20.0887 23.8157 19.5707 21.9841 19.9574V17.8447C21.9841 16.8066 22.4982 15.868 23.3213 15.1989C23.3761 15.1649 23.4274 15.1251 23.4729 15.0817C24.2412 14.5134 25.2462 14.1678 26.3468 14.1678H29.6544V14.1689ZM11.9166 20.0723V14.9728C11.9166 13.3135 13.5314 11.9637 15.5157 11.9637H18.3441C19.9286 11.9637 21.3137 12.8448 21.7789 14.0787C20.7494 15.0688 20.1186 16.3929 20.1186 17.8459V20.125H12.0857C11.9947 20.125 11.9387 20.0922 11.9166 20.0723ZM35.562 28.3308L28.611 35.3122C28.4478 35.4762 28.2309 35.5664 27.9989 35.5664C27.7669 35.5664 27.55 35.4762 27.3868 35.3122L20.4404 28.3308C18.9353 26.8157 18.9353 24.3515 20.4404 22.8388C21.1936 22.0818 22.1823 21.7045 23.1709 21.7045C24.1596 21.7045 25.1483 22.083 25.9014 22.8388L27.3425 24.2871C27.5174 24.4628 27.754 24.5613 28.0012 24.5613C28.2484 24.5613 28.4851 24.4628 28.6599 24.2871L30.101 22.8388C30.8262 22.1099 31.7962 21.708 32.8315 21.708C33.8668 21.708 34.8357 22.1099 35.562 22.8388C37.0672 24.3515 37.0672 26.8157 35.562 28.3308Z" fill="#FF6D3E"/>
</svg>
