<svg width="66" height="63" viewBox="0 0 66 63" fill="none" xmlns="http://www.w3.org/2000/svg">
<path d="M30.5078 2.73475C30.5243 2.74516 30.5404 2.75611 30.5561 2.7676C30.5404 2.75624 30.5242 2.74516 30.5078 2.73475Z" fill="#FF695A"/>
<path d="M30.9142 3.79125C30.8943 3.86316 30.8661 3.9325 30.8297 3.99819C30.8657 3.93331 30.894 3.86397 30.9142 3.79125Z" fill="#FF695A"/>
<path d="M60.3724 35.4637C60.3525 35.4937 60.331 35.5222 60.3083 35.5494C60.3313 35.5221 60.3527 35.4935 60.3724 35.4637Z" fill="#FF6D3E"/>
<path d="M30.9488 3.54591C30.9484 3.58119 30.946 3.61633 30.9417 3.65121C30.9458 3.61647 30.9485 3.58146 30.9488 3.54591Z" fill="#FF695A"/>
<path d="M6.55211 21.0446C6.37495 21.5355 6.62465 22.0789 7.11003 22.2583C7.21585 22.2974 7.32434 22.316 7.43068 22.316C7.81239 22.316 8.17098 22.0777 8.30953 21.6938C11.3824 13.1797 18.6681 6.84138 27.3085 4.93439L28.2064 4.02631L25.7551 3.36127C22.0515 4.34058 18.5742 6.08496 15.5341 8.51006C11.4385 11.7771 8.33251 16.1115 6.55211 21.0446Z" fill="#FF695A"/>
<path d="M59.1053 40.6073C59.285 40.1172 59.0379 39.5726 58.5536 39.3909C58.0687 39.2089 57.5308 39.4591 57.3513 39.9492C54.1253 48.7503 46.5887 55.069 37.6363 56.7466L36.1514 57.8626L37.8892 58.6234C47.522 56.8509 55.6378 50.0677 59.1053 40.6075V40.6073Z" fill="#FF695A"/>
<path d="M30.9442 3.43872C30.9438 3.43426 30.9428 3.43007 30.9422 3.42561C30.9466 3.46305 30.9493 3.50049 30.9492 3.5378C30.9492 3.50509 30.9476 3.47197 30.9442 3.43872Z" fill="#FF695A"/>
<path d="M30.7498 4.11971C30.7273 4.14904 30.7031 4.17729 30.6768 4.20406C30.7028 4.17743 30.727 4.14918 30.7498 4.11971Z" fill="#FF695A"/>
<path d="M30.8145 4.02415C30.8001 4.04848 30.7845 4.07213 30.7678 4.09524C30.7845 4.07227 30.7999 4.04861 30.8145 4.02415Z" fill="#FF695A"/>
<path d="M30.921 3.31031C30.9277 3.33775 30.9329 3.36519 30.9372 3.39276C30.9329 3.36478 30.9277 3.33734 30.921 3.31031Z" fill="#FF695A"/>
<path d="M30.3955 2.67419C30.4193 2.68501 30.4427 2.6965 30.4653 2.7092C30.4426 2.6965 30.4192 2.68501 30.3955 2.67419Z" fill="#FF695A"/>
<path d="M30.6971 2.89263C30.7126 2.90953 30.7278 2.92656 30.7421 2.94454C30.7278 2.92656 30.7126 2.90939 30.6971 2.89263Z" fill="#FF695A"/>
<path d="M30.8821 3.18676C30.8937 3.21623 30.9039 3.24651 30.9126 3.27733C30.9039 3.24637 30.8937 3.21623 30.8821 3.18676Z" fill="#FF695A"/>
<path d="M30.8272 3.07038C30.8451 3.10241 30.8615 3.1354 30.8758 3.16959C30.8615 3.1354 30.8452 3.10228 30.8272 3.07038Z" fill="#FF695A"/>
<path d="M60.2935 35.566C60.275 35.5871 60.2557 35.6069 60.2355 35.6261C60.2557 35.6069 60.275 35.5869 60.2935 35.566Z" fill="#FF6D3E"/>
<path d="M59.0651 35.7155C59.0412 35.6987 59.018 35.6809 58.9956 35.662C59.018 35.6809 59.0411 35.6987 59.0651 35.7155Z" fill="#FF6D3E"/>
<path d="M58.8113 35.451C58.795 35.4256 58.7799 35.3995 58.766 35.3723C58.7799 35.3993 58.795 35.4254 58.8113 35.451Z" fill="#FF6D3E"/>
<path d="M59.5946 35.8834C59.5953 35.8834 59.5961 35.8835 59.5967 35.8835C59.6325 35.8835 59.6678 35.8807 59.7028 35.8766C59.6674 35.8808 59.6317 35.8834 59.5957 35.8834C59.5953 35.8834 59.5949 35.8834 59.5946 35.8834Z" fill="#FF6D3E"/>
<path d="M59.2868 35.8298C59.2162 35.8048 59.1494 35.7716 59.0872 35.7308C59.1488 35.7712 59.2154 35.8047 59.2868 35.8298Z" fill="#FF6D3E"/>
<path d="M60.8356 31.3376C60.8394 31.1452 60.8416 30.9529 60.8416 30.7605C60.8416 23.6338 58.2157 16.8236 53.4474 11.5841C48.7075 6.37571 42.2732 3.16797 35.3295 2.552C34.8146 2.50523 34.3612 2.89141 34.316 3.41209C34.2708 3.93277 34.6515 4.39181 35.1661 4.4375C48.5145 5.622 58.9707 17.1844 58.9707 30.7605C58.9707 31.0111 58.966 31.2617 58.9592 31.5124L59.7128 33.0479L60.8356 31.3376Z" fill="#FF695A"/>
<path d="M58.9748 35.6443C58.9475 35.6198 58.9214 35.5938 58.8969 35.5661C58.9212 35.5937 58.9474 35.6195 58.9748 35.6443Z" fill="#FF6D3E"/>
<path d="M30.2686 2.62702C30.3011 2.63635 30.3329 2.64716 30.3637 2.65987C30.3327 2.64716 30.3009 2.63635 30.2686 2.62702Z" fill="#FF695A"/>
<path d="M60.2148 35.6456C60.1895 35.6682 60.1635 35.6897 60.1362 35.7091C60.1636 35.6895 60.1897 35.668 60.2148 35.6456Z" fill="#FF6D3E"/>
<path d="M60.0237 35.7775C59.9973 35.7913 59.9703 35.804 59.9426 35.8153C59.9704 35.804 59.9973 35.7913 60.0237 35.7775Z" fill="#FF6D3E"/>
<path d="M59.9305 35.8205C59.8976 35.8332 59.8641 35.844 59.8299 35.853C59.8641 35.8439 59.8977 35.8332 59.9305 35.8205Z" fill="#FF6D3E"/>
<path d="M59.455 35.8726C59.4662 35.8743 59.4772 35.8738 59.4884 35.8751C59.4691 35.8728 59.4499 35.8711 59.4311 35.8676C59.4392 35.869 59.4468 35.8712 59.455 35.8726Z" fill="#FF6D3E"/>
<path d="M59.3938 35.86C59.3671 35.854 59.3407 35.8469 59.3148 35.8386C59.3406 35.8469 59.3669 35.854 59.3938 35.86Z" fill="#FF6D3E"/>
<path d="M30.9378 3.67851C30.9334 3.70812 30.9277 3.73745 30.9205 3.76637C30.9275 3.73745 30.9334 3.70825 30.9378 3.67851Z" fill="#FF695A"/>
<path d="M6.92566 26.0181L6.92793 26.0224C6.92713 26.021 6.92646 26.0196 6.92566 26.0181Z" fill="#FF6D3E"/>
<path d="M11.7387 49.3577C16.1315 54.4587 22.1753 57.8059 28.7572 58.7827C28.8031 58.7894 28.8489 58.7928 28.894 58.7928C29.3505 58.7928 29.7501 58.4541 29.8184 57.9835C29.8933 57.4665 29.5397 56.9857 29.0285 56.9099C16.3164 55.0236 6.7302 43.7818 6.7302 30.7607C6.7302 30.3894 6.73835 30.0184 6.75345 29.6486L6.038 28.323L4.86403 30.2712C4.86122 30.4344 4.85935 30.5974 4.85935 30.7607C4.85935 37.6014 7.30256 44.2061 11.7389 49.3579L11.7387 49.3577Z" fill="#FF695A"/>
<path d="M37.6363 56.7466L42.789 52.8738C43.2037 52.5621 43.2903 51.9694 42.9821 51.5498C42.674 51.1302 42.0881 51.0425 41.6734 51.3545L33.7355 57.3204C33.4672 57.5219 33.3256 57.853 33.3641 58.1889C33.4024 58.5248 33.6151 58.8144 33.9217 58.9487L42.9958 62.922C43.1169 62.975 43.243 63 43.3668 63C43.7286 63 44.0731 62.7866 44.2259 62.4293C44.4311 61.9496 44.2131 61.3924 43.7389 61.1848L37.8892 58.6234L36.1514 57.8626L37.6363 56.7466Z" fill="#FF695A"/>
<path d="M65.5818 25.8188C65.1514 25.5294 64.5708 25.6482 64.285 26.0835L60.8356 31.3376L59.7128 33.0479L58.9592 31.5124L56.0366 25.5578C55.8068 25.0896 55.2455 24.8984 54.7827 25.1312C54.3201 25.3637 54.1311 25.9316 54.3611 26.3998L58.758 35.3581C58.7604 35.3631 58.7637 35.3674 58.7662 35.3724C58.7801 35.3996 58.7952 35.4257 58.8115 35.4511C58.8174 35.4603 58.8233 35.4695 58.8296 35.4785C58.8481 35.5056 58.8679 35.5315 58.889 35.5561C58.8918 35.5595 58.8944 35.5632 58.8973 35.5664C58.9218 35.5941 58.9479 35.6199 58.9752 35.6445C58.982 35.6506 58.9891 35.6563 58.996 35.6621C59.0184 35.681 59.0416 35.699 59.0655 35.7156C59.0729 35.7208 59.0801 35.726 59.0876 35.7309C59.1498 35.7717 59.2166 35.805 59.2872 35.83C59.2964 35.8332 59.3059 35.8358 59.3151 35.8388C59.341 35.847 59.3673 35.8542 59.394 35.8601C59.4065 35.863 59.4186 35.8655 59.4312 35.8678C59.45 35.8712 59.4694 35.8731 59.4885 35.8754C59.5048 35.8773 59.5207 35.8808 59.5373 35.8818C59.5565 35.883 59.5756 35.8835 59.5949 35.8835H59.5959C59.632 35.8835 59.6677 35.8809 59.7031 35.8768C59.7103 35.8759 59.7175 35.8747 59.7247 35.8738C59.7545 35.8696 59.7842 35.8639 59.8133 35.8569C59.8189 35.8555 59.8247 35.8545 59.8303 35.853C59.8645 35.844 59.898 35.8332 59.9309 35.8205C59.935 35.8189 59.9389 35.817 59.9429 35.8154C59.9705 35.8042 59.9975 35.7915 60.024 35.7777C60.0323 35.7733 60.0406 35.7689 60.0488 35.7643C60.0749 35.7497 60.1003 35.734 60.1249 35.7168C60.1287 35.7141 60.1327 35.712 60.1365 35.7093C60.1639 35.6897 60.1898 35.6682 60.215 35.6457C60.2221 35.6394 60.2288 35.6328 60.2358 35.6263C60.2559 35.6071 60.2753 35.5871 60.2937 35.5661C60.2987 35.5606 60.3038 35.5553 60.3086 35.5496C60.3314 35.5225 60.3529 35.4939 60.3727 35.4639C60.3734 35.4629 60.3743 35.4619 60.375 35.4608L65.8436 27.1309C66.1295 26.6954 66.0124 26.1082 65.582 25.819L65.5818 25.8188Z" fill="#FF695A"/>
<path d="M27.3085 4.93439L22.3614 9.93692C21.996 10.3063 21.9959 10.9057 22.361 11.2753C22.5437 11.4602 22.7831 11.5528 23.0226 11.5528C23.2622 11.5528 23.5012 11.4603 23.6838 11.2757L30.675 4.20622C30.675 4.20622 30.6762 4.20487 30.6768 4.20419C30.7031 4.17743 30.7271 4.14891 30.7498 4.11971C30.7561 4.11174 30.7617 4.10349 30.7676 4.09538C30.7843 4.07227 30.8 4.04861 30.8144 4.02428C30.8196 4.01563 30.8248 4.00698 30.8297 3.99819C30.866 3.9325 30.8943 3.86316 30.9142 3.79125C30.9165 3.783 30.9183 3.77489 30.9203 3.76651C30.9275 3.73758 30.9333 3.70825 30.9377 3.67865C30.939 3.66959 30.9406 3.66054 30.9417 3.65134C30.9458 3.61647 30.9484 3.58119 30.9488 3.54591C30.9488 3.54321 30.9492 3.5405 30.9492 3.5378C30.9492 3.50049 30.9465 3.46292 30.9422 3.42561C30.9409 3.41466 30.9389 3.40371 30.9372 3.39276C30.933 3.36519 30.9277 3.33761 30.921 3.31031C30.9195 3.30422 30.919 3.29828 30.9174 3.29219C30.9161 3.28706 30.9138 3.28246 30.9124 3.27746C30.9038 3.24651 30.8936 3.21636 30.882 3.1869C30.8797 3.18122 30.878 3.17541 30.8757 3.16973C30.8614 3.13553 30.8451 3.10255 30.8271 3.07051C30.8216 3.06078 30.8156 3.05159 30.8098 3.04213C30.7967 3.0205 30.7829 2.99969 30.7682 2.97927C30.7597 2.96751 30.7511 2.95589 30.7421 2.94454C30.7278 2.92656 30.7126 2.90953 30.6971 2.89263C30.6863 2.88087 30.6757 2.86897 30.6642 2.85776C30.6427 2.83667 30.6201 2.81666 30.5967 2.79774C30.5836 2.7872 30.5699 2.77746 30.5561 2.7676C30.5404 2.75624 30.5242 2.74516 30.5078 2.73475C30.4937 2.72596 30.4798 2.71745 30.4654 2.70934C30.4427 2.69663 30.4194 2.68514 30.3957 2.67433C30.3851 2.66946 30.3748 2.66433 30.3639 2.66C30.333 2.64743 30.3012 2.63648 30.2687 2.62715C30.2645 2.62594 30.2605 2.62405 30.2562 2.62283L20.7086 0.0326843C20.2096 -0.103162 19.6967 0.196917 19.5628 0.701645C19.429 1.20651 19.7252 1.72543 20.224 1.86087L25.7551 3.36127L28.2064 4.02631L27.3085 4.93452V4.93439Z" fill="#FF695A"/>
<path d="M6.75331 29.6485L9.99921 35.6626C10.1692 35.9775 10.4899 36.1556 10.821 36.1556C10.9725 36.1556 11.1262 36.1183 11.2686 36.0398C11.722 35.7892 11.8889 35.2143 11.6413 34.7555L6.92793 26.0224L6.92566 26.0181L6.90348 25.9771C6.74329 25.6804 6.43881 25.4927 6.10467 25.4844C6.09719 25.4844 6.08984 25.4841 6.08222 25.4841C5.75663 25.4841 5.45375 25.6558 5.28354 25.9379L0.136865 34.4787C-0.132079 34.925 0.00753684 35.5072 0.448696 35.7794C0.889721 36.0514 1.46529 35.9101 1.73436 35.4639L6.03773 28.3227L6.75318 29.6483L6.75331 29.6485Z" fill="#FF695A"/>
<path d="M41.9095 41.6115L33.1193 45.1814V46.5467C33.1193 47.0694 32.7005 47.4932 32.1838 47.4932C31.6672 47.4932 31.2483 47.0694 31.2483 46.5467V45.1814L17.5994 39.6381V21.4925L16.3535 20.9869C15.874 20.7924 15.6413 20.2413 15.8335 19.7563C16.0258 19.271 16.5708 19.0358 17.0499 19.2302L19.1756 20.093L32.1838 14.8101L34.0731 15.5775L36.1005 14.6717C36.3307 14.5687 36.5925 14.5642 36.8264 14.659L41.2834 16.4659L32.5324 12.9119C32.3087 12.8211 32.059 12.8211 31.8354 12.9119L16.3155 19.2149C15.9609 19.3589 15.7284 19.7068 15.7284 20.0933V40.2782C15.7284 40.6648 15.9607 41.0126 16.3155 41.1565L31.8354 47.4595C31.9472 47.505 32.0656 47.5277 32.1838 47.5277C32.3021 47.5277 32.4204 47.505 32.5323 47.4595L43.1603 43.1433C42.6729 42.6988 42.2504 42.1827 41.9095 41.6115Z" fill="#FF6D3E"/>
<path d="M48.0523 19.2149L43.1353 17.218C43.4764 17.3632 43.7019 17.6976 43.7083 18.073C43.7149 18.4536 43.4951 18.8013 43.1508 18.9551L42.7886 19.1169L45.1911 20.0926L47.2873 19.2417C47.7664 19.0473 48.3114 19.2826 48.5038 19.7676C48.696 20.2528 48.4634 20.8038 47.9839 20.9984L46.7682 21.4919V31.4641C47.0451 31.4284 47.3266 31.408 47.6128 31.408C47.9617 31.408 48.3046 31.4357 48.6392 31.4883V20.0933C48.6392 19.7068 48.4069 19.3589 48.0522 19.2149H48.0523Z" fill="#FF6D3E"/>
<path d="M30.4499 24.6689L28.9307 25.3551V26.0917L31.2485 27.0324V26.4652C31.2485 25.9425 31.6673 25.5187 32.1839 25.5187C32.7006 25.5187 33.1194 25.9425 33.1194 26.4652V27.0324L47.984 20.9982C48.4635 20.8037 48.6961 20.2525 48.5039 19.7675C48.3115 19.2825 47.7664 19.0472 47.2874 19.2415L32.1841 25.3725L30.45 24.6687L30.4499 24.6689Z" fill="#FF6D3E"/>
<path d="M20.7655 22.1393C20.7655 21.7645 20.9842 21.425 21.3232 21.2736L21.6855 21.1116L17.0501 19.2302C16.5709 19.0358 16.0261 19.271 15.8338 19.7563C15.6416 20.2414 15.8743 20.7924 16.3538 20.9869L20.7657 22.7776V22.1393H20.7655Z" fill="#FF6D3E"/>
<path d="M33.1193 26.4653C33.1193 25.9426 32.7005 25.5189 32.1838 25.5189C31.6672 25.5189 31.2483 25.9426 31.2483 26.4653V46.5467C31.2483 47.0694 31.6672 47.4932 32.1838 47.4932C32.7005 47.4932 33.1193 47.0694 33.1193 46.5467V26.4653Z" fill="#FF6D3E"/>
<path d="M36.1007 14.6717L21.6855 21.1116L21.3232 21.2736C20.9842 21.425 20.7657 21.7645 20.7657 22.1393L20.7655 27.3427C20.7655 27.7255 20.9936 28.0708 21.3432 28.2172L27.6374 30.8533C27.7525 30.9015 27.874 30.9253 27.9951 30.9253C28.1776 30.9253 28.3589 30.8714 28.5151 30.7657C28.7747 30.59 28.9307 30.2949 28.9307 29.9788V25.3551L30.4499 24.6689L38.6136 20.982L42.7886 19.1169L43.1507 18.9551C43.495 18.8012 43.7149 18.4536 43.7083 18.073C43.7019 17.6976 43.4764 17.3632 43.1353 17.218C43.1304 17.2159 43.1258 17.2129 43.1207 17.2109L41.2834 16.4659L36.8264 14.659C36.5925 14.5642 36.3307 14.5687 36.1005 14.6717L36.1007 14.6717ZM37.8546 19.2521L27.614 23.877C27.277 24.0292 27.0599 24.3678 27.0599 24.7412V28.5628L22.6366 26.7103V22.7561L36.4963 16.5642L40.3625 18.1317L37.8546 19.2521Z" fill="#FF6D3E"/>
<path d="M47.6129 31.408C47.3266 31.408 47.0452 31.4284 46.7684 31.4641C43.4948 31.8853 40.955 34.7175 40.955 38.1402C40.955 39.4092 41.3041 40.5972 41.9096 41.6115C42.2506 42.1827 42.673 42.6988 43.1604 43.1433C44.3409 44.2198 45.9024 44.8763 47.6129 44.8763C51.2819 44.8763 54.267 41.8545 54.267 38.1402C54.267 34.7813 51.8227 31.9892 48.6394 31.4884C48.3047 31.4358 47.962 31.4081 47.6129 31.4081V31.408ZM47.6129 42.9834C44.9733 42.9834 42.826 40.8108 42.826 38.1402C42.826 35.4696 44.9733 33.3009 47.6129 33.3009C50.2525 33.3009 52.396 35.4718 52.396 38.1402C52.396 40.8086 50.2504 42.9834 47.6129 42.9834Z" fill="#FF6D3E"/>
<path d="M49.3109 35.7582L46.5865 38.5146L45.9148 37.8351C45.5495 37.4655 44.9573 37.4657 44.592 37.8351C44.2267 38.2045 44.2268 38.8039 44.592 39.1734L45.9252 40.5222C46.1078 40.7069 46.3471 40.7994 46.5865 40.7994C46.826 40.7994 47.0654 40.7069 47.248 40.5222L50.6338 37.0967C50.9991 36.7271 50.9991 36.1278 50.6338 35.7582C50.2685 35.3887 49.6761 35.3887 49.3109 35.7582Z" fill="#FF6D3E"/>
</svg>
