<svg width="48" height="62" viewBox="0 0 48 62" fill="none" xmlns="http://www.w3.org/2000/svg">
<path d="M46.6566 24.1906L45.0297 21.8904C44.1373 20.6301 43.8292 19.2743 44.087 17.7471L44.5624 14.9659C44.9088 12.925 44.3771 10.8342 43.1033 9.22973C41.8297 7.6255 39.9193 6.63957 37.8613 6.52479L35.0571 6.37034C33.5164 6.28298 32.2694 5.68009 31.2452 4.52817L29.3758 2.4203C28.0106 0.882194 26.0517 0 24.0012 0C21.9508 0 19.9918 0.882194 18.6263 2.42066L16.7577 4.52757C15.7331 5.68021 14.4859 6.2831 12.9466 6.37034L10.1404 6.52491C8.0829 6.63969 6.17251 7.62562 4.89892 9.22997C3.6252 10.8344 3.09361 12.9251 3.44039 14.9668L3.91497 17.7456C4.1731 19.2744 3.86497 20.6303 2.97246 21.8908L1.34604 24.1903C0.221859 25.7778 -0.219623 27.6987 0.102883 29.5992C0.425026 31.4981 1.46683 33.1573 3.03672 34.2713C3.41744 34.5413 3.9442 34.4503 4.2132 34.068C4.48219 33.6855 4.3916 33.1565 4.01088 32.8863C2.81012 32.0343 2.01315 30.7658 1.76699 29.3144C1.52046 27.8614 1.85951 26.3906 2.72194 25.1728L4.34848 22.8732C5.49742 21.2503 5.91161 19.4297 5.57908 17.4604L5.10426 14.6809C4.83454 13.0928 5.23036 11.5322 6.21889 10.2871C7.20719 9.04216 8.6331 8.30738 10.2335 8.21808L13.0404 8.06338C15.0231 7.95091 16.6973 7.14127 18.0175 5.65618L19.8865 3.5488C20.9319 2.37116 22.4316 1.69571 24.0013 1.69571C25.571 1.69571 27.0708 2.37104 28.1158 3.54855L29.9856 5.65703C31.3054 7.14139 32.9796 7.95091 34.9636 8.0635L37.7685 8.21808C39.3695 8.30738 40.7955 9.04216 41.7838 10.287C42.7723 11.5322 43.1683 13.0927 42.8988 14.68L42.4232 17.4619C42.0911 19.4295 42.5052 21.2502 43.6541 22.8729L45.2811 25.1732C46.1976 26.4673 46.5238 28.0874 46.1763 29.618C45.8239 31.1702 44.8566 32.4534 43.4528 33.2311L40.9927 34.5937C39.2558 35.5552 38.0968 37.0137 37.5476 38.9296L37.4895 39.1332C37.4798 39.1611 37.4717 39.1897 37.465 39.2189L36.7719 41.6443C36.3348 43.1701 35.2768 44.4355 33.869 45.116C32.4409 45.8064 30.8385 45.8462 29.3567 45.2282L26.7636 44.1473C24.9753 43.4006 23.1624 43.3849 21.373 44.0949C21.3376 44.1063 21.3031 44.1195 21.2695 44.1353C21.2596 44.1394 21.2496 44.1428 21.2397 44.1469L18.646 45.2282C17.1645 45.8462 15.562 45.8064 14.1339 45.1159C12.7261 44.4355 11.668 43.1699 11.2311 41.6446L10.6997 39.7843C10.6923 39.7514 10.6832 39.7191 10.672 39.6876L10.4557 38.9302C9.91092 37.0174 8.75304 35.5586 7.0138 34.5937L6.54913 34.3363C6.14099 34.11 5.62763 34.2592 5.40236 34.6692C5.17721 35.0793 5.32566 35.595 5.73381 35.8211L6.19812 36.0783C7.52957 36.817 8.41592 37.9334 8.83276 39.3972L8.99957 39.9812L4.28398 57.651C4.19556 57.9821 4.31442 58.3342 4.58535 58.5431C4.85604 58.7517 5.22517 58.776 5.5211 58.6049L12.5233 54.5458L16.5641 61.5761C16.7162 61.8406 16.9961 62 17.2948 62C17.3314 62 17.3683 61.9976 17.4052 61.9927C17.7437 61.9481 18.022 61.7027 18.1103 61.3715L22.3293 45.5495C23.554 45.1465 24.7905 45.1878 26.0129 45.6729L29.8923 60.2149C29.9806 60.546 30.2589 60.7911 30.5972 60.836C30.6341 60.8409 30.6711 60.8432 30.7077 60.8432C31.0063 60.8432 31.2862 60.6839 31.4384 60.4195L35.4825 53.3891L42.4814 57.448C42.7769 57.6194 43.1465 57.5951 43.4173 57.3864C43.6881 57.1777 43.8071 56.8255 43.7187 56.4943L39.1634 39.4205L39.1698 39.3979C39.5961 37.9108 40.4587 36.825 41.8074 36.0785L44.2679 34.7157C46.0723 33.7159 47.3677 31.9952 47.822 29.9947C48.2763 27.9936 47.8515 25.8779 46.6566 24.1906ZM17.0069 58.9552L13.5632 52.9637C13.3301 52.5582 12.8141 52.4194 12.4103 52.6533L6.44187 56.1132L9.93641 43.0191C10.6243 44.5995 11.849 45.8934 13.4017 46.6439C14.3782 47.1159 15.4405 47.3529 16.5074 47.3529C17.4516 47.3529 18.3993 47.1671 19.2931 46.7944L20.3695 46.3457L17.0069 58.9552ZM35.5957 51.4967C35.1922 51.2625 34.6758 51.4014 34.4427 51.8068L30.9954 57.7999L27.9782 46.4896L28.7093 46.7944C30.613 47.5887 32.7604 47.5338 34.6008 46.644C36.3038 45.8207 37.6133 44.3448 38.2513 42.5525L41.5607 54.9563L35.5957 51.4967Z" fill="#FF6D3E"/>
<path d="M3.95556 26.6185C3.40524 27.3995 3.20957 28.3717 3.41889 29.2859C3.6275 30.1971 4.22371 30.9828 5.05353 31.4412L7.59951 32.8519C9.9393 34.1486 11.5663 36.1983 12.3043 38.7789L13.1045 41.5846C13.3679 42.5033 14.0006 43.2631 14.8403 43.6691C15.6798 44.0751 16.6648 44.0983 17.5437 43.7322L20.2266 42.6131C22.696 41.5812 25.3066 41.5811 27.7765 42.6132L30.4596 43.7325C30.8741 43.9051 31.3124 43.9912 31.7479 43.9912C32.2352 43.9912 32.7191 43.8835 33.1622 43.6691C34.002 43.2631 34.6347 42.5033 34.8986 41.5832L35.698 38.7795C36.4359 36.1996 38.0641 34.1499 40.407 32.8516L42.9479 31.4416C43.7788 30.9827 44.3751 30.197 44.5837 29.2857C44.793 28.3716 44.5974 27.3993 44.0459 26.6166L42.3613 24.2381C40.8122 22.0493 40.231 19.4934 40.6805 16.8476L41.173 13.9691C41.3321 13.0254 41.0898 12.0647 40.5081 11.3335C39.927 10.6028 39.0483 10.1535 38.0979 10.101L35.199 9.93976C34.509 9.90227 33.8265 9.79574 33.1701 9.62309C32.7192 9.50406 32.2579 9.77523 32.1398 10.2283C32.0215 10.6812 32.2912 11.1446 32.7423 11.2632C33.5084 11.465 34.3043 11.5894 35.1067 11.6329L38.005 11.7942C38.4832 11.8205 38.9038 12.0328 39.1894 12.3918C39.4753 12.7515 39.5887 13.2109 39.509 13.684L39.0168 16.5614C38.4899 19.6621 39.1708 22.6564 40.9857 25.2207L42.6693 27.5978C42.9461 27.9907 43.0418 28.455 42.9386 28.9055C42.8362 29.3529 42.5508 29.7258 42.1333 29.9564L39.5915 31.3668C36.8476 32.8874 34.9404 35.2886 34.0755 38.3118L33.2764 41.1149C33.1439 41.5769 32.8434 41.9414 32.4301 42.1411C32.0175 42.3409 31.5471 42.3496 31.1067 42.1662L28.4247 41.0473C25.5307 39.8381 22.4718 39.8381 19.579 41.0472L16.8971 42.166C16.4559 42.3496 15.9856 42.3407 15.5729 42.1411C15.1598 41.9414 14.8594 41.5769 14.7271 41.1162L13.9273 38.3112C13.0624 35.2874 11.1565 32.8861 8.41507 31.367L5.86812 29.9556C5.45225 29.726 5.1667 29.353 5.06428 28.9057C4.96112 28.4553 5.05691 27.9909 5.33255 27.5997L7.01743 25.2206C8.83216 22.6565 9.51292 19.6623 8.98628 16.5615L8.49745 13.6843C8.4164 13.2103 8.52874 12.7516 8.81368 12.3925C9.09886 12.0332 9.51944 11.8207 9.99849 11.7943L12.8961 11.633C16.0268 11.4592 18.7821 10.1271 20.8642 7.78068L22.7974 5.60207C23.1095 5.25143 23.5374 5.05851 24.0026 5.05851H24.0042C24.4682 5.05887 24.8946 5.25167 25.2047 5.60122L27.1383 7.7802C27.9014 8.64188 28.7704 9.37751 29.7211 9.96681C30.1176 10.2129 30.6379 10.089 30.8826 9.69055C31.1274 9.2921 31.0044 8.76965 30.6076 8.52383C29.7966 8.02104 29.0537 7.3917 28.3991 6.65243L26.465 4.47285C25.8399 3.76816 24.9435 3.36365 24.0056 3.3628C24.0047 3.3628 24.0038 3.3628 24.0028 3.3628C23.0644 3.3628 22.1665 3.76683 21.5382 4.47285L19.6042 6.65243C17.8274 8.65475 15.4755 9.79149 12.8028 9.93988L9.9056 10.1011C8.95367 10.1538 8.07457 10.6036 7.49382 11.3355C6.91319 12.0672 6.6727 13.0279 6.83383 13.9702L7.32254 16.8466C7.77199 19.4933 7.19088 22.0493 5.64201 24.2378L3.95556 26.6185Z" fill="#FF6D3E"/>
<path d="M27.2079 34.322C27.092 33.9644 26.7583 33.7257 26.3806 33.7368L25.1564 33.7726L24.8131 32.5924C24.708 32.2311 24.3784 31.9827 24.0036 31.9823C24.0033 31.9823 24.0031 31.9823 24.0028 31.9823C23.6285 31.9823 23.2988 32.2301 23.1931 32.5909L22.847 33.7726L21.6217 33.7368C21.2452 33.7244 20.9104 33.9642 20.7945 34.322C20.6786 34.6798 20.8112 35.0715 21.1205 35.2841L22.132 35.9793L21.7211 37.1388C21.5956 37.4931 21.7175 37.888 22.0203 38.1091C22.1684 38.217 22.3425 38.2709 22.5164 38.2709C22.6982 38.2709 22.8799 38.2121 23.0313 38.0947L24.0024 37.3437L24.9702 38.0943C25.2668 38.3241 25.6785 38.3301 25.9817 38.1093C26.2849 37.8882 26.4067 37.4932 26.281 37.1388L25.8702 35.9793L26.8818 35.2841C27.1911 35.0715 27.3237 34.6798 27.2079 34.322Z" fill="#FF6D3E"/>
<path d="M35.6517 30.1892C35.5359 29.8314 35.1977 29.5913 34.8244 29.604L33.6024 29.6398L33.2565 28.4582C33.1509 28.0973 32.8213 27.8496 32.4467 27.8496C32.0723 27.8496 31.7426 28.0975 31.6369 28.4582L31.291 29.6398L30.0656 29.604C29.6873 29.5913 29.3543 29.8314 29.2383 30.1892C29.1225 30.547 29.2551 30.9388 29.5643 31.1514L30.5759 31.8466L30.1651 33.006C30.0395 33.3602 30.1613 33.7552 30.4642 33.9763C30.767 34.1971 31.1787 34.1917 31.4752 33.962L32.4468 33.2105L33.4184 33.962C33.5699 34.0793 33.7516 34.1381 33.9334 34.1381C34.1074 34.1381 34.2818 34.0842 34.43 33.9758C34.733 33.7544 34.8544 33.3588 34.728 33.0046L34.3153 31.846L35.3258 31.1514C35.6349 30.9389 35.7675 30.5471 35.6517 30.1892Z" fill="#FF6D3E"/>
<path d="M18.7639 30.1892C18.6479 29.8314 18.3168 29.5906 17.9366 29.604L16.7113 29.6398L16.3654 28.4582C16.2598 28.0972 15.9302 27.8496 15.5556 27.8496C15.5554 27.8496 15.5551 27.8496 15.5549 27.8496C15.1802 27.85 14.8506 28.0984 14.7454 28.4596L14.4021 29.6398L13.1779 29.604C12.7979 29.5913 12.4666 29.8314 12.3506 30.1892C12.2348 30.547 12.3674 30.9388 12.6766 31.1514L13.6881 31.8466L13.2773 33.006C13.1518 33.3604 13.2738 33.7556 13.5767 33.9765C13.88 34.1975 14.2918 34.1912 14.5882 33.9615L15.5561 33.2109L16.5269 33.962C16.6785 34.0793 16.8601 34.1381 17.0419 34.1381C17.2159 34.1381 17.3899 34.0843 17.5379 33.9763C17.8408 33.7552 17.9626 33.3603 17.8372 33.006L17.4264 31.8466L18.4378 31.1514C18.7471 30.9389 18.8797 30.5471 18.7639 30.1892Z" fill="#FF6D3E"/>
<path d="M32.1955 14.1886L24.4249 9.68181C24.164 9.53063 23.8423 9.53027 23.5809 9.68169L15.8069 14.1885C15.5456 14.34 15.3847 14.6198 15.3847 14.9229V23.9402C15.3847 24.2432 15.5456 24.5231 15.8069 24.6746L23.5809 29.1814C23.5831 29.1826 23.5854 29.1835 23.5875 29.1846C23.6174 29.2017 23.6482 29.2172 23.6802 29.2305C23.6823 29.2313 23.6843 29.2319 23.6864 29.2328C23.7152 29.2445 23.7451 29.2544 23.7754 29.263C23.7837 29.2654 23.7921 29.2675 23.8004 29.2695C23.8254 29.2757 23.8507 29.2807 23.8765 29.2846C23.8852 29.2859 23.8938 29.2875 23.9025 29.2886C23.9354 29.2925 23.9688 29.2951 24.0028 29.2951C24.0369 29.2951 24.0704 29.2926 24.1033 29.2886C24.1118 29.2876 24.1201 29.286 24.1287 29.2847C24.1548 29.2807 24.1806 29.2756 24.2059 29.2694C24.2139 29.2673 24.2218 29.2654 24.2297 29.2632C24.2611 29.2544 24.2919 29.2443 24.3217 29.232C24.3228 29.2315 24.3239 29.2313 24.325 29.2308C24.3575 29.2174 24.3885 29.2017 24.4188 29.1845C24.4209 29.1834 24.4229 29.1826 24.425 29.1814L32.1956 24.6746C32.4567 24.5231 32.6176 24.2433 32.6176 23.9403V14.923C32.6176 14.62 32.4566 14.3402 32.1955 14.1886ZM24.0027 18.4508L21.8049 17.1766L27.8885 13.6487L30.0854 14.9229L24.0027 18.4508ZM24.0027 11.3949L26.2006 12.6697L20.1165 16.1977L17.9174 14.9228L24.0027 11.3949ZM17.0728 16.3913L19.2701 17.6651V21.2491C19.2701 21.7174 19.6481 22.097 20.1142 22.097C20.5803 22.097 20.9582 21.7173 20.9582 21.2491V18.6438L23.1609 19.9209C23.1602 19.9357 23.1587 19.9504 23.1587 19.9654V26.9789L17.0727 23.4506V16.3913H17.0728ZM24.847 26.9784V19.9653C24.847 19.9502 24.8456 19.9354 24.8449 19.9206L30.9295 16.3915V23.4508L24.847 26.9784Z" fill="#FF695A"/>
</svg>
