<svg width="60" height="60" viewBox="0 0 60 60" fill="none" xmlns="http://www.w3.org/2000/svg">
<path d="M53.5868 13.8934C53.2089 13.8953 52.8624 13.6826 52.6938 13.3444L50.8277 9.6113L48.0691 7.77239C47.7929 7.58825 47.6272 7.27862 47.6272 6.94669C47.6272 6.61477 47.7929 6.30513 48.0691 6.121L50.8277 4.28208L52.6938 0.54901C52.8803 0.235982 53.2176 0.0440952 53.582 0.0440952C53.9459 0.0440952 54.2836 0.235982 54.4697 0.54901L56.3358 4.28208L59.0944 6.121C59.3706 6.30513 59.5363 6.61477 59.5363 6.94669C59.5363 7.27862 59.3706 7.58825 59.0944 7.77239L56.3358 9.6113L54.4799 13.3444C54.3108 13.6826 53.9648 13.8953 53.5868 13.8934ZM50.411 6.94669L52.1496 8.10577C52.2931 8.2022 52.4093 8.334 52.4874 8.48809L53.5868 10.6822L54.6786 8.48809C54.7561 8.334 54.8724 8.2022 55.0158 8.10577L56.7622 6.94669L55.0207 5.78762C54.8772 5.69119 54.7614 5.55939 54.6834 5.4053L53.5868 3.2112L52.4951 5.4053C52.4171 5.55939 52.3008 5.69119 52.1579 5.78762L50.411 6.94669Z" fill="url(#paint0_linear_21_428)"/>
<path d="M5.95237 3.96954H7.93714V5.95431H5.95237V3.96954Z" fill="url(#paint1_linear_21_428)"/>
<path d="M5.95237 7.93908H7.93714V9.92385H5.95237V7.93908Z" fill="url(#paint2_linear_21_428)"/>
<path d="M7.93714 5.95431H9.92191V7.93908H7.93714V5.95431Z" fill="url(#paint3_linear_21_428)"/>
<path d="M3.9676 5.95431H5.95237V7.93908H3.9676V5.95431Z" fill="url(#paint4_linear_21_428)"/>
<path d="M54.5792 28.7792H56.564V30.7639H54.5792V28.7792Z" fill="url(#paint5_linear_21_428)"/>
<path d="M49.4235 53.047C47.3752 51.2837 46.2375 48.6864 46.3315 45.985L46.3911 44.4339C46.472 42.2534 45.89 40.0995 44.7218 38.2562L44.447 37.8167C44.7256 37.6728 44.9815 37.4892 45.2068 37.2711C46.5079 35.9701 46.3344 33.9417 46.1667 31.9807C45.9773 30.8812 46.0151 29.7546 46.2777 28.6701C46.8427 27.7645 47.5855 26.9834 48.4611 26.3738C49.9318 25.1459 51.6021 23.7547 51.6021 21.8325C51.6021 19.9102 49.9318 18.519 48.4592 17.2911C47.5831 16.6816 46.8408 15.9004 46.2758 14.9948C46.0131 13.9103 45.9753 12.7833 46.1648 11.6833C46.3324 9.72324 46.5069 7.69583 45.2058 6.39478C43.9048 5.09372 41.8764 5.26768 39.9168 5.43534C38.8169 5.62432 37.6898 5.58652 36.6048 5.32438C35.6997 4.75889 34.9186 4.01654 34.3085 3.14094C33.083 1.67029 31.6919 0 29.7696 0C27.8473 0 26.4557 1.67029 25.2283 3.14287C24.6182 4.01848 23.8371 4.76131 22.9319 5.32631C21.847 5.58846 20.7204 5.62626 19.6204 5.43728C17.6613 5.26865 15.633 5.09372 14.3319 6.39574C13.0309 7.69776 13.2048 9.72518 13.3725 11.6862C13.5615 12.7857 13.5237 13.9128 13.261 14.9967C12.6965 15.9024 11.9537 16.6835 11.0781 17.2931C9.60743 18.519 7.93714 19.9102 7.93714 21.8325C7.93714 23.7547 9.60743 25.1459 11.08 26.3738C11.9556 26.9834 12.6985 27.7645 13.263 28.6701C13.5256 29.7546 13.5634 30.8817 13.3744 31.9816C13.2068 33.9417 13.0318 35.9691 14.3329 37.2701C14.5582 37.4887 14.8145 37.6733 15.0941 37.8167L14.8223 38.2514C13.6516 40.0966 13.0687 42.2534 13.1501 44.4368L13.2097 45.9802C13.3046 48.6826 12.1674 51.2818 10.1182 53.0461L7.36051 55.4277C7.03052 55.7141 6.92683 56.1826 7.10514 56.5819C7.28346 56.9807 7.70213 57.2162 8.13533 57.1614L15.7192 56.1473L17.6972 59.5092C17.8464 59.7631 18.1008 59.938 18.3911 59.9855C18.6818 60.0335 18.9789 59.9501 19.2018 59.7573L21.9614 57.3756C24.467 55.2188 25.8534 52.0377 25.7264 48.7339L25.677 47.193C25.6208 45.4966 26.0496 43.819 26.9136 42.3581C27.6647 43.1411 28.6861 43.6082 29.7696 43.6649C30.8516 43.6077 31.8721 43.1406 32.6227 42.359C33.4862 43.821 33.915 45.499 33.8593 47.1959L33.8094 48.7301C33.6829 52.0362 35.0717 55.2198 37.5808 57.3766L40.3394 59.7582C40.5623 59.9511 40.8593 60.0344 41.1496 59.9869C41.4403 59.939 41.6947 59.764 41.8439 59.5101L43.8214 56.1482L51.4034 57.1614C51.8385 57.2196 52.2601 56.9851 52.4399 56.5848C52.6196 56.1846 52.5155 55.7136 52.1835 55.4267L49.4235 53.047ZM23.7465 48.8023C23.8512 51.5051 22.7187 54.1082 20.6705 55.8745L18.8078 57.4788L17.0988 54.5744C16.8972 54.2265 16.5042 54.0365 16.1064 54.0937L11.1711 54.7537L11.4095 54.5472C13.9128 52.3914 15.3015 49.2156 15.1852 45.9138L15.1256 44.3685C15.0602 42.5834 15.5375 40.8205 16.4945 39.3121L17.1094 38.3279C17.9463 38.3531 18.7831 38.3216 19.6156 38.2335C20.7151 38.0445 21.8422 38.0823 22.9271 38.3449C23.8323 38.9099 24.6134 39.6523 25.2234 40.5279L25.4953 40.8525L25.3504 41.0817C24.1923 42.9308 23.6147 45.0847 23.6922 47.2652L23.7465 48.8023ZM29.7696 41.6802C28.7772 41.6802 27.748 40.4455 26.7537 39.252C25.958 38.1133 24.9104 37.1742 23.6922 36.507C22.9726 36.238 22.208 36.1125 21.4405 36.1377C20.7882 36.1377 20.1147 36.1954 19.4557 36.2516C18.5738 36.3635 17.6827 36.3819 16.7969 36.3064C16.777 36.3064 16.7581 36.2976 16.7383 36.2947C16.369 36.2584 16.0196 36.1091 15.7381 35.8669C15.0903 35.2185 15.224 33.6587 15.3543 32.1503C15.5957 30.7358 15.5084 29.285 15.099 27.9098C14.4322 26.6917 13.4931 25.644 12.3539 24.8493C11.1561 23.8541 9.92191 22.8248 9.92191 21.8325C9.92191 20.8401 11.1561 19.8109 12.3501 18.8156C13.4888 18.0209 14.4283 16.9733 15.0951 15.7551C15.505 14.3789 15.5923 12.9272 15.35 11.5118C15.2201 10.0023 15.0873 8.44205 15.7352 7.79322C16.3831 7.14439 17.9453 7.2791 19.4528 7.408C20.8667 7.65076 22.3175 7.56354 23.6922 7.15409C24.9104 6.48684 25.958 5.54776 26.7537 4.40904C27.748 3.21944 28.7772 1.98477 29.7696 1.98477C30.762 1.98477 31.7912 3.21944 32.7855 4.41291C33.5812 5.55164 34.6288 6.49072 35.847 7.15796C37.2231 7.5679 38.6749 7.65512 40.0903 7.41333C41.5968 7.28395 43.1595 7.15021 43.8079 7.79807C44.4557 8.44641 44.322 10.0062 44.1916 11.5147C43.9503 12.9291 44.0376 14.3799 44.447 15.7551C45.1133 16.9733 46.0529 18.0209 47.1916 18.8156C48.3826 19.8109 49.6173 20.8401 49.6173 21.8325C49.6173 22.8248 48.3826 23.8541 47.1887 24.8493C46.0499 25.644 45.1104 26.6917 44.4441 27.9098C44.0337 29.286 43.9465 30.7378 44.1887 32.1532C44.3186 33.6626 44.4519 35.2229 43.804 35.8717C43.5234 36.113 43.175 36.2623 42.8063 36.2986C42.7845 36.2986 42.7646 36.3073 42.7428 36.3122C41.858 36.3868 40.9674 36.3684 40.0864 36.2569C38.6725 36.0142 37.2217 36.1014 35.847 36.5108C34.6288 37.1781 33.5812 38.1172 32.7855 39.2559C31.7912 40.4455 30.762 41.6802 29.7696 41.6802ZM43.4275 54.0937C43.0316 54.0384 42.641 54.2284 42.4404 54.5744L40.7314 57.4788L38.8736 55.8711C36.8239 54.1034 35.6914 51.4984 35.7971 48.7935L35.847 47.2584C35.925 45.074 35.3455 42.9163 34.1835 41.0648L34.0367 40.8467L34.3095 40.522C34.9195 39.6464 35.7007 38.9036 36.6058 38.3386C37.6908 38.0765 38.8178 38.0387 39.9178 38.2276C40.7498 38.3168 41.5871 38.3483 42.4235 38.3221L43.0418 39.3145C43.9964 40.8196 44.4732 42.5785 44.4082 44.3598L44.3486 45.9128C44.2323 49.2146 45.6216 52.3904 48.1258 54.5463L48.3628 54.7517L43.4275 54.0937Z" fill="url(#paint6_linear_21_428)"/>
<path d="M43.663 21.8325C43.663 14.1594 37.4427 7.93908 29.7696 7.93908C22.0966 7.93908 15.8762 14.1594 15.8762 21.8325C15.8762 29.5055 22.0966 35.7258 29.7696 35.7258C37.4393 35.7176 43.6548 29.5021 43.663 21.8325ZM29.7696 33.7411C23.1926 33.7411 17.861 28.4094 17.861 21.8325C17.861 15.2555 23.1926 9.92385 29.7696 9.92385C36.3466 9.92385 41.6782 15.2555 41.6782 21.8325C41.671 28.4065 36.3437 33.7338 29.7696 33.7411Z" fill="url(#paint7_linear_21_428)"/>
<path d="M39.0553 19.1145C38.8135 18.3674 38.1177 17.862 37.3327 17.8629H32.8669L31.4874 13.6196C31.2451 12.8729 30.5498 12.367 29.7648 12.367C28.9798 12.367 28.2839 12.8729 28.0417 13.6196L26.6674 17.8629H22.2065C21.4225 17.8639 20.7281 18.3688 20.4859 19.1141C20.2436 19.8593 20.5082 20.6763 21.1415 21.1376L24.751 23.7596L23.3724 28.0053C23.1292 28.7515 23.3947 29.57 24.03 30.0313C24.6652 30.4926 25.5253 30.4926 26.1601 30.0308L29.7696 27.4078L33.3796 30.0317C34.0149 30.4916 34.874 30.4906 35.5083 30.0293C36.1426 29.568 36.4081 28.7511 36.1663 28.0053L34.7877 23.7615L38.3972 21.1376C39.033 20.6777 39.2985 19.8603 39.0553 19.1145ZM33.5177 22.2303C32.8829 22.6916 32.6174 23.5095 32.8606 24.2558L34.1142 28.1124L30.8395 25.7308C30.2047 25.2675 29.3442 25.2675 28.7094 25.7308L25.4347 28.1124L26.6883 24.2558C26.9315 23.5095 26.666 22.6911 26.0302 22.2303L22.7396 19.8477H26.7925C27.5774 19.8491 28.2733 19.3433 28.5141 18.5961L29.7696 14.7399L31.0227 18.5961C31.264 19.3437 31.9613 19.8496 32.7468 19.8477H36.8016L33.5177 22.2303Z" fill="url(#paint8_linear_21_428)"/>
<path d="M11.4648 36.5515C11.7337 36.4013 11.9101 36.1271 11.9348 35.8203C11.9595 35.5131 11.8296 35.2141 11.5878 35.0232C11.6087 35.0082 11.5781 34.9757 11.4648 34.9002H11.4589L8.70711 33.0661L6.84542 29.3282C6.65886 29.0151 6.32161 28.8233 5.95722 28.8233C5.59282 28.8233 5.25557 29.0151 5.06901 29.3282L3.20344 33.0612L0.446282 34.8953H0.440468C0.165236 35.0794 0 35.3886 0 35.72C0 36.051 0.165236 36.3601 0.440468 36.5448L3.19957 38.3837L5.06514 42.1167C5.23279 42.4535 5.57683 42.6667 5.95334 42.6667C6.32936 42.6667 6.6734 42.4535 6.84154 42.1167L8.70711 38.3837L11.4648 36.5515ZM7.04894 37.2672L5.95237 39.4613L4.86065 37.2672C4.78264 37.1132 4.66634 36.9813 4.52339 36.8849L2.77655 35.7258L4.51516 34.5668C4.65859 34.4703 4.77488 34.3385 4.8529 34.1845L5.95237 31.9904L7.04894 34.1845C7.12695 34.3385 7.24276 34.4703 7.38619 34.5668L9.12771 35.7258L7.38619 36.8849C7.24276 36.9813 7.12695 37.1132 7.04894 37.2672Z" fill="url(#paint9_linear_21_428)"/>
<path d="M52.5945 26.7944H54.5792V28.7792L52.5945 28.7792V26.7944Z" fill="url(#paint10_linear_21_428)"/>
<path d="M52.5945 30.7639L54.5792 30.7639V32.7487H52.5945V30.7639Z" fill="url(#paint11_linear_21_428)"/>
<path d="M50.6097 28.7792L52.5945 28.7792V30.7639L50.6097 30.7639V28.7792Z" fill="url(#paint12_linear_21_428)"/>
<defs>
<linearGradient id="paint0_linear_21_428" x1="29.7682" y1="0" x2="29.7682" y2="60" gradientUnits="userSpaceOnUse">
<stop stop-color="#FF6D3E"/>
<stop offset="1" stop-color="#F13B3B"/>
</linearGradient>
<linearGradient id="paint1_linear_21_428" x1="29.7682" y1="0" x2="29.7682" y2="60" gradientUnits="userSpaceOnUse">
<stop stop-color="#FF6D3E"/>
<stop offset="1" stop-color="#F13B3B"/>
</linearGradient>
<linearGradient id="paint2_linear_21_428" x1="29.7682" y1="0" x2="29.7682" y2="60" gradientUnits="userSpaceOnUse">
<stop stop-color="#FF6D3E"/>
<stop offset="1" stop-color="#F13B3B"/>
</linearGradient>
<linearGradient id="paint3_linear_21_428" x1="29.7682" y1="0" x2="29.7682" y2="60" gradientUnits="userSpaceOnUse">
<stop stop-color="#FF6D3E"/>
<stop offset="1" stop-color="#F13B3B"/>
</linearGradient>
<linearGradient id="paint4_linear_21_428" x1="29.7682" y1="0" x2="29.7682" y2="60" gradientUnits="userSpaceOnUse">
<stop stop-color="#FF6D3E"/>
<stop offset="1" stop-color="#F13B3B"/>
</linearGradient>
<linearGradient id="paint5_linear_21_428" x1="29.7682" y1="0" x2="29.7682" y2="60" gradientUnits="userSpaceOnUse">
<stop stop-color="#FF6D3E"/>
<stop offset="1" stop-color="#F13B3B"/>
</linearGradient>
<linearGradient id="paint6_linear_21_428" x1="29.7682" y1="0" x2="29.7682" y2="60" gradientUnits="userSpaceOnUse">
<stop stop-color="#FF6D3E"/>
<stop offset="1" stop-color="#F13B3B"/>
</linearGradient>
<linearGradient id="paint7_linear_21_428" x1="29.7682" y1="0" x2="29.7682" y2="60" gradientUnits="userSpaceOnUse">
<stop stop-color="#FF6D3E"/>
<stop offset="1" stop-color="#F13B3B"/>
</linearGradient>
<linearGradient id="paint8_linear_21_428" x1="29.7682" y1="0" x2="29.7682" y2="60" gradientUnits="userSpaceOnUse">
<stop stop-color="#FF6D3E"/>
<stop offset="1" stop-color="#F13B3B"/>
</linearGradient>
<linearGradient id="paint9_linear_21_428" x1="29.7682" y1="0" x2="29.7682" y2="60" gradientUnits="userSpaceOnUse">
<stop stop-color="#FF6D3E"/>
<stop offset="1" stop-color="#F13B3B"/>
</linearGradient>
<linearGradient id="paint10_linear_21_428" x1="29.7682" y1="0" x2="29.7682" y2="60" gradientUnits="userSpaceOnUse">
<stop stop-color="#FF6D3E"/>
<stop offset="1" stop-color="#F13B3B"/>
</linearGradient>
<linearGradient id="paint11_linear_21_428" x1="29.7682" y1="0" x2="29.7682" y2="60" gradientUnits="userSpaceOnUse">
<stop stop-color="#FF6D3E"/>
<stop offset="1" stop-color="#F13B3B"/>
</linearGradient>
<linearGradient id="paint12_linear_21_428" x1="29.7682" y1="0" x2="29.7682" y2="60" gradientUnits="userSpaceOnUse">
<stop stop-color="#FF6D3E"/>
<stop offset="1" stop-color="#F13B3B"/>
</linearGradient>
</defs>
</svg>
