<svg width="56" height="56" viewBox="0 0 56 56" fill="none" xmlns="http://www.w3.org/2000/svg">
<path d="M3.13251 37.385C3.7456 37.1845 4.08265 36.5191 3.88443 35.899C0.942554 26.6832 3.31498 16.7094 10.0761 9.86949C18.4201 1.42872 31.6868 -0.044347 41.6211 6.36663C42.0825 6.66441 42.6869 6.59772 43.0737 6.20624L44.5653 4.69729L46.588 12.7613L38.5752 10.6349L40.2968 8.73291C40.8 8.17713 40.6664 7.291 40.0198 6.91368C30.6164 1.42199 18.6786 3.01816 10.9913 10.795C10.5357 11.2559 10.5357 12.0033 10.9913 12.4641C11.4468 12.9253 12.1853 12.9253 12.6416 12.4641C19.236 5.79303 29.2917 4.15768 37.5608 8.26069L35.548 10.483C34.9559 11.1372 35.2638 12.1965 36.1128 12.4217L47.9094 15.5524C48.3086 15.6585 48.7339 15.5426 49.0274 15.2487C49.3202 14.9546 49.4376 14.5254 49.3364 14.1204L46.3225 2.10441C46.219 1.69298 45.906 1.36935 45.5009 1.25652C45.0964 1.14416 44.663 1.26006 44.3667 1.56008L42.0744 3.87879C37.0094 0.855 31.0343 -0.467584 25.1435 0.147325C13.3928 1.37384 3.68563 10.059 1.03484 21.6662C-0.0964836 26.6197 0.120867 31.7919 1.66356 36.6244C1.86166 37.2451 2.51954 37.5849 3.13251 37.385Z" fill="url(#paint0_linear_21_398)"/>
<path d="M52.8704 18.615C52.2574 18.8154 51.921 19.4806 52.1186 20.101C55.0605 29.3171 52.6869 39.2918 45.9233 46.134C37.5816 54.5727 24.315 56.0434 14.3789 49.6297C13.9175 49.3322 13.3132 49.3986 12.9263 49.7901L11.4347 51.2991L9.41434 43.2382L17.3289 45.3367L15.5619 47.1237C15.0232 47.6692 15.1377 48.5833 15.7949 48.9753C25.2383 54.6042 37.2516 53.0553 45.0087 45.2081C45.4643 44.7472 45.4643 44.0001 45.0087 43.5386C44.5532 43.0783 43.8147 43.0783 43.3584 43.5386C36.7153 50.2596 26.6147 51.865 18.316 47.6762L20.4166 45.5515C20.7118 45.2523 20.8268 44.8162 20.7176 44.4081C20.6083 44.0002 20.2917 43.6822 19.8873 43.5752L8.09355 40.4481C7.69443 40.3424 7.26906 40.4575 6.97623 40.7513C6.68269 41.0458 6.56545 41.4744 6.66706 41.8794L9.67754 53.8921C9.78032 54.3035 10.0942 54.6274 10.4985 54.7403C10.9036 54.8526 11.3364 54.7368 11.6333 54.4364L13.9256 52.1181C18.1813 54.6591 23.0778 56 28.0285 56C35.4096 56 42.4456 52.9911 47.5735 47.803C55.0196 40.27 57.5002 29.2791 54.3392 19.3758C54.1411 18.7552 53.4841 18.4149 52.8704 18.615Z" fill="url(#paint1_linear_21_398)"/>
<path d="M42.8175 16.1777C41.2899 14.6328 38.8054 14.6328 37.2783 16.1779L35.2149 18.2653C29.8535 13.7688 21.81 13.8581 16.5398 19.0509C10.8087 24.698 10.9592 33.8475 16.5392 39.3359C21.9227 44.6309 30.7223 44.7938 36.254 39.1214C39.9837 35.2971 41.1685 29.8415 39.6665 24.9688L42.817 21.7814C44.348 20.233 44.348 17.7265 42.8175 16.1777ZM37.9507 29.7616C37.6647 35.7814 32.9686 40.5957 27.0273 40.9607C19.9715 41.3946 14.4196 35.5769 14.6374 28.7869C14.8374 22.5502 20.0384 17.3777 26.2981 17.3777C28.9623 17.3777 31.4969 18.28 33.5566 19.943L27.0843 26.4909L25.9646 25.3579C24.437 23.813 21.9523 23.813 20.4254 25.3579C18.8983 26.9029 18.8983 29.4165 20.4254 30.9613L26.2592 36.863C26.7148 37.3238 27.4539 37.3238 27.9095 36.863L37.748 26.9095C37.928 27.8411 37.9965 28.7945 37.9507 29.7616ZM41.1673 20.1121L27.0843 34.3595L22.0749 29.2924C21.4579 28.6676 21.4579 27.6519 22.0749 27.027C22.6926 26.4026 23.6967 26.4021 24.3144 27.027L26.2591 28.9943C26.7147 29.4546 27.4538 29.4552 27.9094 28.9943L38.928 17.847C39.5456 17.2222 40.5502 17.2224 41.1673 17.847C41.7862 18.4728 41.7862 19.4859 41.1673 20.1121Z" fill="url(#paint2_linear_21_398)"/>
<path d="M51.3335 51.6049H53.667V53.9655H51.3335V51.6049Z" fill="url(#paint3_linear_21_398)"/>
<path d="M51.3335 48.0644H53.667V50.4245H51.3335V48.0644Z" fill="url(#paint4_linear_21_398)"/>
<path d="M47.8332 51.6049H50.1668V53.9655H47.8332V51.6049Z" fill="url(#paint5_linear_21_398)"/>
<path d="M44.3335 51.6049H46.6671V53.9655H44.3335V51.6049Z" fill="url(#paint6_linear_21_398)"/>
<path d="M2.33299 2.03442H4.66645V4.39515H2.33299V2.03442Z" fill="url(#paint7_linear_21_398)"/>
<path d="M2.33299 5.57516H4.66645V7.93589H2.33299V5.57516Z" fill="url(#paint8_linear_21_398)"/>
<path d="M5.83324 2.03442H8.16623V4.39515H5.83324V2.03442Z" fill="url(#paint9_linear_21_398)"/>
<path d="M9.33302 2.03442H11.6665V4.39515H9.33302V2.03442Z" fill="url(#paint10_linear_21_398)"/>
<path d="M2.91633 48.0644C1.30796 48.0644 0 49.3876 0 51.0146C0 52.6417 1.30796 53.9655 2.91633 53.9655C4.5247 53.9655 5.83324 52.6417 5.83324 51.0146C5.83324 49.3876 4.5247 48.0644 2.91633 48.0644ZM2.91633 51.6049C2.59503 51.6049 2.33299 51.3404 2.33299 51.0146C2.33299 50.6896 2.59503 50.4245 2.91633 50.4245C3.23821 50.4245 3.49967 50.6896 3.49967 51.0146C3.49978 51.3404 3.23821 51.6049 2.91633 51.6049Z" fill="url(#paint11_linear_21_398)"/>
<path d="M52.5003 9.11613C54.43 9.11613 56 7.52764 56 5.57516C56 3.62303 54.43 2.03442 52.5003 2.03442C50.57 2.03442 49 3.62303 49 5.57516C49 7.52764 50.57 9.11613 52.5003 9.11613ZM52.5003 4.39515C53.1435 4.39515 53.667 4.92449 53.667 5.57516C53.667 6.22618 53.1435 6.75552 52.5003 6.75552C51.857 6.75552 51.3335 6.22618 51.3335 5.57516C51.3335 4.92449 51.857 4.39515 52.5003 4.39515Z" fill="url(#paint12_linear_21_398)"/>
<defs>
<linearGradient id="paint0_linear_21_398" x1="28" y1="0" x2="28" y2="56" gradientUnits="userSpaceOnUse">
<stop stop-color="#FF6D3E"/>
<stop offset="1" stop-color="#F13B3B"/>
</linearGradient>
<linearGradient id="paint1_linear_21_398" x1="28" y1="0" x2="28" y2="56" gradientUnits="userSpaceOnUse">
<stop stop-color="#FF6D3E"/>
<stop offset="1" stop-color="#F13B3B"/>
</linearGradient>
<linearGradient id="paint2_linear_21_398" x1="28" y1="0" x2="28" y2="56" gradientUnits="userSpaceOnUse">
<stop stop-color="#FF6D3E"/>
<stop offset="1" stop-color="#F13B3B"/>
</linearGradient>
<linearGradient id="paint3_linear_21_398" x1="28" y1="0" x2="28" y2="56" gradientUnits="userSpaceOnUse">
<stop stop-color="#FF6D3E"/>
<stop offset="1" stop-color="#F13B3B"/>
</linearGradient>
<linearGradient id="paint4_linear_21_398" x1="28" y1="0" x2="28" y2="56" gradientUnits="userSpaceOnUse">
<stop stop-color="#FF6D3E"/>
<stop offset="1" stop-color="#F13B3B"/>
</linearGradient>
<linearGradient id="paint5_linear_21_398" x1="28" y1="0" x2="28" y2="56" gradientUnits="userSpaceOnUse">
<stop stop-color="#FF6D3E"/>
<stop offset="1" stop-color="#F13B3B"/>
</linearGradient>
<linearGradient id="paint6_linear_21_398" x1="28" y1="0" x2="28" y2="56" gradientUnits="userSpaceOnUse">
<stop stop-color="#FF6D3E"/>
<stop offset="1" stop-color="#F13B3B"/>
</linearGradient>
<linearGradient id="paint7_linear_21_398" x1="28" y1="0" x2="28" y2="56" gradientUnits="userSpaceOnUse">
<stop stop-color="#FF6D3E"/>
<stop offset="1" stop-color="#F13B3B"/>
</linearGradient>
<linearGradient id="paint8_linear_21_398" x1="28" y1="0" x2="28" y2="56" gradientUnits="userSpaceOnUse">
<stop stop-color="#FF6D3E"/>
<stop offset="1" stop-color="#F13B3B"/>
</linearGradient>
<linearGradient id="paint9_linear_21_398" x1="28" y1="0" x2="28" y2="56" gradientUnits="userSpaceOnUse">
<stop stop-color="#FF6D3E"/>
<stop offset="1" stop-color="#F13B3B"/>
</linearGradient>
<linearGradient id="paint10_linear_21_398" x1="28" y1="0" x2="28" y2="56" gradientUnits="userSpaceOnUse">
<stop stop-color="#FF6D3E"/>
<stop offset="1" stop-color="#F13B3B"/>
</linearGradient>
<linearGradient id="paint11_linear_21_398" x1="28" y1="0" x2="28" y2="56" gradientUnits="userSpaceOnUse">
<stop stop-color="#FF6D3E"/>
<stop offset="1" stop-color="#F13B3B"/>
</linearGradient>
<linearGradient id="paint12_linear_21_398" x1="28" y1="0" x2="28" y2="56" gradientUnits="userSpaceOnUse">
<stop stop-color="#FF6D3E"/>
<stop offset="1" stop-color="#F13B3B"/>
</linearGradient>
</defs>
</svg>
