<svg width="42" height="42" viewBox="0 0 42 42" fill="none" xmlns="http://www.w3.org/2000/svg">
<path d="M0.291432 21.3397C0.544174 21.0572 0.980307 21.0323 1.26287 21.2852C1.54784 21.5379 1.57259 21.9716 1.31985 22.2541C1.0671 22.5391 0.630971 22.5638 0.348494 22.3111C0.0635256 22.0583 0.0387756 21.6222 0.291432 21.3397ZM35.4401 29.2548H10.7199C9.5457 29.2548 8.59042 28.2995 8.59042 27.1252V26.1495C7.76069 25.978 6.94978 25.6511 6.25017 25.0383C5.64585 24.5093 4.97288 24.226 4.19712 24.1787V24.4992C4.19712 24.8789 3.88929 25.1867 3.50962 25.1867H0.805596C0.425924 25.1867 0.118096 24.8789 0.118096 24.4992C0.118096 24.1196 0.425924 23.8117 0.805596 23.8117H2.82212V15.3747H0.805596C0.425924 15.3747 0.118096 15.0669 0.118096 14.6872C0.118096 14.3076 0.425924 13.9997 0.805596 13.9997H3.50962C3.88929 13.9997 4.19712 14.3076 4.19712 14.6872V15.0073C4.94649 14.958 5.59661 14.6805 6.17953 14.17C6.94849 13.4979 7.74892 13.1757 8.59042 12.8757V2.40513C8.59042 1.23088 9.5457 0.275513 10.7199 0.275513H35.44C36.6143 0.275513 37.5696 1.23088 37.5696 2.40513V27.1252C37.5696 28.2995 36.6144 29.2548 35.4401 29.2548ZM21.0514 7.67662L22.635 6.3317C22.8916 6.11376 23.2685 6.11376 23.5251 6.3317L25.1086 7.67662V1.65051H21.0514V7.67662ZM7.15603 24.004C8.1096 24.8392 9.42547 24.9544 10.7054 24.9544L18.5399 24.9593C19.2266 24.9593 19.2618 24.4533 19.2618 24.3518C19.2618 24.2148 19.2101 23.7676 18.541 23.7667H14.7393C14.3597 23.7667 14.0518 23.4589 14.0518 23.0792C14.0518 22.6995 14.3597 22.3917 14.7393 22.3917H20.9477C21.1609 22.3917 21.3176 22.3313 21.4275 22.207C21.5293 22.092 21.5878 21.9225 21.588 21.7422C21.5883 21.5616 21.53 21.3917 21.4284 21.2761C21.3183 21.1508 21.161 21.0898 20.9476 21.0896H14.7393C14.3597 21.0896 14.0518 20.7817 14.0518 20.4021C14.0518 20.0224 14.3597 19.7146 14.7393 19.7146H22.1315C22.7251 19.7146 22.7717 19.2175 22.772 19.0651C22.7723 18.9122 22.7267 18.4132 22.1316 18.4125H14.5294C14.1496 18.4122 13.8421 18.1041 13.8424 17.7244C13.8427 17.3449 14.1505 17.0375 14.5299 17.0375L20.9589 17.0423C21.3033 17.0423 21.5839 16.7618 21.5839 16.4169C21.5839 16.072 21.3032 15.7914 20.9584 15.7914L12.7244 15.7841C12.4292 15.7839 12.1672 15.5953 12.0733 15.3156C11.9793 15.0359 12.0743 14.7274 12.3094 14.549L14.4505 12.9241C15.0856 12.4421 15.1161 11.7526 14.8944 11.4604C14.6622 11.1543 14.1326 11.5185 13.9758 11.6373C12.008 13.1316 10.5262 13.6524 9.33584 14.0708C8.44527 14.3838 7.74187 14.631 7.08513 15.2051C6.25292 15.9338 5.27976 16.3278 4.19729 16.383V22.803C5.30812 22.8558 6.30285 23.2572 7.15603 24.004ZM10.72 27.8799H35.4401C35.8562 27.8799 36.1947 27.5414 36.1947 27.1253V2.40513C36.1947 1.98902 35.8562 1.65051 35.4401 1.65051H26.4836V9.16248C26.4836 9.43043 26.3279 9.67389 26.0848 9.78647C25.9926 9.82918 25.894 9.84998 25.7962 9.84998C25.6362 9.84998 25.4778 9.79412 25.3511 9.68653L23.08 7.75766L20.8089 9.68653C20.6047 9.85995 20.3183 9.89897 20.0752 9.78647C19.8321 9.67389 19.6764 9.43043 19.6764 9.16248V1.65051H10.7199C10.3038 1.65051 9.96533 1.98902 9.96533 2.40513V12.3722C10.8624 12.0111 11.8841 11.4989 13.1444 10.5419C14.3634 9.61769 15.4517 9.92011 15.9895 10.6293C16.6501 11.4999 16.5671 13.0436 15.2815 14.0194L14.7656 14.4109L20.9587 14.4164C22.0612 14.4164 22.9587 15.3138 22.9587 16.4169C22.9587 16.6744 22.9092 16.9204 22.8202 17.1468C23.6877 17.4393 24.1479 18.2735 24.1468 19.067C24.1457 19.8784 23.6944 20.6968 22.8266 20.9828C22.9159 21.2208 22.9632 21.4784 22.9629 21.7441C22.9622 22.2622 22.7826 22.7501 22.4572 23.118C22.0871 23.5363 21.5513 23.7666 20.9482 23.7666H20.5479C20.6066 23.957 20.6367 24.155 20.6365 24.3526C20.6359 25.3132 19.9007 26.3342 18.5392 26.3342L10.7047 26.3293C10.463 26.3293 10.2156 26.325 9.96524 26.313V27.1252C9.96524 27.5413 10.3039 27.8799 10.72 27.8799ZM41.5508 34.9525L38.8231 33.3109C37.6101 32.5795 36.4875 31.9577 35.0318 31.757L26.9569 30.6487C25.373 30.4308 24.3993 31.3735 24.2554 32.416C24.1158 33.4158 24.7608 34.3503 25.8235 34.6886L25.9155 34.718L24.0286 34.9237L18.3346 32.0579C16.9202 31.3458 15.2841 31.7962 14.5292 33.1046C14.2051 33.6647 14.3971 34.3845 14.9583 34.7094L23.4037 39.5862C23.4688 39.6238 23.5395 39.6504 23.6132 39.6651C27.5234 40.4438 31.7232 40.7934 36.0982 40.7041L37.2463 41.5829C37.3709 41.6784 37.5178 41.7245 37.6636 41.7245C37.8703 41.7245 38.0746 41.6316 38.21 41.4549C38.4408 41.1534 38.3835 40.7218 38.0819 40.4911L36.7422 39.4655C36.6178 39.3703 36.4671 39.3201 36.3078 39.3241C31.988 39.4279 27.8445 39.0964 23.9926 38.3385L15.8322 33.6264C16.2555 33.0909 17.0297 32.9404 17.7162 33.2861L23.5918 36.2434C23.7103 36.3031 23.8435 36.3271 23.9754 36.3127L29.1451 35.7491L32.0958 36.6909C32.4572 36.8063 32.8443 36.6068 32.9598 36.2451C33.0753 35.8834 32.8757 35.4966 32.514 35.3811L26.2409 33.3785C25.8154 33.243 25.5705 32.9399 25.6172 32.6052C25.6665 32.248 25.9947 31.904 26.7696 32.0109L34.8442 33.1191C36.0426 33.2845 36.9939 33.8137 38.1134 34.4887L40.8416 36.1305C41.167 36.3263 41.5895 36.2213 41.7852 35.896C41.9809 35.5706 41.8762 35.1483 41.5508 34.9525Z" fill="url(#paint0_linear_36_923)"/>
<defs>
<linearGradient id="paint0_linear_36_923" x1="4.90214" y1="34.6402" x2="31.2818" y2="2.97345" gradientUnits="userSpaceOnUse">
<stop stop-color="#E2313B"/>
<stop offset="1" stop-color="#FF6D3E"/>
</linearGradient>
</defs>
</svg>
