<svg width="58" height="58" viewBox="0 0 58 58" fill="none" xmlns="http://www.w3.org/2000/svg">
<path d="M57.4575 22.4991C57.1072 21.9277 56.5837 21.5908 55.9415 21.5247C54.3938 21.37 53.6151 23.3377 53.3218 24.0793C52.9199 25.0983 52.5999 25.996 52.2905 26.864C51.3383 29.5359 50.6255 31.5339 48.4933 34.0282C48.3248 33.754 48.1193 33.5216 47.8848 33.3451C47.1241 32.7729 45.8631 32.6258 44.6056 33.9296C43.2975 35.2849 41.7188 36.1843 40.0475 37.1365C38.2638 38.1528 36.4195 39.2035 34.8028 40.8813C32.7386 43.0231 31.5471 45.0563 31.053 47.2795C30.8265 48.295 30.8965 49.1884 30.9641 50.0524C31.0007 50.5183 31.0379 50.9959 31.031 51.5076C30.1647 51.7575 29.5296 52.5459 29.5296 53.4789V55.945C29.5296 57.0781 30.4656 58 31.616 58H43.9683C45.1204 58 46.058 57.0781 46.058 55.945V53.4789C46.058 52.576 45.4619 51.809 44.6372 51.5338C44.6898 50.5079 45.0535 49.3674 46.7527 47.9338C47.3299 47.4473 47.8981 46.9934 48.4477 46.5544C50.9207 44.5788 53.0564 42.8726 54.3894 39.5816C55.7875 36.1319 59.352 25.589 57.4572 22.4993L57.4575 22.4991ZM44.6541 55.9448C44.6541 56.3153 44.3466 56.6167 43.9687 56.6167H31.6164C31.2401 56.6167 30.9341 56.3152 30.9341 55.9448V53.4787C30.9341 53.1082 31.2401 52.8067 31.6164 52.8067H31.7051C31.7051 52.8067 31.706 52.8067 31.7065 52.8067H43.9687C44.3466 52.8067 44.6541 53.1082 44.6541 53.4787V55.9448ZM53.0857 39.0688C51.8883 42.0251 49.9797 43.5498 47.5635 45.4801C47.0068 45.9247 46.4314 46.3844 45.8399 46.883C43.8295 48.5791 43.3204 50.0661 43.2393 51.4237H32.4356C32.4377 50.8973 32.401 50.4155 32.3642 49.9458C32.2988 49.1121 32.2425 48.392 32.4246 47.5756C32.8616 45.6089 33.9409 43.7843 35.8212 41.8333C37.2982 40.3006 39.0532 39.3006 40.7504 38.3337C42.4344 37.3743 44.1756 36.3822 45.6234 34.8822C45.9361 34.5579 46.5353 34.0701 47.0325 34.4441C47.585 34.8598 47.9163 36.2214 47.0703 37.5967C46.3231 38.812 44.1593 40.5864 41.8083 41.9118C41.4718 42.1016 41.3551 42.524 41.5478 42.8555C41.7403 43.1871 42.1693 43.3019 42.5059 43.1123C44.4932 41.9919 47.1957 40.0628 48.2714 38.3134C48.8388 37.391 49.0387 36.4324 48.9754 35.5857C51.7403 32.58 52.5706 30.2542 53.6155 27.3221C53.921 26.4646 54.237 25.5779 54.6304 24.5808C55.2957 22.899 55.7505 22.8953 55.7975 22.9005C55.9377 22.9148 56.1019 22.9634 56.2556 23.2142C57.5177 25.272 55.1823 33.8951 53.0857 39.0688ZM26.969 51.5072C26.9621 50.9942 26.9996 50.5152 27.0364 50.0481C27.1043 49.1857 27.1746 48.294 26.9502 47.2788C26.4521 45.0548 25.2607 43.022 23.2006 40.8812C21.5844 39.2041 19.7401 38.1534 17.9565 37.1374C16.2845 36.185 14.705 35.2853 13.3977 33.9294C12.139 32.6259 10.8776 32.7728 10.1171 33.345C9.88226 33.5217 9.67653 33.7546 9.50784 34.0294C7.37494 31.5344 6.66207 29.5364 5.7097 26.864C5.40034 25.996 5.08036 25.0983 4.67882 24.0802C4.38769 23.3389 3.61524 21.3711 2.05678 21.5249C1.41668 21.5908 0.893186 21.9276 0.542824 22.4991C-1.35198 25.5887 2.21251 36.1317 3.61045 39.5813C4.94355 42.8724 7.07925 44.5786 9.55235 46.5542C10.1019 46.9932 10.67 47.4471 11.2475 47.9337C12.9447 49.3634 13.3101 50.505 13.3649 51.5332C12.5409 51.8081 11.9454 52.5755 11.9454 53.4787V55.9448C11.9454 57.0779 12.8814 57.9998 14.0317 57.9998H26.384C27.5362 57.9998 28.4738 57.0779 28.4738 55.9448V53.4787C28.4738 52.5454 27.8373 51.7568 26.9692 51.5071L26.969 51.5072ZM12.16 46.8828C11.5688 46.3844 10.9933 45.9247 10.4366 45.4801C8.0204 43.5499 6.11181 42.0253 4.91435 39.0686C2.81778 33.895 0.482425 25.2722 1.7445 23.2143C1.89813 22.9635 2.06238 22.915 2.20024 22.9008C2.24919 22.8951 2.7096 22.9003 3.36944 24.5803C3.76302 25.578 4.07904 26.4647 4.38454 27.3222C5.42967 30.2549 6.25995 32.581 9.02616 35.5875C8.96307 36.4336 9.16238 37.3915 9.72852 38.3134C10.8043 40.0629 13.5067 41.9919 15.4941 43.1124C15.8307 43.302 16.2596 43.1872 16.4522 42.8556C16.6448 42.5242 16.528 42.1017 16.1917 41.9119C13.8407 40.5866 11.6768 38.8121 10.93 37.5973C10.0853 36.2216 10.4169 34.8598 10.9692 34.4443C11.4667 34.07 12.0669 34.5584 12.3799 34.8823C13.8264 36.3828 15.5687 37.3752 17.2535 38.3349C18.9507 39.3017 20.7057 40.3013 22.1818 41.8331C24.0585 43.7835 25.1381 45.6086 25.5786 47.575C25.7587 48.3897 25.7021 49.1087 25.6364 49.9412C25.5994 50.4123 25.5623 50.8956 25.5644 51.4238H14.7628C14.6794 50.0637 14.1693 48.5755 12.16 46.8829V46.8828ZM27.0694 55.9449C27.0694 56.3154 26.7619 56.6168 26.3839 56.6168H14.0316C13.6554 56.6168 13.3494 56.3153 13.3494 55.9449V53.4788C13.3494 53.1083 13.6554 52.8068 14.0316 52.8068H26.2932C26.2932 52.8068 26.2935 52.8068 26.2938 52.8068H26.3839C26.7619 52.8068 27.0694 53.1083 27.0694 53.4788V55.9449ZM29.1683 40.8668C29.1753 40.8651 29.1823 40.8635 29.1893 40.8615C29.2143 40.8546 29.2387 40.8467 29.2626 40.8372C29.2646 40.8364 29.2667 40.8358 29.2686 40.835C29.2952 40.8242 29.3206 40.8117 29.3453 40.7979C29.3472 40.7968 29.3493 40.7961 29.3511 40.7951L41.9485 33.6318C42.1657 33.5082 42.2996 33.2799 42.2996 33.0328V28.4022L48.2472 25.0201C48.4644 24.8966 48.5982 24.6682 48.5982 24.4212C48.5982 24.1741 48.4644 23.9458 48.2472 23.8222L43.0012 20.8392L48.2474 17.8534C48.4645 17.7298 48.5982 17.5015 48.5982 17.2544C48.5982 17.0073 48.4644 16.7792 48.2471 16.6557L36.7994 10.1477C36.8342 10.0753 36.8764 10.0041 36.9267 9.93368C37.6149 8.96659 37.6149 7.66704 36.9259 6.69868C36.7317 6.42711 36.6549 6.14517 36.6836 5.81341C36.7886 4.63734 36.1303 3.51294 35.0464 3.01593C34.7373 2.87359 34.5258 2.66599 34.3825 2.36633C33.8781 1.2951 32.7358 0.646305 31.5431 0.748147C31.2045 0.776685 30.9183 0.700851 30.6415 0.50879C29.6588 -0.169463 28.3413 -0.169693 27.362 0.508675C27.0791 0.703268 26.7998 0.777491 26.4587 0.748377C25.2634 0.644809 24.122 1.29487 23.6193 2.36254C23.4742 2.66599 23.2631 2.87393 22.959 3.01501C21.8714 3.51168 21.2114 4.63631 21.3166 5.81617C21.3474 6.14391 21.2705 6.42527 21.0766 6.69984C20.3883 7.66693 20.3883 8.96647 21.0752 9.93172C21.1254 10.0028 21.1674 10.0743 21.2021 10.1468L9.75609 16.6557C9.53903 16.7792 9.40515 17.0073 9.40503 17.2544C9.40503 17.5014 9.53868 17.7297 9.75574 17.8534L14.9993 20.8394L9.75597 23.8224C9.53891 23.946 9.40503 24.1742 9.40503 24.4213C9.40503 24.6684 9.53891 24.8966 9.75609 25.0201L15.7004 28.4012V33.0328C15.7004 33.2799 15.8343 33.5082 16.0515 33.6318L28.6488 40.7951C28.6506 40.7961 28.6527 40.7968 28.6546 40.7979C28.6793 40.8117 28.7048 40.8242 28.7312 40.835C28.7332 40.8358 28.7353 40.8364 28.7373 40.8372C28.7611 40.8467 28.7856 40.8546 28.8106 40.8615C28.8176 40.8635 28.8246 40.8651 28.8316 40.8668C28.8524 40.8719 28.8734 40.8759 28.8949 40.8791C28.902 40.8802 28.9092 40.8815 28.9164 40.8823C28.9439 40.8856 28.9717 40.8876 28.9999 40.8876C29.0282 40.8876 29.056 40.8854 29.0835 40.8823C29.0907 40.8815 29.0978 40.8802 29.105 40.8791C29.1265 40.8759 29.1475 40.8719 29.1683 40.8668ZM25.7912 15.865C26.0101 15.8971 26.2348 15.9047 26.4614 15.8849C26.7947 15.855 27.0817 15.9307 27.3606 16.1206C27.8507 16.4605 28.4257 16.6305 29.001 16.6305C29.5762 16.6305 30.1496 16.4612 30.6397 16.1228C30.9202 15.9305 31.2057 15.8546 31.5415 15.8853C31.7672 15.9049 31.9909 15.8974 32.2089 15.8655V21.1631L29.4758 18.6807C29.207 18.4365 28.7929 18.4365 28.524 18.6807L25.7911 21.1629V15.8651L25.7912 15.865ZM24.8073 23.3747C24.8978 23.4138 24.9939 23.4328 25.0889 23.4328C25.262 23.4328 25.4327 23.3697 25.565 23.2496L28.9999 20.1296L32.4351 23.2496C32.64 23.4357 32.9373 23.4848 33.1927 23.3746C33.4481 23.2643 33.6131 23.0158 33.6131 22.7412V17.0956L40.1933 20.8392L28.9999 27.2042L17.8066 20.8392L24.3868 17.0956V22.7412C24.3868 23.0158 24.5518 23.2644 24.8072 23.3746L24.8073 23.3747ZM40.8953 32.6335L29.7021 38.9983V29.2006L34.9476 32.1833C35.0562 32.2451 35.1775 32.276 35.2986 32.276C35.4198 32.276 35.541 32.2451 35.6497 32.1833L40.8952 29.2006V32.6335H40.8953ZM35.2987 30.786L30.4043 28.0029L41.5974 21.6382L46.492 24.4213L35.2987 30.7861V30.786ZM41.5974 20.041L33.6133 15.4986V15.2473C33.9339 14.9864 34.1995 14.6565 34.3808 14.2711C34.5259 13.9676 34.7375 13.76 35.0453 13.6182C35.8704 13.2398 36.4476 12.4987 36.6313 11.649L46.4922 17.255L41.5973 20.041H41.5974ZM22.228 7.4919C22.6121 6.94817 22.776 6.34172 22.7154 5.69235C22.662 5.09385 22.9973 4.52227 23.5537 4.26807C24.1563 3.98843 24.606 3.54562 24.8916 2.94815C25.1479 2.40362 25.7295 2.07335 26.3375 2.12629C27.0033 2.1821 27.6186 2.0195 28.167 1.64205C28.1678 1.64159 28.1685 1.64102 28.1693 1.64055C28.6662 1.29602 29.3359 1.29636 29.8347 1.64055C30.3805 2.01904 30.9957 2.18279 31.6647 2.12606C32.2707 2.07358 32.8526 2.40373 33.1107 2.95184C33.3953 3.54678 33.8465 3.98981 34.4529 4.26922C35.0041 4.52204 35.3385 5.09385 35.285 5.69385C35.2279 6.35127 35.3938 6.95726 35.7771 7.49362C36.1274 7.98592 36.1274 8.64748 35.778 9.13862C35.5174 9.5033 35.3598 9.89996 35.3015 10.3227C35.2887 10.3759 35.2827 10.4297 35.2829 10.4833C35.2715 10.6329 35.2715 10.7855 35.2851 10.9413C35.3385 11.5397 35.0041 12.1115 34.4519 12.3648C33.8465 12.6436 33.3952 13.0866 33.1088 13.6855C32.8526 14.2297 32.2743 14.5597 31.6676 14.5078C31.0061 14.4473 30.3897 14.6092 29.8358 14.9889C29.3359 15.3342 28.6661 15.3344 28.1638 14.9862C27.6841 14.6599 27.1586 14.4955 26.6002 14.4955C26.5127 14.4955 26.4244 14.4995 26.3354 14.5076C25.7286 14.5605 25.1477 14.2299 24.8896 13.6818C24.6056 13.088 24.1562 12.6453 23.5498 12.3641C22.9972 12.1117 22.6618 11.54 22.7149 10.9443C22.7307 10.7759 22.7307 10.6107 22.7166 10.4486C22.7148 10.4139 22.7105 10.3792 22.7032 10.3447C22.6485 9.91803 22.4909 9.51446 22.2264 9.14012C21.8761 8.64783 21.8761 7.98626 22.2278 7.49213L22.228 7.4919ZM21.3693 11.6491C21.5533 12.4999 22.1313 13.2405 22.9554 13.6169C23.2633 13.7598 23.4743 13.9676 23.6176 14.2673C23.7998 14.6542 24.066 14.9851 24.3871 15.2466V15.4986L16.403 20.041L11.5109 17.2551L21.3693 11.6491ZM16.4029 21.6382L27.5958 28.0029L22.7015 30.786L11.5113 24.4212L16.4029 21.6382ZM17.1049 29.1999L22.3504 32.1835C22.4591 32.2453 22.5802 32.2761 22.7015 32.2761C22.8228 32.2761 22.9439 32.2453 23.0526 32.1835L28.2979 29.2007V38.9984L17.1048 32.6336L17.1049 29.1999ZM29.0001 13.2262C31.7482 13.2262 33.9841 11.0239 33.9841 8.31687C33.9841 5.60984 31.7482 3.40765 29.0001 3.40765C26.252 3.40765 24.0161 5.60996 24.0161 8.31687C24.0161 11.0238 26.252 13.2262 29.0001 13.2262ZM29.0001 4.79074C30.974 4.79074 32.58 6.37256 32.58 8.31699C32.58 10.2614 30.9741 11.8432 29.0001 11.8432C27.026 11.8432 25.4203 10.2613 25.4203 8.31699C25.4203 6.37268 27.026 4.79074 29.0001 4.79074ZM39.1736 3.84885L41.6805 3.1867C42.055 3.08763 42.4401 3.30661 42.5405 3.67554C42.6408 4.04448 42.4187 4.42365 42.0442 4.52261L39.5373 5.18476C39.4765 5.20087 39.4152 5.20858 39.3549 5.20858C39.045 5.20858 38.7614 5.00489 38.6772 4.69603C38.5769 4.3271 38.7991 3.94793 39.1735 3.84896L39.1736 3.84885ZM37.6779 2.31823C37.484 1.98739 37.5991 1.56449 37.9348 1.37358L40.1834 0.0948651C40.5192 -0.0958144 40.9486 0.0173044 41.1424 0.34803C41.3363 0.678757 41.2212 1.10166 40.8855 1.29268L38.6369 2.5714C38.5264 2.63423 38.4057 2.66415 38.2866 2.66415C38.0439 2.66415 37.8079 2.5401 37.6779 2.31835V2.31823ZM42.316 6.55887C42.7038 6.55887 43.0182 6.86842 43.0182 7.25035C43.0182 7.63229 42.7039 7.94184 42.316 7.94184H39.7197C39.3319 7.94184 39.0176 7.63229 39.0176 7.25035C39.0176 6.86842 39.3318 6.55887 39.7197 6.55887H42.316ZM16.8611 0.3478C17.0549 0.0169592 17.4845 -0.0962747 17.8201 0.094635L20.0687 1.37335C20.4045 1.56438 20.5195 1.98728 20.3256 2.318C20.1957 2.53987 19.9596 2.6638 19.7169 2.6638C19.5978 2.6638 19.4771 2.634 19.3666 2.57105L17.118 1.29234C16.7823 1.10131 16.6672 0.678526 16.8611 0.3478ZM15.4598 3.67531C15.5601 3.30638 15.9458 3.08774 16.3197 3.18647L18.8266 3.84862C19.2011 3.94747 19.4232 4.32676 19.3229 4.69569C19.2388 5.00455 18.9551 5.20823 18.6452 5.20823C18.5849 5.20823 18.5238 5.20064 18.4628 5.18441L15.9559 4.52227C15.5814 4.42342 15.3593 4.04413 15.4597 3.6752L15.4598 3.67531ZM14.9821 7.25012C14.9821 6.86819 15.2963 6.55864 15.6842 6.55864H18.2806C18.6683 6.55864 18.9827 6.86819 18.9827 7.25012C18.9827 7.63206 18.6684 7.94161 18.2806 7.94161H15.6842C15.2965 7.94161 14.9821 7.63206 14.9821 7.25012Z" fill="#FF6D3E"/>
</svg>
