<svg width="64" height="58" viewBox="0 0 64 58" fill="none" xmlns="http://www.w3.org/2000/svg">
<path d="M15.8645 21.0493V12.0385C15.8645 10.7397 16.9311 9.68706 18.2459 9.68706H43.1188M15.8645 42.1552V37.1239M15.8645 33.8V28.7218M55.7552 37.1103V20.3358M50.4249 50.7454L52.6196 50.2683C54.0458 49.9902 55.2683 49.0898 55.9453 47.8189L60.6671 38.9557C61.2788 37.8074 60.9055 36.3877 59.8053 35.679C58.6766 34.9517 57.1698 35.2199 56.3687 36.2904L50.494 44.1428L36.237 42.4456M36.237 42.4456L42.4598 37.8796C43.5012 37.1155 43.7346 35.6698 42.9855 34.6236C42.3222 33.6972 41.0853 33.3686 40.0412 33.8415L30.2242 38.2873C30.2242 38.2873 26.0897 38.1816 21.5469 42.0213L7.12078 42.3607M36.237 42.4456L33.7029 44.4633M7.12078 57L20.3825 53.9349H35.7536L46.1556 51.6735M47.669 11.0458L51.5564 14.8864L58.3801 8.14501M31.9192 9.68656H39.7011V22.6155H31.9192V9.68656ZM63 10.8553C63 16.2982 58.5338 20.7106 53.0245 20.7106C47.5152 20.7106 43.049 16.2982 43.049 10.8553C43.049 5.41237 47.5152 1 53.0245 1C58.5338 1 63 5.41237 63 10.8553ZM19.5956 37.1238H2.68223C1.75311 37.1238 1 36.3797 1 35.4618C1 34.5439 1.75311 33.7998 2.68223 33.7998H19.5958C20.5249 33.7998 21.278 34.5439 21.278 35.4618C21.278 36.3797 20.5248 37.1238 19.5956 37.1238ZM25.3815 28.7219H11.9801C11.051 28.7219 10.2979 27.9779 10.2979 27.0599C10.2979 26.142 11.051 25.398 11.9801 25.398H25.3816C26.3107 25.398 27.0638 26.142 27.0638 27.0599C27.0637 27.9779 26.3106 28.7219 25.3815 28.7219ZM10.2979 20.32H2.68223C1.75311 20.32 1 19.576 1 18.6581C1 17.7401 1.75311 16.9961 2.68223 16.9961H10.2979C11.227 16.9961 11.9801 17.7401 11.9801 18.6581C11.9801 19.576 11.2269 20.32 10.2979 20.32Z" stroke="#FF6D3E" stroke-width="2" stroke-miterlimit="10" stroke-linecap="round" stroke-linejoin="round"/>
</svg>
