<svg width="59" height="60" viewBox="0 0 59 60" fill="none" xmlns="http://www.w3.org/2000/svg">
<path d="M41.7598 40.0349L32.7211 45.2996C32.4008 45.4861 32.0762 45.6326 31.743 45.74C31.84 45.5346 31.9204 45.3144 31.9832 45.0801C32.4682 43.2705 31.3954 41.3819 29.5409 40.7806C29.4995 40.7673 29.4571 40.7566 29.4142 40.7488C26.8301 40.2827 24.2735 39.3585 22.2192 38.6157C21.5021 38.3565 20.8249 38.1116 20.2474 37.9244C17.8712 37.1535 15.7388 38.0989 13.966 39.1254L7.38643 42.9348L6.83481 41.9603C6.21084 40.8573 4.80577 40.4676 3.70216 41.092L1.16626 42.5272C0.633142 42.8289 0.249061 43.3213 0.0849042 43.9141C-0.0793735 44.5067 -0.00364607 45.1267 0.298054 45.6598L7.75394 58.8338C8.05564 59.3668 8.54811 59.7509 9.14075 59.9151C9.34567 59.9719 9.55386 60 9.7606 60C10.1517 60 10.5377 59.8993 10.8865 59.7019L13.4224 58.2667C13.9555 57.9652 14.3396 57.4726 14.5038 56.8798C14.668 56.2872 14.5924 55.6673 14.2907 55.1341L13.6029 53.9188L14.934 53.1503L26.4443 56.2346C27.0976 56.4096 27.7477 56.4967 28.3873 56.4966C29.6807 56.4966 30.9305 56.1404 32.0731 55.437L48.4762 45.3367C50.0445 44.3711 50.5453 41.943 49.5267 40.2425C49.0337 39.4198 47.0174 36.9727 41.7598 40.0349ZM12.6386 56.3629C12.6235 56.4176 12.5813 56.5187 12.4691 56.5822L9.9331 58.0175C9.82084 58.0809 9.71233 58.0651 9.65789 58.05C9.60322 58.0347 9.50196 57.9925 9.43845 57.8805L1.98245 44.7064C1.91906 44.5943 1.9349 44.4858 1.95003 44.4311C1.96527 44.3764 2.00749 44.2753 2.1195 44.2118L4.65541 42.7766C4.71783 42.7413 4.77892 42.7305 4.83033 42.7305C4.87158 42.7305 4.90654 42.7375 4.93086 42.7442C4.98553 42.7593 5.08679 42.8015 5.15005 42.9134L5.15018 42.9135L12.6061 56.0875C12.6698 56.1997 12.6538 56.3082 12.6386 56.3629ZM47.4614 43.6886L31.0583 53.7889C29.7979 54.5649 28.414 54.7586 26.9454 54.3651L15.0477 51.177C14.7999 51.1105 14.5357 51.1453 14.3134 51.2737L12.6495 52.2344L8.33968 44.6193L14.9358 40.8003C16.4102 39.9466 18.0016 39.2308 19.6503 39.7653C20.1972 39.9427 20.8293 40.1711 21.5611 40.4358C23.6655 41.1966 26.2799 42.1419 28.9992 42.6405C29.8534 42.9451 30.3309 43.7686 30.1136 44.5791C29.8829 45.4404 29.2412 45.8163 28.2076 45.6978C26.8866 45.4255 25.6278 45.0664 24.2963 44.6861C23.6608 44.5047 23.0036 44.317 22.3276 44.1358C21.8113 43.9978 21.2808 44.304 21.1423 44.8202C21.0039 45.3365 21.3105 45.867 21.8267 46.0054C22.4874 46.1824 23.1368 46.3679 23.7647 46.5472C25.1474 46.9422 26.4535 47.3153 27.8628 47.6033C27.8691 47.6046 27.8754 47.605 27.8817 47.6062C27.8884 47.6074 27.8947 47.6094 27.9014 47.6105L29.0259 47.7932C30.7463 48.0683 32.2735 47.7999 33.6952 46.9721L42.734 41.7075C45.2475 40.2436 47.1661 40.0678 47.8661 41.2371C48.3435 42.0341 48.1393 43.2714 47.4614 43.6886ZM5.30986 45.1765C5.3822 45.6714 5.03973 46.1311 4.54496 46.2034C4.05019 46.2758 3.59038 45.9333 3.51804 45.4386C3.4457 44.9438 3.78817 44.484 4.28306 44.4116C4.77795 44.3393 5.23752 44.6818 5.30986 45.1765ZM18.7557 14.8454L19.7494 16.8113C19.9341 17.1767 19.9948 17.521 19.9463 17.9277L19.6849 20.115C19.4779 21.8464 20.4159 23.4711 22.0189 24.1574L23.3001 24.7062L20.0858 31.6101C19.8917 32.0261 19.9448 32.5111 20.224 32.8757C20.5032 33.2406 20.9588 33.4175 21.4108 33.339L24.6969 32.7647L26.3731 35.6494C26.5943 36.03 26.9971 36.2603 27.433 36.2603C27.4522 36.2603 27.4713 36.2598 27.4905 36.259C27.9492 36.2382 28.3547 35.9668 28.5487 35.5504L31.6727 28.8405L32.613 28.5563C33.0048 28.438 33.3545 28.4379 33.7466 28.5563L34.6871 28.8406L37.8112 35.5507C38.0051 35.9668 38.4105 36.2383 38.868 36.2588C38.8872 36.2598 38.9065 36.2602 38.9257 36.2602C39.3625 36.2602 39.7652 36.03 39.9867 35.649L41.6627 32.7647L44.9488 33.339C45.4011 33.4177 45.8557 33.2407 46.136 32.8751C46.4144 32.5109 46.4672 32.0266 46.2739 31.6103L43.0594 24.7062L44.3406 24.1574C45.9436 23.4709 46.8816 21.8464 46.6746 20.115L46.4132 17.9277C46.3647 17.5211 46.4254 17.1767 46.61 16.8113L47.6038 14.8454C48.3904 13.2891 48.0648 11.4418 46.7933 10.2484L45.1871 8.74087C44.8885 8.4607 44.7138 8.15791 44.6203 7.75907L44.1179 5.61426C43.7201 3.91645 42.283 2.71073 40.5419 2.61384L38.3425 2.49154C37.9336 2.46879 37.6051 2.34927 37.2771 2.10383L35.5136 0.783797C34.1176 -0.261266 32.2417 -0.261266 30.8457 0.783797L29.0822 2.10383C28.7544 2.34915 28.4258 2.46879 28.0168 2.49154L25.8176 2.61384C24.0763 2.71073 22.6393 3.91657 22.2416 5.61439L21.7392 7.75907C21.6458 8.15779 21.471 8.46058 21.1723 8.74087L19.5662 10.2483C18.2948 11.4418 17.969 13.2891 18.7557 14.8454ZM27.3655 33.5053L26.0314 31.2092C25.8276 30.8588 25.4275 30.6725 25.028 30.7421L22.412 31.1991L24.9327 25.7849L26.1177 27.597C26.8422 28.7048 28.0328 29.3401 29.2946 29.3616L27.3655 33.5053ZM41.3313 30.7421C40.9318 30.6727 40.5317 30.8588 40.328 31.2092L38.9938 33.5052L37.0647 29.3616C38.3263 29.3397 39.517 28.7047 40.2415 27.5969L41.4264 25.7847L43.9472 31.199L41.3313 30.7421ZM20.8908 11.6596L22.497 10.1522C23.0745 9.61028 23.4431 8.9718 23.6237 8.20061L24.1261 6.05581C24.3293 5.18845 25.0354 4.59594 25.925 4.54646L28.1243 4.42416C28.915 4.38013 29.6078 4.12802 30.242 3.65334L32.0055 2.33331C32.719 1.79946 33.6406 1.79959 34.3536 2.33331L36.1173 3.65346C36.7514 4.12814 37.4442 4.38025 38.2348 4.42416L40.4342 4.54646C41.3238 4.59594 42.0299 5.18845 42.2332 6.05593L42.7355 8.20061C42.9162 8.9718 43.2848 9.61028 43.8623 10.1522L45.4684 11.6596C46.118 12.2694 46.2779 13.1771 45.8761 13.9722L44.8823 15.9382C44.5251 16.6451 44.3971 17.371 44.4911 18.1573L44.7525 20.3446C44.8582 21.2292 44.3973 22.0275 43.5783 22.3782L41.5534 23.2455C40.8254 23.5573 40.2607 24.031 39.8271 24.6941L38.6215 26.5375C38.134 27.2832 37.2681 27.5985 36.4148 27.3408L34.3061 26.7034C33.927 26.5888 33.5532 26.5316 33.1795 26.5316C32.8056 26.5316 32.4318 26.5888 32.0528 26.7034L29.9443 27.3407C29.0912 27.5986 28.2251 27.2831 27.7375 26.5375L26.5318 24.6941C26.0982 24.0312 25.5336 23.5573 24.8054 23.2455L22.7806 22.3782C21.9615 22.0275 21.5008 21.2292 21.6065 20.3446L21.8679 18.1573C21.9619 17.3709 21.8339 16.6449 21.4766 15.9381L20.4829 13.9722C20.0812 13.1771 20.2411 12.2693 20.8908 11.6596ZM33.1796 24.4953C38.591 24.4953 42.9936 20.0927 42.9936 14.6814C42.9936 9.26999 38.591 4.86739 33.1796 4.86739C27.7682 4.86739 23.3657 9.26999 23.3657 14.6814C23.3657 20.0927 27.7682 24.4953 33.1796 24.4953ZM33.1796 6.8028C37.5238 6.8028 41.0581 10.3371 41.0581 14.6812C41.0581 19.0255 37.5238 22.5597 33.1796 22.5597C28.8354 22.5597 25.3012 19.0254 25.3012 14.6812C25.3012 10.3371 28.8354 6.8028 33.1796 6.8028ZM29.6227 15.5626C29.2448 15.1847 29.2448 14.572 29.6227 14.1941C30.0008 13.8162 30.6133 13.8162 30.9914 14.1941L32.2692 15.472L36.2737 11.8378C36.6694 11.4788 37.2815 11.5083 37.6406 11.9041C37.9999 12.2999 37.9703 12.912 37.5743 13.2712L32.8872 17.5249C32.7024 17.6927 32.4695 17.776 32.237 17.776C31.9888 17.776 31.741 17.6811 31.5526 17.4926L29.6227 15.5626ZM58.3891 26.1971C58.3891 26.7316 57.9558 27.1649 57.4213 27.1649H54.7104C54.176 27.1649 53.7426 26.7316 53.7426 26.1971C53.7426 25.6627 54.176 25.2294 54.7104 25.2294H57.4213C57.9558 25.2294 58.3891 25.6627 58.3891 26.1971ZM51.6956 26.1971C51.6956 26.7316 51.2623 27.1649 50.7278 27.1649H48.0168C47.4823 27.1649 47.049 26.7316 47.049 26.1971C47.049 25.6627 47.4823 25.2294 48.0168 25.2294H50.7278C51.2623 25.2294 51.6956 25.6627 51.6956 26.1971ZM53.6869 28.1884V30.8995C53.6869 31.4339 53.2536 31.8673 52.7191 31.8673C52.1847 31.8673 51.7513 31.4339 51.7513 30.8995V28.1884C51.7513 27.654 52.1847 27.2207 52.7191 27.2207C53.2536 27.2207 53.6869 27.654 53.6869 28.1884ZM53.6869 21.4949V24.206C53.6869 24.7404 53.2536 25.1737 52.7191 25.1737C52.1847 25.1737 51.7513 24.7404 51.7513 24.206V21.4949C51.7513 20.9604 52.1847 20.5271 52.7191 20.5271C53.2536 20.5271 53.6869 20.9603 53.6869 21.4949ZM8.02758 22.5436V19.8325C8.02758 19.2981 8.46089 18.8648 8.99534 18.8648C9.52979 18.8648 9.9631 19.2981 9.9631 19.8325V22.5436C9.9631 23.078 9.52979 23.5113 8.99534 23.5113C8.46089 23.5113 8.02758 23.078 8.02758 22.5436ZM3.32522 24.5348C3.32522 24.0003 3.75853 23.567 4.29298 23.567H7.00392C7.53837 23.567 7.97169 24.0003 7.97169 24.5348C7.97169 25.0692 7.53837 25.5025 7.00392 25.5025H4.29298C3.75853 25.5025 3.32522 25.0693 3.32522 24.5348ZM8.02758 29.2371V26.526C8.02758 25.9916 8.46089 25.5583 8.99534 25.5583C9.52979 25.5583 9.9631 25.9916 9.9631 26.526V29.2371C9.9631 29.7716 9.52979 30.2049 8.99534 30.2049C8.46089 30.2049 8.02758 29.7717 8.02758 29.2371ZM13.6977 23.567C14.2321 23.567 14.6655 24.0003 14.6655 24.5348C14.6655 25.0692 14.2321 25.5025 13.6977 25.5025H10.9865C10.4521 25.5025 10.0187 25.0692 10.0187 24.5348C10.0187 24.0003 10.4521 23.567 10.9865 23.567H13.6977ZM8.40174 6.01867C8.40174 5.48422 8.83505 5.05091 9.3695 5.05091H12.0806C12.615 5.05091 13.0483 5.48422 13.0483 6.01867C13.0483 6.55312 12.615 6.98643 12.0806 6.98643H9.3695C8.83505 6.98643 8.40174 6.55312 8.40174 6.01867ZM13.1041 10.7209V8.00984C13.1041 7.47539 13.5374 7.04208 14.0719 7.04208C14.6063 7.04208 15.0396 7.47539 15.0396 8.00984V10.7209C15.0396 11.2554 14.6063 11.6887 14.0719 11.6887C13.5374 11.6887 13.1041 11.2555 13.1041 10.7209ZM15.0954 6.01867C15.0954 5.48422 15.5287 5.05091 16.0632 5.05091H18.7741C19.3085 5.05091 19.7419 5.48422 19.7419 6.01867C19.7419 6.55312 19.3085 6.98643 18.7741 6.98643H16.0632C15.5287 6.98643 15.0954 6.55312 15.0954 6.01867ZM13.1041 4.02738V1.31631C13.1041 0.781862 13.5374 0.348546 14.0719 0.348546C14.6063 0.348546 15.0396 0.781862 15.0396 1.31631V4.02738C15.0396 4.56182 14.6063 4.99514 14.0719 4.99514C13.5374 4.99514 13.1041 4.56182 13.1041 4.02738Z" fill="url(#paint0_linear_21_440)"/>
<defs>
<linearGradient id="paint0_linear_21_440" x1="29.1946" y1="0" x2="29.1946" y2="60" gradientUnits="userSpaceOnUse">
<stop stop-color="#FF6D3E"/>
<stop offset="1" stop-color="#F13B3B"/>
</linearGradient>
</defs>
</svg>
