<svg width="56" height="56" viewBox="0 0 56 56" fill="none" xmlns="http://www.w3.org/2000/svg">
<path d="M9.94875 36.7434C5.66672 36.7434 2.18203 40.2292 2.18203 44.5134C2.18203 46.655 3.05375 48.5975 4.46031 50.0041C4.50187 50.0533 4.54781 50.097 4.59922 50.1364C5.99375 51.4631 7.87719 52.2802 9.94875 52.2802C12.0181 52.2802 13.9005 51.4653 15.2939 50.1419C15.3508 50.0992 15.4022 50.05 15.447 49.9953C16.8492 48.5898 17.7188 46.6506 17.7188 44.5134C17.7188 40.2281 14.233 36.7434 9.94875 36.7434ZM9.94875 38.4913C13.2683 38.4913 15.9698 41.1917 15.9698 44.5123C15.9698 45.6608 15.6461 46.7338 15.0861 47.6481C14.6683 46.8923 14.0525 46.2569 13.3055 45.8161C13.7441 45.1686 14.0011 44.3877 14.0011 43.5488C14.0011 41.3164 12.1833 39.4997 9.94875 39.4997C7.71641 39.4997 5.89969 41.3164 5.89969 43.5488C5.89969 44.3888 6.15672 45.1686 6.59531 45.8172C5.84937 46.2569 5.2325 46.8934 4.81578 47.6492C4.25578 46.7359 3.93203 45.6619 3.93203 44.5134C3.93094 41.1928 6.63031 38.4913 9.94875 38.4913ZM7.64859 43.5488C7.64859 42.28 8.68 41.2486 9.94875 41.2486C11.2186 41.2486 12.2522 42.2811 12.2522 43.5488C12.2522 44.8186 11.2186 45.8522 9.94875 45.8522C8.68 45.8522 7.64859 44.8186 7.64859 43.5488ZM6.08562 49.1214C6.35359 48.1852 7.06344 47.4217 7.98219 47.0881C8.56516 47.4141 9.23562 47.6 9.94984 47.6C10.6641 47.6 11.3356 47.413 11.9197 47.087C12.8384 47.4206 13.5483 48.1841 13.8162 49.1192C12.7695 49.9986 11.4209 50.5291 9.94984 50.5291C8.47984 50.5302 7.13125 49.9997 6.08562 49.1214ZM46.0184 36.7434C41.7364 36.7434 38.2517 40.2292 38.2517 44.5134C38.2517 46.655 39.1234 48.5975 40.53 50.0041C40.5716 50.0533 40.6175 50.097 40.6689 50.1364C42.0634 51.4631 43.9469 52.2802 46.0184 52.2802C48.0966 52.2802 49.9855 51.4588 51.3811 50.1255C51.4237 50.0916 51.462 50.0555 51.497 50.015C52.9112 48.6073 53.7873 46.6616 53.7873 44.5145C53.7884 40.2281 50.3027 36.7434 46.0184 36.7434ZM42.1553 49.1214C42.4233 48.1852 43.1331 47.4217 44.0519 47.0881C44.6348 47.4141 45.3053 47.6 46.0195 47.6C46.7337 47.6 47.4053 47.413 47.9894 47.087C48.9081 47.4206 49.6191 48.1852 49.8848 49.1214C48.8381 49.9997 47.4906 50.5291 46.0206 50.5291C44.5495 50.5302 43.202 49.9997 42.1553 49.1214ZM46.0184 45.8522C44.7497 45.8522 43.7183 44.8186 43.7183 43.5488C43.7183 42.28 44.7497 41.2486 46.0184 41.2486C47.2883 41.2486 48.3219 42.2811 48.3219 43.5488C48.323 44.8186 47.2894 45.8522 46.0184 45.8522ZM51.1558 47.6492C50.7391 46.8934 50.1233 46.2569 49.3763 45.8161C49.8148 45.1686 50.0719 44.3877 50.0719 43.5488C50.0719 41.3164 48.2541 39.4997 46.0195 39.4997C43.7872 39.4997 41.9705 41.3164 41.9705 43.5488C41.9705 44.3888 42.2275 45.1686 42.6661 45.8172C41.9202 46.2569 41.3033 46.8934 40.8866 47.6492C40.3266 46.7348 40.0028 45.6619 40.0028 44.5134C40.0028 41.1939 42.7022 38.4923 46.0206 38.4923C49.3402 38.4923 52.0417 41.1928 52.0417 44.5134C52.0395 45.6608 51.7158 46.7348 51.1558 47.6492ZM40.5311 16.9805C40.5727 17.0297 40.6186 17.0734 40.67 17.1128C42.0645 18.4395 43.948 19.2566 46.0195 19.2566C48.0977 19.2566 49.9866 18.4352 51.3822 17.1019C51.4248 17.068 51.4631 17.0319 51.4981 16.9914C52.9123 15.5838 53.7884 13.638 53.7884 11.4909C53.7884 7.20672 50.3027 3.72094 46.0184 3.72094C41.7364 3.72094 38.2517 7.20672 38.2517 11.4909C38.2528 13.6325 39.1234 15.5739 40.5311 16.9805ZM42.1553 16.1C42.4233 15.1659 43.1331 14.4025 44.0519 14.0678C44.6348 14.3927 45.3053 14.5797 46.0184 14.5797C46.7327 14.5797 47.4042 14.3937 47.9872 14.0678C48.907 14.4036 49.6169 15.167 49.8827 16.1011C48.8359 16.9794 47.4884 17.5088 46.0184 17.5088C44.5495 17.5077 43.202 16.9783 42.1553 16.1ZM46.0184 12.8297C44.7497 12.8297 43.7183 11.7972 43.7183 10.5295C43.7183 9.25969 44.7497 8.22609 46.0184 8.22609C47.2883 8.22609 48.3219 9.25969 48.3219 10.5295C48.323 11.7972 47.2894 12.8297 46.0184 12.8297ZM46.0184 5.46984C49.338 5.46984 52.0395 8.17031 52.0395 11.4909C52.0395 12.6394 51.7158 13.7134 51.1547 14.6278C50.738 13.8731 50.1222 13.2366 49.3752 12.7958C49.8137 12.1483 50.0708 11.3684 50.0708 10.5295C50.0708 8.295 48.253 6.47719 46.0184 6.47719C43.7861 6.47719 41.9694 8.295 41.9694 10.5295C41.9694 11.3684 42.2264 12.1494 42.665 12.7958C41.9191 13.2366 41.3033 13.872 40.8855 14.6267C40.3255 13.7123 40.0006 12.6383 40.0006 11.4898C40.0017 8.17031 42.7011 5.46984 46.0184 5.46984ZM4.46031 16.9805C4.50187 17.0297 4.54781 17.0734 4.59922 17.1128C5.99375 18.4395 7.87719 19.2566 9.94875 19.2566C12.0181 19.2566 13.9005 18.4417 15.2939 17.1183C15.3508 17.0756 15.4022 17.0264 15.447 16.9717C16.8492 15.5662 17.7188 13.627 17.7188 11.4898C17.7188 7.20563 14.233 3.71984 9.94875 3.71984C5.66672 3.71984 2.18203 7.20563 2.18203 11.4898C2.18203 13.6325 3.05375 15.5739 4.46031 16.9805ZM6.08562 16.1C6.35359 15.1659 7.06453 14.4036 7.98219 14.0678C8.56516 14.3927 9.23563 14.5797 9.94875 14.5797C10.663 14.5797 11.3345 14.3937 11.9175 14.0678C12.8363 14.4036 13.5472 15.1659 13.8152 16.1C12.7684 16.9783 11.4198 17.5098 9.94875 17.5098C8.47984 17.5077 7.13125 16.9783 6.08562 16.1ZM9.94875 12.8297C8.68 12.8297 7.64859 11.7972 7.64859 10.5295C7.64859 9.25969 8.68 8.22609 9.94875 8.22609C11.2186 8.22609 12.2522 9.25969 12.2522 10.5295C12.2522 11.7972 11.2197 12.8297 9.94875 12.8297ZM9.94875 5.46984C13.2683 5.46984 15.9698 8.17031 15.9698 11.4909C15.9698 12.6394 15.6461 13.7134 15.085 14.6267C14.6672 13.872 14.0514 13.2366 13.3055 12.7958C13.7441 12.1483 14.0011 11.3684 14.0011 10.5295C14.0011 8.295 12.1833 6.47719 9.94875 6.47719C7.71641 6.47719 5.89969 8.295 5.89969 10.5295C5.89969 11.3684 6.15672 12.1494 6.59531 12.7958C5.84937 13.2366 5.23359 13.872 4.81578 14.6267C4.25578 13.7123 3.93094 12.6383 3.93094 11.4898C3.93094 8.17031 6.63031 5.46984 9.94875 5.46984ZM18.8223 6.94203C18.935 6.94203 19.0498 6.92016 19.1592 6.87422C20.6872 6.23438 22.2895 5.76406 23.9323 5.46984C24.4617 7.20672 26.0772 8.47328 27.9836 8.47328C29.8911 8.47328 31.5077 7.20672 32.0381 5.46984C33.6777 5.76406 35.28 6.23438 36.8112 6.87422C36.9217 6.92016 37.0355 6.94203 37.1481 6.94203C37.4905 6.94203 37.8153 6.73969 37.9553 6.405C38.1413 5.95984 37.9313 5.44687 37.4861 5.26094C35.7875 4.55109 34.0091 4.03484 32.1902 3.72094C31.9353 1.6275 30.147 0 27.9836 0C25.8223 0 24.0362 1.6275 23.7803 3.72094C21.957 4.03594 20.1786 4.55219 18.4833 5.26203C18.0381 5.44797 17.8281 5.96094 18.0141 6.40609C18.1562 6.74078 18.4811 6.94203 18.8223 6.94203ZM27.9836 1.74891C29.3563 1.74891 30.473 2.86453 30.473 4.235C30.473 5.60766 29.3563 6.72437 27.9836 6.72437C26.612 6.72437 25.4975 5.60766 25.4975 4.235C25.4975 2.86453 26.6131 1.74891 27.9836 1.74891ZM4.49969 35.4605C4.61781 35.8323 4.96234 36.0708 5.33312 36.0708C5.42062 36.0708 5.51031 36.0577 5.59781 36.0292C6.05828 35.8838 6.31313 35.3916 6.16656 34.9311C5.78922 33.7433 5.5125 32.5238 5.33422 31.2966C7.14 30.812 8.47328 29.1627 8.47328 27.2059C8.47328 25.3477 7.27016 23.7661 5.60219 23.1973C5.75531 22.4766 5.94453 21.7645 6.16547 21.0689C6.31203 20.6084 6.05828 20.1173 5.59781 19.9708C5.13734 19.8242 4.64625 20.078 4.49969 20.5384C4.24484 21.338 4.03047 22.1594 3.85984 22.9884C1.69969 23.1809 0 24.9988 0 27.2059C0 29.318 1.55531 31.0734 3.58094 31.3895C3.77016 32.7655 4.0775 34.1316 4.49969 35.4605ZM1.74891 27.2059C1.74891 25.8344 2.86562 24.7198 4.23828 24.7198C5.60984 24.7198 6.72437 25.8355 6.72437 27.2059C6.72437 28.537 5.67328 29.6264 4.3575 29.6898C4.35531 29.6898 4.35203 29.6898 4.34984 29.6898C4.31266 29.692 4.27547 29.6931 4.23719 29.6931C2.86563 29.6931 1.74891 28.5775 1.74891 27.2059ZM36.8112 49.1258C35.2789 49.7656 33.6766 50.2359 32.0381 50.5302C31.5077 48.7955 29.8911 47.53 27.9836 47.53C26.0783 47.53 24.4628 48.7955 23.9323 50.5302C22.2928 50.2359 20.6905 49.7667 19.1592 49.1258C18.7141 48.9398 18.2022 49.1498 18.0152 49.595C17.8292 50.0402 18.0392 50.552 18.4844 50.7391C20.183 51.4489 21.9614 51.9652 23.7803 52.2791C24.0352 54.3725 25.8223 56 27.9836 56C30.1459 56 31.9342 54.3725 32.1891 52.2791C34.008 51.9652 35.7864 51.4489 37.485 50.7391C37.9302 50.5531 38.1413 50.0413 37.9542 49.595C37.7694 49.1498 37.2575 48.9398 36.8112 49.1258ZM27.9836 54.2511C26.612 54.2511 25.4975 53.1355 25.4975 51.765C25.4975 50.3934 26.6131 49.2789 27.9836 49.2789C29.3563 49.2789 30.473 50.3945 30.473 51.765C30.4741 53.1355 29.3563 54.2511 27.9836 54.2511ZM34.7517 18.492C32.2809 18.0381 29.7752 18.9952 27.9847 21.0164C26.1953 18.9963 23.6906 18.0392 21.2209 18.492C18.8759 18.9219 17.0833 20.6095 16.5419 22.8944C16.1875 24.3928 16.1875 26.8898 18.1978 30.2761C20.0244 33.3528 23.1394 36.5619 27.4586 39.8158C27.6139 39.9328 27.7998 39.9919 27.9847 39.9919C28.1695 39.9919 28.3555 39.9328 28.5108 39.8158C32.83 36.5619 35.9461 33.3528 37.7727 30.2772C39.7841 26.8909 39.7841 24.3939 39.4297 22.8955C38.8894 20.6095 37.0967 18.923 34.7517 18.492ZM36.2687 29.3847C34.6325 32.1409 31.8467 35.0438 27.9847 38.0187C24.1227 35.0427 21.338 32.1398 19.7017 29.3836C18.3466 27.0998 17.8423 24.9955 18.2437 23.2969C18.6277 21.6727 19.8581 20.5198 21.5359 20.2114C21.8072 20.1622 22.0959 20.1348 22.3978 20.1348C23.9597 20.1348 25.8584 20.8589 27.2606 22.9305C27.4236 23.1711 27.6948 23.3144 27.9847 23.3144C28.2745 23.3144 28.5458 23.17 28.7088 22.9305C30.3822 20.4575 32.7655 19.9052 34.4367 20.2114C36.1145 20.5198 37.345 21.6727 37.7278 23.2969C38.1292 24.9966 37.6239 27.1009 36.2687 29.3847ZM52.1117 22.9895C51.9422 22.1736 51.7289 21.3533 51.4719 20.5417C51.3264 20.0812 50.8353 19.8253 50.3748 19.9708C49.9144 20.1162 49.6584 20.6073 49.8039 21.0678C50.027 21.7744 50.2152 22.4875 50.3672 23.1973C48.6959 23.765 47.4906 25.3477 47.4906 27.207C47.4906 29.1648 48.8261 30.8153 50.6352 31.2987C50.4558 32.5358 50.178 33.7553 49.8039 34.9322C49.6573 35.3927 49.9122 35.8838 50.3727 36.0303C50.4602 36.0577 50.5498 36.0719 50.6373 36.0719C51.0081 36.0719 51.3527 35.8345 51.4708 35.4616C51.8886 34.1436 52.1959 32.7764 52.3884 31.3906C54.4119 31.0723 55.9639 29.318 55.9639 27.207C55.965 24.9998 54.2686 23.1831 52.1117 22.9895ZM51.73 29.6931C51.6928 29.6931 51.6567 29.692 51.6195 29.6898C51.6184 29.6898 51.6173 29.6898 51.6152 29.6898C50.295 29.6297 49.2395 28.5392 49.2395 27.2059C49.2395 25.8344 50.3562 24.7198 51.7289 24.7198C53.1005 24.7198 54.215 25.8355 54.215 27.2059C54.215 28.5764 53.1005 29.6931 51.73 29.6931Z" fill="url(#paint0_linear_21_434)"/>
<defs>
<linearGradient id="paint0_linear_21_434" x1="27.982" y1="0" x2="27.982" y2="56" gradientUnits="userSpaceOnUse">
<stop stop-color="#FF6D3E"/>
<stop offset="1" stop-color="#F13B3B"/>
</linearGradient>
</defs>
</svg>
