<svg width="26" height="27" viewBox="0 0 26 27" fill="none" xmlns="http://www.w3.org/2000/svg">
<path d="M25.1827 5.96298L23.3781 5.34308L22.8854 3.48339C22.8357 3.30626 22.7383 3.14683 22.6042 3.02316C22.4701 2.89949 22.3046 2.81653 22.1266 2.78368C21.9485 2.75083 21.765 2.76941 21.5968 2.8373C21.4285 2.90519 21.2824 3.01968 21.1748 3.16781L20.0676 4.72319L18.1688 4.64993C17.9847 4.63283 17.7996 4.66974 17.6354 4.7563C17.4712 4.84286 17.3347 4.97546 17.2422 5.13842C17.1496 5.30138 17.1048 5.4879 17.113 5.67595C17.1213 5.86401 17.1822 6.04573 17.2886 6.19967L18.3958 7.78322L17.737 9.60909C17.6748 9.7812 17.6616 9.96768 17.6988 10.1471C17.736 10.3265 17.8222 10.4916 17.9474 10.6235C18.0708 10.7588 18.2298 10.8551 18.4055 10.9011C18.5812 10.9471 18.7661 10.9407 18.9383 10.8827L20.7541 10.3192L22.2543 11.5082C22.3769 11.6075 22.5212 11.6751 22.675 11.7055C22.8762 11.7453 23.0847 11.7156 23.2673 11.6209C23.4324 11.545 23.5724 11.4222 23.6706 11.2673C23.7688 11.1123 23.821 10.9318 23.8209 10.7474V8.80887L25.3986 7.72686C25.5485 7.62406 25.6672 7.48062 25.7412 7.31277C25.8152 7.14492 25.8416 6.95934 25.8174 6.77701C25.7932 6.59468 25.7194 6.42288 25.6043 6.28102C25.4892 6.13916 25.3374 6.0329 25.1661 5.97425L25.1827 5.96298ZM23.1566 7.89029C23.0279 7.98056 22.9221 8.10072 22.8479 8.24085C22.7738 8.38097 22.7335 8.53704 22.7304 8.69616V10.4262L21.3962 9.36114C21.2719 9.26232 21.1254 9.19648 20.97 9.16953C20.8169 9.13958 20.6589 9.14927 20.5105 9.19771L18.894 9.71053L19.4753 8.09317C19.5277 7.94208 19.5439 7.78048 19.5228 7.62172C19.5016 7.46296 19.4436 7.31162 19.3535 7.18023L18.3681 5.77701L20.0621 5.839C20.2196 5.84564 20.3763 5.8126 20.5182 5.7428C20.6602 5.673 20.783 5.56861 20.8759 5.43888L21.8889 4.05821L22.3318 5.72629C22.3758 5.87932 22.455 6.01946 22.5628 6.13511C22.6706 6.25076 22.804 6.33857 22.9518 6.39127L24.5572 6.95481L23.1566 7.89029ZM17.5599 2.17598C17.6084 2.26386 17.6792 2.33689 17.7649 2.38744C17.8506 2.43799 17.948 2.46422 18.047 2.46338C18.1398 2.46386 18.2311 2.4406 18.3127 2.39576C18.3764 2.35989 18.4324 2.3116 18.4777 2.25367C18.523 2.19573 18.5567 2.12927 18.5767 2.0581C18.5968 1.98692 18.6028 1.91242 18.5946 1.83885C18.5863 1.76528 18.5639 1.69409 18.5286 1.62934L17.9529 0.564247C17.8795 0.433469 17.7581 0.337733 17.6153 0.298102C17.4726 0.25847 17.3202 0.278188 17.1917 0.352918C17.0633 0.427649 16.9692 0.55127 16.9303 0.696586C16.8914 0.841902 16.9107 0.997011 16.9841 1.12779L17.5599 2.17598ZM19.8406 1.69133H19.8739C20.016 1.69151 20.1528 1.63602 20.2558 1.53636C20.3589 1.43669 20.4203 1.30049 20.4274 1.15597V0.592424C20.4348 0.442963 20.3835 0.296655 20.2849 0.185686C20.1863 0.0747175 20.0484 0.00817771 19.9015 0.000704677C19.7547 -0.00676836 19.611 0.0454376 19.502 0.145838C19.393 0.246238 19.3276 0.386609 19.3203 0.53607V1.09961C19.3127 1.24819 19.3632 1.39379 19.4607 1.50464C19.5582 1.61549 19.6947 1.6826 19.8406 1.69133ZM15.6888 3.30306L16.1704 3.57356C16.252 3.6184 16.3434 3.64166 16.4361 3.64119C16.5577 3.63959 16.6754 3.59725 16.7711 3.52073C16.8667 3.4442 16.9349 3.33774 16.9652 3.2178C16.9954 3.09786 16.986 2.97112 16.9384 2.85717C16.8908 2.74322 16.8077 2.6484 16.7018 2.58736L16.2423 2.31686C16.1787 2.27986 16.1086 2.25597 16.0359 2.24657C15.9632 2.23716 15.8894 2.24242 15.8188 2.26205C15.7481 2.28167 15.6819 2.31527 15.624 2.36094C15.566 2.4066 15.5175 2.46344 15.4812 2.52819C15.4448 2.59294 15.4213 2.66435 15.4121 2.73834C15.4029 2.81233 15.408 2.88744 15.4273 2.95939C15.4466 3.03135 15.4796 3.09873 15.5245 3.1577C15.5693 3.21666 15.6251 3.26606 15.6888 3.30306ZM4.61704 23.7202C4.48675 23.7202 4.35938 23.7595 4.25105 23.8332C4.14271 23.9069 4.05828 24.0116 4.00842 24.1342C3.95856 24.2567 3.94551 24.3915 3.97093 24.5216C3.99635 24.6517 4.05909 24.7712 4.15122 24.865C4.24335 24.9588 4.36073 25.0227 4.48852 25.0485C4.61631 25.0744 4.74876 25.0611 4.86914 25.0104C4.98951 24.9596 5.0924 24.8737 5.16478 24.7634C5.23717 24.6531 5.27581 24.5234 5.27581 24.3908C5.27581 24.3027 5.25877 24.2155 5.22566 24.1342C5.19255 24.0528 5.14403 23.9789 5.08286 23.9166C5.02169 23.8543 4.94906 23.8049 4.86914 23.7712C4.78921 23.7375 4.70355 23.7202 4.61704 23.7202Z" fill="white"/>
<path d="M22.3318 18.9639C22.3343 18.6336 22.2587 18.3075 22.1113 18.0132C21.9638 17.7189 21.749 17.4651 21.4848 17.2733C21.737 16.9755 21.8995 16.61 21.9529 16.2206C22.0064 15.8312 21.9484 15.4344 21.7861 15.0776C21.6237 14.7209 21.3638 14.4193 21.0374 14.209C20.711 13.9988 20.332 13.8887 19.9458 13.892H15.9988C15.6672 13.8937 15.3415 13.9809 15.0521 14.1456C14.96 13.9534 14.9272 13.7373 14.958 13.5257C15.1286 12.637 15.1752 11.7283 15.0964 10.8263C15.019 9.92299 14.5924 9.08788 13.9104 8.50456C13.2284 7.92125 12.3468 7.63747 11.4594 7.71559C11.307 7.72906 11.1587 7.773 11.023 7.84491C10.8873 7.91682 10.7669 8.01527 10.6687 8.13464C10.5705 8.254 10.4964 8.39192 10.4506 8.5405C10.4048 8.68907 10.3883 8.84538 10.402 9.00047L10.4352 9.37804C10.5714 10.9867 10.1948 12.5972 9.36127 13.9709L7.11925 16.9577C7.0132 16.6536 6.81751 16.3902 6.55889 16.2036C6.30028 16.017 5.99137 15.9163 5.67439 15.9151H3.53755C3.13078 15.9151 2.74043 16.0784 2.45125 16.3696C2.16207 16.6609 1.99742 17.0564 1.99304 17.4705V17.6114H0.55372C0.4069 17.6114 0.266093 17.6708 0.162276 17.7764C0.0584582 17.8821 0.00013413 18.0255 0.00013413 18.1749C0.00013413 18.3244 0.0584582 18.4677 0.162276 18.5734C0.266093 18.6791 0.4069 18.7385 0.55372 18.7385H1.99304V24.1597H0.55372C0.481011 24.1597 0.40901 24.1743 0.34183 24.2026C0.274651 24.2309 0.213608 24.2724 0.162189 24.3248C0.11077 24.3771 0.0699808 24.4392 0.0421522 24.5076C0.0143235 24.576 0 24.6493 0 24.7233C0 24.7973 0.0143235 24.8706 0.0421522 24.939C0.0699808 25.0074 0.11077 25.0695 0.162189 25.1218C0.213608 25.1742 0.274651 25.2157 0.34183 25.244C0.40901 25.2723 0.481011 25.2868 0.55372 25.2868H1.99304V25.4277C1.99304 25.8447 2.15577 26.2446 2.44542 26.5395C2.73507 26.8344 3.12792 27 3.53755 27H5.67439C6.00503 26.996 6.32575 26.8844 6.58968 26.6817C6.85362 26.4789 7.04694 26.1955 7.14139 25.8729C8.41186 26.604 9.84497 26.992 11.3044 27H19.4365C19.9724 27 20.4864 26.7833 20.8653 26.3975C21.2442 26.0118 21.4571 25.4886 21.4571 24.9431C21.4588 24.4801 21.3044 24.0306 21.0198 23.6695C21.2969 23.4855 21.5256 23.2352 21.6858 22.9405C21.8459 22.6458 21.9328 22.3156 21.9387 21.9788C21.9376 21.4976 21.7689 21.0324 21.4627 20.6658C21.7314 20.4743 21.9508 20.2196 22.1021 19.9233C22.2534 19.627 22.3322 19.2978 22.3318 18.9639ZM6.13386 21.7816V25.4052C6.13243 25.5228 6.08589 25.6352 6.00418 25.7184C5.92248 25.8015 5.81207 25.8489 5.69653 25.8504H3.53755C3.42156 25.8504 3.31032 25.8035 3.22831 25.72C3.14629 25.6365 3.10021 25.5233 3.10021 25.4052V17.4705C3.10021 17.3524 3.14629 17.2392 3.22831 17.1557C3.31032 17.0722 3.42156 17.0253 3.53755 17.0253H5.67439C5.78993 17.0268 5.90033 17.0741 5.98204 17.1573C6.06375 17.2405 6.11028 17.3529 6.11172 17.4705L6.13386 21.7816ZM19.9458 15.0191C20.1881 15.0191 20.4204 15.1171 20.5917 15.2914C20.763 15.4658 20.8592 15.7023 20.8592 15.9489C20.8592 16.1956 20.763 16.4321 20.5917 16.6064C20.4204 16.7808 20.1881 16.8788 19.9458 16.8788H15.9988C15.7565 16.8788 15.5242 16.7808 15.3529 16.6064C15.1816 16.4321 15.0853 16.1956 15.0853 15.9489C15.0853 15.7023 15.1816 15.4658 15.3529 15.2914C15.5242 15.1171 15.7565 15.0191 15.9988 15.0191H19.9458ZM14.6868 25.8673H11.3044C9.98347 25.8653 8.68662 25.5076 7.54551 24.8304C7.44832 24.7726 7.36728 24.6905 7.3101 24.5919C7.25293 24.4932 7.22153 24.3813 7.21889 24.2668V18.8737C7.21837 18.7848 7.23524 18.6966 7.2685 18.6144C7.30176 18.5322 7.35076 18.4575 7.41265 18.3947L7.46247 18.3384L10.2691 14.5908C11.2494 13.0011 11.6944 11.1297 11.5369 9.2597L11.5036 8.87649C11.5036 8.84831 11.5036 8.82014 11.5535 8.8145C11.8511 8.78403 12.1517 8.81527 12.4371 8.90631C12.7225 8.99735 12.9869 9.14632 13.2142 9.34423C13.4425 9.53609 13.6306 9.77258 13.7675 10.0397C13.9045 10.3069 13.9874 10.5993 14.0114 10.8996C14.0817 11.6979 14.0407 12.5024 13.8896 13.289C13.8321 13.5819 13.8359 13.8839 13.9007 14.1752C13.9656 14.4665 14.0901 14.7406 14.266 14.9796C14.0969 15.2699 14.0036 15.5994 13.9948 15.9367C13.9861 16.2741 14.0623 16.6081 14.2162 16.907C13.7299 16.9428 13.2729 17.1569 12.9299 17.5096C12.5868 17.8623 12.381 18.3296 12.3506 18.8249C12.3202 19.3203 12.4673 19.8101 12.7645 20.2035C13.0617 20.5969 13.489 20.8673 13.9671 20.9645C13.7972 21.2741 13.7112 21.6242 13.718 21.9788C13.72 22.3566 13.8244 22.7265 14.0198 23.0477C14.2152 23.3689 14.4939 23.6289 14.8252 23.7991C14.5928 24.1423 14.4674 24.5488 14.4653 24.9656C14.4684 25.2797 14.5442 25.5887 14.6868 25.8673ZM19.4365 25.8673H16.4748C16.2326 25.8673 16.0003 25.7693 15.829 25.5949C15.6577 25.4206 15.5614 25.184 15.5614 24.9374C15.5614 24.6908 15.6577 24.4543 15.829 24.2799C16.0003 24.1056 16.2326 24.0076 16.4748 24.0076H19.4365C19.6788 24.0076 19.9111 24.1056 20.0824 24.2799C20.2537 24.4543 20.3499 24.6908 20.3499 24.9374C20.3499 25.184 20.2537 25.4206 20.0824 25.5949C19.9111 25.7693 19.6788 25.8673 19.4365 25.8673ZM19.9181 22.8805H15.7386C15.4963 22.8805 15.264 22.7825 15.0927 22.6082C14.9214 22.4338 14.8252 22.1973 14.8252 21.9507C14.8252 21.7041 14.9214 21.4675 15.0927 21.2932C15.264 21.1188 15.4963 21.0208 15.7386 21.0208H19.9181C20.1604 21.0208 20.3927 21.1188 20.564 21.2932C20.7353 21.4675 20.8316 21.7041 20.8316 21.9507C20.8316 22.1973 20.7353 22.4338 20.564 22.6082C20.3927 22.7825 20.1604 22.8805 19.9181 22.8805ZM20.2891 19.8937H14.3768C14.1345 19.8937 13.9022 19.7958 13.7309 19.6214C13.5596 19.447 13.4633 19.2105 13.4633 18.9639C13.4633 18.7173 13.5596 18.4808 13.7309 18.3064C13.9022 18.132 14.1345 18.034 14.3768 18.034H20.2891C20.5313 18.034 20.7636 18.132 20.9349 18.3064C21.1062 18.4808 21.2025 18.7173 21.2025 18.9639C21.2025 19.2105 21.1062 19.447 20.9349 19.6214C20.7636 19.7958 20.5313 19.8937 20.2891 19.8937Z" fill="white"/>
</svg>
