<svg width="42" height="42" viewBox="0 0 42 42" fill="none" xmlns="http://www.w3.org/2000/svg">
<path d="M31.4974 25.2028H24.498V23.0822C24.498 22.6972 24.183 22.3823 23.798 22.3823C23.413 22.3823 23.0981 22.6972 23.0981 23.0822V25.2028H9.09924V11.2051H11.899C12.284 11.2051 12.5989 10.8902 12.5989 10.5052C12.5989 10.1203 12.284 9.80537 11.899 9.80537H8.3993C8.01433 9.80537 7.69936 10.1203 7.69936 10.5052V25.2028H0.699942C0.314974 25.2028 0 25.5177 0 25.9027V41.3001C0 41.6851 0.314974 42 0.699942 42H31.4974C31.8823 42 32.1973 41.6851 32.1973 41.3001V25.9027C32.1973 25.5177 31.8823 25.2028 31.4974 25.2028ZM6.99942 26.6026H9.79918V29.4021H6.99942V26.6026ZM15.3987 40.6002H1.39988V26.6026H5.59953V30.102C5.59953 30.4869 5.91451 30.8019 6.29947 30.8019H10.4991C10.8841 30.8019 11.1991 30.4869 11.1991 30.102V26.6026H15.3987V40.6002ZM22.3981 26.6026H25.1979V29.4021H22.3981V26.6026ZM30.7974 40.6002H16.7986V26.6026H20.9982V30.102C20.9982 30.4869 21.3132 30.8019 21.6982 30.8019H25.8978C26.2828 30.8019 26.5978 30.4869 26.5978 30.102V26.6026H30.7974V40.6002Z" fill="url(#paint0_linear_36_682)"/>
<path d="M28.6976 37.8007H25.8978C25.5129 37.8007 25.1979 38.1157 25.1979 38.5006C25.1979 38.8855 25.5129 39.2005 25.8978 39.2005H28.6976C29.0826 39.2005 29.3975 38.8855 29.3975 38.5006C29.3975 38.1157 29.0826 37.8007 28.6976 37.8007Z" fill="url(#paint1_linear_36_682)"/>
<path d="M25.1979 35.701C25.1979 36.086 25.5129 36.4009 25.8978 36.4009H28.6976C29.0826 36.4009 29.3975 36.086 29.3975 35.701C29.3975 35.3161 29.0826 35.0012 28.6976 35.0012H25.8978C25.5129 35.0012 25.1979 35.3161 25.1979 35.701Z" fill="url(#paint2_linear_36_682)"/>
<path d="M20.9982 23.803C21.3832 23.803 21.6982 23.4881 21.6982 23.1031C21.6982 22.7182 21.3832 22.4033 20.9982 22.4033H18.1985C17.8135 22.4033 17.4985 22.7182 17.4985 23.1031C17.4985 23.4881 17.8135 23.803 18.1985 23.803H20.9982Z" fill="url(#paint3_linear_36_682)"/>
<path d="M13.2989 37.8007H10.4991C10.1142 37.8007 9.79918 38.1157 9.79918 38.5006C9.79918 38.8855 10.1142 39.2005 10.4991 39.2005H13.2989C13.6839 39.2005 13.9988 38.8855 13.9988 38.5006C13.9988 38.1157 13.6839 37.8007 13.2989 37.8007Z" fill="url(#paint4_linear_36_682)"/>
<path d="M9.79918 35.701C9.79918 36.086 10.1142 36.4009 10.4991 36.4009H13.2989C13.6839 36.4009 13.9988 36.086 13.9988 35.701C13.9988 35.3161 13.6839 35.0012 13.2989 35.0012H10.4991C10.1142 35.0012 9.79918 35.3161 9.79918 35.701Z" fill="url(#paint5_linear_36_682)"/>
<path d="M24.498 2.80653C20.2493 2.80653 16.7986 6.25696 16.7986 10.5052C16.7986 14.7535 20.2493 18.204 24.498 18.204C28.7466 18.204 32.1973 14.7535 32.1973 10.5052C32.1973 6.25696 28.7466 2.80653 24.498 2.80653ZM24.498 16.8042C21.0262 16.8042 18.1985 13.9767 18.1985 10.5052C18.1985 7.03383 21.0262 4.2063 24.498 4.2063C27.9697 4.2063 30.7974 7.03383 30.7974 10.5052C30.7974 13.9767 27.9697 16.8042 24.498 16.8042Z" fill="url(#paint6_linear_36_682)"/>
<path d="M26.7658 7.25079L23.0561 11.5761L21.4882 10.0083C21.2152 9.73538 20.7743 9.73538 20.5013 10.0083C20.2283 10.2813 20.2283 10.7222 20.5013 10.9952L22.6011 13.0948C22.7341 13.2278 22.9091 13.2978 23.0981 13.2978H23.1261C23.3221 13.2908 23.504 13.1998 23.63 13.0528L27.8297 8.15364C28.0817 7.85969 28.0467 7.41876 27.7527 7.16681C27.4587 6.91485 27.0177 6.94984 26.7658 7.24379V7.25079Z" fill="url(#paint7_linear_36_682)"/>
<path d="M41.1006 22.7462L36.054 17.7071C35.781 17.4341 35.3401 17.4341 35.0671 17.7071L34.8711 17.903L33.2542 16.2863C34.3531 14.6276 35.0041 12.6399 35.0041 10.4983C35.0041 4.71022 30.2935 0 24.505 0C18.7164 0 14.0058 4.71022 14.0058 10.4983C14.0058 16.2863 18.7164 20.9965 24.505 20.9965C26.6398 20.9965 28.6346 20.3526 30.2935 19.2468L31.9103 20.8635L31.7144 21.0595C31.4414 21.3324 31.4414 21.7734 31.7144 22.0463L36.7539 27.0925C37.3559 27.6874 38.1398 27.9883 38.9308 27.9883C39.7217 27.9883 40.5056 27.6874 41.1076 27.0925C42.2975 25.8957 42.2975 23.943 41.1076 22.7392L41.1006 22.7462ZM24.498 19.6037C19.4794 19.6037 15.3987 15.5234 15.3987 10.5052C15.3987 5.48709 19.4794 1.40677 24.498 1.40677C29.5165 1.40677 33.5972 5.48709 33.5972 10.5052C33.5972 15.5234 29.5165 19.6037 24.498 19.6037ZM31.4274 18.4209L32.4143 17.4341L33.8772 18.8969L32.8903 19.8837L31.4274 18.4209ZM40.1067 26.1126C39.4487 26.7635 38.3848 26.7635 37.7269 26.1126L33.1842 21.5634L35.55 19.1978L40.0997 23.74C40.7506 24.3979 40.7506 25.4618 40.0997 26.1196L40.1067 26.1126Z" fill="url(#paint8_linear_36_682)"/>
<defs>
<linearGradient id="paint0_linear_36_682" x1="4.8117" y1="34.8215" x2="31.5781" y2="2.93471" gradientUnits="userSpaceOnUse">
<stop stop-color="#E2313B"/>
<stop offset="1" stop-color="#FF6D3E"/>
</linearGradient>
<linearGradient id="paint1_linear_36_682" x1="4.8117" y1="34.8215" x2="31.5781" y2="2.93471" gradientUnits="userSpaceOnUse">
<stop stop-color="#E2313B"/>
<stop offset="1" stop-color="#FF6D3E"/>
</linearGradient>
<linearGradient id="paint2_linear_36_682" x1="4.8117" y1="34.8215" x2="31.5781" y2="2.93471" gradientUnits="userSpaceOnUse">
<stop stop-color="#E2313B"/>
<stop offset="1" stop-color="#FF6D3E"/>
</linearGradient>
<linearGradient id="paint3_linear_36_682" x1="4.8117" y1="34.8215" x2="31.5781" y2="2.93471" gradientUnits="userSpaceOnUse">
<stop stop-color="#E2313B"/>
<stop offset="1" stop-color="#FF6D3E"/>
</linearGradient>
<linearGradient id="paint4_linear_36_682" x1="4.8117" y1="34.8215" x2="31.5781" y2="2.93471" gradientUnits="userSpaceOnUse">
<stop stop-color="#E2313B"/>
<stop offset="1" stop-color="#FF6D3E"/>
</linearGradient>
<linearGradient id="paint5_linear_36_682" x1="4.8117" y1="34.8215" x2="31.5781" y2="2.93471" gradientUnits="userSpaceOnUse">
<stop stop-color="#E2313B"/>
<stop offset="1" stop-color="#FF6D3E"/>
</linearGradient>
<linearGradient id="paint6_linear_36_682" x1="4.8117" y1="34.8215" x2="31.5781" y2="2.93471" gradientUnits="userSpaceOnUse">
<stop stop-color="#E2313B"/>
<stop offset="1" stop-color="#FF6D3E"/>
</linearGradient>
<linearGradient id="paint7_linear_36_682" x1="4.8117" y1="34.8215" x2="31.5781" y2="2.93471" gradientUnits="userSpaceOnUse">
<stop stop-color="#E2313B"/>
<stop offset="1" stop-color="#FF6D3E"/>
</linearGradient>
<linearGradient id="paint8_linear_36_682" x1="4.8117" y1="34.8215" x2="31.5781" y2="2.93471" gradientUnits="userSpaceOnUse">
<stop stop-color="#E2313B"/>
<stop offset="1" stop-color="#FF6D3E"/>
</linearGradient>
</defs>
</svg>
