<svg width="40" height="40" viewBox="0 0 40 40" fill="none" xmlns="http://www.w3.org/2000/svg">
<path d="M40 7.3557L33.9219 6.03848L32.7201 0L29.1393 3.58658C26.2184 1.89443 22.8937 1.00641 19.4656 1.00641C16.8403 1.00641 14.2889 1.52442 11.8902 2.5407C9.57025 3.52245 7.49169 4.92847 5.70373 6.71929C3.91577 8.51011 2.51201 10.592 1.53183 12.9156C0.517178 15.3182 0 17.8737 0 20.5032C0 23.1327 0.517178 25.6882 1.53183 28.0908C2.51201 30.4144 3.91577 32.4963 5.70373 34.2871C7.49169 36.0779 9.57025 37.484 11.8902 38.4657C14.2889 39.482 16.8403 40 19.4656 40C22.0909 40 24.6423 39.482 27.041 38.4657C29.3609 37.484 31.4395 36.0779 33.2274 34.2871C35.0154 32.4963 36.4192 30.4144 37.3993 28.0908C38.414 25.6882 38.9312 23.1327 38.9312 20.5032C38.9312 17.0942 38.0544 13.779 36.3847 10.8683L40 7.3557ZM30.41 16.665L30.4839 16.596C30.9272 17.8441 31.1489 19.1515 31.1489 20.4983C31.1489 23.626 29.9323 26.5614 27.7256 28.7716C25.519 30.9817 22.5884 32.2003 19.4656 32.2003C16.3428 32.2003 13.4121 30.9817 11.2055 28.7716C8.99889 26.5614 7.78229 23.626 7.78229 20.4983C7.78229 17.3705 8.99889 14.4351 11.2055 12.225C13.4121 10.0148 16.3428 8.79625 19.4656 8.79625C20.7905 8.79625 22.0712 9.01332 23.2878 9.44253L23.2779 9.45239L24.2236 14.1885L23.4355 14.9531C22.3174 14.149 20.9482 13.6705 19.4656 13.6705C15.7124 13.6705 12.6536 16.7292 12.6536 20.4933C12.6536 24.2526 15.7074 27.3162 19.4656 27.3162C23.2237 27.3162 26.2776 24.2575 26.2776 20.4933C26.2776 18.964 25.7752 17.553 24.923 16.4134L25.6914 15.6389L30.41 16.665ZM24.3271 20.4983C24.3271 23.182 22.1451 25.3675 19.4656 25.3675C16.7861 25.3675 14.6041 23.182 14.6041 20.4983C14.6041 17.8145 16.7861 15.629 19.4656 15.629C20.4556 15.629 21.3767 15.925 22.1451 16.4381L19.968 18.6186C19.8054 18.5742 19.638 18.5496 19.4607 18.5496C18.3869 18.5496 17.5102 19.4228 17.5102 20.5032C17.5102 21.5787 18.382 22.4568 19.4607 22.4568C20.5393 22.4568 21.4161 21.5738 21.4161 20.4983C21.4161 20.3256 21.3915 20.1529 21.3471 19.9901L23.5242 17.8096C24.0315 18.5841 24.3271 19.5067 24.3271 20.4983ZM28.3413 10.1875L27.7355 7.74544L28.8782 6.60089L29.4939 9.06759L28.3413 10.1875ZM26.9326 8.54958L27.5336 10.9719L25.8835 12.5752L25.386 10.0987L26.9326 8.54958ZM31.1095 13.2708L29.8042 14.5387L27.3267 14.0059L28.957 12.368L31.5084 12.8762L31.1095 13.2708ZM32.3605 12.0572L29.7894 11.5442L30.9075 10.4243L33.5082 10.9423L32.3605 12.0572ZM34.3554 10.1184L31.7449 9.59546L33.2373 8.14504L33.4589 7.93291L36.03 8.49038L34.3554 10.1184ZM32.0355 6.53182L30.2968 8.27331L29.6811 5.79674L31.5232 3.95165L32.0355 6.53182ZM36.9807 20.4983C36.9807 25.185 35.1582 29.5905 31.8483 32.9058C28.5384 36.221 24.1448 38.0414 19.4656 38.0414C14.7864 38.0414 10.3879 36.2161 7.07795 32.9008C3.76801 29.5856 1.9505 25.185 1.9505 20.4983C1.9505 15.8115 3.77293 11.406 7.08287 8.09077C10.3928 4.77553 14.7913 2.95017 19.4705 2.95017C22.3766 2.95017 25.1989 3.66058 27.7109 5.01727L24.7901 7.94277C23.1203 7.21756 21.3323 6.84756 19.4656 6.84756C15.8256 6.84756 12.4024 8.26838 9.8313 10.8436C7.26019 13.4188 5.84165 16.8476 5.84165 20.4933C5.84165 24.1391 7.26019 27.5678 9.8313 30.1431C12.4024 32.7183 15.8256 34.1391 19.4656 34.1391C23.1055 34.1391 26.5288 32.7183 29.0999 30.1431C31.671 27.5678 33.0895 24.1391 33.0895 20.4933C33.0895 18.6236 32.7201 16.818 31.9911 15.1209L34.9317 12.2644C36.2812 14.7805 36.9807 17.6024 36.9807 20.4983Z" fill="url(#paint0_linear_21_127)"/>
<defs>
<linearGradient id="paint0_linear_21_127" x1="20" y1="0" x2="20" y2="40" gradientUnits="userSpaceOnUse">
<stop stop-color="#FF6D3E"/>
<stop offset="1" stop-color="#F13B3B"/>
</linearGradient>
</defs>
</svg>
