<svg width="24" height="24" viewBox="0 0 24 24" fill="none" xmlns="http://www.w3.org/2000/svg">
<path d="M19.4062 11.9196L15.0804 20.6196L15.3455 23.9411L18.15 22.1437L22.4732 13.4464L19.4062 11.9196ZM20.9304 8.85L19.9125 10.8964L22.9821 12.4232L24 10.3768L20.9304 8.85ZM2.57143 22.2857C2.09732 22.2857 1.71429 21.9027 1.71429 21.4286V2.57143C1.71429 2.09732 2.09732 1.71429 2.57143 1.71429H17.1187C17.5929 1.71429 17.9759 2.09732 17.9759 2.57143V9.42857C17.9759 9.90268 18.3589 10.2857 18.833 10.2857C19.3071 10.2857 19.6902 9.90268 19.6902 9.42857V1.71429C19.6902 0.76875 18.9214 0 17.9759 0H1.71429C0.766071 0 0 0.76875 0 1.71429V22.2857C0 23.2312 0.76875 24 1.71429 24H12.8732C13.3473 24 13.7304 23.617 13.7304 23.1429C13.7304 22.6687 13.3473 22.2857 12.8732 22.2857H2.57143Z" fill="#FF6D3E"/>
<path d="M14.9759 5.11607H4.6875C4.21339 5.11607 3.83036 5.49911 3.83036 5.97321C3.83036 6.44732 4.21339 6.83036 4.6875 6.83036H14.9759C15.45 6.83036 15.833 6.44732 15.833 5.97321C15.8357 5.49911 15.45 5.11607 14.9759 5.11607ZM14.9759 10.2589H4.6875C4.21339 10.2589 3.83036 10.642 3.83036 11.1161C3.83036 11.5902 4.21339 11.9732 4.6875 11.9732H14.9759C15.45 11.9732 15.833 11.5902 15.833 11.1161C15.8357 10.642 15.45 10.2589 14.9759 10.2589ZM9.83304 15.4018H4.6875C4.21339 15.4018 3.83036 15.7848 3.83036 16.2589C3.83036 16.733 4.21339 17.1161 4.6875 17.1161H9.83304C10.3071 17.1161 10.6902 16.733 10.6902 16.2589C10.6902 15.7848 10.3071 15.4018 9.83304 15.4018Z" fill="#FF6D3E"/>
</svg>
