<svg width="24" height="24" viewBox="0 0 24 24" fill="none" xmlns="http://www.w3.org/2000/svg">
<path d="M9.14756 20.2039H2.69898C1.8382 20.2016 1.14211 19.5032 1.14364 18.6424V2.69732C1.14516 1.83956 1.84049 1.14421 2.69898 1.14421H6.78176V5.95603C6.75508 7.05395 8.02604 7.79429 8.96915 7.23923L10.5443 6.26787C10.6267 6.22288 10.725 6.21602 10.8127 6.24881L12.458 7.2499C13.4026 7.8042 14.6637 7.05319 14.6393 5.96289V1.14421H18.6878C19.5478 1.14269 20.2469 1.83728 20.25 2.69732V8.32572C20.2485 9.07139 21.3929 9.07368 21.3936 8.32572V2.69732C21.3898 1.20673 20.1791 -0.000225529 18.6885 0.00053692C14.0461 -0.000987979 7.35053 0.00129937 2.69898 0.00053692C1.20997 0.00129937 0.00228763 1.20826 3.60797e-07 2.69732V18.6424C-0.000762063 20.1345 1.20692 21.3445 2.69898 21.3476H9.14756C9.89855 21.3377 9.89397 20.2108 9.14756 20.2039ZM7.9254 1.14421H13.4964V5.96289C13.5018 6.19696 13.2425 6.36241 13.0321 6.26024L11.3731 5.25229C10.9339 5.02813 10.4117 5.03651 9.97937 5.27516L8.4042 6.24576C8.19377 6.36241 7.92006 6.19544 7.9254 5.95603V1.14421Z" fill="#FF6D3E"/>
<path d="M23.8357 23.0273L20.1082 19.2996C23.1647 15.752 20.4322 9.97871 15.7624 10.074C12.6494 10.0694 10.1219 12.5893 10.1174 15.7024C10.019 20.3541 15.7349 23.0806 19.2908 20.0995L23.0267 23.8355C23.5558 24.3448 24.345 23.5572 23.8357 23.0273ZM15.7616 20.2039C9.82536 20.0148 9.82307 11.4014 15.7616 11.2177C21.7001 11.4007 21.6986 20.0209 15.7616 20.2039Z" fill="#FF6D3E"/>
<path d="M17.4435 13.964H17.4465L15.1661 16.2445L14.0759 15.1542C13.5467 14.6449 12.7576 15.4333 13.2677 15.9632L14.7621 17.4576C14.9854 17.681 15.3476 17.681 15.571 17.4576L18.2524 14.773C18.7777 14.2431 17.9757 13.4364 17.4435 13.964Z" fill="#FF6D3E"/>
</svg>
