<svg width="24" height="24" viewBox="0 0 24 24" fill="none" xmlns="http://www.w3.org/2000/svg">
<path d="M8.79033 0L5.53656 10.4878L6.31331 12.1951L9.83301 1.50503L21.4294 3.94781C21.4294 3.94781 18.7925 12.755 16.7432 18.1919C14.9371 23.0584 14.4106 22.9054 12.3244 22.3206C10.3857 21.3572 11.0044 18.6164 11.0044 18.6164L1.49414 14.284C1.49414 14.284 1.00161 17.4186 1.82136 18.5244C2.64176 19.6302 2.0673 19.4458 8.59143 22.5788C15.1145 25.7121 16.4201 22.7848 16.743 22.1141C17.1542 21.2276 23.3013 2.85651 23.3013 2.85651L8.79033 0ZM9.18746 21.3385C3.59637 18.6535 3.51927 18.5433 3.14879 18.0143C3.08319 17.9208 3.01158 17.819 2.92677 17.7046C2.80197 17.5174 2.73284 16.9967 2.72461 16.3569L9.52683 19.4557C9.51128 20.1579 9.61295 20.9506 9.93193 21.6792C9.68167 21.5703 9.43347 21.4567 9.18746 21.3385Z" fill="#FF6D3E"/>
<path d="M11.15 12.0027C11.0971 11.9829 11.036 12.0154 11.0176 12.0754L10.7322 12.9513C10.7123 13.0123 10.7402 13.0773 10.7942 13.0971L16.0506 15.1146C16.1045 15.1357 16.1632 15.1028 16.183 15.0432L16.4684 14.1673C16.4874 14.1077 16.4604 14.0413 16.4071 14.0201L11.15 12.0027ZM12.1722 9.08583C12.1194 9.06597 12.0583 9.09851 12.0399 9.15849L11.7545 10.0344C11.7345 10.0956 11.7624 10.1603 11.8163 10.1803L17.0729 12.1976C17.1267 12.2189 17.1855 12.1862 17.2051 12.1266L17.4905 11.2505C17.5096 11.1909 17.4826 11.1246 17.4292 11.1034L12.1722 9.08583ZM13.0761 6.32747C13.0233 6.3076 12.962 6.34014 12.9437 6.39999L12.6582 7.27606C12.6386 7.33709 12.6663 7.40191 12.7202 7.42177L17.9767 9.43919C18.0306 9.46049 18.0892 9.42769 18.1089 9.36797L18.3946 8.49203C18.4135 8.43244 18.3863 8.36619 18.333 8.34488L13.0761 6.32747ZM10.9129 5.53255C10.5328 5.53255 10.224 5.8629 10.224 6.27036C10.224 6.67782 10.5329 7.00804 10.9129 7.00804C11.2945 7.00804 11.6028 6.67782 11.6028 6.27036C11.6028 5.8629 11.2945 5.53255 10.9129 5.53255ZM10.2235 8.26883C9.84333 8.26883 9.53454 8.59918 9.53454 9.00664C9.53454 9.4141 9.84333 9.74432 10.2235 9.74432C10.6051 9.74432 10.9133 9.4141 10.9133 9.00664C10.9133 8.59918 10.6051 8.26883 10.2235 8.26883ZM9.22575 11.1924C8.8456 11.1924 8.53681 11.5227 8.53681 11.9302C8.53681 12.3376 8.8456 12.6679 9.22575 12.6679C9.60733 12.6679 9.9156 12.3376 9.9156 11.9302C9.9156 11.5227 9.60733 11.1924 9.22575 11.1924ZM5.12805 12.4943C4.84043 13.0525 4.33536 13.174 3.91013 13.0376L5.40588 14.717L5.12805 12.4943Z" fill="#FF6D3E"/>
<path d="M4.50053 12.835C4.67093 12.7696 4.80839 12.6393 4.88271 12.4726C4.95704 12.3059 4.96213 12.1166 4.89688 11.9461L1.32622 2.62926C1.25853 2.46217 1.12799 2.3283 0.962654 2.25644C0.797319 2.18458 0.610388 2.18045 0.442042 2.24495C0.273696 2.30944 0.137375 2.43741 0.0623805 2.60135C-0.0126137 2.76529 -0.0202939 2.95211 0.0409909 3.12165L3.61166 12.4385C3.64398 12.5229 3.69262 12.6001 3.75478 12.6657C3.81695 12.7314 3.89143 12.7841 3.97397 12.8209C4.05651 12.8577 4.1455 12.8779 4.23585 12.8803C4.3262 12.8827 4.41614 12.8673 4.50053 12.835Z" fill="#FF6D3E"/>
</svg>
