<svg width="24" height="24" viewBox="0 0 24 24" fill="none" xmlns="http://www.w3.org/2000/svg">
<path fill-rule="evenodd" clip-rule="evenodd" d="M22.7745 3.75655H20.2976V19.7129H22.7745V3.75655ZM17.9815 23.9877H0.407945C0.182047 23.9877 0 23.8056 0 23.5811V0.421233C0 0.195335 0.182047 0.0132881 0.407945 0.0132881H17.9815C18.2074 0.0132881 18.3894 0.195335 18.3894 0.421233V23.5811C18.3894 23.8056 18.2074 23.9877 17.9815 23.9877ZM0.81589 23.1731H17.5749V0.827849H0.81589V23.1731ZM14.3379 8.6293H4.05154C3.82698 8.6293 3.64493 8.44725 3.64493 8.22268C3.64493 7.99678 3.82698 7.81474 4.05154 7.81474H14.3379C14.5624 7.81474 14.7458 7.99678 14.7458 8.22268C14.7458 8.44725 14.5624 8.6293 14.3379 8.6293ZM15.6627 11.0132H7.7071C7.48253 11.0132 7.29916 10.8311 7.29916 10.6066C7.29916 10.3807 7.48253 10.1986 7.7071 10.1986H15.6627C15.8886 10.1986 16.0706 10.3807 16.0706 10.6066C16.0706 10.8311 15.8886 11.0132 15.6627 11.0132ZM12.9891 13.227H7.7071C7.48253 13.227 7.29916 13.0449 7.29916 12.8204C7.29916 12.5945 7.48253 12.4124 7.7071 12.4124H12.9891C13.215 12.4124 13.3971 12.5945 13.3971 12.8204C13.3971 13.0449 13.215 13.227 12.9891 13.227ZM3.63563 13.3492C3.53198 13.3492 3.427 13.3094 3.34727 13.2296L2.43837 12.3207C2.27891 12.1613 2.27891 11.9035 2.43837 11.744C2.59783 11.5846 2.85561 11.5846 3.01507 11.744L3.63563 12.3646L5.80425 10.1973C5.9637 10.0378 6.22149 10.0378 6.38095 10.1973C6.54041 10.3554 6.54041 10.6145 6.38095 10.7727L3.92398 13.2296C3.84425 13.3094 3.7406 13.3492 3.63563 13.3492ZM15.6627 15.4155H7.7071C7.48253 15.4155 7.29916 15.2335 7.29916 15.0089C7.29916 14.783 7.48253 14.601 7.7071 14.601H15.6627C15.8886 14.601 16.0706 14.783 16.0706 15.0089C16.0706 15.2335 15.8886 15.4155 15.6627 15.4155ZM12.9891 17.6293H7.7071C7.48253 17.6293 7.29916 17.4473 7.29916 17.2227C7.29916 16.9968 7.48253 16.8148 7.7071 16.8148H12.9891C13.215 16.8148 13.3971 16.9968 13.3971 17.2227C13.3971 17.4473 13.215 17.6293 12.9891 17.6293ZM3.63563 17.7516C3.52799 17.7516 3.42435 17.7077 3.34727 17.632L2.43837 16.7231C2.27891 16.5636 2.27891 16.3058 2.43837 16.1464C2.59783 15.9869 2.85561 15.9869 3.01507 16.1464L3.63563 16.7669L5.80425 14.5983C5.9637 14.4402 6.22149 14.4402 6.38095 14.5983C6.54041 14.7578 6.54041 15.0156 6.38095 15.175L3.92398 17.632C3.84824 17.7077 3.74459 17.7516 3.63563 17.7516ZM15.6627 19.8179H7.7071C7.48253 19.8179 7.29916 19.6358 7.29916 19.4099C7.29916 19.1854 7.48253 19.0033 7.7071 19.0033H15.6627C15.8886 19.0033 16.0706 19.1854 16.0706 19.4099C16.0706 19.6358 15.8886 19.8179 15.6627 19.8179ZM12.9891 22.0317H7.7071C7.48253 22.0317 7.29916 21.8496 7.29916 21.6237C7.29916 21.3992 7.48253 21.2171 7.7071 21.2171H12.9891C13.215 21.2171 13.3971 21.3992 13.3971 21.6237C13.3971 21.8496 13.215 22.0317 12.9891 22.0317ZM3.18117 22.1526C2.83037 22.1526 2.6337 21.7168 2.89282 21.4576L3.83362 20.5168L2.89282 19.5774C2.73469 19.4179 2.73469 19.1601 2.89282 19.0007C3.05228 18.8412 3.31007 18.8412 3.46953 19.0007L4.41032 19.9415L5.34979 19.0007C5.50925 18.8412 5.76704 18.8412 5.9265 19.0007C6.08462 19.1601 6.08462 19.4179 5.9265 19.5774L4.9857 20.5168L5.9265 21.4576C6.18561 21.7168 5.98895 22.1526 5.63814 22.1526C5.53317 22.1526 5.42952 22.1127 5.34979 22.0343L4.41032 21.0935L3.46953 22.0343C3.3898 22.1127 3.28615 22.1526 3.18117 22.1526ZM7.50645 6.88058C7.4533 6.88058 7.40148 6.87128 7.35098 6.85002L6.13645 6.34906L4.92059 6.85002C4.64154 6.96563 4.33591 6.74371 4.35983 6.44207L4.46082 5.13187L3.60905 4.13127C3.41239 3.90139 3.52932 3.54128 3.82299 3.47085L5.10131 3.16257L5.7883 2.04238C5.94643 1.78459 6.32514 1.78459 6.48327 2.04238L7.17159 3.16257L8.44858 3.47085C8.74225 3.54128 8.85918 3.90139 8.66385 4.13127L7.81075 5.13187L7.91307 6.44207C7.93034 6.67595 7.73899 6.88058 7.50645 6.88058ZM6.13645 5.49995C6.18827 5.49995 6.24142 5.51058 6.29192 5.53051L7.04934 5.84411L6.98556 5.02689C6.97759 4.91926 7.01213 4.81295 7.08123 4.73057L7.61276 4.10735L6.8168 3.91468C6.71182 3.88943 6.62146 3.82432 6.56433 3.73263L6.13645 3.035L5.70724 3.73263C5.6501 3.82432 5.55974 3.88943 5.4561 3.91468L4.65881 4.10735L5.19034 4.73057C5.26076 4.81295 5.29531 4.91926 5.28601 5.02689L5.22356 5.84411L5.98098 5.53051C6.03014 5.51058 6.0833 5.49995 6.13645 5.49995ZM13.6243 6.88058C13.5711 6.88058 13.5193 6.87128 13.4688 6.85002L12.2543 6.34906L11.0384 6.85002C10.7594 6.96563 10.4538 6.74371 10.4763 6.44207L10.5787 5.13187L9.72557 4.13127C9.53023 3.90139 9.64717 3.54128 9.94083 3.47085L11.2178 3.16257L11.9061 2.04238C12.0643 1.78459 12.443 1.78459 12.6011 2.04238L13.2894 3.16257L14.5664 3.47085C14.8601 3.54128 14.977 3.90139 14.7817 4.13127L13.9286 5.13187L14.0309 6.44207C14.0482 6.67595 13.8568 6.88058 13.6243 6.88058ZM12.2543 5.49995C12.3061 5.49995 12.3593 5.51058 12.4098 5.53051L13.1659 5.84411L13.1034 5.02689C13.0954 4.91926 13.13 4.81295 13.1991 4.73057L13.7306 4.10735L12.9346 3.91468C12.8297 3.88943 12.7393 3.82432 12.6822 3.73263L12.2543 3.035L11.8251 3.73263C11.7679 3.82432 11.6776 3.88943 11.5726 3.91468L10.7767 4.10735L11.3082 4.73057C11.3786 4.81295 11.4132 4.91926 11.4039 5.02689L11.3414 5.84411L12.0988 5.53051C12.148 5.51058 12.2011 5.49995 12.2543 5.49995ZM19.4817 0.407945C19.4817 0.182047 19.6651 0 19.8896 0H23.1811C23.407 0 23.5891 0.182047 23.5891 0.407945V20.1209C23.5891 20.1833 23.5731 20.2458 23.5479 20.3002L21.9453 23.7645C21.8018 24.0754 21.358 24.0794 21.2092 23.7711L19.5269 20.3069C19.499 20.2511 19.483 20.186 19.4817 20.1209C19.4817 13.5499 19.4817 6.97891 19.4817 0.407945ZM20.2976 2.94066H22.7745V0.814561H20.2976V2.94066ZM20.5408 20.5288L21.5666 22.6416L22.5446 20.5288H20.5408Z" fill="#FF6D3E"/>
</svg>
