<svg width="42" height="40" viewBox="0 0 42 40" fill="none" xmlns="http://www.w3.org/2000/svg">
<path d="M20.9107 34.9507C11.4704 34.9507 3.04525 29.0101 0.10151 20.2973L0 20.0002L0.10151 19.7032C3.04525 10.8913 11.4704 5.04975 20.9107 5.04975C30.3509 5.04975 38.7761 10.9903 41.7198 19.7032L41.8214 20.0002L41.7198 20.2973C38.7761 29.0101 30.3509 34.9507 20.9107 34.9507ZM1.92866 20.0002C4.77089 27.921 12.384 33.1686 20.9107 33.1686C29.5389 33.1686 37.0505 27.921 39.8927 20.0002C37.0505 12.0795 29.4374 6.83192 20.9107 6.83192C12.2825 6.83192 4.66938 12.0795 1.92866 20.0002ZM20.9107 31.8814C14.2111 31.8814 8.7297 26.5349 8.7297 20.0002C8.7297 13.4656 14.2111 8.11905 20.9107 8.11905C27.6102 8.11905 33.0917 13.4656 33.0917 20.0002C33.0917 26.5349 27.6102 31.8814 20.9107 31.8814ZM20.9107 9.90123C15.2262 9.90123 10.5568 14.4557 10.5568 20.0002C10.5568 25.5448 15.2262 30.0993 20.9107 30.0993C26.5951 30.0993 31.2645 25.5448 31.2645 20.0002C31.2645 14.4557 26.5951 9.90123 20.9107 9.90123ZM41.7198 5.14876H39.8927V3.46559C39.8927 2.5745 39.0806 1.78242 38.1671 1.78242H36.8475V0.000244141H38.1671C40.0957 0.000244141 41.7198 1.5844 41.7198 3.46559V5.14876ZM4.87239 40.0002H3.55279C1.62413 40.0002 0 38.4161 0 36.5349V34.8517H1.82715V36.5349C1.82715 37.426 2.63921 38.2181 3.55279 38.2181H4.87239V40.0002ZM1.82715 5.14876H0V3.46559C0 1.5844 1.62413 0.000244141 3.55279 0.000244141H4.87239V1.78242H3.55279C2.63921 1.78242 1.82715 2.47549 1.82715 3.46559V5.14876ZM38.2686 40.0002H36.949V38.2181H38.2686C39.1821 38.2181 39.9942 37.525 39.9942 36.5349V34.8517H41.8214V36.5349C41.7199 38.4161 40.1972 40.0002 38.2686 40.0002Z" fill="url(#paint0_linear_21_140)"/>
<defs>
<linearGradient id="paint0_linear_21_140" x1="34.1109" y1="0.000244862" x2="8.72606" y2="39.6641" gradientUnits="userSpaceOnUse">
<stop stop-color="#FF6D3E"/>
<stop offset="1" stop-color="#F13B3B"/>
</linearGradient>
</defs>
</svg>
