<svg width="24" height="24" viewBox="0 0 24 24" fill="none" xmlns="http://www.w3.org/2000/svg">
<path fill-rule="evenodd" clip-rule="evenodd" d="M13.1565 12.5973H12.5627V14.8424H13.4631V14.1247C13.4631 13.9357 13.5576 13.7596 13.7153 13.6555C14.591 13.0762 15.1141 12.1045 15.1141 11.0563C15.1141 9.33917 13.7172 7.94225 12.0002 7.94225C10.283 7.94225 8.8861 9.33916 8.8861 11.0563C8.8861 12.1045 9.40919 13.0762 10.2849 13.6555C10.4424 13.7596 10.5371 13.936 10.5371 14.1247L10.5371 14.8424H11.4377V12.5973H10.8438C10.533 12.5973 10.2813 12.3455 10.2813 12.0348C10.2813 11.724 10.533 11.4723 10.8438 11.4723H13.1567C13.4675 11.4723 13.7191 11.724 13.7191 12.0348C13.7191 12.3455 13.4672 12.5973 13.1565 12.5973ZM12.4475 24H11.5686C10.7405 24 10.085 23.3828 9.89906 22.4275L9.77693 21.8021C8.66309 21.5514 7.61232 21.1158 6.64393 20.5039L6.10113 20.8703C5.30287 21.4092 4.41171 21.3822 3.83099 20.8016L3.20952 20.1801C2.62398 19.5947 2.59707 18.6949 3.14081 17.8877L3.49725 17.3585C2.88513 16.3907 2.44919 15.3397 2.19783 14.2256L1.55642 14.101C0.611175 13.9176 0 13.2685 0 12.4474V11.5686C0 10.7405 0.617212 10.0851 1.57254 9.89911L2.19767 9.77703C2.44869 8.66281 2.8842 7.61176 3.49593 6.64387L3.12974 6.10129C2.59087 5.30287 2.61778 4.41188 3.19828 3.83116L3.82003 3.20963C4.40552 2.62392 5.30515 2.59673 6.1126 3.14092L6.64189 3.49741C6.85167 3.36498 7.06671 3.23997 7.28446 3.12392C7.55852 2.97848 7.89929 3.08195 8.0454 3.35618C8.19129 3.6304 8.08742 3.97101 7.81314 4.11711C7.51982 4.27335 7.23153 4.4482 6.9567 4.63688C6.76646 4.76754 6.51549 4.76848 6.3241 4.63982L5.48404 4.07398C5.39053 4.01087 4.90907 3.71167 4.61569 4.00505L3.994 4.62653C3.70887 4.91171 4.00103 5.38066 4.06259 5.47184L4.63839 6.32518C4.76772 6.51658 4.76667 6.76755 4.63601 6.95801C3.92817 7.98951 3.45419 9.13419 3.22642 10.36C3.18423 10.5869 3.00772 10.765 2.78111 10.8094L1.78814 11.0031C1.67719 11.0246 1.12525 11.1533 1.12525 11.5686V12.4473C1.12525 12.8508 1.66357 12.9756 1.77131 12.9968L2.78089 13.1928C3.00761 13.237 3.18434 13.4151 3.22658 13.6422C3.45452 14.8676 3.92911 16.0122 4.63734 17.0436C4.76801 17.234 4.76895 17.4848 4.64006 17.676L4.07422 18.5162C4.01111 18.6097 3.71175 19.091 4.00529 19.3845L4.62677 20.0062C4.91218 20.2916 5.3809 19.9992 5.47192 19.9376L6.32565 19.3615C6.51683 19.2324 6.76802 19.2332 6.95847 19.364C7.99031 20.072 9.13488 20.5462 10.3601 20.7736C10.5872 20.8158 10.7653 20.9923 10.8095 21.2189L11.0032 22.2123C11.0247 22.323 11.1535 22.8752 11.5687 22.8752L12.4475 22.8751C12.8509 22.8751 12.9756 22.337 12.9967 22.2291L13.1928 21.2195C13.2369 20.9927 13.4151 20.816 13.642 20.7738C13.8611 20.733 14.0818 20.6832 14.298 20.6257C14.5978 20.5453 14.9062 20.7246 14.9859 21.0249C15.0657 21.3251 14.8869 21.6331 14.5867 21.7129C14.4673 21.7447 14.3467 21.7742 14.2254 21.8017L14.1008 22.4431C13.918 23.3888 13.269 24 12.4475 24ZM19.0665 21.249C18.6821 21.249 18.2742 21.1193 17.8879 20.8588L17.3584 20.5025C17.1034 20.6633 16.8409 20.8133 16.574 20.95C16.2973 21.091 15.9588 20.9824 15.8168 20.7059C15.6752 20.4293 15.7845 20.0904 16.0609 19.9487C16.3988 19.7754 16.7296 19.5783 17.0438 19.3629C17.2342 19.2322 17.485 19.2313 17.676 19.3602L18.5162 19.9258C18.6097 19.9887 19.0911 20.2889 19.3846 19.9947L20.0062 19.3733C20.2914 19.0878 19.9992 18.6193 19.9376 18.5281L19.3615 17.6742C19.2324 17.483 19.2333 17.2318 19.364 17.0415C20.0716 16.0099 20.5461 14.8654 20.7736 13.6398C20.816 13.4129 20.9923 13.2348 21.2189 13.1904L22.2121 12.9966C22.3228 12.9751 22.875 12.8464 22.875 12.4312V11.5523C22.875 11.1488 22.3369 11.024 22.229 11.0031L21.2193 10.807C20.9925 10.7629 20.8158 10.5848 20.7736 10.3578C20.5455 9.13186 20.0709 7.98736 19.3628 6.95624C19.2322 6.76578 19.231 6.51503 19.3599 6.32363L19.9257 5.48341C19.9888 5.3899 20.2882 4.90883 19.9947 4.61507L19.3731 3.99359C19.0878 3.70846 18.619 4.00063 18.5279 4.06219L17.6744 4.63821C17.483 4.76754 17.2316 4.76632 17.0415 4.63583C16.0097 3.92799 14.8651 3.45378 13.64 3.22624C13.4128 3.18405 13.2347 3.00754 13.1903 2.78093L12.9966 1.78774C12.9751 1.67718 12.8462 1.12508 12.4311 1.12508L11.5524 1.12502C11.149 1.12502 11.024 1.66328 11.0031 1.77107L10.8071 2.78104C10.7629 3.00782 10.5848 3.18455 10.3577 3.22679C10.0954 3.27557 9.83245 3.33691 9.57621 3.40916C9.27763 3.49376 8.96664 3.31958 8.88227 3.02033C8.79789 2.72125 8.97207 2.41054 9.27115 2.32633C9.43691 2.27966 9.60506 2.23686 9.77425 2.1986L9.8991 1.55665C10.0827 0.611176 10.7319 0 11.5526 0H12.4315C13.2594 0 13.9149 0.617211 14.1012 1.57226L14.2231 2.19766C15.3371 2.44863 16.3878 2.88419 17.3561 3.49592L17.8986 3.12968C18.6973 2.59048 19.5886 2.61777 20.1688 3.19827L20.7903 3.81975C21.376 4.40551 21.4032 5.30531 20.859 6.11237L20.5027 6.64149C21.1149 7.60905 21.5506 8.65983 21.8019 9.77427L22.4434 9.8989C23.3888 10.0821 24 10.7314 24 11.5524V12.4314C24 13.2595 23.3828 13.9149 22.4275 14.1011L21.8023 14.2229C21.5513 15.3371 21.1156 16.388 20.5041 17.3559L20.8705 17.8989C21.4094 18.6971 21.3824 19.5879 20.8018 20.1686L20.1803 20.79C19.8754 21.0955 19.4848 21.2489 19.0665 21.249ZM12 19.5205C7.85314 19.5205 4.47947 16.1469 4.47947 12C4.47947 7.85311 7.85316 4.4795 12 4.4795C16.1467 4.4795 19.5205 7.85313 19.5205 12C19.5205 16.1469 16.1469 19.5205 12 19.5205ZM12 5.60428C8.47345 5.60428 5.60433 8.47325 5.60433 11.9999C5.60433 15.5266 8.47347 18.3957 12 18.3957C15.5265 18.3957 18.3955 15.5267 18.3955 12C18.3955 8.47331 15.5265 5.60428 12 5.60428ZM13.6511 15.9674V16.6201C13.6511 16.9308 13.3992 17.1826 13.0887 17.1826C12.7779 17.1826 12.5262 16.9309 12.5262 16.6201V15.9674H11.4742V16.6201C11.4742 16.9308 11.2223 17.1826 10.9117 17.1826C10.601 17.1826 10.3493 16.9309 10.3493 16.6201V15.9674H9.97462C9.66386 15.9674 9.41211 15.7157 9.41211 15.4049V14.4136C8.37291 13.6126 7.76117 12.3795 7.76117 11.0565C7.76117 8.71912 9.66274 6.81739 12.0002 6.81739C14.3376 6.81739 16.2391 8.71895 16.2391 11.0565C16.2391 12.3795 15.6273 13.6128 14.5881 14.4136V15.4049C14.5879 15.7156 14.3361 15.9674 14.0256 15.9674H13.6511Z" fill="#FF6D3E"/>
<path fill-rule="evenodd" clip-rule="evenodd" d="M7.76136 11.0566C7.76136 8.71927 9.66293 6.81754 12.0004 6.81754C14.3378 6.81754 16.2393 8.71911 16.2393 11.0566C16.2393 12.3797 15.6275 13.613 14.5883 14.4138V15.4051C14.5881 15.7158 14.3363 15.9676 14.0258 15.9676H13.6513V16.6203C13.6513 16.931 13.3994 17.1828 13.0889 17.1828C12.778 17.1828 12.5264 16.931 12.5264 16.6203V15.9676H11.4744V16.6203C11.4744 16.931 11.2225 17.1828 10.9119 17.1828C10.6011 17.1828 10.3495 16.931 10.3495 16.6203V15.9676H9.9748C9.66403 15.9676 9.41229 15.7158 9.41229 15.4051V14.4138C8.37308 13.6128 7.76136 12.3797 7.76136 11.0566ZM12.0002 18.3958C15.5267 18.3958 18.3957 15.5269 18.3957 12.0002C18.3957 8.47347 15.5267 5.60445 12.0002 5.60445C8.47363 5.60445 5.6045 8.47342 5.6045 12.0001C5.6045 15.5268 8.47364 18.3958 12.0002 18.3958Z" fill="#F7F7F7"/>
</svg>
