<svg width="44" height="42" viewBox="0 0 44 42" fill="none" xmlns="http://www.w3.org/2000/svg">
<path d="M20.3385 1.82317C20.3496 1.83011 20.3602 1.8374 20.3707 1.84506C20.3602 1.83749 20.3495 1.83011 20.3385 1.82317Z" fill="url(#paint0_linear_36_805)"/>
<path d="M20.6095 2.5275C20.5962 2.57544 20.5774 2.62167 20.5532 2.66546C20.5771 2.62221 20.596 2.57598 20.6095 2.5275Z" fill="url(#paint1_linear_36_805)"/>
<path d="M40.2483 23.6424C40.235 23.6625 40.2207 23.6815 40.2055 23.6996C40.2209 23.6814 40.2351 23.6624 40.2483 23.6424Z" fill="url(#paint2_linear_36_805)"/>
<path d="M20.6325 2.36394C20.6323 2.38746 20.6307 2.41089 20.6278 2.43414C20.6306 2.41098 20.6323 2.38764 20.6325 2.36394Z" fill="url(#paint3_linear_36_805)"/>
<path d="M4.36807 14.0297C4.24997 14.357 4.41644 14.7193 4.74002 14.8389C4.81057 14.8649 4.88289 14.8773 4.95379 14.8773C5.20826 14.8773 5.44732 14.7185 5.53969 14.4625C7.58827 8.78645 12.4454 4.56092 18.2057 3.28959L18.8043 2.68421L17.1701 2.24084C14.701 2.89372 12.3828 4.05664 10.3561 5.67337C7.62568 7.85143 5.55501 10.741 4.36807 14.0297Z" fill="url(#paint4_linear_36_805)"/>
<path d="M39.4036 27.0716C39.5234 26.7448 39.3586 26.3817 39.0357 26.2606C38.7125 26.1392 38.3539 26.306 38.2342 26.6328C36.0835 32.5002 31.0591 36.7127 25.0909 37.8311L24.101 38.575L25.2595 39.0823C31.6814 37.9006 37.0919 33.3784 39.4036 27.0716V27.0716Z" fill="url(#paint5_linear_36_805)"/>
<path d="M20.6295 2.29248C20.6292 2.28951 20.6285 2.28671 20.6282 2.28374C20.6311 2.3087 20.6329 2.33366 20.6328 2.35853C20.6328 2.33673 20.6317 2.31465 20.6295 2.29248Z" fill="url(#paint6_linear_36_805)"/>
<path d="M20.4999 2.74647C20.4848 2.76603 20.4687 2.78486 20.4512 2.8027C20.4685 2.78495 20.4847 2.76612 20.4999 2.74647Z" fill="url(#paint7_linear_36_805)"/>
<path d="M20.543 2.68276C20.5334 2.69898 20.523 2.71475 20.5118 2.73016C20.523 2.71484 20.5333 2.69907 20.543 2.68276Z" fill="url(#paint8_linear_36_805)"/>
<path d="M20.614 2.20687C20.6185 2.22516 20.6219 2.24346 20.6248 2.26184C20.6219 2.24319 20.6185 2.22489 20.614 2.20687Z" fill="url(#paint9_linear_36_805)"/>
<path d="M20.2637 1.7828C20.2795 1.79 20.2951 1.79766 20.3102 1.80614C20.295 1.79766 20.2795 1.79 20.2637 1.7828Z" fill="url(#paint10_linear_36_805)"/>
<path d="M20.4647 1.92842C20.475 1.93968 20.4852 1.95104 20.4947 1.96302C20.4852 1.95104 20.475 1.93959 20.4647 1.92842Z" fill="url(#paint11_linear_36_805)"/>
<path d="M20.5881 2.12451C20.5958 2.14415 20.6026 2.16434 20.6084 2.18488C20.6026 2.16425 20.5958 2.14415 20.5881 2.12451Z" fill="url(#paint12_linear_36_805)"/>
<path d="M20.5515 2.04692C20.5634 2.06828 20.5744 2.09026 20.5839 2.11306C20.5744 2.09026 20.5635 2.06819 20.5515 2.04692Z" fill="url(#paint13_linear_36_805)"/>
<path d="M40.1956 23.7107C40.1834 23.7247 40.1704 23.738 40.157 23.7508C40.1704 23.738 40.1834 23.7246 40.1956 23.7107Z" fill="url(#paint14_linear_36_805)"/>
<path d="M39.3767 23.8103C39.3608 23.7992 39.3453 23.7873 39.3304 23.7746C39.3453 23.7873 39.3607 23.7992 39.3767 23.8103Z" fill="url(#paint15_linear_36_805)"/>
<path d="M39.2075 23.634C39.1966 23.617 39.1866 23.5996 39.1773 23.5815C39.1866 23.5996 39.1966 23.6169 39.2075 23.634Z" fill="url(#paint16_linear_36_805)"/>
<path d="M39.7297 23.9223C39.7302 23.9223 39.7307 23.9223 39.7312 23.9223C39.755 23.9223 39.7785 23.9204 39.8019 23.9177C39.7783 23.9205 39.7545 23.9223 39.7304 23.9223C39.7302 23.9223 39.7299 23.9223 39.7297 23.9223Z" fill="url(#paint17_linear_36_805)"/>
<path d="M39.5245 23.8866C39.4775 23.8699 39.4329 23.8477 39.3914 23.8205C39.4325 23.8475 39.477 23.8698 39.5245 23.8866Z" fill="url(#paint18_linear_36_805)"/>
<path d="M40.5571 20.8917C40.5596 20.7635 40.5611 20.6353 40.5611 20.507C40.5611 15.7559 38.8104 11.2157 35.6316 7.72274C32.4717 4.25047 28.1821 2.11198 23.553 1.70133C23.2097 1.67015 22.9074 1.92761 22.8773 2.27473C22.8472 2.62185 23.101 2.92787 23.4441 2.95833C32.343 3.748 39.3138 11.4563 39.3138 20.507C39.3138 20.6741 39.3107 20.8412 39.3061 21.0082L39.8086 22.0319L40.5571 20.8917Z" fill="url(#paint19_linear_36_805)"/>
<path d="M39.3165 23.7628C39.2984 23.7465 39.2809 23.7292 39.2646 23.7108C39.2808 23.7291 39.2983 23.7463 39.3165 23.7628Z" fill="url(#paint20_linear_36_805)"/>
<path d="M20.1791 1.75135C20.2007 1.75756 20.2219 1.76477 20.2425 1.77324C20.2218 1.76477 20.2006 1.75756 20.1791 1.75135Z" fill="url(#paint21_linear_36_805)"/>
<path d="M40.1432 23.7637C40.1264 23.7788 40.109 23.7931 40.0908 23.8061C40.1091 23.793 40.1264 23.7787 40.1432 23.7637Z" fill="url(#paint22_linear_36_805)"/>
<path d="M40.0158 23.8517C39.9982 23.8609 39.9802 23.8694 39.9618 23.8768C39.9803 23.8694 39.9982 23.8609 40.0158 23.8517Z" fill="url(#paint23_linear_36_805)"/>
<path d="M39.9536 23.8803C39.9317 23.8888 39.9094 23.896 39.8866 23.902C39.9094 23.8959 39.9318 23.8888 39.9536 23.8803Z" fill="url(#paint24_linear_36_805)"/>
<path d="M39.6367 23.915C39.6441 23.9162 39.6514 23.9159 39.6589 23.9168C39.6461 23.9152 39.6333 23.914 39.6207 23.9117C39.6261 23.9127 39.6312 23.9141 39.6367 23.915Z" fill="url(#paint25_linear_36_805)"/>
<path d="M39.5959 23.9067C39.578 23.9027 39.5605 23.8979 39.5432 23.8924C39.5604 23.8979 39.578 23.9027 39.5959 23.9067Z" fill="url(#paint26_linear_36_805)"/>
<path d="M20.6252 2.45234C20.6223 2.47208 20.6185 2.49163 20.6136 2.51092C20.6184 2.49163 20.6223 2.47217 20.6252 2.45234Z" fill="url(#paint27_linear_36_805)"/>
<path d="M4.61711 17.3454L4.61862 17.3483C4.61809 17.3474 4.61764 17.3464 4.61711 17.3454Z" fill="url(#paint28_linear_36_805)"/>
<path d="M7.82582 32.9052C10.7543 36.3058 14.7835 38.5373 19.1714 39.1884C19.2021 39.193 19.2326 39.1952 19.2626 39.1952C19.567 39.1952 19.8334 38.9694 19.8789 38.6557C19.9289 38.311 19.6931 37.9905 19.3523 37.9399C10.8776 36.6824 4.4868 29.1879 4.4868 20.5071C4.4868 20.2596 4.49223 20.0123 4.5023 19.7657L4.02533 18.882L3.24268 20.1808C3.24081 20.2896 3.23957 20.3983 3.23957 20.5071C3.23957 25.0676 4.86837 29.4707 7.82591 32.9053L7.82582 32.9052Z" fill="url(#paint29_linear_36_805)"/>
<path d="M25.0909 37.8311L28.526 35.2492C28.8025 35.0414 28.8602 34.6463 28.6547 34.3665C28.4493 34.0868 28.0587 34.0283 27.7823 34.2363L22.4903 38.2136C22.3115 38.348 22.2171 38.5686 22.2427 38.7926C22.2683 39.0165 22.4101 39.2096 22.6145 39.2991L28.6639 41.948C28.7446 41.9833 28.8287 42 28.9112 42C29.1524 42 29.382 41.8577 29.4839 41.6195C29.6207 41.2997 29.4754 40.9283 29.1593 40.7899L25.2595 39.0823L24.101 38.575L25.0909 37.8311Z" fill="url(#paint30_linear_36_805)"/>
<path d="M43.7212 17.2125C43.4343 17.0196 43.0472 17.0988 42.8567 17.389L40.5571 20.8917L39.8086 22.0319L39.3061 21.0082L37.3577 17.0385C37.2045 16.7264 36.8303 16.599 36.5218 16.7541C36.2134 16.9091 36.0874 17.2877 36.2407 17.5999L39.172 23.5721C39.1736 23.5754 39.1758 23.5783 39.1775 23.5816C39.1868 23.5997 39.1968 23.6171 39.2077 23.6341C39.2116 23.6402 39.2155 23.6463 39.2197 23.6524C39.2321 23.6704 39.2453 23.6877 39.2593 23.7041C39.2612 23.7063 39.2629 23.7088 39.2649 23.7109C39.2812 23.7294 39.2986 23.7466 39.3168 23.763C39.3213 23.7671 39.3261 23.7709 39.3307 23.7747C39.3456 23.7873 39.3611 23.7993 39.377 23.8104C39.3819 23.8138 39.3867 23.8174 39.3917 23.8206C39.4332 23.8478 39.4777 23.87 39.5248 23.8867C39.5309 23.8888 39.5372 23.8905 39.5434 23.8925C39.5607 23.898 39.5782 23.9028 39.596 23.9068C39.6043 23.9086 39.6124 23.9104 39.6208 23.9119C39.6334 23.9141 39.6463 23.9154 39.659 23.9169C39.6699 23.9182 39.6805 23.9205 39.6915 23.9212C39.7043 23.922 39.7171 23.9223 39.7299 23.9223H39.7306C39.7547 23.9223 39.7784 23.9206 39.8021 23.9178C39.8069 23.9173 39.8117 23.9165 39.8165 23.9159C39.8363 23.9131 39.8561 23.9093 39.8755 23.9046C39.8793 23.9037 39.8831 23.903 39.8868 23.902C39.9096 23.896 39.932 23.8888 39.9539 23.8803C39.9567 23.8793 39.9593 23.878 39.9619 23.8769C39.9804 23.8694 39.9984 23.861 40.016 23.8518C40.0215 23.8489 40.027 23.8459 40.0326 23.8429C40.0499 23.8331 40.0668 23.8227 40.0832 23.8112C40.0858 23.8094 40.0885 23.808 40.091 23.8062C40.1092 23.7931 40.1265 23.7788 40.1434 23.7638C40.1481 23.7596 40.1525 23.7552 40.1572 23.7509C40.1706 23.7381 40.1835 23.7247 40.1958 23.7108C40.1991 23.7071 40.2025 23.7035 40.2057 23.6998C40.2209 23.6816 40.2353 23.6626 40.2485 23.6426C40.2489 23.6419 40.2495 23.6413 40.25 23.6406L43.8958 18.0873C44.0864 17.7969 44.0082 17.4055 43.7214 17.2126L43.7212 17.2125Z" fill="url(#paint31_linear_36_805)"/>
<path d="M18.2057 3.28959L14.9076 6.62462C14.664 6.8709 14.6639 7.27046 14.9073 7.51683C15.0291 7.64011 15.1887 7.70184 15.3484 7.70184C15.5081 7.70184 15.6675 7.6402 15.7892 7.5171L20.45 2.80415C20.45 2.80415 20.4508 2.80325 20.4512 2.8028C20.4687 2.78495 20.4848 2.76594 20.4999 2.74647C20.5041 2.74116 20.5078 2.73566 20.5117 2.73025C20.5229 2.71484 20.5333 2.69907 20.5429 2.68285C20.5464 2.67709 20.5499 2.67132 20.5532 2.66546C20.5773 2.62167 20.5962 2.57544 20.6095 2.5275C20.611 2.522 20.6122 2.51659 20.6136 2.51101C20.6184 2.49172 20.6222 2.47217 20.6251 2.45243C20.626 2.44639 20.6271 2.44036 20.6278 2.43423C20.6306 2.41098 20.6323 2.38746 20.6325 2.36394C20.6325 2.36214 20.6328 2.36034 20.6328 2.35853C20.6328 2.33366 20.631 2.30861 20.6282 2.28374C20.6273 2.27644 20.6259 2.26914 20.6248 2.26184C20.622 2.24346 20.6185 2.22507 20.614 2.20687C20.613 2.20282 20.6127 2.19885 20.6116 2.1948C20.6107 2.19137 20.6092 2.18831 20.6083 2.18497C20.6025 2.16434 20.5957 2.14424 20.588 2.1246C20.5865 2.12081 20.5853 2.11694 20.5838 2.11315C20.5743 2.09035 20.5634 2.06837 20.5514 2.04701C20.5477 2.04052 20.5437 2.03439 20.5399 2.02809C20.5312 2.01367 20.5219 1.99979 20.5121 1.98618C20.5065 1.97834 20.5007 1.97059 20.4947 1.96302C20.4852 1.95104 20.475 1.93968 20.4647 1.92842C20.4575 1.92058 20.4505 1.91265 20.4428 1.90517C20.4285 1.89111 20.4134 1.87778 20.3978 1.86516C20.3891 1.85813 20.3799 1.85164 20.3707 1.84506C20.3602 1.83749 20.3495 1.83011 20.3385 1.82317C20.3292 1.81731 20.3199 1.81163 20.3103 1.80623C20.2951 1.79775 20.2796 1.79009 20.2638 1.78289C20.2567 1.77964 20.2499 1.77622 20.2426 1.77333C20.222 1.76495 20.2008 1.75765 20.1792 1.75144C20.1763 1.75063 20.1736 1.74936 20.1708 1.74855L13.8057 0.0217895C13.4731 -0.0687749 13.1311 0.131278 13.0419 0.467763C12.9526 0.804339 13.1501 1.15029 13.4827 1.24058L17.1701 2.24084L18.8043 2.68421L18.2057 3.28968V3.28959Z" fill="url(#paint32_linear_36_805)"/>
<path d="M4.50221 19.7657L6.66614 23.7751C6.77944 23.985 6.99329 24.1037 7.214 24.1037C7.31501 24.1037 7.41744 24.0789 7.51239 24.0265C7.81469 23.8594 7.92593 23.4762 7.76089 23.1703L4.61862 17.3483L4.61711 17.3454L4.60232 17.3181C4.49553 17.1203 4.29254 16.9951 4.06978 16.9896C4.06479 16.9896 4.05989 16.9894 4.05482 16.9894C3.83775 16.9894 3.63583 17.1039 3.52236 17.2919L0.0912434 22.9858C-0.0880525 23.2833 0.00502456 23.6715 0.299131 23.853C0.593147 24.0343 0.976857 23.9401 1.15624 23.6426L4.02516 18.8818L4.50212 19.7656L4.50221 19.7657Z" fill="url(#paint33_linear_36_805)"/>
<path d="M27.9397 27.741L22.0795 30.1209V31.0312C22.0795 31.3796 21.8003 31.6621 21.4559 31.6621C21.1114 31.6621 20.8322 31.3796 20.8322 31.0312V30.1209L11.7329 26.4254V14.3284L10.9024 13.9912C10.5827 13.8616 10.4275 13.4942 10.5557 13.1709C10.6839 12.8473 11.0472 12.6905 11.3666 12.8201L12.7838 13.3953L21.4559 9.8734L22.7154 10.385L24.067 9.78113C24.2205 9.71246 24.395 9.70949 24.5509 9.77266L27.5223 10.9773L21.6883 8.60793C21.5392 8.54738 21.3727 8.54738 21.2236 8.60793L10.877 12.8099C10.6406 12.9059 10.4856 13.1379 10.4856 13.3955V26.8521C10.4856 27.1098 10.6405 27.3417 10.877 27.4377L21.2236 31.6397C21.2981 31.67 21.3771 31.6851 21.4559 31.6851C21.5347 31.6851 21.6136 31.67 21.6882 31.6397L28.7735 28.7622C28.4486 28.4659 28.167 28.1218 27.9397 27.741Z" fill="url(#paint34_linear_36_805)"/>
<path d="M32.0349 12.8099L28.7569 11.4787C28.9843 11.5755 29.1346 11.7984 29.1389 12.0487C29.1432 12.3024 28.9967 12.5342 28.7672 12.6367L28.5257 12.7446L30.1274 13.3951L31.5249 12.8278C31.8443 12.6982 32.2076 12.8551 32.3358 13.1784C32.464 13.5018 32.3089 13.8692 31.9893 13.9989L31.1788 14.3279V20.9761C31.3634 20.9523 31.5511 20.9387 31.7418 20.9387C31.9745 20.9387 32.203 20.9571 32.4262 20.9922V13.3955C32.4262 13.1379 32.2713 12.9059 32.0348 12.8099H32.0349Z" fill="url(#paint35_linear_36_805)"/>
<path d="M20.2999 16.446L19.2871 16.9034V17.3945L20.8323 18.0216V17.6435C20.8323 17.295 21.1115 17.0125 21.456 17.0125C21.8004 17.0125 22.0796 17.295 22.0796 17.6435V18.0216L31.9894 13.9988C32.309 13.8691 32.4641 13.5017 32.3359 13.1783C32.2077 12.855 31.8443 12.6981 31.525 12.8277L21.4561 16.915L20.3 16.4458L20.2999 16.446Z" fill="url(#paint36_linear_36_805)"/>
<path d="M13.8437 14.7596C13.8437 14.5097 13.9895 14.2833 14.2155 14.1824L14.457 14.0744L11.3668 12.8201C11.0473 12.6905 10.684 12.8473 10.5559 13.1708C10.4277 13.4943 10.5829 13.8616 10.9025 13.9912L13.8438 15.1851V14.7596H13.8437Z" fill="url(#paint37_linear_36_805)"/>
<path d="M22.0795 17.6436C22.0795 17.2951 21.8003 17.0126 21.4559 17.0126C21.1114 17.0126 20.8322 17.2951 20.8322 17.6436V31.0312C20.8322 31.3796 21.1114 31.6621 21.4559 31.6621C21.8003 31.6621 22.0795 31.3796 22.0795 31.0312V17.6436Z" fill="url(#paint38_linear_36_805)"/>
<path d="M24.0671 9.78113L14.457 14.0744L14.2155 14.1824C13.9895 14.2833 13.8438 14.5097 13.8438 14.7596L13.8437 18.2285C13.8437 18.4837 13.9957 18.7138 14.2288 18.8114L18.4249 20.5688C18.5016 20.601 18.5827 20.6169 18.6634 20.6169C18.7851 20.6169 18.9059 20.5809 19.01 20.5104C19.1831 20.3933 19.2871 20.1966 19.2871 19.9859V16.9034L20.2999 16.446L25.7424 13.988L28.5257 12.7446L28.7671 12.6367C28.9966 12.5341 29.1432 12.3024 29.1389 12.0487C29.1346 11.7984 28.9843 11.5755 28.7569 11.4787C28.7536 11.4773 28.7505 11.4753 28.7472 11.4739L27.5223 10.9773L24.5509 9.77266C24.395 9.70949 24.2205 9.71246 24.067 9.78113L24.0671 9.78113ZM25.2364 12.8347L18.4094 15.918C18.1846 16.0194 18.0399 16.2452 18.0399 16.4942V19.0419L15.0911 17.8069V15.1707L24.3308 11.0428L26.9083 12.0878L25.2364 12.8347Z" fill="url(#paint39_linear_36_805)"/>
<path d="M31.7419 20.9387C31.5511 20.9387 31.3635 20.9523 31.1789 20.9761C28.9966 21.2569 27.3033 23.145 27.3033 25.4268C27.3033 26.2728 27.5361 27.0648 27.9397 27.741C28.1671 28.1218 28.4487 28.4659 28.7736 28.7622C29.5606 29.4798 30.6016 29.9175 31.7419 29.9175C34.1879 29.9175 36.178 27.903 36.178 25.4268C36.178 23.1875 34.5485 21.3262 32.4262 20.9923C32.2031 20.9572 31.9747 20.9388 31.7419 20.9388V20.9387ZM31.7419 28.6556C29.9822 28.6556 28.5507 27.2072 28.5507 25.4268C28.5507 23.6464 29.9822 22.2006 31.7419 22.2006C33.5017 22.2006 34.9307 23.6479 34.9307 25.4268C34.9307 27.2057 33.5002 28.6556 31.7419 28.6556Z" fill="url(#paint40_linear_36_805)"/>
<path d="M32.8739 23.8388L31.0577 25.6764L30.6099 25.2234C30.3663 24.977 29.9715 24.9771 29.728 25.2234C29.4845 25.4697 29.4846 25.8693 29.728 26.1156L30.6168 27.0148C30.7386 27.138 30.8981 27.1996 31.0577 27.1996C31.2173 27.1996 31.3769 27.138 31.4987 27.0148L33.7559 24.7311C33.9994 24.4847 33.9994 24.0852 33.7559 23.8388C33.5124 23.5924 33.1174 23.5924 32.8739 23.8388Z" fill="url(#paint41_linear_36_805)"/>
<defs>
<linearGradient id="paint0_linear_36_805" x1="5.04082" y1="34.8215" x2="31.5647" y2="1.71905" gradientUnits="userSpaceOnUse">
<stop stop-color="#E2313B"/>
<stop offset="1" stop-color="#FF6D3E"/>
</linearGradient>
<linearGradient id="paint1_linear_36_805" x1="5.04082" y1="34.8215" x2="31.5647" y2="1.71905" gradientUnits="userSpaceOnUse">
<stop stop-color="#E2313B"/>
<stop offset="1" stop-color="#FF6D3E"/>
</linearGradient>
<linearGradient id="paint2_linear_36_805" x1="5.04082" y1="34.8215" x2="31.5647" y2="1.71905" gradientUnits="userSpaceOnUse">
<stop stop-color="#E2313B"/>
<stop offset="1" stop-color="#FF6D3E"/>
</linearGradient>
<linearGradient id="paint3_linear_36_805" x1="5.04082" y1="34.8215" x2="31.5647" y2="1.71905" gradientUnits="userSpaceOnUse">
<stop stop-color="#E2313B"/>
<stop offset="1" stop-color="#FF6D3E"/>
</linearGradient>
<linearGradient id="paint4_linear_36_805" x1="5.04082" y1="34.8215" x2="31.5647" y2="1.71905" gradientUnits="userSpaceOnUse">
<stop stop-color="#E2313B"/>
<stop offset="1" stop-color="#FF6D3E"/>
</linearGradient>
<linearGradient id="paint5_linear_36_805" x1="5.04082" y1="34.8215" x2="31.5647" y2="1.71905" gradientUnits="userSpaceOnUse">
<stop stop-color="#E2313B"/>
<stop offset="1" stop-color="#FF6D3E"/>
</linearGradient>
<linearGradient id="paint6_linear_36_805" x1="5.04082" y1="34.8215" x2="31.5647" y2="1.71905" gradientUnits="userSpaceOnUse">
<stop stop-color="#E2313B"/>
<stop offset="1" stop-color="#FF6D3E"/>
</linearGradient>
<linearGradient id="paint7_linear_36_805" x1="5.04082" y1="34.8215" x2="31.5647" y2="1.71905" gradientUnits="userSpaceOnUse">
<stop stop-color="#E2313B"/>
<stop offset="1" stop-color="#FF6D3E"/>
</linearGradient>
<linearGradient id="paint8_linear_36_805" x1="5.04082" y1="34.8215" x2="31.5647" y2="1.71905" gradientUnits="userSpaceOnUse">
<stop stop-color="#E2313B"/>
<stop offset="1" stop-color="#FF6D3E"/>
</linearGradient>
<linearGradient id="paint9_linear_36_805" x1="5.04082" y1="34.8215" x2="31.5647" y2="1.71905" gradientUnits="userSpaceOnUse">
<stop stop-color="#E2313B"/>
<stop offset="1" stop-color="#FF6D3E"/>
</linearGradient>
<linearGradient id="paint10_linear_36_805" x1="5.04082" y1="34.8215" x2="31.5647" y2="1.71905" gradientUnits="userSpaceOnUse">
<stop stop-color="#E2313B"/>
<stop offset="1" stop-color="#FF6D3E"/>
</linearGradient>
<linearGradient id="paint11_linear_36_805" x1="5.04082" y1="34.8215" x2="31.5647" y2="1.71905" gradientUnits="userSpaceOnUse">
<stop stop-color="#E2313B"/>
<stop offset="1" stop-color="#FF6D3E"/>
</linearGradient>
<linearGradient id="paint12_linear_36_805" x1="5.04082" y1="34.8215" x2="31.5647" y2="1.71905" gradientUnits="userSpaceOnUse">
<stop stop-color="#E2313B"/>
<stop offset="1" stop-color="#FF6D3E"/>
</linearGradient>
<linearGradient id="paint13_linear_36_805" x1="5.04082" y1="34.8215" x2="31.5647" y2="1.71905" gradientUnits="userSpaceOnUse">
<stop stop-color="#E2313B"/>
<stop offset="1" stop-color="#FF6D3E"/>
</linearGradient>
<linearGradient id="paint14_linear_36_805" x1="5.04082" y1="34.8215" x2="31.5647" y2="1.71905" gradientUnits="userSpaceOnUse">
<stop stop-color="#E2313B"/>
<stop offset="1" stop-color="#FF6D3E"/>
</linearGradient>
<linearGradient id="paint15_linear_36_805" x1="5.04082" y1="34.8215" x2="31.5647" y2="1.71905" gradientUnits="userSpaceOnUse">
<stop stop-color="#E2313B"/>
<stop offset="1" stop-color="#FF6D3E"/>
</linearGradient>
<linearGradient id="paint16_linear_36_805" x1="5.04082" y1="34.8215" x2="31.5647" y2="1.71905" gradientUnits="userSpaceOnUse">
<stop stop-color="#E2313B"/>
<stop offset="1" stop-color="#FF6D3E"/>
</linearGradient>
<linearGradient id="paint17_linear_36_805" x1="5.04082" y1="34.8215" x2="31.5647" y2="1.71905" gradientUnits="userSpaceOnUse">
<stop stop-color="#E2313B"/>
<stop offset="1" stop-color="#FF6D3E"/>
</linearGradient>
<linearGradient id="paint18_linear_36_805" x1="5.04082" y1="34.8215" x2="31.5647" y2="1.71905" gradientUnits="userSpaceOnUse">
<stop stop-color="#E2313B"/>
<stop offset="1" stop-color="#FF6D3E"/>
</linearGradient>
<linearGradient id="paint19_linear_36_805" x1="5.04082" y1="34.8215" x2="31.5647" y2="1.71905" gradientUnits="userSpaceOnUse">
<stop stop-color="#E2313B"/>
<stop offset="1" stop-color="#FF6D3E"/>
</linearGradient>
<linearGradient id="paint20_linear_36_805" x1="5.04082" y1="34.8215" x2="31.5647" y2="1.71905" gradientUnits="userSpaceOnUse">
<stop stop-color="#E2313B"/>
<stop offset="1" stop-color="#FF6D3E"/>
</linearGradient>
<linearGradient id="paint21_linear_36_805" x1="5.04082" y1="34.8215" x2="31.5647" y2="1.71905" gradientUnits="userSpaceOnUse">
<stop stop-color="#E2313B"/>
<stop offset="1" stop-color="#FF6D3E"/>
</linearGradient>
<linearGradient id="paint22_linear_36_805" x1="5.04082" y1="34.8215" x2="31.5647" y2="1.71905" gradientUnits="userSpaceOnUse">
<stop stop-color="#E2313B"/>
<stop offset="1" stop-color="#FF6D3E"/>
</linearGradient>
<linearGradient id="paint23_linear_36_805" x1="5.04082" y1="34.8215" x2="31.5647" y2="1.71905" gradientUnits="userSpaceOnUse">
<stop stop-color="#E2313B"/>
<stop offset="1" stop-color="#FF6D3E"/>
</linearGradient>
<linearGradient id="paint24_linear_36_805" x1="5.04082" y1="34.8215" x2="31.5647" y2="1.71905" gradientUnits="userSpaceOnUse">
<stop stop-color="#E2313B"/>
<stop offset="1" stop-color="#FF6D3E"/>
</linearGradient>
<linearGradient id="paint25_linear_36_805" x1="5.04082" y1="34.8215" x2="31.5647" y2="1.71905" gradientUnits="userSpaceOnUse">
<stop stop-color="#E2313B"/>
<stop offset="1" stop-color="#FF6D3E"/>
</linearGradient>
<linearGradient id="paint26_linear_36_805" x1="5.04082" y1="34.8215" x2="31.5647" y2="1.71905" gradientUnits="userSpaceOnUse">
<stop stop-color="#E2313B"/>
<stop offset="1" stop-color="#FF6D3E"/>
</linearGradient>
<linearGradient id="paint27_linear_36_805" x1="5.04082" y1="34.8215" x2="31.5647" y2="1.71905" gradientUnits="userSpaceOnUse">
<stop stop-color="#E2313B"/>
<stop offset="1" stop-color="#FF6D3E"/>
</linearGradient>
<linearGradient id="paint28_linear_36_805" x1="5.04082" y1="34.8215" x2="31.5647" y2="1.71905" gradientUnits="userSpaceOnUse">
<stop stop-color="#E2313B"/>
<stop offset="1" stop-color="#FF6D3E"/>
</linearGradient>
<linearGradient id="paint29_linear_36_805" x1="5.04082" y1="34.8215" x2="31.5647" y2="1.71905" gradientUnits="userSpaceOnUse">
<stop stop-color="#E2313B"/>
<stop offset="1" stop-color="#FF6D3E"/>
</linearGradient>
<linearGradient id="paint30_linear_36_805" x1="5.04082" y1="34.8215" x2="31.5647" y2="1.71905" gradientUnits="userSpaceOnUse">
<stop stop-color="#E2313B"/>
<stop offset="1" stop-color="#FF6D3E"/>
</linearGradient>
<linearGradient id="paint31_linear_36_805" x1="5.04082" y1="34.8215" x2="31.5647" y2="1.71905" gradientUnits="userSpaceOnUse">
<stop stop-color="#E2313B"/>
<stop offset="1" stop-color="#FF6D3E"/>
</linearGradient>
<linearGradient id="paint32_linear_36_805" x1="5.04082" y1="34.8215" x2="31.5647" y2="1.71905" gradientUnits="userSpaceOnUse">
<stop stop-color="#E2313B"/>
<stop offset="1" stop-color="#FF6D3E"/>
</linearGradient>
<linearGradient id="paint33_linear_36_805" x1="5.04082" y1="34.8215" x2="31.5647" y2="1.71905" gradientUnits="userSpaceOnUse">
<stop stop-color="#E2313B"/>
<stop offset="1" stop-color="#FF6D3E"/>
</linearGradient>
<linearGradient id="paint34_linear_36_805" x1="5.04082" y1="34.8215" x2="31.5647" y2="1.71905" gradientUnits="userSpaceOnUse">
<stop stop-color="#E2313B"/>
<stop offset="1" stop-color="#FF6D3E"/>
</linearGradient>
<linearGradient id="paint35_linear_36_805" x1="5.04082" y1="34.8215" x2="31.5647" y2="1.71905" gradientUnits="userSpaceOnUse">
<stop stop-color="#E2313B"/>
<stop offset="1" stop-color="#FF6D3E"/>
</linearGradient>
<linearGradient id="paint36_linear_36_805" x1="5.04082" y1="34.8215" x2="31.5647" y2="1.71905" gradientUnits="userSpaceOnUse">
<stop stop-color="#E2313B"/>
<stop offset="1" stop-color="#FF6D3E"/>
</linearGradient>
<linearGradient id="paint37_linear_36_805" x1="5.04082" y1="34.8215" x2="31.5647" y2="1.71905" gradientUnits="userSpaceOnUse">
<stop stop-color="#E2313B"/>
<stop offset="1" stop-color="#FF6D3E"/>
</linearGradient>
<linearGradient id="paint38_linear_36_805" x1="5.04082" y1="34.8215" x2="31.5647" y2="1.71905" gradientUnits="userSpaceOnUse">
<stop stop-color="#E2313B"/>
<stop offset="1" stop-color="#FF6D3E"/>
</linearGradient>
<linearGradient id="paint39_linear_36_805" x1="5.04082" y1="34.8215" x2="31.5647" y2="1.71905" gradientUnits="userSpaceOnUse">
<stop stop-color="#E2313B"/>
<stop offset="1" stop-color="#FF6D3E"/>
</linearGradient>
<linearGradient id="paint40_linear_36_805" x1="5.04082" y1="34.8215" x2="31.5647" y2="1.71905" gradientUnits="userSpaceOnUse">
<stop stop-color="#E2313B"/>
<stop offset="1" stop-color="#FF6D3E"/>
</linearGradient>
<linearGradient id="paint41_linear_36_805" x1="5.04082" y1="34.8215" x2="31.5647" y2="1.71905" gradientUnits="userSpaceOnUse">
<stop stop-color="#E2313B"/>
<stop offset="1" stop-color="#FF6D3E"/>
</linearGradient>
</defs>
</svg>
