<svg width="41" height="42" viewBox="0 0 41 42" fill="none" xmlns="http://www.w3.org/2000/svg">
<path d="M33.94 0H2.07796C1.52736 0.00166186 0.999775 0.223444 0.610437 0.61691C0.2211 1.01038 0.00164442 1.54355 0 2.09999V34.2999C0.00164442 34.8563 0.2211 35.3895 0.610437 35.783C0.999775 36.1764 1.52736 36.3982 2.07796 36.3999H15.2384V34.9999H2.07796C1.89426 34.9999 1.71808 34.9261 1.58818 34.7949C1.45828 34.6636 1.38531 34.4855 1.38531 34.2999V9.79997H13.1604V13.3C13.1602 13.4331 13.1976 13.5635 13.2681 13.6759C13.3386 13.7884 13.4395 13.8781 13.5587 13.9347C13.6779 13.9913 13.8107 14.0123 13.9413 13.9954C14.072 13.9784 14.1952 13.9242 14.2964 13.839L18.009 10.71L21.7216 13.839C21.8462 13.9433 22.0031 14.0003 22.1649 14C22.2652 14 22.3644 13.9785 22.4558 13.937C22.5761 13.8807 22.6778 13.7908 22.749 13.6779C22.8202 13.565 22.8579 13.4338 22.8576 13.3V9.79997H34.6327V30.7999H36.018V2.09999C36.0163 1.54355 35.7969 1.01038 35.4076 0.61691C35.0182 0.223444 34.4906 0.00166186 33.94 0ZM13.1604 8.39997H1.38531V2.09999C1.38531 1.91434 1.45828 1.7363 1.58818 1.60502C1.71808 1.47374 1.89426 1.4 2.07796 1.4H13.1604V8.39997ZM21.4723 11.809L18.4523 9.26097C18.3275 9.15684 18.1708 9.09988 18.009 9.09988C17.8472 9.09988 17.6904 9.15684 17.5657 9.26097L14.5457 11.809V1.4H21.4723V11.809ZM34.6327 8.39997H22.8576V1.4H33.94C34.1237 1.4 34.2999 1.47374 34.4298 1.60502C34.5597 1.7363 34.6327 1.91434 34.6327 2.09999V8.39997Z" fill="url(#paint0_linear_36_804)"/>
<path d="M11.0825 20.9999V19.5999H7.61919C7.43549 19.5999 7.25931 19.6737 7.12941 19.805C6.99951 19.9362 6.92654 20.1143 6.92654 20.2999V26.5999H8.31184V23.7999H10.3898V22.3999H8.31184V20.9999H11.0825Z" fill="url(#paint1_linear_36_804)"/>
<path d="M22.8576 20.9999V19.5999H19.3943C19.2106 19.5999 19.0344 19.6737 18.9045 19.805C18.7746 19.9362 18.7016 20.1143 18.7016 20.2999V25.8999C18.7016 26.0856 18.7746 26.2636 18.9045 26.3949C19.0344 26.5262 19.2106 26.5999 19.3943 26.5999H22.8576V25.1999H20.087V23.7999H22.1649V22.3999H20.087V20.9999H22.8576Z" fill="url(#paint2_linear_36_804)"/>
<path d="M28.3988 20.9999V19.5999H24.9355C24.7518 19.5999 24.5756 19.6737 24.4458 19.805C24.3159 19.9362 24.2429 20.1143 24.2429 20.2999V25.8999C24.2429 26.0856 24.3159 26.2636 24.4458 26.3949C24.5756 26.5262 24.7518 26.5999 24.9355 26.5999H28.3988V25.1999H25.6282V23.7999H27.7061V22.3999H25.6282V20.9999H28.3988Z" fill="url(#paint3_linear_36_804)"/>
<path d="M17.3163 21.6999C17.3147 21.1435 17.0952 20.6103 16.7059 20.2168C16.3166 19.8234 15.789 19.6016 15.2384 19.5999H13.1604C12.9767 19.5999 12.8005 19.6737 12.6706 19.805C12.5407 19.9362 12.4678 20.1143 12.4678 20.2999V26.5999H13.8531V23.7999H15.2384C15.4221 23.7999 15.5983 23.8737 15.7282 24.0049C15.8581 24.1362 15.931 24.3143 15.931 24.4999V26.5999H17.3163V24.4999C17.315 23.9816 17.1224 23.4823 16.7761 23.0999C17.1224 22.7175 17.315 22.2183 17.3163 21.6999ZM15.2384 22.3999H13.8531V20.9999H15.2384C15.4221 20.9999 15.5983 21.0737 15.7282 21.205C15.8581 21.3362 15.931 21.5143 15.931 21.6999C15.931 21.8856 15.8581 22.0636 15.7282 22.1949C15.5983 22.3262 15.4221 22.3999 15.2384 22.3999Z" fill="url(#paint4_linear_36_804)"/>
<path d="M39.973 35.2029L37.2024 32.4029C37.0704 32.274 36.8943 32.2013 36.7106 32.1999H33.2474V30.0999C33.2474 29.9142 33.1744 29.7362 33.0445 29.6049C32.9146 29.4736 32.7384 29.3999 32.5547 29.3999H22.8576C22.6739 29.3999 22.4977 29.4736 22.3678 29.6049C22.2379 29.7362 22.1649 29.9142 22.1649 30.0999V39.8999C22.1649 40.0855 22.2379 40.2636 22.3678 40.3948C22.4977 40.5261 22.6739 40.5999 22.8576 40.5999H24.3676C24.5094 41.0091 24.7735 41.3636 25.1235 41.6144C25.4734 41.8653 25.8918 42 26.3208 42C26.7499 42 27.1683 41.8653 27.5182 41.6144C27.8681 41.3636 28.1323 41.0091 28.2741 40.5999H34.0647C34.2065 41.0091 34.4707 41.3636 34.8206 41.6144C35.1706 41.8653 35.589 42 36.018 42C36.447 42 36.8654 41.8653 37.2154 41.6144C37.5653 41.3636 37.8294 41.0091 37.9713 40.5999H39.4813C39.665 40.5999 39.8411 40.5261 39.971 40.3948C40.1009 40.2636 40.1739 40.0855 40.1739 39.8999V35.6999C40.1725 35.5143 40.1006 35.3364 39.973 35.2029ZM26.3208 40.5999C26.1838 40.5999 26.0499 40.5588 25.936 40.4819C25.8221 40.405 25.7333 40.2957 25.6809 40.1677C25.6285 40.0398 25.6148 39.8991 25.6415 39.7633C25.6682 39.6275 25.7342 39.5028 25.8311 39.4049C25.9279 39.307 26.0513 39.2403 26.1857 39.2133C26.3201 39.1863 26.4593 39.2002 26.5859 39.2532C26.7125 39.3061 26.8207 39.3959 26.8968 39.511C26.9729 39.6261 27.0135 39.7614 27.0135 39.8999C27.0135 40.0855 26.9405 40.2636 26.8106 40.3948C26.6807 40.5261 26.5045 40.5999 26.3208 40.5999ZM31.8621 39.1999H28.2741C28.1323 38.7907 27.8681 38.4361 27.5182 38.1853C27.1683 37.9345 26.7499 37.7997 26.3208 37.7997C25.8918 37.7997 25.4734 37.9345 25.1235 38.1853C24.7735 38.4361 24.5094 38.7907 24.3676 39.1999H23.5502V30.7999H31.8621V39.1999ZM36.018 40.5999C35.881 40.5999 35.7471 40.5588 35.6332 40.4819C35.5193 40.405 35.4305 40.2957 35.3781 40.1677C35.3256 40.0398 35.3119 39.8991 35.3386 39.7633C35.3654 39.6275 35.4313 39.5028 35.5282 39.4049C35.6251 39.307 35.7485 39.2403 35.8829 39.2133C36.0172 39.1863 36.1565 39.2002 36.2831 39.2532C36.4096 39.3061 36.5178 39.3959 36.5939 39.511C36.67 39.6261 36.7106 39.7614 36.7106 39.8999C36.7106 40.0855 36.6377 40.2636 36.5078 40.3948C36.3779 40.5261 36.2017 40.5999 36.018 40.5999ZM38.7886 39.1999H37.9713C37.8294 38.7907 37.5653 38.4361 37.2154 38.1853C36.8654 37.9345 36.447 37.7997 36.018 37.7997C35.589 37.7997 35.1706 37.9345 34.8206 38.1853C34.4707 38.4361 34.2065 38.7907 34.0647 39.1999H33.2474V33.5999H36.4267L38.7886 35.9869V39.1999Z" fill="url(#paint5_linear_36_804)"/>
<path d="M18.009 37.7999H20.7796V39.1999H18.009V37.7999Z" fill="url(#paint6_linear_36_804)"/>
<path d="M16.6237 34.2999H20.7796V35.6999H16.6237V34.2999Z" fill="url(#paint7_linear_36_804)"/>
<path d="M15.2384 30.7999H20.7796V32.1999H15.2384V30.7999Z" fill="url(#paint8_linear_36_804)"/>
<defs>
<linearGradient id="paint0_linear_36_804" x1="4.60249" y1="34.8215" x2="31.5499" y2="4.11484" gradientUnits="userSpaceOnUse">
<stop stop-color="#E2313B"/>
<stop offset="1" stop-color="#FF6D3E"/>
</linearGradient>
<linearGradient id="paint1_linear_36_804" x1="4.60249" y1="34.8215" x2="31.5499" y2="4.11484" gradientUnits="userSpaceOnUse">
<stop stop-color="#E2313B"/>
<stop offset="1" stop-color="#FF6D3E"/>
</linearGradient>
<linearGradient id="paint2_linear_36_804" x1="4.60249" y1="34.8215" x2="31.5499" y2="4.11484" gradientUnits="userSpaceOnUse">
<stop stop-color="#E2313B"/>
<stop offset="1" stop-color="#FF6D3E"/>
</linearGradient>
<linearGradient id="paint3_linear_36_804" x1="4.60249" y1="34.8215" x2="31.5499" y2="4.11484" gradientUnits="userSpaceOnUse">
<stop stop-color="#E2313B"/>
<stop offset="1" stop-color="#FF6D3E"/>
</linearGradient>
<linearGradient id="paint4_linear_36_804" x1="4.60249" y1="34.8215" x2="31.5499" y2="4.11484" gradientUnits="userSpaceOnUse">
<stop stop-color="#E2313B"/>
<stop offset="1" stop-color="#FF6D3E"/>
</linearGradient>
<linearGradient id="paint5_linear_36_804" x1="4.60249" y1="34.8215" x2="31.5499" y2="4.11484" gradientUnits="userSpaceOnUse">
<stop stop-color="#E2313B"/>
<stop offset="1" stop-color="#FF6D3E"/>
</linearGradient>
<linearGradient id="paint6_linear_36_804" x1="4.60249" y1="34.8215" x2="31.5499" y2="4.11484" gradientUnits="userSpaceOnUse">
<stop stop-color="#E2313B"/>
<stop offset="1" stop-color="#FF6D3E"/>
</linearGradient>
<linearGradient id="paint7_linear_36_804" x1="4.60249" y1="34.8215" x2="31.5499" y2="4.11484" gradientUnits="userSpaceOnUse">
<stop stop-color="#E2313B"/>
<stop offset="1" stop-color="#FF6D3E"/>
</linearGradient>
<linearGradient id="paint8_linear_36_804" x1="4.60249" y1="34.8215" x2="31.5499" y2="4.11484" gradientUnits="userSpaceOnUse">
<stop stop-color="#E2313B"/>
<stop offset="1" stop-color="#FF6D3E"/>
</linearGradient>
</defs>
</svg>
