<svg width="40" height="42" viewBox="0 0 40 42" fill="none" xmlns="http://www.w3.org/2000/svg">
<path d="M36.5952 16.2028L39.099 12.3024C39.3069 11.9785 39.1835 11.5641 38.8233 11.3771L29.5694 6.5719C28.231 2.76633 24.2681 0 19.6 0C14.9319 0 10.9691 2.76633 9.63062 6.5719L0.376703 11.3772C0.0164811 11.5642 -0.106951 11.9786 0.101029 12.3025L2.60479 16.2029L0.101029 20.1032C-0.106951 20.4272 0.0164811 20.8415 0.376703 21.0285L2.72125 22.2459V32.9494C2.72125 33.1914 2.86483 33.4151 3.09786 33.5361L19.2234 41.9092C19.34 41.9698 19.47 42 19.6 42C19.73 42 19.86 41.9698 19.9766 41.9092L36.1021 33.5359C36.3352 33.4149 36.4787 33.1913 36.4787 32.9493V22.2458L38.8233 21.0284C39.1835 20.8413 39.3069 20.427 39.099 20.103L36.5952 16.2028ZM19.6 23.7938L4.98078 16.2027L10.1915 13.4969C11.887 16.635 15.4671 18.8034 19.6 18.8034C23.7329 18.8034 27.313 16.635 29.0085 13.4969L34.2192 16.2027L19.6 23.7938ZM37.4178 12.2117L35.4499 15.2773L29.5717 12.225C29.8845 11.3335 30.0536 10.3851 30.0536 9.40173C30.0536 9.04744 30.0309 8.69798 29.9883 8.35377L37.4178 12.2117ZM19.6 1.35484C24.5334 1.35484 28.5472 4.96464 28.5472 9.40173C28.5472 13.8387 24.5335 17.4485 19.6 17.4485C14.6665 17.4485 10.6528 13.8387 10.6528 9.40173C10.6528 4.96464 14.6666 1.35484 19.6 1.35484ZM9.21175 8.35377C9.1691 8.69798 9.14641 9.04753 9.14641 9.40173C9.14641 10.3851 9.3155 11.3335 9.62827 12.225L3.75014 15.2773L1.78219 12.2117L9.21175 8.35377ZM3.75014 17.128L18.5711 24.8239L16.6032 27.8897L1.78219 20.1938L3.75014 17.128ZM4.22767 23.028L16.5022 29.4017C16.6178 29.4617 16.7478 29.4925 16.8788 29.4925C16.9441 29.4925 17.0097 29.4848 17.0737 29.4694C17.2667 29.4229 17.4312 29.3094 17.5311 29.1538L18.8468 27.1042V40.1493L4.22767 32.5581V23.028ZM34.9723 32.5581L20.3532 40.1493V27.1042L21.6689 29.1538C21.7688 29.3094 21.9333 29.4229 22.1263 29.4694C22.1904 29.4849 22.2559 29.4925 22.3212 29.4925C22.4522 29.4925 22.5822 29.4617 22.6978 29.4017L34.9723 23.028V32.5581ZM22.5969 27.8897L20.629 24.8239L35.45 17.128L37.4179 20.1938L22.5969 27.8897ZM16.7791 13.3982C17.2065 13.7824 17.7677 13.9747 18.3291 13.9747C18.8904 13.9747 19.4517 13.7824 19.879 13.3982C21.0873 12.3113 22.3061 11.1995 23.4849 10.1243C24.1945 9.47693 24.9041 8.82965 25.6155 8.1839C26.4643 7.41334 26.4597 6.16494 25.6053 5.4009C25.1919 5.03111 24.644 4.82771 24.0611 4.82771C24.0581 4.82771 24.0552 4.8278 24.0523 4.8278C23.4674 4.82975 22.9186 5.0367 22.5075 5.41021L18.3233 9.21096L16.6911 7.7429C15.8365 6.97437 14.4458 6.97429 13.5911 7.74299C13.1772 8.11523 12.9493 8.61034 12.9493 9.13695C12.9493 9.66364 13.1772 10.1587 13.5912 10.531L16.7791 13.3982ZM14.6563 8.70094C14.79 8.5807 14.9655 8.52058 15.1411 8.52058C15.3166 8.52058 15.4922 8.5807 15.6259 8.70094L17.7933 10.6503C17.9346 10.7773 18.1262 10.8487 18.3259 10.8487H18.3278C18.5282 10.8483 18.7202 10.776 18.8612 10.6479L23.578 6.36334C23.7056 6.24742 23.8762 6.18315 24.0582 6.18247H24.061C24.243 6.18247 24.4141 6.24598 24.5432 6.36139C24.8097 6.59967 24.8107 6.98944 24.5455 7.23018C23.8332 7.87678 23.1227 8.52481 22.4122 9.17294C21.2353 10.2466 20.0184 11.3566 18.8138 12.44C18.5466 12.6804 18.1117 12.6804 17.8444 12.44L14.6564 9.57278C14.527 9.45644 14.4558 9.30165 14.4558 9.13686C14.4556 8.97217 14.5269 8.81729 14.6563 8.70094Z" fill="url(#paint0_linear_36_688)"/>
<defs>
<linearGradient id="paint0_linear_36_688" x1="4.49092" y1="34.8215" x2="31.5164" y2="4.77253" gradientUnits="userSpaceOnUse">
<stop stop-color="#E2313B"/>
<stop offset="1" stop-color="#FF6D3E"/>
</linearGradient>
</defs>
</svg>
