<svg width="41" height="42" viewBox="0 0 41 42" fill="none" xmlns="http://www.w3.org/2000/svg">
<path d="M39.2936 23.0741V20.1646C39.2936 16.9529 38.4463 13.7798 36.843 10.9886C35.3993 8.47484 33.3701 6.30905 30.9503 4.68958L31.1532 4.36651C31.3185 4.10331 31.3666 3.80519 31.2922 3.50444C31.2179 3.20344 31.0364 2.96091 30.7673 2.80296C27.6416 0.969292 24.073 0 20.4474 0C16.8217 0 13.2532 0.969292 10.1273 2.80304L10.1271 2.80312C9.85813 2.96099 9.67668 3.20352 9.60242 3.50444C9.52808 3.80536 9.57623 4.10347 9.74146 4.36659L9.94436 4.68966C7.52459 6.30921 5.4954 8.47493 4.05164 10.9887C2.44838 13.7799 1.60101 16.953 1.60101 20.1647V23.0743C0.626335 23.8444 0 25.0297 0 26.3578V28.1811C0 30.4972 1.90271 32.3814 4.2414 32.3814H4.2809C4.61111 33.2446 5.45416 33.86 6.43998 33.86C7.71269 33.86 8.74815 32.8345 8.74815 31.5741V22.9648C8.74815 21.7043 7.71269 20.6789 6.43998 20.6789C5.45416 20.6789 4.61111 21.2944 4.2809 22.1574H4.2414C3.78437 22.1574 3.34439 22.2303 2.9316 22.3634V20.1647C2.9316 14.3791 5.80391 9.06144 10.6477 5.80908L10.8416 6.11774C11.0553 6.45794 11.4303 6.64678 11.8122 6.64678C12.0076 6.64678 12.205 6.59728 12.3833 6.49335C14.8253 5.07054 17.6139 4.31858 20.4474 4.31858C23.2808 4.31858 26.0693 5.07054 28.5113 6.49319C29.0385 6.80045 29.7302 6.63195 30.0532 6.11766L30.247 5.809C35.0907 9.06136 37.9631 14.379 37.9631 20.1646V22.3633C37.5503 22.2302 37.1103 22.1573 36.6533 22.1573H36.6138C36.2835 21.2943 35.4405 20.6789 34.4547 20.6789C33.182 20.6789 32.1465 21.7043 32.1465 22.9647V31.5741C32.1465 32.8345 33.182 33.86 34.4547 33.86C35.4405 33.86 36.2835 33.2446 36.6138 32.3814H36.6533C36.9426 32.3814 37.2251 32.3524 37.4983 32.2975V35.0707C37.4983 37.0507 35.8717 38.6616 33.8723 38.6616H24.7619C24.647 37.5285 23.6787 36.6409 22.5047 36.6409H18.39C17.1392 36.6409 16.1214 37.6487 16.1214 38.8876V39.7533C16.1214 40.9921 17.1391 42 18.39 42H22.5047C23.6787 42 24.6471 41.1123 24.7619 39.9792H33.8724C36.6054 39.9792 38.8289 37.7773 38.8289 35.0707V31.7851C40.0653 31.0504 40.8947 29.7101 40.8947 28.1811V26.3578C40.8947 25.0296 40.2684 23.8444 39.2936 23.0741ZM5.46222 22.9648C5.46222 22.4309 5.90079 21.9966 6.43989 21.9966C6.979 21.9966 7.41757 22.4309 7.41757 22.9648V31.5741C7.41757 32.1079 6.979 32.5424 6.43989 32.5424C5.90079 32.5424 5.46222 32.108 5.46222 31.5741V22.9648ZM1.33051 28.1811V26.3578C1.33051 24.8047 2.57735 23.5352 4.13172 23.4779V31.0612C2.57735 31.0037 1.33051 29.7342 1.33051 28.1811ZM29.0228 5.26366C26.4157 3.78279 23.4549 3.00094 20.4474 3.00094C17.4398 3.00094 14.4791 3.78271 11.8719 5.26366L10.9762 3.83764C13.8557 2.18852 17.1262 1.31764 20.4474 1.31764C23.7688 1.31764 27.0391 2.18836 29.9186 3.83764L29.0228 5.26366ZM35.4325 31.5741C35.4325 32.1079 34.9939 32.5424 34.4548 32.5424C33.9157 32.5424 33.4772 32.108 33.4772 31.5741V22.9648C33.4772 22.4309 33.9157 21.9966 34.4548 21.9966C34.9939 21.9966 35.4325 22.4309 35.4325 22.9648V31.5741ZM23.4428 39.7533C23.4428 40.2655 23.022 40.6823 22.5047 40.6823H18.39C17.8728 40.6823 17.4519 40.2655 17.4519 39.7533V38.8875C17.4519 38.3752 17.8728 37.9585 18.39 37.9585H22.5047C23.022 37.9585 23.4428 38.3752 23.4428 38.8875V39.7533ZM39.5642 28.1811C39.5642 29.7342 38.3174 31.0037 36.763 31.0611V23.4778C38.3174 23.5352 39.5642 24.8047 39.5642 26.3577V28.1811ZM21.9277 28.3037C23.3428 28.3037 24.7339 27.9553 25.9714 27.2934L30.1195 28.8293C30.1953 28.8574 30.2741 28.871 30.3523 28.871C30.5257 28.871 30.6958 28.8039 30.8228 28.678C31.0071 28.4955 31.0668 28.2233 30.9756 27.9815L29.4248 23.8734C30.093 22.6481 30.4449 21.2704 30.4449 19.8688C30.4449 15.6763 27.3144 12.1117 23.1423 11.5212C21.9078 10.8306 20.4831 10.4358 18.967 10.4358C14.2707 10.4358 10.4499 14.2197 10.4499 18.8706C10.4499 20.2722 10.8016 21.6499 11.4699 22.8752L9.91916 26.9833C9.82786 27.2251 9.88756 27.4973 10.0718 27.6798C10.1989 27.8057 10.369 27.8729 10.5423 27.8728C10.6204 27.8728 10.6993 27.8591 10.7752 27.831L14.9234 26.2952C15.8024 26.7654 16.7591 27.0764 17.7468 27.2178C19.0176 27.928 20.4598 28.3037 21.9277 28.3037ZM29.1144 19.8689C29.1144 21.1421 28.7707 22.3914 28.1204 23.4817C28.0182 23.6531 27.9996 23.8611 28.0701 24.0475L29.2182 27.089L26.1471 25.9519C25.9589 25.8822 25.7488 25.9005 25.5759 26.0017C24.4746 26.6457 23.2132 26.9862 21.9277 26.9862C21.7405 26.9862 21.5539 26.9781 21.3682 26.9638C24.8991 25.9346 27.4842 22.6963 27.4842 18.8708C27.4842 17.015 26.8753 15.2975 25.8457 13.9031C27.824 15.1824 29.1144 17.3963 29.1144 19.8689ZM14.7476 24.9537L11.6765 26.0908L12.8247 23.0493C12.895 22.8629 12.8765 22.6549 12.7743 22.4835C12.1241 21.3932 11.7804 20.1439 11.7804 18.8707C11.7804 14.9463 15.0043 11.7536 18.967 11.7536C22.9298 11.7536 26.1537 14.9463 26.1537 18.8707C26.1537 22.7952 22.9298 25.9879 18.967 25.9879C17.6816 25.9879 16.4201 25.6475 15.3189 25.0035C15.1459 24.9023 14.9358 24.884 14.7476 24.9537ZM14.8267 15.8957C14.8267 15.5318 15.1246 15.2368 15.492 15.2368H22.442C22.8094 15.2368 23.1073 15.5318 23.1073 15.8957C23.1073 16.2595 22.8094 16.5545 22.442 16.5545H15.492C15.1246 16.5545 14.8267 16.2596 14.8267 15.8957ZM14.8267 18.8707C14.8267 18.5069 15.1246 18.2119 15.492 18.2119H22.442C22.8094 18.2119 23.1073 18.5069 23.1073 18.8707C23.1073 19.2346 22.8094 19.5296 22.442 19.5296H15.492C15.1246 19.5296 14.8267 19.2346 14.8267 18.8707ZM22.442 22.5046H15.492C15.1246 22.5046 14.8267 22.2096 14.8267 21.8458C14.8267 21.482 15.1246 21.187 15.492 21.187H22.442C22.8094 21.187 23.1073 21.482 23.1073 21.8458C23.1073 22.2096 22.8094 22.5046 22.442 22.5046Z" fill="url(#paint0_linear_36_689)"/>
<defs>
<linearGradient id="paint0_linear_36_689" x1="4.68507" y1="34.8215" x2="31.5662" y2="3.64082" gradientUnits="userSpaceOnUse">
<stop stop-color="#E2313B"/>
<stop offset="1" stop-color="#FF6D3E"/>
</linearGradient>
</defs>
</svg>
