<svg width="55" height="55" viewBox="0 0 55 55" fill="none" xmlns="http://www.w3.org/2000/svg">
<path d="M55 10.1141L46.6427 8.30291L44.9902 0L40.0665 4.93155C36.0504 2.60483 31.4789 1.38382 26.7652 1.38382C23.1554 1.38382 19.6472 2.09608 16.349 3.49346C13.1591 4.84336 10.3011 6.77664 7.84263 9.23902C5.38419 11.7014 3.45401 14.564 2.10627 17.759C0.71112 21.0625 0 24.5763 0 28.1919C0 31.8075 0.71112 35.3213 2.10627 38.6248C3.45401 41.8198 5.38419 44.6824 7.84263 47.1448C10.3011 49.6072 13.1591 51.5405 16.349 52.8904C19.6472 54.2877 23.1554 55 26.7652 55C30.375 55 33.8831 54.2877 37.1814 52.8904C40.3713 51.5405 43.2293 49.6072 45.6877 47.1448C48.1462 44.6824 50.0763 41.8198 51.4241 38.6248C52.8192 35.3213 53.5304 31.8075 53.5304 28.1919C53.5304 23.5046 52.3248 18.9461 50.0289 14.9439L55 10.1141ZM41.8138 22.9144L41.9154 22.8194C42.5249 24.5356 42.8297 26.3333 42.8297 28.1851C42.8297 32.4858 41.1569 36.522 38.1228 39.5609C35.0887 42.5999 31.059 44.2754 26.7652 44.2754C22.4714 44.2754 18.4417 42.5999 15.4076 39.5609C12.3735 36.522 10.7007 32.4858 10.7007 28.1851C10.7007 23.8844 12.3735 19.8483 15.4076 16.8093C18.4417 13.7703 22.4714 12.0948 26.7652 12.0948C28.587 12.0948 30.3479 12.3933 32.0207 12.9835L32.0071 12.997L33.3075 19.5091L32.2239 20.5606C30.6865 19.4549 28.8037 18.7969 26.7652 18.7969C21.6045 18.7969 17.3987 23.0026 17.3987 28.1783C17.3987 33.3473 21.5977 37.5598 26.7652 37.5598C31.9326 37.5598 36.1316 33.3541 36.1316 28.1783C36.1316 26.0755 35.4408 24.1354 34.2692 22.5685L35.3257 21.5035L41.8138 22.9144ZM33.4497 28.1851C33.4497 31.8753 30.4495 34.8804 26.7652 34.8804C23.0809 34.8804 20.0807 31.8753 20.0807 28.1851C20.0807 24.4949 23.0809 21.4899 26.7652 21.4899C28.1265 21.4899 29.3929 21.8969 30.4495 22.6024L27.456 25.6006C27.2325 25.5396 27.0022 25.5057 26.7584 25.5057C25.282 25.5057 24.0765 26.7063 24.0765 28.1919C24.0765 29.6707 25.2752 30.8781 26.7584 30.8781C28.2416 30.8781 29.4471 29.6639 29.4471 28.1851C29.4471 27.9477 29.4132 27.7103 29.3523 27.4864L32.3458 24.4882C33.0433 25.5532 33.4497 26.8217 33.4497 28.1851ZM38.9693 14.0078L38.1363 10.65L39.7076 9.07622L40.5541 12.4679L38.9693 14.0078ZM37.0324 11.7557L37.8586 15.0863L35.5898 17.2909L34.9058 13.8857L37.0324 11.7557ZM42.7755 18.2474L40.9808 19.9907L37.5742 19.2581L39.8159 17.006L43.3241 17.7047L42.7755 18.2474ZM44.4958 16.5787L40.9605 15.8732L42.4978 14.3334L46.0738 15.0456L44.4958 16.5787ZM47.2386 13.9128L43.6492 13.1938L45.7013 11.1994L46.006 10.9077L49.5413 11.6743L47.2386 13.9128ZM44.0488 8.98125L41.658 11.3758L40.8115 7.97052L43.3444 5.43352L44.0488 8.98125ZM50.8484 28.1851C50.8484 34.6294 48.3426 40.687 43.7914 45.2454C39.2402 49.8039 33.1991 52.307 26.7652 52.307C20.3312 52.307 14.2833 49.7971 9.73218 45.2387C5.18101 40.6802 2.68194 34.6294 2.68194 28.1851C2.68194 21.7409 5.18779 15.6833 9.73895 11.1248C14.2901 6.56635 20.338 4.05649 26.7719 4.05649C30.7678 4.05649 34.6484 5.0333 38.1025 6.89874L34.0863 10.9213C31.7904 9.92415 29.332 9.41539 26.7652 9.41539C21.7603 9.41539 17.0533 11.369 13.518 14.91C9.98276 18.4509 8.03226 23.1654 8.03226 28.1783C8.03226 33.1913 9.98276 37.9058 13.518 41.4467C17.0533 44.9877 21.7603 46.9413 26.7652 46.9413C31.7701 46.9413 36.477 44.9877 40.0123 41.4467C43.5476 37.9058 45.4981 33.1913 45.4981 28.1783C45.4981 25.6074 44.9902 23.1247 43.9878 20.7912L48.031 16.8636C49.8867 20.3231 50.8484 24.2033 50.8484 28.1851Z" fill="#FF6D3E"/>
</svg>
