<svg width="51" height="49" viewBox="0 0 51 49" fill="none" xmlns="http://www.w3.org/2000/svg">
<path d="M25.1813 42.0884C13.813 42.0884 3.66718 34.9346 0.122241 24.4423L0 24.0846L0.122241 23.7269C3.66718 13.1154 13.813 6.08076 25.1813 6.08076C36.5495 6.08076 46.6953 13.2346 50.2403 23.7269L50.3625 24.0846L50.2403 24.4423C46.6953 34.9346 36.5495 42.0884 25.1813 42.0884ZM2.32255 24.0846C5.74524 33.623 14.9132 39.9423 25.1813 39.9423C35.5716 39.9423 44.6173 33.623 48.04 24.0846C44.6173 14.5461 35.4493 8.22691 25.1813 8.22691C14.7909 8.22691 5.623 14.5461 2.32255 24.0846ZM25.1813 38.3923C17.1135 38.3923 10.5126 31.9538 10.5126 24.0846C10.5126 16.2154 17.1135 9.77691 25.1813 9.77691C33.249 9.77691 39.85 16.2154 39.85 24.0846C39.85 31.9538 33.249 38.3923 25.1813 38.3923ZM25.1813 11.9231C18.3359 11.9231 12.7129 17.4077 12.7129 24.0846C12.7129 30.7615 18.3359 36.2461 25.1813 36.2461C32.0267 36.2461 37.6497 30.7615 37.6497 24.0846C37.6497 17.4077 32.0267 11.9231 25.1813 11.9231ZM50.2403 6.19999H48.04V4.17307C48.04 3.1 47.0621 2.14615 45.9619 2.14615H44.3728V0H45.9619C48.2845 0 50.2403 1.90769 50.2403 4.17307V6.19999ZM5.86748 48.1692H4.27837C1.95583 48.1692 0 46.2615 0 43.9961V41.9692H2.20031V43.9961C2.20031 45.0692 3.17822 46.023 4.27837 46.023H5.86748V48.1692ZM2.20031 6.19999H0V4.17307C0 1.90769 1.95583 0 4.27837 0H5.86748V2.14615H4.27837C3.17822 2.14615 2.20031 2.98077 2.20031 4.17307V6.19999ZM46.0842 48.1692H44.495V46.023H46.0842C47.1843 46.023 48.1622 45.1884 48.1622 43.9961V41.9692H50.3625V43.9961C50.2403 46.2615 48.4067 48.1692 46.0842 48.1692Z" fill="#FF6D3E"/>
</svg>
