<svg width="13" height="14" viewBox="0 0 13 14" fill="none" xmlns="http://www.w3.org/2000/svg">
<path d="M9.7831 8.28794C9.30498 7.93857 8.78412 7.66309 8.23161 7.46494C9.3966 6.73443 10.1118 5.43604 10.1118 4.02484C10.1118 1.80582 8.3593 0 6.20866 0C4.05692 0 2.30609 1.8058 2.30609 4.02484C2.30609 4.78056 2.50988 5.5165 2.90026 6.1571C3.22732 6.69574 3.67378 7.14763 4.20019 7.4755C3.63935 7.67196 3.10961 7.9523 2.62429 8.30653C2.09454 8.69369 1.6292 9.16189 1.2394 9.69625C0.429227 10.8105 0 12.1349 0 13.5275C0 13.789 0.203789 14 0.455342 14C0.708555 14 0.914004 13.789 0.914004 13.5275C0.914004 12.0759 1.4632 10.7077 2.45936 9.6742C3.45334 8.6453 4.77103 8.07773 6.16704 8.07631C6.21258 8.0809 6.26033 8.07631 6.30587 8.06484L6.34362 8.05739C7.70075 8.08547 8.97737 8.65189 9.94966 9.65615C10.9459 10.6882 11.4939 12.057 11.4939 13.51C11.4939 13.7686 11.6988 13.9808 11.9509 13.9808C12.203 13.9808 12.4074 13.7686 12.4074 13.51C12.4074 12.116 11.9798 10.7916 11.168 9.67934C10.7798 9.14246 10.3128 8.67453 9.7831 8.28794ZM6.20868 7.10756C4.56114 7.10756 3.21957 5.72557 3.21957 4.02486C3.21957 2.32558 4.56115 0.94303 6.20868 0.94303C7.85513 0.94303 9.1967 2.32558 9.1967 4.02486C9.1967 5.72556 7.85513 7.10756 6.20868 7.10756Z" fill="#121F38"/>
</svg>
