<svg width="30" height="30" viewBox="0 0 30 30" fill="none" xmlns="http://www.w3.org/2000/svg">
<path d="M12.5625 21.375C12.375 21.375 12.1875 21.3 12.0375 21.15C11.7375 20.85 11.7375 20.3813 12.0375 20.0812L17.6625 14.4562C17.9625 14.1562 18.4313 14.1562 18.7313 14.4562C19.0313 14.7562 19.0313 15.225 18.7313 15.525L13.1063 21.15C12.9375 21.3 12.75 21.375 12.5625 21.375Z" fill="#FFE3C2"/>
<path d="M18.1875 15.75C18 15.75 17.8125 15.675 17.6625 15.525L12.0375 9.9C11.7375 9.6 11.7375 9.13125 12.0375 8.83125C12.3375 8.53125 12.8063 8.53125 13.1063 8.83125L18.7313 14.4562C19.0313 14.7562 19.0313 15.225 18.7313 15.525C18.5625 15.675 18.375 15.75 18.1875 15.75Z" fill="#FFE3C2"/>
<path d="M15 30C6.73125 30 0 23.2688 0 15C0 6.73125 6.73125 0 15 0C23.2688 0 30 6.73125 30 15C30 23.2688 23.2688 30 15 30ZM15 1.5C7.55625 1.5 1.5 7.55625 1.5 15C1.5 22.4438 7.55625 28.5 15 28.5C22.4438 28.5 28.5 22.4438 28.5 15C28.5 7.55625 22.4438 1.5 15 1.5Z" fill="#FFE3C2"/>
</svg>
