<svg width="12" height="10" viewBox="0 0 12 10" fill="none" xmlns="http://www.w3.org/2000/svg">
<path d="M5.92941 5.51724L9.23968 2.05206C9.59839 1.67657 9.59577 1.08458 9.23375 0.712267C8.85451 0.322244 8.22806 0.322455 7.84908 0.712733L5.92941 2.68966L4.14849 0.750819C3.77727 0.34668 3.13989 0.346227 2.76809 0.749838C2.43963 1.1064 2.43708 1.65454 2.76221 2.01415L5.92941 5.51724Z" fill="#FF6D3E"/>
<path d="M5.92941 7.17241L9.99609 2.71762C10.3275 2.35457 10.8857 2.31602 11.2639 2.63008C11.6657 2.96379 11.7097 3.56463 11.3606 3.95322L5.92941 10L0.592012 3.91618C0.265223 3.54369 0.302785 2.97669 0.675855 2.65057C1.04479 2.32806 1.60437 2.36171 1.93199 2.72612L5.92941 7.17241Z" fill="#FF6D3E"/>
</svg>
