<svg width="30" height="30" viewBox="0 0 30 30" fill="none" xmlns="http://www.w3.org/2000/svg">
<path d="M17.4375 21.375C17.625 21.375 17.8125 21.3 17.9625 21.15C18.2625 20.85 18.2625 20.3813 17.9625 20.0812L12.3375 14.4562C12.0375 14.1562 11.5687 14.1562 11.2687 14.4562C10.9687 14.7562 10.9687 15.225 11.2687 15.525L16.8937 21.15C17.0625 21.3 17.25 21.375 17.4375 21.375Z" fill="#FFE3C2"/>
<path d="M11.8125 15.75C12 15.75 12.1875 15.675 12.3375 15.525L17.9625 9.9C18.2625 9.6 18.2625 9.13125 17.9625 8.83125C17.6625 8.53125 17.1937 8.53125 16.8937 8.83125L11.2687 14.4562C10.9687 14.7562 10.9687 15.225 11.2687 15.525C11.4375 15.675 11.625 15.75 11.8125 15.75Z" fill="#FFE3C2"/>
<path d="M15 30C23.2688 30 30 23.2688 30 15C30 6.73125 23.2688 0 15 0C6.73125 0 0 6.73125 0 15C0 23.2688 6.73125 30 15 30ZM15 1.5C22.4437 1.5 28.5 7.55625 28.5 15C28.5 22.4438 22.4437 28.5 15 28.5C7.55625 28.5 1.5 22.4438 1.5 15C1.5 7.55625 7.55625 1.5 15 1.5Z" fill="#FFE3C2"/>
</svg>
