<svg width="22" height="21" viewBox="0 0 22 21" fill="none" xmlns="http://www.w3.org/2000/svg">
<path d="M10.3283 10.4285C10.3283 10.7208 10.4473 11.0011 10.6592 11.2078C10.871 11.4145 11.1583 11.5306 11.4579 11.5306C11.7575 11.5306 12.0448 11.4145 12.2566 11.2078C12.4685 11.0011 12.5875 10.7208 12.5875 10.4285C12.5875 10.1363 12.4685 9.85595 12.2566 9.64928C12.0448 9.4426 11.7575 9.3265 11.4579 9.3265C11.1583 9.3265 10.871 9.4426 10.6592 9.64928C10.4473 9.85595 10.3283 10.1363 10.3283 10.4285ZM15.0349 10.4285C15.0349 10.7208 15.1539 11.0011 15.3657 11.2078C15.5776 11.4145 15.8649 11.5306 16.1645 11.5306C16.4641 11.5306 16.7514 11.4145 16.9632 11.2078C17.175 11.0011 17.294 10.7208 17.294 10.4285C17.294 10.1363 17.175 9.85595 16.9632 9.64928C16.7514 9.4426 16.4641 9.3265 16.1645 9.3265C15.8649 9.3265 15.5776 9.4426 15.3657 9.64928C15.1539 9.85595 15.0349 10.1363 15.0349 10.4285ZM5.62175 10.4285C5.62175 10.7208 5.74075 11.0011 5.95259 11.2078C6.16443 11.4145 6.45174 11.5306 6.75132 11.5306C7.05091 11.5306 7.33822 11.4145 7.55006 11.2078C7.76189 11.0011 7.8809 10.7208 7.8809 10.4285C7.8809 10.1363 7.76189 9.85595 7.55006 9.64928C7.33822 9.4426 7.05091 9.3265 6.75132 9.3265C6.45174 9.3265 6.16443 9.4426 5.95259 9.64928C5.74075 9.85595 5.62175 10.1363 5.62175 10.4285Z" fill="white"/>
<path d="M21.1817 6.44282C20.6498 5.20991 19.8874 4.10328 18.9155 3.15277C17.9436 2.20456 16.8093 1.45838 15.5432 0.941802C14.2489 0.411445 12.8746 0.142822 11.4579 0.142822H11.4108C9.98474 0.14971 8.60336 0.42522 7.30435 0.967057C6.05004 1.49053 4.92517 2.2344 3.96268 3.18262C3.00018 4.13083 2.24478 5.23287 1.72235 6.46119C1.18109 7.73313 0.908113 9.08542 0.915173 10.4768C0.922232 12.0701 1.31288 13.652 2.04475 15.0663V18.5561C2.04475 19.1392 2.52953 19.6122 3.12726 19.6122H6.70661C8.15624 20.3262 9.77765 20.7074 11.4108 20.7143H11.4602C12.8699 20.7143 14.2371 20.4479 15.5244 19.9268C16.7834 19.4148 17.9153 18.6801 18.8849 17.741C19.8568 16.802 20.6216 15.7046 21.1558 14.4808C21.7112 13.2135 21.9936 11.8658 22.0006 10.4745C22.0077 9.07624 21.73 7.71935 21.1817 6.44282ZM17.6259 16.4989C15.9762 18.0923 13.7877 18.9694 11.4579 18.9694H11.4179C9.99886 18.9625 8.58924 18.6181 7.34435 17.9706L7.14668 17.8673H3.83325V14.6347L3.72735 14.4418C3.06372 13.2273 2.71073 11.852 2.70367 10.4676C2.69426 8.17854 3.59086 6.02956 5.23581 4.41093C6.8784 2.79231 9.07402 1.8969 11.4202 1.88772H11.4602C12.6369 1.88772 13.7782 2.11042 14.8537 2.55124C15.9033 2.98058 16.8446 3.59818 17.6541 4.38798C18.4613 5.17548 19.0967 6.09614 19.5367 7.12012C19.9933 8.18083 20.2215 9.30583 20.2168 10.4676C20.2027 12.7543 19.2826 14.8964 17.6259 16.4989Z" fill="white"/>
</svg>
