<svg width="17" height="20" viewBox="0 0 17 20" fill="none" xmlns="http://www.w3.org/2000/svg">
<path d="M1.21163 2.71858C2.4349 2.64091 3.53096 2.38927 4.49669 1.96209C5.49734 1.51938 6.4592 0.9524 7.37995 0.259596C7.59989 0.0940705 7.86686 0.00315385 8.14198 8.05606e-05C8.41711 -0.00299273 8.68604 0.0819378 8.90961 0.242509C10.0615 1.07046 10.9978 1.64365 11.7184 1.96209C12.4274 2.27587 13.5475 2.50499 15.0787 2.64946C15.7427 2.71237 16.25 3.27081 16.25 3.93876V10.7534C16.25 12.0488 15.9264 13.3236 15.3086 14.4618C14.6908 15.5999 13.7985 16.5652 12.7128 17.2698L8.82817 19.7917C8.61878 19.9276 8.37456 20 8.125 20C7.87544 20 7.63122 19.9276 7.42183 19.7917L3.53561 17.269C2.45038 16.5643 1.55841 15.5991 0.940891 14.4611C0.323376 13.3231 -6.87462e-05 12.0485 1.09598e-08 10.7534V4.01021C1.09598e-08 3.32673 0.530574 2.7613 1.21163 2.71858ZM11.7898 7.4719L7.59714 11.6691L5.20956 9.27847C5.08828 9.15714 4.92384 9.08902 4.7524 9.08909C4.58096 9.08917 4.41657 9.15743 4.2954 9.27886C4.17423 9.40029 4.1062 9.56494 4.10627 9.7366C4.10634 9.90826 4.17451 10.0729 4.29579 10.1942L7.14026 13.0415C7.26143 13.1628 7.42578 13.231 7.59714 13.231C7.7685 13.231 7.93285 13.1628 8.05402 13.0415L12.7035 8.38606C12.8163 8.2632 12.8774 8.10145 12.8738 7.9346C12.8703 7.76776 12.8026 7.60872 12.6847 7.49071C12.5669 7.37271 12.4081 7.30487 12.2414 7.30136C12.0748 7.29785 11.9132 7.35896 11.7905 7.4719H11.7898Z" fill="url(#paint0_linear_22_567)"/>
<defs>
<linearGradient id="paint0_linear_22_567" x1="8.125" y1="0" x2="8.125" y2="20" gradientUnits="userSpaceOnUse">
<stop stop-color="#FF6D3E"/>
<stop offset="1" stop-color="#E2313B"/>
</linearGradient>
</defs>
</svg>
