<svg width="63" height="63" viewBox="0 0 63 63" fill="none" xmlns="http://www.w3.org/2000/svg">
<circle cx="31.5" cy="31.5" r="31.5" fill="url(#paint0_linear_1_903)"/>
<path d="M31.5 58.75C46.5498 58.75 58.75 46.5498 58.75 31.5C58.75 16.4502 46.5498 4.25 31.5 4.25C16.4502 4.25 4.25 16.4502 4.25 31.5C4.25 46.5498 16.4502 58.75 31.5 58.75Z" fill="url(#paint1_linear_1_903)" stroke="white" stroke-width="1.5"/>
<g clip-path="url(#clip0_1_903)">
<path d="M14.8285 42.0751C14.8285 42.2292 14.7827 42.3798 14.697 42.5079C14.6112 42.636 14.4894 42.7358 14.3468 42.7948C14.2042 42.8537 14.0473 42.8691 13.8959 42.8391C13.7445 42.809 13.6055 42.7349 13.4963 42.6259C13.3872 42.517 13.3129 42.3782 13.2828 42.2271C13.2526 42.076 13.2681 41.9194 13.3272 41.777C13.3862 41.6347 13.4863 41.5131 13.6146 41.4275C13.7429 41.3419 13.8938 41.2962 14.0481 41.2962C14.2551 41.2962 14.4536 41.3783 14.5999 41.5243C14.7463 41.6704 14.8285 41.8685 14.8285 42.0751ZM50.6991 47.7377C50.6996 47.9628 50.6332 48.1831 50.5083 48.3705C50.3834 48.558 50.2055 48.7042 49.9973 48.7908C49.789 48.8773 49.5597 48.9002 49.3384 48.8566C49.1171 48.813 48.9138 48.7048 48.7541 48.5458C48.5944 48.3868 48.4856 48.1841 48.4414 47.9633C48.3972 47.7425 48.4196 47.5136 48.5058 47.3055C48.592 47.0974 48.7381 46.9196 48.9256 46.7944C49.1131 46.6693 49.3336 46.6025 49.5592 46.6025C49.8611 46.6025 50.1506 46.722 50.3643 46.9348C50.578 47.1476 50.6984 47.4363 50.6991 47.7377ZM42.645 47.7377C42.6455 47.8745 42.6054 48.0084 42.5296 48.1224C42.4538 48.2364 42.3459 48.3254 42.2194 48.3781C42.0929 48.4309 41.9536 48.4449 41.8191 48.4186C41.6846 48.3922 41.5609 48.3266 41.4638 48.23C41.3667 48.1334 41.3005 48.0103 41.2736 47.8761C41.2466 47.742 41.2602 47.6029 41.3125 47.4764C41.3648 47.35 41.4536 47.2419 41.5675 47.1658C41.6815 47.0897 41.8155 47.0491 41.9525 47.0491C42.1357 47.0491 42.3115 47.1216 42.4412 47.2506C42.571 47.3797 42.6443 47.5548 42.645 47.7377ZM18.4587 48.8755C18.4592 49.0971 18.394 49.314 18.2711 49.4986C18.1483 49.6833 17.9734 49.8275 17.7686 49.9131C17.5637 49.9986 17.338 50.0217 17.1201 49.9793C16.9021 49.937 16.7015 49.8311 16.5438 49.6751C16.386 49.5191 16.2781 49.32 16.2336 49.1028C16.1891 48.8857 16.2101 48.6602 16.2938 48.4549C16.3776 48.2496 16.5204 48.0737 16.7043 47.9494C16.8881 47.825 17.1047 47.7578 17.3268 47.7563C17.4748 47.7552 17.6216 47.7834 17.7587 47.8391C17.8958 47.8949 18.0206 47.9771 18.1258 48.0811C18.2309 48.1851 18.3145 48.3088 18.3716 48.4451C18.4288 48.5814 18.4584 48.7277 18.4587 48.8755ZM46.0408 43.9999C46.0408 44.1109 46.0078 44.2195 45.9459 44.3118C45.8841 44.4041 45.7961 44.476 45.6933 44.5183C45.5905 44.5607 45.4773 44.5717 45.3682 44.5498C45.2592 44.528 45.159 44.4743 45.0805 44.3955C45.0021 44.3168 44.9487 44.2166 44.9274 44.1077C44.906 43.9987 44.9175 43.8858 44.9604 43.7833C45.0034 43.6809 45.0758 43.5935 45.1686 43.5322C45.2614 43.4708 45.3703 43.4384 45.4815 43.4389C45.5552 43.4389 45.6282 43.4535 45.6962 43.4817C45.7642 43.5099 45.826 43.5513 45.878 43.6034C45.9299 43.6555 45.9711 43.7174 45.999 43.7854C46.027 43.8534 46.0412 43.9263 46.0408 43.9999Z" fill="white"/>
<path d="M43.6251 41.6684L42.5038 40.9267C43.621 39.2342 44.354 37.3185 44.6517 35.3136C44.9493 33.3087 44.8044 31.263 44.2271 29.3199L45.5135 28.9371C46.1475 31.0687 46.3063 33.3131 45.9787 35.5125C45.6511 37.7119 44.845 39.8131 43.6171 41.6684H43.6251Z" fill="white"/>
<path d="M30.9234 48.4794C28.555 48.4781 26.2194 47.9259 24.102 46.8664C21.9847 45.807 20.1439 44.2696 18.7257 42.3761C17.3075 40.4827 16.351 38.2854 15.932 35.9585C15.513 33.6317 15.6431 31.2395 16.3121 28.9716L17.5931 29.3518C16.8858 31.7531 16.8425 34.3007 17.4679 36.7246C18.0933 39.1484 19.364 41.3582 21.1455 43.1198C22.9269 44.8813 25.1527 46.1289 27.5868 46.7303C30.021 47.3318 32.5728 47.2647 34.9718 46.5361L35.3633 47.8201C33.9239 48.2566 32.4278 48.4788 30.9234 48.4794Z" fill="white"/>
<path d="M37.6432 46.9216L37.0493 45.7173C38.5328 44.986 39.8732 43.9956 41.0071 42.793L41.9845 43.7155C40.74 45.0334 39.2698 46.1191 37.6432 46.9216Z" fill="white"/>
<path d="M14.5116 28.6898H14.4263C13.9808 28.6891 13.5538 28.5121 13.2387 28.1977C12.9237 27.8832 12.7464 27.457 12.7457 27.0123V21.0786C12.7643 20.6656 12.8685 20.261 13.0519 19.8903C13.2353 19.5196 13.4938 19.191 13.8111 18.9253C22.4059 12.638 22.9332 12.638 23.1862 12.638H38.5194C38.7698 12.638 39.2918 12.638 48.0117 18.9173C48.3331 19.1829 48.5943 19.5137 48.778 19.8877C48.9616 20.2617 49.0636 20.6703 49.0771 21.0866V27.007C49.0776 27.2283 49.0341 27.4476 48.9491 27.6521C48.864 27.8565 48.7392 28.0421 48.5817 28.198C48.2613 28.5054 47.8356 28.6793 47.3912 28.6845L47.2287 28.6632L39.3344 26.6507C38.9038 26.629 38.498 26.4431 38.2007 26.1315C37.9034 25.8199 37.7372 25.4062 37.7364 24.9759L37.7657 24.7872C38.032 23.9205 38.0799 22.881 37.8855 22.6896C35.4672 20.297 26.3157 20.297 23.8974 22.6737C23.7003 22.8678 23.7615 23.9125 24.0172 24.8005L24.0465 24.9892C24.0464 25.42 23.8805 25.8343 23.5831 26.1465C23.2857 26.4586 22.8795 26.6449 22.4485 26.6667L14.5116 28.6898ZM23.2848 13.9805C22.4645 14.358 17.7689 17.6891 14.6101 19.9966C14.3035 20.2783 14.1135 20.6642 14.0774 21.0786V27.0123C14.0775 27.0893 14.1039 27.164 14.1524 27.224C14.2008 27.2839 14.2684 27.3256 14.3438 27.3419L22.3872 25.3162C22.4762 25.3161 22.5614 25.2807 22.6243 25.2178C22.6705 25.1708 22.7028 25.1119 22.7175 25.0477C22.5231 24.3485 22.1342 22.5461 22.9838 21.7193C25.8763 18.8747 35.9652 18.8827 38.8603 21.7379C39.6966 22.562 39.3104 24.3512 39.1267 25.0477C39.1431 25.123 39.1848 25.1904 39.2448 25.2387C39.3049 25.2871 39.3797 25.3135 39.4569 25.3135L39.622 25.3348L47.4764 27.3393C47.5422 27.3281 47.6028 27.2965 47.6495 27.2489C47.681 27.2175 47.706 27.1802 47.7229 27.1391C47.7398 27.0981 47.7484 27.054 47.7481 27.0096V21.0866C47.7202 20.6669 47.529 20.2748 47.2154 19.994C43.4866 17.3089 39.2012 14.3341 38.4262 13.9805H23.2848Z" fill="white"/>
<path d="M13.255 24.8345L22.9886 22.4393L23.3107 23.7424L13.5767 26.1377L13.255 24.8345Z" fill="white"/>
<path d="M38.5114 23.9296L38.8337 22.6262L48.5817 25.0286L48.2594 26.3321L38.5114 23.9296Z" fill="white"/>
<path d="M25.5594 32.736C25.669 32.5947 25.7314 32.4227 25.7378 32.2442C25.74 32.1712 25.7274 32.0985 25.7009 32.0305C25.6743 31.9624 25.6344 31.9004 25.5833 31.848C25.5312 31.7949 25.4685 31.7532 25.3992 31.7257C25.3299 31.6982 25.2556 31.6856 25.1812 31.6885C24.8829 31.6885 24.6005 31.9012 24.3342 32.3266L23.4872 31.8241C23.6736 31.5175 23.9211 31.2523 24.2144 31.0452C24.5178 30.8584 24.8701 30.7658 25.2264 30.7793C25.6212 30.7743 26.0044 30.9122 26.3051 31.1675C26.4583 31.298 26.5799 31.4615 26.6606 31.6457C26.7413 31.8299 26.7791 32.03 26.7712 32.2309C26.77 32.4768 26.7058 32.7184 26.5848 32.9327C26.3905 33.2482 26.1589 33.5391 25.895 33.7994L25.0507 34.6766H26.915V35.6231H23.5671V34.8255L24.9574 33.4032C25.1743 33.196 25.3755 32.9729 25.5594 32.736ZM29.4293 33.5787V32.7519H30.4467V33.5787H30.9794V34.4932H30.4467V35.6231H29.4293V34.4932H27.5223V33.6957L29.2135 30.899H30.3774L28.7794 33.5867L29.4293 33.5787ZM34.2953 30.1732H35.2595L32.4096 36.3834H31.4428L34.2953 30.1732ZM35.7522 32.4063V30.891H39.18V31.6885L37.2597 35.6231H36.1064L37.9388 31.7975H36.743V32.4063H35.7522Z" fill="white"/>
</g>
<defs>
<linearGradient id="paint0_linear_1_903" x1="49.219" y1="16" x2="11.219" y2="53" gradientUnits="userSpaceOnUse">
<stop stop-color="#FF6D3E"/>
<stop offset="1" stop-color="#F13B3B"/>
</linearGradient>
<linearGradient id="paint1_linear_1_903" x1="46.4065" y1="18.4603" x2="14.4382" y2="49.5873" gradientUnits="userSpaceOnUse">
<stop stop-color="#FF6D3E"/>
<stop offset="1" stop-color="#F13B3B"/>
</linearGradient>
<clipPath id="clip0_1_903">
<rect width="39" height="38" fill="white" transform="translate(12 12)"/>
</clipPath>
</defs>
</svg>
