<svg width="64" height="63" viewBox="0 0 64 63" fill="none" xmlns="http://www.w3.org/2000/svg">
<circle cx="32.281" cy="31.4999" r="31.5" fill="url(#paint0_linear_1_874)"/>
<path d="M32.281 58.7499C47.3308 58.7499 59.531 46.5497 59.531 31.4999C59.531 16.4502 47.3308 4.24994 32.281 4.24994C17.2312 4.24994 5.03101 16.4502 5.03101 31.4999C5.03101 46.5497 17.2312 58.7499 32.281 58.7499Z" fill="url(#paint1_linear_1_874)" stroke="white" stroke-width="1.5"/>
<g clip-path="url(#clip0_1_874)">
<path d="M47.6057 19.0166C47.6062 19.1632 47.5633 19.3068 47.4824 19.4291C47.4015 19.5514 47.2861 19.647 47.1509 19.7038C47.0157 19.7607 46.8667 19.7762 46.7227 19.7485C46.5787 19.7208 46.4461 19.6511 46.3417 19.5481C46.2372 19.4452 46.1656 19.3136 46.1358 19.17C46.1061 19.0264 46.1195 18.8772 46.1744 18.7412C46.2293 18.6052 46.3232 18.4885 46.4443 18.4058C46.5654 18.3232 46.7083 18.2782 46.855 18.2766C46.953 18.2755 47.0502 18.2939 47.1411 18.3305C47.2319 18.3672 47.3146 18.4215 47.3844 18.4903C47.4542 18.5591 47.5097 18.641 47.5477 18.7313C47.5856 18.8217 47.6054 18.9186 47.6057 19.0166Z" fill="white"/>
<path d="M34.0605 15.4855C34.0605 15.6028 34.1072 15.7153 34.1901 15.7983C34.2731 15.8813 34.3856 15.9279 34.5029 15.9279C34.6203 15.9279 34.7328 15.8813 34.8158 15.7983C34.8987 15.7153 34.9453 15.6028 34.9453 15.4855C34.9453 15.3682 34.8987 15.2556 34.8158 15.1727C34.7328 15.0897 34.6203 15.0431 34.5029 15.0431C34.3856 15.0431 34.2731 15.0897 34.1901 15.1727C34.1072 15.2556 34.0605 15.3682 34.0605 15.4855Z" fill="white"/>
<path d="M43.1014 13.2628C43.1014 13.4829 43.0361 13.698 42.9139 13.881C42.7916 14.064 42.6178 14.2066 42.4145 14.2908C42.2112 14.375 41.9875 14.3971 41.7716 14.3541C41.5558 14.3112 41.3575 14.2052 41.2019 14.0496C41.0463 13.894 40.9403 13.6957 40.8974 13.4799C40.8545 13.2641 40.8765 13.0403 40.9607 12.837C41.0449 12.6337 41.1876 12.4599 41.3705 12.3377C41.5535 12.2154 41.7686 12.1501 41.9887 12.1501C42.2838 12.1501 42.5668 12.2674 42.7755 12.476C42.9842 12.6847 43.1014 12.9677 43.1014 13.2628ZM39.8036 19.6091C39.8036 19.7263 39.7688 19.8409 39.7037 19.9383C39.6386 20.0358 39.5461 20.1117 39.4378 20.1565C39.3295 20.2014 39.2104 20.2131 39.0954 20.1903C38.9805 20.1674 38.8749 20.111 38.792 20.0281C38.7092 19.9452 38.6527 19.8397 38.6299 19.7247C38.607 19.6098 38.6188 19.4906 38.6636 19.3824C38.7085 19.2741 38.7844 19.1816 38.8818 19.1164C38.9793 19.0513 39.0938 19.0166 39.211 19.0166C39.3682 19.0166 39.5189 19.079 39.63 19.1901C39.7411 19.3013 39.8036 19.452 39.8036 19.6091Z" fill="white"/>
<path d="M43.3534 44.9969H44.6297V46.2651H43.3534V44.9969Z" fill="white"/>
<path d="M32.3821 44.9969H36.8784V46.2651H32.3821V44.9969Z" fill="white"/>
<path d="M25.95 46.2678H24.5183L18.6814 28.0092L12.3137 27.5266L12.4075 26.261L19.6306 26.808L25.446 44.997H25.95V46.2678Z" fill="white"/>
<path d="M20.4161 30.2533H48.4288V31.5215H20.4161V30.2533Z" fill="white"/>
<path d="M21.4028 33.401H46.863V34.6692H21.4028V33.401Z" fill="white"/>
<path d="M22.124 36.5486H46.1418V37.8168H22.124V36.5486Z" fill="white"/>
<path d="M31.4866 45.6324C31.4866 46.0789 31.3542 46.5154 31.1062 46.8866C30.8581 47.2579 30.5055 47.5472 30.093 47.7181C29.6805 47.889 29.2266 47.9337 28.7887 47.8466C28.3507 47.7595 27.9485 47.5444 27.6328 47.2287C27.3171 46.913 27.102 46.5108 27.0149 46.0728C26.9278 45.6349 26.9725 45.181 27.1434 44.7685C27.3143 44.356 27.6036 44.0034 27.9749 43.7553C28.3461 43.5073 28.7826 43.3749 29.2291 43.3749C29.8278 43.3749 30.402 43.6127 30.8254 44.0361C31.2488 44.4595 31.4866 45.0337 31.4866 45.6324ZM42.297 45.6324C42.297 46.0789 42.1646 46.5154 41.9166 46.8866C41.6685 47.2579 41.3159 47.5472 40.9034 47.7181C40.4909 47.889 40.037 47.9337 39.5991 47.8466C39.1612 47.7595 38.7589 47.5444 38.4432 47.2287C38.1275 46.913 37.9125 46.5108 37.8253 46.0728C37.7382 45.6349 37.7829 45.181 37.9538 44.7685C38.1247 44.356 38.414 44.0034 38.7853 43.7553C39.1565 43.5073 39.593 43.3749 40.0395 43.3749C40.6382 43.3749 41.2125 43.6127 41.6358 44.0361C42.0592 44.4595 42.297 45.0337 42.297 45.6324Z" fill="white"/>
<path d="M29.2291 48.5361C28.6576 48.5382 28.0983 48.3708 27.6218 48.0551C27.1454 47.7394 26.7733 47.2896 26.5525 46.7624C26.3317 46.2352 26.2722 45.6545 26.3814 45.0935C26.4906 44.5325 26.7637 44.0165 27.1662 43.6106C27.5686 43.2048 28.0823 42.9274 28.6424 42.8135C29.2024 42.6996 29.7837 42.7543 30.3127 42.9707C30.8417 43.1871 31.2946 43.5555 31.6143 44.0292C31.934 44.503 32.106 45.0609 32.1087 45.6324C32.1115 46.3992 31.8098 47.1358 31.2699 47.6803C30.7299 48.2247 29.9959 48.5326 29.2291 48.5361ZM29.2291 44.0237C28.9072 44.0211 28.5917 44.1143 28.3229 44.2915C28.0541 44.4687 27.8441 44.7219 27.7197 45.0189C27.5953 45.3158 27.562 45.643 27.6242 45.9589C27.6863 46.2748 27.8411 46.5651 28.0688 46.7928C28.2964 47.0204 28.5867 47.1752 28.9026 47.2373C29.2185 47.2995 29.5457 47.2663 29.8427 47.1418C30.1396 47.0174 30.3928 46.8074 30.57 46.5386C30.7472 46.2698 30.8404 45.9544 30.8378 45.6324C30.8378 45.2045 30.6688 44.794 30.3674 44.4901C30.0661 44.1863 29.657 44.0139 29.2291 44.0103V44.0237Z" fill="white"/>
<path d="M40.0368 48.5361C39.4652 48.5361 38.9064 48.3666 38.4311 48.049C37.9558 47.7314 37.5853 47.28 37.3666 46.7519C37.1478 46.2238 37.0906 45.6426 37.2021 45.082C37.3136 44.5213 37.5889 44.0063 37.9931 43.6021C38.3973 43.1979 38.9123 42.9226 39.473 42.8111C40.0336 42.6996 40.6148 42.7568 41.1429 42.9756C41.671 43.1943 42.1224 43.5648 42.44 44.0401C42.7576 44.5154 42.9271 45.0742 42.9271 45.6458C42.9271 46.4124 42.6226 47.1475 42.0806 47.6896C41.5385 48.2316 40.8034 48.5361 40.0368 48.5361ZM40.0368 44.0237C39.7154 44.0238 39.4013 44.1192 39.1343 44.2981C38.8672 44.4769 38.6593 44.731 38.537 45.0282C38.4146 45.3254 38.3833 45.6522 38.447 45.9673C38.5106 46.2823 38.6665 46.5713 38.8947 46.7976C39.1229 47.0239 39.4131 47.1773 39.7287 47.2384C40.0442 47.2995 40.3708 47.2654 40.6669 47.1406C40.9631 47.0157 41.2155 46.8058 41.3921 46.5372C41.5687 46.2687 41.6616 45.9538 41.6589 45.6324C41.6589 45.2022 41.488 44.7896 41.1838 44.4854C40.8796 44.1812 40.467 44.0103 40.0368 44.0103V44.0237Z" fill="white"/>
<path d="M45.4903 41.2165H23.4459V39.9457H44.5626L48.0696 28.9851L49.2788 29.3712L45.4903 41.2165Z" fill="white"/>
<path d="M28.4033 44.9969H30.0549V46.2651H28.4033V44.9969Z" fill="white"/>
<path d="M39.211 44.9969H40.8626V46.2651H39.211V44.9969Z" fill="white"/>
<path d="M32.3768 29.5187H21.4859V17.9227C21.4859 17.5934 21.6162 17.2775 21.8482 17.044C22.0803 16.8104 22.3954 16.6781 22.7246 16.676H31.1274C31.2913 16.6756 31.4537 16.7076 31.6053 16.7701C31.7569 16.8326 31.8946 16.9244 32.0107 17.0402C32.1267 17.156 32.2188 17.2935 32.2816 17.445C32.3444 17.5964 32.3768 17.7588 32.3768 17.9227V29.5187Z" fill="white"/>
<path d="M22.1187 29.5187H20.8478V17.9227C20.8478 17.6762 20.8964 17.4322 20.9907 17.2045C21.085 16.9768 21.2232 16.7699 21.3975 16.5956C21.7495 16.2436 22.2269 16.0459 22.7246 16.0459H31.1274C31.3738 16.0459 31.6179 16.0944 31.8456 16.1888C32.0733 16.2831 32.2802 16.4213 32.4545 16.5956C32.6287 16.7699 32.767 16.9768 32.8613 17.2045C32.9556 17.4322 33.0042 17.6762 33.0042 17.9227V21.0543H31.7387V17.9227C31.7387 17.7606 31.6743 17.6051 31.5596 17.4905C31.445 17.3758 31.2895 17.3114 31.1274 17.3114H22.7246C22.5625 17.3114 22.407 17.3758 22.2924 17.4905C22.1777 17.6051 22.1133 17.7606 22.1133 17.9227L22.1187 29.5187Z" fill="white"/>
<path d="M32.0416 22.6013H44.6725C45.0032 22.6013 45.3203 22.7327 45.5541 22.9665C45.7879 23.2003 45.9193 23.5174 45.9193 23.8481V29.5187H30.7949V23.8454C30.7956 23.5152 30.9273 23.1988 31.161 22.9655C31.3947 22.7323 31.7114 22.6013 32.0416 22.6013Z" fill="white"/>
<path d="M46.552 29.5187H45.2812V23.8454C45.2805 23.6835 45.2158 23.5284 45.1013 23.4139C44.9869 23.2994 44.8318 23.2348 44.6699 23.2341H32.0416C31.8797 23.2348 31.7246 23.2994 31.6101 23.4139C31.4957 23.5284 31.431 23.6835 31.4303 23.8454V29.5187H30.1595V23.8454C30.1595 23.5989 30.208 23.3549 30.3023 23.1272C30.3966 22.8994 30.5349 22.6925 30.7092 22.5183C30.8834 22.344 31.0903 22.2057 31.318 22.1114C31.5457 22.0171 31.7898 21.9686 32.0363 21.9686H44.6645C44.911 21.9686 45.155 22.0171 45.3827 22.1114C45.6104 22.2057 45.8173 22.344 45.9916 22.5183C46.1659 22.6925 46.3041 22.8994 46.3984 23.1272C46.4928 23.3549 46.5413 23.5989 46.5413 23.8454L46.552 29.5187Z" fill="white"/>
<path d="M32.2508 24.8776H37.0098V26.1457H32.2508V24.8776Z" fill="white"/>
<path d="M32.2508 27.4166H34.6289V28.6848H32.2508V27.4166Z" fill="white"/>
</g>
<defs>
<linearGradient id="paint0_linear_1_874" x1="50" y1="15.9999" x2="12" y2="52.9999" gradientUnits="userSpaceOnUse">
<stop stop-color="#FF6D3E"/>
<stop offset="1" stop-color="#F13B3B"/>
</linearGradient>
<linearGradient id="paint1_linear_1_874" x1="47.1875" y1="18.4603" x2="15.2192" y2="49.5872" gradientUnits="userSpaceOnUse">
<stop stop-color="#FF6D3E"/>
<stop offset="1" stop-color="#F13B3B"/>
</linearGradient>
<clipPath id="clip0_1_874">
<rect width="38" height="38" fill="white" transform="translate(12 10.9999)"/>
</clipPath>
</defs>
</svg>
