<svg width="63" height="63" viewBox="0 0 63 63" fill="none" xmlns="http://www.w3.org/2000/svg">
<circle cx="31.5" cy="31.5" r="31.5" fill="url(#paint0_linear_1_935)"/>
<path d="M31.5 58.75C46.5498 58.75 58.75 46.5498 58.75 31.5C58.75 16.4502 46.5498 4.25 31.5 4.25C16.4502 4.25 4.25 16.4502 4.25 31.5C4.25 46.5498 16.4502 58.75 31.5 58.75Z" fill="url(#paint1_linear_1_935)" stroke="white" stroke-width="1.5"/>
<path d="M19.6886 16.969H16.2513C16.1811 16.9712 16.1112 16.9588 16.0457 16.9326C15.9802 16.9064 15.9205 16.8669 15.8701 16.8164C15.8197 16.7659 15.7796 16.7055 15.7522 16.6387C15.7249 16.5719 15.7108 16.5001 15.7108 16.4276C15.7108 16.3551 15.7249 16.2833 15.7522 16.2165C15.7796 16.1498 15.8197 16.0893 15.8701 16.0388C15.9205 15.9884 15.9802 15.9488 16.0457 15.9226C16.1112 15.8964 16.1811 15.884 16.2513 15.8862H19.6886C19.7588 15.884 19.8287 15.8964 19.8942 15.9226C19.9597 15.9488 20.0194 15.9884 20.0698 16.0388C20.1202 16.0893 20.1603 16.1498 20.1876 16.2165C20.215 16.2833 20.2291 16.3551 20.2291 16.4276C20.2291 16.5001 20.215 16.5719 20.1876 16.6387C20.1603 16.7055 20.1202 16.7659 20.0698 16.8164C20.0194 16.8669 19.9597 16.9064 19.8942 16.9326C19.8287 16.9588 19.7588 16.9712 19.6886 16.969Z" fill="white"/>
<path d="M17.9702 18.7439C17.8311 18.7439 17.6976 18.6868 17.5993 18.5853C17.5009 18.4837 17.4456 18.3459 17.4456 18.2023V14.6525C17.4498 14.5118 17.5068 14.3783 17.6047 14.2802C17.7026 14.1822 17.8336 14.1274 17.9699 14.1274C18.1063 14.1274 18.2373 14.1822 18.3352 14.2802C18.433 14.3783 18.4901 14.5118 18.4943 14.6525V18.2023C18.4943 18.3458 18.4391 18.4835 18.3408 18.5851C18.2425 18.6867 18.1092 18.7438 17.9702 18.7439ZM48.4752 46.6378H45.0379C44.8988 46.6378 44.7654 46.5807 44.667 46.4791C44.5686 46.3775 44.5134 46.2398 44.5134 46.0961C44.5134 45.9525 44.5686 45.8147 44.667 45.7131C44.7654 45.6115 44.8988 45.5545 45.0379 45.5545H48.4752C48.6144 45.5545 48.7478 45.6115 48.8462 45.7131C48.9445 45.8147 48.9998 45.9525 48.9998 46.0961C48.9998 46.2398 48.9445 46.3775 48.8462 46.4791C48.7478 46.5807 48.6144 46.6378 48.4752 46.6378Z" fill="white"/>
<path d="M46.7563 48.4121C46.6173 48.4121 46.484 48.3551 46.3857 48.2536C46.2875 48.1521 46.2322 48.0145 46.2322 47.8709V44.3212C46.2364 44.1805 46.2935 44.0469 46.3913 43.9489C46.4892 43.8509 46.6202 43.796 46.7566 43.796C46.8929 43.796 47.0239 43.8509 47.1218 43.9489C47.2197 44.0469 47.2767 44.1805 47.2809 44.3212V47.8709C47.2809 47.942 47.2673 48.0124 47.2409 48.0781C47.2146 48.1438 47.1759 48.2035 47.1272 48.2537C47.0785 48.304 47.0207 48.3439 46.957 48.371C46.8934 48.3982 46.8252 48.4121 46.7563 48.4121ZM23.0025 16.4509C22.7509 16.4509 22.5049 16.3738 22.2957 16.2295C22.0864 16.0851 21.9234 15.8798 21.8272 15.6397C21.7309 15.3996 21.7058 15.1355 21.755 14.8806C21.8042 14.6258 21.9255 14.3918 22.1036 14.2081C22.2816 14.0245 22.5084 13.8995 22.7553 13.849C23.0021 13.7985 23.2579 13.8247 23.4903 13.9244C23.7227 14.024 23.9213 14.1926 24.0609 14.4088C24.2005 14.625 24.2749 14.8791 24.2746 15.139C24.2741 15.487 24.1398 15.8206 23.9014 16.0666C23.6629 16.3126 23.3396 16.4508 23.0025 16.4509ZM23.0025 14.6369C22.9065 14.6369 22.8126 14.6663 22.7327 14.7215C22.6528 14.7766 22.5906 14.8549 22.5538 14.9465C22.517 15.0382 22.5074 15.139 22.5262 15.2363C22.5449 15.3336 22.5912 15.4229 22.6591 15.4931C22.727 15.5632 22.8136 15.611 22.9078 15.6303C23.002 15.6497 23.0996 15.6397 23.1884 15.6018C23.2771 15.5638 23.353 15.4996 23.4064 15.4171C23.4597 15.3346 23.4882 15.2376 23.4882 15.1385C23.4881 15.0055 23.4369 14.8781 23.3458 14.7841C23.2547 14.6902 23.1313 14.6374 23.0025 14.6374V14.6369ZM15.0467 33.1459C14.7951 33.146 14.5491 33.069 14.3398 32.9248C14.1306 32.7805 13.9674 32.5753 13.8711 32.3353C13.7748 32.0953 13.7495 31.8311 13.7986 31.5763C13.8477 31.3215 13.9688 31.0874 14.1467 30.9037C14.3247 30.7199 14.5514 30.5948 14.7982 30.5442C15.045 30.4935 15.3008 30.5196 15.5332 30.619C15.7657 30.7185 15.9644 30.8869 16.1041 31.103C16.2438 31.3191 16.3184 31.5731 16.3183 31.8329C16.3178 32.181 16.1836 32.5146 15.9453 32.7608C15.7069 33.0069 15.3838 33.1454 15.0467 33.1459ZM15.0467 31.3319C14.9506 31.3319 14.8567 31.3613 14.7769 31.4164C14.697 31.4715 14.6347 31.5499 14.598 31.6415C14.5612 31.7332 14.5516 31.834 14.5703 31.9313C14.5891 32.0286 14.6353 32.1179 14.7033 32.1881C14.7712 32.2582 14.8577 32.306 14.952 32.3253C15.0462 32.3447 15.1438 32.3347 15.2326 32.2968C15.3213 32.2588 15.3972 32.1945 15.4506 32.1121C15.5039 32.0296 15.5324 31.9326 15.5324 31.8334C15.5324 31.7004 15.4812 31.5729 15.3902 31.4788C15.2991 31.3848 15.1755 31.3319 15.0467 31.3319ZM47.635 22.4706C47.3835 22.4705 47.1377 22.3934 46.9287 22.2491C46.7197 22.1048 46.5568 21.8998 46.4606 21.6599C46.3644 21.42 46.3392 21.156 46.3883 20.9014C46.4374 20.6467 46.5585 20.4128 46.7363 20.2292C46.9141 20.0457 47.1406 19.9206 47.3872 19.8699C47.6339 19.8193 47.8895 19.8452 48.1218 19.9445C48.3542 20.0438 48.5527 20.2121 48.6925 20.4279C48.8323 20.6437 48.9069 20.8975 48.907 21.1571C48.9069 21.5055 48.7728 21.8395 48.5343 22.0858C48.2958 22.3321 47.9723 22.4705 47.635 22.4706ZM47.635 20.6566C47.5389 20.6566 47.445 20.686 47.3651 20.7412C47.2852 20.7963 47.223 20.8746 47.1862 20.9662C47.1495 21.0579 47.1398 21.1587 47.1586 21.256C47.1773 21.3533 47.2236 21.4426 47.2915 21.5128C47.3594 21.5829 47.446 21.6307 47.5402 21.65C47.6344 21.6694 47.7321 21.6595 47.8208 21.6215C47.9096 21.5835 47.9854 21.5193 48.0388 21.4368C48.0922 21.3543 48.1207 21.2573 48.1207 21.1582C48.1208 21.0922 48.1083 21.0269 48.084 20.9659C48.0596 20.905 48.0239 20.8496 47.9787 20.8029C47.9336 20.7562 47.88 20.7192 47.821 20.6939C47.7621 20.6686 47.6988 20.6556 47.635 20.6556V20.6566ZM26.2349 29.8068C25.6452 29.8068 25.0689 29.6263 24.5786 29.288C24.0883 28.9498 23.7062 28.469 23.4806 27.9065C23.2549 27.344 23.1959 26.7251 23.3109 26.1279C23.426 25.5308 23.7099 24.9823 24.1268 24.5518C24.5438 24.1213 25.075 23.8281 25.6533 23.7093C26.2316 23.5906 26.831 23.6515 27.3758 23.8845C27.9205 24.1175 28.3861 24.5121 28.7137 25.0183C29.0413 25.5245 29.2161 26.1197 29.2161 26.7285C29.2154 27.5447 28.901 28.3272 28.3421 28.9043C27.7832 29.4814 27.0253 29.806 26.2349 29.8068ZM26.2349 24.733C25.8526 24.733 25.479 24.85 25.1612 25.0693C24.8434 25.2885 24.5957 25.6002 24.4494 25.9648C24.3031 26.3295 24.2648 26.7307 24.3394 27.1178C24.414 27.5049 24.598 27.8605 24.8683 28.1396C25.1386 28.4186 25.483 28.6087 25.8578 28.6857C26.2327 28.7627 26.6213 28.7232 26.9745 28.5721C27.3276 28.4211 27.6294 28.1653 27.8418 27.8372C28.0541 27.509 28.1675 27.1232 28.1675 26.7285C28.1669 26.1995 27.963 25.6923 27.6007 25.3182C27.2384 24.9441 26.7472 24.7336 26.2349 24.733Z" fill="white"/>
<path d="M19.5992 25.6402C19.4601 25.6402 19.3267 25.5831 19.2283 25.4816C19.1299 25.38 19.0746 25.2422 19.0746 25.0986V20.1877C19.0753 19.6357 19.288 19.1064 19.666 18.716C20.0441 18.3257 20.5566 18.1061 21.0913 18.1054H24.6491C24.7854 18.1097 24.9147 18.1686 25.0096 18.2697C25.1046 18.3707 25.1577 18.506 25.1577 18.6468C25.1577 18.7876 25.1046 18.9229 25.0096 19.0239C24.9147 19.125 24.7854 19.1839 24.6491 19.1882H21.0913C20.8347 19.1885 20.5887 19.2939 20.4073 19.4813C20.2259 19.6687 20.1239 19.9227 20.1238 20.1877V25.0986C20.1238 25.2422 20.0685 25.38 19.9701 25.4816C19.8718 25.5831 19.7383 25.6402 19.5992 25.6402ZM24.6491 44.8628H21.0913C20.5566 44.8622 20.0441 44.6426 19.666 44.2522C19.288 43.8618 19.0753 43.3326 19.0746 42.7805V32.1815C19.0746 32.0378 19.1299 31.9001 19.2283 31.7985C19.3267 31.6969 19.4601 31.6398 19.5992 31.6398C19.7383 31.6398 19.8718 31.6969 19.9701 31.7985C20.0685 31.9001 20.1238 32.0378 20.1238 32.1815V42.7805C20.1239 43.0455 20.2259 43.2996 20.4073 43.487C20.5887 43.6744 20.8347 43.7798 21.0913 43.7801H24.6491C24.7854 43.7843 24.9147 43.8433 25.0096 43.9443C25.1046 44.0454 25.1577 44.1806 25.1577 44.3214C25.1577 44.4622 25.1046 44.5975 25.0096 44.6986C24.9147 44.7996 24.7854 44.8585 24.6491 44.8628ZM42.9717 44.8628H27.8207C27.7505 44.865 27.6806 44.8527 27.6151 44.8264C27.5496 44.8002 27.4899 44.7607 27.4395 44.7102C27.3891 44.6597 27.349 44.5993 27.3217 44.5325C27.2943 44.4657 27.2802 44.394 27.2802 44.3214C27.2802 44.2489 27.2943 44.1771 27.3217 44.1104C27.349 44.0436 27.3891 43.9832 27.4395 43.9327C27.4899 43.8822 27.5496 43.8426 27.6151 43.8164C27.6806 43.7902 27.7505 43.7778 27.8207 43.7801H42.9717C43.2282 43.7791 43.4739 43.6735 43.6552 43.4863C43.8366 43.299 43.9388 43.0453 43.9397 42.7805V28.4206C43.9376 28.3481 43.9496 28.2759 43.975 28.2083C44.0003 28.1407 44.0386 28.0791 44.0875 28.027C44.1364 27.975 44.1949 27.9336 44.2596 27.9053C44.3243 27.8771 44.3938 27.8625 44.464 27.8625C44.5343 27.8625 44.6038 27.8771 44.6685 27.9053C44.7331 27.9336 44.7917 27.975 44.8406 28.027C44.8895 28.0791 44.9277 28.1407 44.9531 28.2083C44.9785 28.2759 44.9905 28.3481 44.9884 28.4206V42.7805C44.9877 43.3326 44.775 43.8618 44.397 44.2522C44.0189 44.6426 43.5064 44.8622 42.9717 44.8628ZM44.4623 25.6402C44.3934 25.6403 44.3252 25.6263 44.2615 25.5991C44.1979 25.5719 44.14 25.532 44.0913 25.4817C44.0426 25.4314 44.0039 25.3717 43.9776 25.3059C43.9512 25.2402 43.9377 25.1697 43.9378 25.0986V20.1877C43.9369 19.9229 43.8346 19.6692 43.6533 19.482C43.4719 19.2947 43.2262 19.1891 42.9698 19.1882H30.3357C30.2655 19.1904 30.1956 19.178 30.1301 19.1518C30.0646 19.1256 30.0049 19.0861 29.9545 19.0356C29.9041 18.9851 29.864 18.9247 29.8366 18.8579C29.8093 18.7911 29.7951 18.7193 29.7951 18.6468C29.7951 18.5743 29.8093 18.5025 29.8366 18.4357C29.864 18.3689 29.9041 18.3085 29.9545 18.258C30.0049 18.2075 30.0646 18.168 30.1301 18.1418C30.1956 18.1156 30.2655 18.1032 30.3357 18.1054H42.9717C43.5064 18.1061 44.0189 18.3257 44.397 18.716C44.775 19.1064 44.9877 19.6357 44.9884 20.1877V25.0986C44.9884 25.1698 44.9748 25.2404 44.9484 25.3063C44.922 25.3721 44.8832 25.4319 44.8343 25.4822C44.7855 25.5326 44.7274 25.5724 44.6636 25.5995C44.5998 25.6266 44.5314 25.6405 44.4623 25.6402Z" fill="white"/>
<path d="M24.6034 25.3739C24.4643 25.3738 24.331 25.3166 24.2326 25.2151C24.1343 25.1136 24.079 24.9759 24.0789 24.8322V19.0177C24.0801 18.4677 24.2925 17.9407 24.6694 17.552C25.0463 17.1634 25.557 16.9449 26.0897 16.9444H26.3811C26.9141 16.9449 27.4251 17.1638 27.802 17.553C28.1789 17.9421 28.3909 18.4698 28.3914 19.0202C28.3935 19.0927 28.3816 19.1648 28.3562 19.2325C28.3308 19.3001 28.2925 19.3617 28.2436 19.4138C28.1947 19.4658 28.1362 19.5072 28.0715 19.5355C28.0068 19.5637 27.9373 19.5783 27.8671 19.5783C27.7969 19.5783 27.7273 19.5637 27.6627 19.5355C27.598 19.5072 27.5395 19.4658 27.4906 19.4138C27.4417 19.3617 27.4034 19.3001 27.378 19.2325C27.3526 19.1648 27.3406 19.0927 27.3428 19.0202C27.3424 18.7569 27.2409 18.5046 27.0607 18.3185C26.8804 18.1323 26.636 18.0276 26.3811 18.0272H26.0897C25.8347 18.0276 25.5903 18.1323 25.4101 18.3185C25.2298 18.5046 25.1284 18.7569 25.128 19.0202V24.8322C25.1278 24.9759 25.0725 25.1136 24.9742 25.2151C24.8758 25.3166 24.7425 25.3738 24.6034 25.3739ZM26.3801 46.0263H26.0887C25.5556 46.0258 25.0445 45.807 24.6676 45.4178C24.2906 45.0287 24.0785 44.501 24.0779 43.9506V34.4032C24.0779 34.2595 24.1331 34.1218 24.2315 34.0202C24.3299 33.9186 24.4633 33.8616 24.6024 33.8616C24.7416 33.8616 24.875 33.9186 24.9734 34.0202C25.0717 34.1218 25.127 34.2595 25.127 34.4032V43.9506C25.1273 44.2138 25.2287 44.4663 25.409 44.6524C25.5893 44.8386 25.8337 44.9433 26.0887 44.9436H26.3801C26.6351 44.9433 26.8796 44.8386 27.0598 44.6524C27.2401 44.4663 27.3415 44.2138 27.3418 43.9506V28.6237C27.346 28.483 27.403 28.3494 27.5009 28.2514C27.5988 28.1534 27.7298 28.0986 27.8661 28.0986C28.0025 28.0986 28.1335 28.1534 28.2314 28.2514C28.3292 28.3494 28.3863 28.483 28.3904 28.6237V43.9506C28.3899 44.5009 28.178 45.0286 27.8011 45.4178C27.4242 45.8069 26.9131 46.0258 26.3801 46.0263Z" fill="white"/>
<path d="M44.1049 28.9623H28.0645C27.9254 28.9623 27.792 28.9052 27.6936 28.8036C27.5952 28.702 27.54 28.5643 27.54 28.4206C27.54 28.277 27.5952 28.1392 27.6936 28.0376C27.792 27.936 27.9254 27.879 28.0645 27.879H44.1049C44.3599 27.8787 44.6043 27.774 44.7846 27.5878C44.9649 27.4017 45.0663 27.1493 45.0666 26.886V26.5851C45.0663 26.3218 44.9649 26.0694 44.7846 25.8832C44.6043 25.697 44.3599 25.5923 44.1049 25.5921H33.6623C33.5921 25.5943 33.5222 25.5819 33.4567 25.5557C33.3912 25.5295 33.3315 25.4899 33.2811 25.4394C33.2307 25.389 33.1906 25.3285 33.1632 25.2617C33.1358 25.195 33.1217 25.1232 33.1217 25.0507C33.1217 24.9782 33.1358 24.9064 33.1632 24.8396C33.1906 24.7728 33.2307 24.7124 33.2811 24.6619C33.3315 24.6114 33.3912 24.5719 33.4567 24.5457C33.5222 24.5194 33.5921 24.5071 33.6623 24.5093H44.1049C44.6378 24.5103 45.1485 24.7296 45.5251 25.1189C45.9017 25.5082 46.1134 26.0358 46.1137 26.5861V26.887C46.113 27.437 45.9011 27.9642 45.5246 28.3532C45.148 28.7422 44.6375 28.9612 44.1049 28.9623ZM19.2655 28.7857C19.1809 28.7855 19.0975 28.764 19.0227 28.723C18.6985 28.5471 18.427 28.2829 18.2378 27.9591C18.0486 27.6353 17.9488 27.2642 17.9493 26.886V26.5851C17.9499 26.0347 18.1619 25.5071 18.5388 25.118C18.9157 24.7289 19.4266 24.5099 19.9596 24.5093H24.3941C24.4643 24.5071 24.5342 24.5194 24.5997 24.5457C24.6651 24.5719 24.7249 24.6114 24.7753 24.6619C24.8257 24.7124 24.8658 24.7728 24.8931 24.8396C24.9205 24.9064 24.9346 24.9782 24.9346 25.0507C24.9346 25.1232 24.9205 25.195 24.8931 25.2617C24.8658 25.3285 24.8257 25.389 24.7753 25.4394C24.7249 25.4899 24.6651 25.5295 24.5997 25.5557C24.5342 25.5819 24.4643 25.5943 24.3941 25.5921H19.9596C19.7046 25.5923 19.4602 25.697 19.2799 25.8832C19.0996 26.0694 18.9982 26.3218 18.9979 26.5851V26.886C18.9978 27.0671 19.0457 27.2448 19.1363 27.3998C19.227 27.5549 19.357 27.6814 19.5123 27.7656C19.6155 27.8222 19.6974 27.9127 19.7452 28.0228C19.7929 28.1328 19.8037 28.2562 19.7758 28.3734C19.7479 28.4905 19.683 28.5947 19.5912 28.6694C19.4995 28.7441 19.3862 28.785 19.2694 28.7857H19.2655Z" fill="white"/>
<path d="M23.2172 35.805C22.9454 35.8047 22.6763 35.7488 22.4255 35.6405C22.1748 35.5322 21.9473 35.3737 21.7562 35.174L18.0556 31.353C17.7976 31.0864 17.612 30.7545 17.5176 30.3904C17.4232 30.0264 17.4232 29.6431 17.5176 29.2791C17.6121 28.915 17.7976 28.5831 18.0557 28.3165C18.3137 28.05 18.6352 27.8583 18.9877 27.7606L23.6563 26.4692C23.7228 26.4509 23.7921 26.4462 23.8604 26.4555C23.9286 26.4648 23.9944 26.4879 24.054 26.5234C24.1136 26.559 24.1658 26.6063 24.2077 26.6627C24.2496 26.7191 24.2803 26.7835 24.2981 26.8521C24.3159 26.9208 24.3205 26.9924 24.3114 27.0629C24.3024 27.1333 24.2801 27.2013 24.2456 27.2628C24.2112 27.3244 24.1654 27.3783 24.1108 27.4215C24.0561 27.4648 23.9938 27.4965 23.9273 27.5149L19.2592 28.8063C19.0848 28.8549 18.9257 28.95 18.7981 29.082C18.6704 29.214 18.5786 29.3784 18.5318 29.5586C18.4851 29.7388 18.485 29.9285 18.5316 30.1088C18.5781 30.289 18.6698 30.4535 18.7973 30.5857L22.4974 34.4067C22.6254 34.5389 22.7848 34.634 22.9597 34.6823C23.1345 34.7307 23.3186 34.7307 23.4935 34.6823C23.6683 34.6339 23.8278 34.5389 23.9558 34.4067C24.0838 34.2745 24.1758 34.1098 24.2226 33.9293L25.4713 29.1107C25.5095 28.9744 25.5978 28.859 25.7174 28.7893C25.8371 28.7195 25.9784 28.701 26.1111 28.7378C26.2438 28.7745 26.3573 28.8635 26.4271 28.9856C26.4969 29.1078 26.5175 29.2534 26.4845 29.3911L25.2334 34.2111C25.1411 34.5763 24.9562 34.9095 24.6978 35.1764C24.4394 35.4433 24.1168 35.6343 23.7631 35.7297C23.5851 35.7794 23.4016 35.8047 23.2172 35.805ZM28.677 27.0124C28.5499 27.0121 28.4271 26.9642 28.3317 26.8775C28.2362 26.7908 28.1745 26.6712 28.158 26.5411C28.1415 26.4109 28.1713 26.279 28.2419 26.1698C28.3126 26.0607 28.4192 25.9817 28.542 25.9476L33.2018 24.6582C33.3766 24.6099 33.5359 24.5148 33.6639 24.3827C33.7918 24.2506 33.8838 24.086 33.9307 23.9056C33.9775 23.7251 33.9776 23.5351 33.9308 23.3546C33.884 23.1741 33.7921 23.0095 33.6642 22.8774L29.9636 19.0563C29.8356 18.9245 29.6762 18.8298 29.5016 18.7816C29.3269 18.7335 29.1431 18.7336 28.9684 18.782C28.7938 18.8303 28.6346 18.9252 28.5067 19.0572C28.3789 19.1891 28.2868 19.3535 28.2399 19.5338L26.9911 24.3458C26.9525 24.4814 26.8641 24.596 26.7447 24.6652C26.6254 24.7344 26.4845 24.7527 26.3523 24.7162C26.2201 24.6797 26.1069 24.5912 26.037 24.4698C25.967 24.3483 25.9458 24.2034 25.9779 24.066L27.2267 19.2514C27.3212 18.8873 27.5069 18.5553 27.765 18.2888C28.0232 18.0222 28.3448 17.8306 28.6974 17.733C29.05 17.6355 29.4213 17.6355 29.774 17.7331C30.1266 17.8307 30.4481 18.0224 30.7063 18.289L34.4083 22.11C34.6664 22.3766 34.8521 22.7087 34.9466 23.0728C35.0411 23.4369 35.041 23.8203 34.9465 24.1845C34.852 24.5486 34.6663 24.8806 34.4082 25.1472C34.15 25.4137 33.8284 25.6054 33.4757 25.7029L28.8154 26.9918C28.7704 27.0053 28.7238 27.0122 28.677 27.0124Z" fill="white"/>
<defs>
<linearGradient id="paint0_linear_1_935" x1="49.219" y1="16" x2="11.219" y2="53" gradientUnits="userSpaceOnUse">
<stop stop-color="#FF6D3E"/>
<stop offset="1" stop-color="#F13B3B"/>
</linearGradient>
<linearGradient id="paint1_linear_1_935" x1="46.4065" y1="18.4603" x2="14.4382" y2="49.5873" gradientUnits="userSpaceOnUse">
<stop stop-color="#FF6D3E"/>
<stop offset="1" stop-color="#F13B3B"/>
</linearGradient>
</defs>
</svg>
