<svg width="16" height="16" viewBox="0 0 16 16" fill="none" xmlns="http://www.w3.org/2000/svg">
<path d="M2.57393 0.604335H0.516347C0.10483 0.667647 0.00195085 1.0264 0.00195099 1.19787C-0.0297042 1.6727 0.331692 1.87054 0.516347 1.91011H2.13867L4.55238 9.90303L5.69988 9.34907L4.15669 4.12597H14.0489L13.1784 8.51812L5.73945 9.42821L4.55238 9.98217C3.95884 10.7736 4.2754 11.5649 4.2754 11.6441C4.56029 12.4354 5.52841 12.5542 5.97686 12.5146C7.17976 12.3247 11.3846 12.1453 13.3367 12.0793C14.0014 12.0793 14.1413 11.7364 14.1281 11.5649C14.1281 11.1534 13.706 11.0505 13.495 11.0505L5.66031 11.4462C5.05886 11.4462 5.17229 10.9978 5.30419 10.7736L13.6928 9.78433C14.2309 9.72102 14.3391 9.36226 14.3259 9.19079L15.4338 3.61157C15.4655 2.94682 14.9722 2.807 14.7216 2.82019H3.761L3.28617 1.19787C3.15955 0.659732 2.75859 0.577956 2.57393 0.604335Z" fill="white"/>
<circle cx="5.22509" cy="14.2952" r="1.30577" fill="white"/>
<circle cx="12.5057" cy="14.2952" r="1.30577" fill="white"/>
<rect x="7.32214" y="3.96769" width="0.633103" height="5.53965" fill="white"/>
<rect x="10.646" y="3.96769" width="0.633103" height="5.53965" fill="white"/>
<rect x="4.71069" y="6.18355" width="9.17999" height="0.633103" fill="white"/>
<path d="M5.73941 9.46777L5.58113 8.95337L4.35449 9.23035L4.55234 9.98216L5.73941 9.46777Z" fill="white"/>
</svg>
