<svg width="14" height="14" viewBox="0 0 14 14" fill="none" xmlns="http://www.w3.org/2000/svg">
<path d="M4.10826 6.58871C3.91522 6.3959 3.60152 6.3959 3.40847 6.58871C3.21543 6.78153 3.21543 7.09485 3.40847 7.28766L5.68883 9.56528C5.78535 9.66169 5.90601 9.70989 6.03873 9.70989C6.05079 9.70989 6.05079 9.70989 6.06286 9.70989C6.19558 9.69784 6.3283 9.63758 6.42482 9.52913L12.1317 2.69628C12.3007 2.49142 12.2765 2.17809 12.0714 1.99733C11.8663 1.82862 11.5526 1.85272 11.3716 2.05759L6.00253 8.4807L4.10826 6.58871Z" fill="#FF6D3E"/>
<path d="M10.696 1.06941C7.92093 -0.665911 4.36164 -0.256181 2.04508 2.05759C-0.681694 4.78108 -0.681694 9.22785 2.04508 11.9514C3.40847 13.3131 5.20622 14 6.99189 14C8.77757 14 10.5753 13.3131 11.9387 11.9514C14.2673 9.62553 14.6655 6.05848 12.916 3.28678C12.7712 3.05781 12.4696 2.9855 12.2403 3.13011C12.0111 3.27472 11.9387 3.576 12.0835 3.80496C13.5917 6.19104 13.2418 9.25196 11.2389 11.2524C8.89822 13.5903 5.0735 13.5903 2.73281 11.2524C0.392125 8.91453 0.392125 5.09441 2.73281 2.75654C4.73567 0.768143 7.78821 0.418668 10.1772 1.90093C10.4064 2.04554 10.708 1.97323 10.8528 1.74426C10.9976 1.5153 10.9252 1.21403 10.696 1.06941Z" fill="#FF6D3E"/>
</svg>
