<svg width="16" height="16" viewBox="0 0 16 16" fill="none" xmlns="http://www.w3.org/2000/svg">
<path d="M4.15143 2.34075H0.940308C-0.513784 8.08958 4.41397 12.7072 7.05961 14.2974C9.9678 16.0365 12.9164 15.7869 14.0271 15.4447V12.3046C14.0271 11.6766 13.5828 11.5196 13.3607 11.5196L10.2101 10.8553L8.45312 12.5461C6.27198 11.5799 4.43417 9.08395 3.78791 7.95673L5.60552 6.14513C5.40356 5.31984 4.97541 3.53641 4.87848 3.00501C4.78154 2.4736 4.35339 2.34075 4.15143 2.34075Z" fill="url(#paint0_linear_21_1124)"/>
<path d="M10.9681 7.41009C10.5754 5.63316 9.35519 5.03027 8.79418 4.95095C8.17707 4.82402 8.11629 4.21056 8.16304 3.91969C8.38745 3.22161 9.05131 3.31151 9.35519 3.44373C11.3748 4.07834 12.207 6.08797 12.3706 7.01346C12.5389 7.64807 12.1135 8.01827 11.8797 8.12404C11.2626 8.25096 11.0148 7.70096 10.9681 7.41009Z" fill="url(#paint1_linear_21_1124)"/>
<path d="M14.0411 7.17923C13.3946 3.46521 10.2942 2.29107 8.82485 2.16825C8.17832 2.1093 8.11465 1.55416 8.16363 1.28396C8.22241 0.753388 8.77587 0.669872 9.04525 0.694435C13.7472 1.34292 15.3635 5.28783 15.5839 7.17923C15.7015 7.82771 15.2411 8.08809 14.9962 8.13722C14.4084 8.19617 14.1635 7.76876 14.1146 7.54769L14.0411 7.17923Z" fill="url(#paint2_linear_21_1124)"/>
<defs>
<linearGradient id="paint0_linear_21_1124" x1="0.677246" y1="9.0157" x2="14.0271" y2="9.0157" gradientUnits="userSpaceOnUse">
<stop stop-color="#E2313B"/>
<stop offset="1" stop-color="#F26D42"/>
</linearGradient>
<linearGradient id="paint1_linear_21_1124" x1="8.1507" y1="5.74743" x2="12.409" y2="5.74743" gradientUnits="userSpaceOnUse">
<stop stop-color="#E2313B"/>
<stop offset="1" stop-color="#F26D42"/>
</linearGradient>
<linearGradient id="paint2_linear_21_1124" x1="8.1507" y1="4.41669" x2="15.6028" y2="4.41669" gradientUnits="userSpaceOnUse">
<stop stop-color="#E2313B"/>
<stop offset="1" stop-color="#F26D42"/>
</linearGradient>
</defs>
</svg>
