<svg width="16" height="15" viewBox="0 0 16 15" fill="none" xmlns="http://www.w3.org/2000/svg">
<path d="M2.57393 0.00432931H0.516347C0.10483 0.0676408 0.00195085 0.426398 0.00195099 0.597863C-0.0297042 1.07269 0.331692 1.27053 0.516347 1.3101H2.13867L4.55238 9.30303L5.69988 8.74906L4.15669 3.52596H14.0489L13.1784 7.91811L5.73945 8.8282L4.55238 9.38216C3.95884 10.1735 4.2754 10.9649 4.2754 11.0441C4.56029 11.8354 5.52841 11.9541 5.97686 11.9146C7.17976 11.7246 11.3846 11.5453 13.3367 11.4793C14.0014 11.4793 14.1413 11.1364 14.1281 10.9649C14.1281 10.5534 13.706 10.4505 13.495 10.4505L5.66031 10.8462C5.05886 10.8462 5.17229 10.3978 5.30419 10.1735L13.6928 9.18432C14.2309 9.12101 14.3391 8.76225 14.3259 8.59079L15.4338 3.01157C15.4655 2.34681 14.9722 2.207 14.7216 2.22019H3.761L3.28617 0.597863C3.15955 0.0597258 2.75859 -0.02205 2.57393 0.00432931Z" fill="#FF6D3E"/>
<circle cx="5.22509" cy="13.6949" r="1.30577" fill="#FF6D3E"/>
<circle cx="12.5058" cy="13.6949" r="1.30577" fill="#FF6D3E"/>
<rect x="7.32214" y="3.36768" width="0.633103" height="5.53965" fill="#FF6D3E"/>
<rect x="10.646" y="3.36768" width="0.633103" height="5.53965" fill="#FF6D3E"/>
<rect x="4.71063" y="5.5835" width="9.17999" height="0.633103" fill="#FF6D3E"/>
<path d="M5.73941 8.86791L5.58113 8.35352L4.35449 8.6305L4.55234 9.38231L5.73941 8.86791Z" fill="#FF6D3E"/>
</svg>
