<svg width="40" height="40" viewBox="0 0 40 40" fill="none" xmlns="http://www.w3.org/2000/svg">
<circle cx="20" cy="20" r="19" stroke="url(#paint0_linear_1_989)" stroke-width="2"/>
<path d="M14.9803 12.8H10.7468C8.82982 20.379 15.3264 26.4667 18.8143 28.5631C22.6483 30.856 26.5356 30.5269 28 30.0758V25.9359C28 25.108 27.4143 24.901 27.1214 24.901L22.9678 24.0253L20.6514 26.2544C17.7759 24.9806 15.353 21.69 14.501 20.2039L16.8973 17.8155C16.631 16.7275 16.0666 14.3763 15.9388 13.6757C15.811 12.9751 15.2465 12.8 14.9803 12.8Z" fill="url(#paint1_linear_1_989)"/>
<path d="M23.967 19.4832C23.4493 17.1406 21.8406 16.3458 21.101 16.2412C20.2875 16.0738 20.2073 15.2651 20.269 14.8816C20.5648 13.9613 21.44 14.0798 21.8406 14.2541C24.5033 15.0908 25.6004 17.7402 25.8161 18.9603C26.038 19.797 25.4771 20.285 25.1689 20.4245C24.3553 20.5918 24.0287 19.8667 23.967 19.4832Z" fill="url(#paint2_linear_1_989)"/>
<path d="M28.0184 19.1789C27.166 14.2824 23.0786 12.7345 21.1415 12.5726C20.2891 12.4949 20.2052 11.763 20.2697 11.4068C20.3472 10.7073 21.0769 10.5972 21.432 10.6296C27.6309 11.4845 29.7618 16.6853 30.0524 19.1789C30.2073 20.0338 29.6004 20.3771 29.2775 20.4418C28.5026 20.5196 28.1798 19.9561 28.1152 19.6646L28.0184 19.1789Z" fill="url(#paint3_linear_1_989)"/>
<defs>
<linearGradient id="paint0_linear_1_989" x1="0" y1="20" x2="40" y2="20" gradientUnits="userSpaceOnUse">
<stop stop-color="#E2313B"/>
<stop offset="1" stop-color="#F26D42"/>
</linearGradient>
<linearGradient id="paint1_linear_1_989" x1="10.4" y1="21.6" x2="28" y2="21.6" gradientUnits="userSpaceOnUse">
<stop stop-color="#E2313B"/>
<stop offset="1" stop-color="#F26D42"/>
</linearGradient>
<linearGradient id="paint2_linear_1_989" x1="20.2527" y1="17.2912" x2="25.8667" y2="17.2912" gradientUnits="userSpaceOnUse">
<stop stop-color="#E2313B"/>
<stop offset="1" stop-color="#F26D42"/>
</linearGradient>
<linearGradient id="paint3_linear_1_989" x1="20.2527" y1="15.5368" x2="30.0772" y2="15.5368" gradientUnits="userSpaceOnUse">
<stop stop-color="#E2313B"/>
<stop offset="1" stop-color="#F26D42"/>
</linearGradient>
</defs>
</svg>
