<svg width="16" height="17" viewBox="0 0 16 17" fill="none" xmlns="http://www.w3.org/2000/svg">
<path d="M14.2038 4.60389L13.3382 5.45198L11.231 3.38555L12.095 2.53798C12.1355 2.49862 12.1835 2.46748 12.2363 2.44633C12.2891 2.42518 12.3457 2.41444 12.4027 2.41473C12.5201 2.41473 12.6294 2.45756 12.711 2.53798L14.2033 4.0002C14.2849 4.08038 14.3308 4.18897 14.3309 4.3022C14.331 4.41543 14.2853 4.52409 14.2038 4.60441M6.86405 11.6617L4.89285 9.73368L10.703 4.07436L12.6363 5.9695L6.86405 11.6617ZM4.37125 12.2398L4.47845 10.5306L6.08805 12.1067L4.37125 12.2398ZM14.8193 3.39651L13.3254 1.9369C12.8358 1.45437 11.9707 1.45437 11.4811 1.9369L10.2619 3.34011L3.76325 9.42975L3.33552 13.0796L3.54352 13.2545L7.17445 12.7704L13.3878 6.4019L14.8193 5.25667C15.327 4.75847 15.327 3.89628 14.8193 3.39651ZM13.5073 7.66777C13.2619 7.66777 13.0838 7.85995 13.0838 8.0986V13.794C13.0838 14.3616 12.6342 14.8462 12.0545 14.8462H2.90032C2.31952 14.8462 1.64752 14.3616 1.64752 13.794V4.82218C1.64752 4.25505 2.31952 3.64979 2.90085 3.64979H7.82938C8.07258 3.64979 8.26885 3.47328 8.26885 3.23462C8.26885 2.9944 8.07258 2.81946 7.82938 2.81946H2.90085C1.74245 2.81946 0.800049 3.68635 0.800049 4.8227V13.794C0.800049 14.9298 1.74245 15.675 2.90138 15.675H12.0534C13.2128 15.675 13.9297 14.9298 13.9297 13.794V8.0986C13.9297 7.85995 13.7499 7.66777 13.5062 7.66777" fill="#121F38"/>
</svg>
