<svg width="12" height="12" viewBox="0 0 12 12" fill="none" xmlns="http://www.w3.org/2000/svg">
<path d="M9.72485 2.49265V5.17325L8.96468 5.73337V2.61268H2.24319V5.73337L1.48302 5.17325V2.61268C1.48302 2.00454 1.96312 1.82584 2.20318 1.8125H8.96468C9.57282 1.84451 9.72485 2.27927 9.72485 2.49265Z" fill="white"/>
<rect width="5.12114" height="0.72016" rx="0.36008" transform="matrix(-1 0 0 1 8.16452 3.37207)" fill="white"/>
<rect width="5.12114" height="0.72016" rx="0.36008" transform="matrix(-1 0 0 1 8.16452 4.8125)" fill="white"/>
<path d="M5.84401 0.411511L7.6044 1.81182H6.44414L5.60396 1.17168L4.80378 1.81182H3.60351C4.12363 1.3984 5.21187 0.53954 5.40391 0.411511C5.59595 0.283483 5.77733 0.358166 5.84401 0.411511Z" fill="white"/>
<path d="M11.0451 4.53239L9.72485 3.45215V4.41236L10.205 4.81245L8.96469 5.69265L5.60394 8.05317V8.93337C5.69996 8.93337 5.83065 8.85335 5.884 8.81334L6.68418 8.21321L9.44479 10.3337C9.73286 10.4937 9.91156 10.3737 9.96491 10.2937C10.221 10.0376 10.0449 9.81357 9.9249 9.73355L7.32432 7.77311L10.445 5.53261V10.3337C10.445 10.6858 10.1516 10.7738 10.0049 10.7738H6.12405V11.5339H10.0849C11.0131 11.4379 11.2185 10.7471 11.2052 10.4137V4.81245C11.2052 4.65242 11.0985 4.55906 11.0451 4.53239Z" fill="white"/>
<path d="M5.56396 8.05317L1.00294 4.81245L1.48305 4.45237V3.45215L0.242773 4.45237C0.0187225 4.61241 -0.0106173 4.8658 0.00271893 4.97249V10.3737C0.0987406 11.3019 0.789561 11.5339 1.12297 11.5339H6.36414V10.7738H1.12297C0.77089 10.7738 0.736216 10.4004 0.762888 10.2137V5.53261L3.88358 7.77311L1.20299 9.77356C1.04295 9.9656 1.1363 10.2003 1.20299 10.2937C1.36302 10.4537 1.61641 10.387 1.7231 10.3337L4.52373 8.21321C4.72377 8.35991 5.17187 8.68531 5.36391 8.81334C5.55596 8.94137 5.57729 8.94671 5.56396 8.93337V8.05317Z" fill="white"/>
</svg>
