<svg width="28" height="28" viewBox="0 0 28 28" fill="none" xmlns="http://www.w3.org/2000/svg">
<circle cx="13.86" cy="13.86" r="13.86" fill="#E24642"/>
<path d="M22.4676 11.0879V13.1999H24.5519L24.5498 15.3119H22.4582L22.4676 17.4239H20.3906V15.3119H18.299V13.1999H20.3906V11.0879H22.4676ZM15.0412 15.3119H11.0039V13.1999H17.2568V15.3119C16.7608 18.3088 14.1022 20.5919 11.0039 20.5919C10.0323 20.5918 9.07409 20.3622 8.2053 19.9214C7.33651 19.4806 6.58104 18.8407 5.99884 18.0526C5.41663 17.2644 5.02371 16.3495 4.85123 15.3807C4.67876 14.4118 4.73148 13.4155 5.00521 12.4709C5.27895 11.5262 5.76616 10.6592 6.42821 9.93862C7.09026 9.21804 7.90892 8.66369 8.81924 8.31957C9.72957 7.97545 10.7065 7.85102 11.6726 7.95615C12.6386 8.06128 13.5672 8.39309 14.3847 8.92523L13.2581 10.7025C12.5168 10.2199 11.6437 9.98775 10.764 10.0393C9.88443 10.0909 9.04356 10.4236 8.36215 10.9896C7.68074 11.5556 7.19385 12.3258 6.97136 13.1896C6.74887 14.0535 6.80223 14.9666 7.12378 15.7978C7.44533 16.629 8.01853 17.3356 8.7611 17.8162C9.50366 18.2967 10.3774 18.5265 11.2569 18.4725C12.1364 18.4186 12.9763 18.0836 13.6562 17.5158C14.3362 16.9479 14.821 16.1764 15.0412 15.3119Z" fill="white"/>
</svg>
