<svg width="11" height="12" viewBox="0 0 11 12" fill="none" xmlns="http://www.w3.org/2000/svg">
<path d="M5.50649 11.2088C4.6397 9.7312 3.29818 8.76289 2.12688 7.63127C1.45579 6.98293 0.829433 6.29694 0.421371 5.44398C-0.11429 4.32435 -0.181981 3.20658 0.46773 2.10349C1.21708 0.831202 2.96877 0.411094 4.21398 1.20241C4.60391 1.45021 4.964 1.7382 5.27539 2.07874C5.43678 2.25524 5.53637 2.30621 5.72157 2.09038C5.97566 1.79428 6.29728 1.56372 6.60649 1.32237C8.15022 0.117474 10.6665 1.04078 10.9678 3.29364C11.1299 4.50531 10.6618 5.51415 9.95667 6.44672C9.24846 7.3834 8.34107 8.12009 7.4825 8.90581C6.74438 9.58127 6.03715 10.284 5.50649 11.2088Z" fill="#CE3030"/>
</svg>
