<svg width="28" height="28" viewBox="0 0 28 28" fill="none" xmlns="http://www.w3.org/2000/svg">
<circle cx="14.0837" cy="13.86" r="13.86" fill="#05ABED"/>
<g clip-path="url(#clip0_1_78)">
<path d="M9.1172 6.48828C8.09434 6.48828 7.35175 7.15674 7.35175 8.07707C7.35175 8.99709 8.0796 9.66493 9.08184 9.66493C9.60179 9.66493 10.0497 9.50518 10.3775 9.20306C10.6918 8.91303 10.865 8.5132 10.8647 8.06994C10.8417 7.13875 10.123 6.48828 9.1172 6.48828ZM9.92103 8.75856C9.71802 8.9456 9.4276 9.04455 9.08184 9.04455C8.44894 9.04455 8.00659 8.64689 8.00659 8.07707C8.00659 7.49795 8.45287 7.10866 9.1172 7.10866C9.76648 7.10866 10.1954 7.49174 10.2101 8.07738C10.2098 8.34476 10.1073 8.5864 9.92103 8.75856Z" fill="white"/>
<path d="M7.66574 20.4387H10.6086V10.1885H7.66574V20.4387ZM8.32058 10.8089H9.95377V19.818H8.32058V10.8089Z" fill="white"/>
<path d="M18.3688 10.1885C17.0041 10.1885 16.1686 10.6348 15.6846 11.0545L15.5926 10.1885H12.2631V20.4384H15.5239V15.0513C15.5239 14.8193 15.6231 14.3376 15.6853 14.2104C16.0792 13.4067 16.6106 13.4067 17.4154 13.4067C18.3423 13.4067 19.1255 14.2302 19.1255 15.2049V20.439H22.3997V14.6478C22.3997 11.5837 20.3101 10.1885 18.3688 10.1885ZM21.7449 19.8183H19.7803V15.2045C19.7803 13.8934 18.6972 12.786 17.4154 12.786C16.5929 12.786 15.661 12.786 15.091 13.9492C14.9735 14.1896 14.8687 14.7656 14.8687 15.0513V19.8183H12.9179V10.8089H15.0003L15.1339 12.0633H15.6705L15.7665 11.9165C15.9849 11.5834 16.6754 10.8085 18.3688 10.8085C19.9948 10.8085 21.7449 12.0096 21.7449 14.6468V19.8183Z" fill="white"/>
</g>
<defs>
<clipPath id="clip0_1_78">
<rect width="15.048" height="14.256" fill="white" transform="translate(7.35175 6.33594)"/>
</clipPath>
</defs>
</svg>
