<svg width="10" height="13" viewBox="0 0 10 13" fill="none" xmlns="http://www.w3.org/2000/svg">
<circle cx="5.23055" cy="4.61608" r="2.07702" fill="white"/>
<path d="M5.23055 1.07697V0C2.09195 0.0615412 0.845741 2.48729 0.614961 3.69247C0.245713 5.29255 0.871382 6.64132 1.23037 7.11571L5.23055 12.4236V10.5389C4.48693 9.55171 2.85352 7.37726 2.26888 6.57722C1.68424 5.77718 1.61501 5.06433 1.65347 4.80791C1.71501 1.8847 4.06384 1.10261 5.23055 1.07697Z" fill="white"/>
<path d="M5.23055 1.08031V0C8.39645 0.0617318 9.6535 2.49499 9.88629 3.70391C10.2587 5.30893 9.62764 6.66189 9.26552 7.13774L5.23055 12.4621V10.5716C5.98064 9.58128 7.62826 7.4001 8.21798 6.59758C8.80771 5.79507 8.87754 5.08001 8.83875 4.82279C8.77667 1.89054 6.40742 1.10603 5.23055 1.08031Z" fill="white"/>
<circle cx="5.23055" cy="4.6155" r="0.923119" fill="white"/>
</svg>
