<svg width="15" height="15" viewBox="0 0 15 15" fill="none" xmlns="http://www.w3.org/2000/svg">
<path d="M7.52378 0.00122212C11.6901 0.00368795 14.9858 3.33099 15 7.51073C15.014 11.6522 11.6502 14.9228 7.69668 14.9975C3.31732 15.0804 -0.0320791 11.5558 0.000231796 7.45973C0.0330829 3.29387 3.33254 -0.00127748 7.52378 0.00122212ZM8.12705 10.6701C8.12705 10.6711 8.12705 10.6722 8.12705 10.6733C8.67532 10.6733 9.22414 10.6887 9.7717 10.6689C10.3149 10.6493 10.543 10.3968 10.5591 9.86488C10.5613 9.7899 10.5617 9.67819 10.6069 9.64684C11.023 9.35817 11.1049 8.94503 11.0925 8.47818C11.0902 8.39333 11.1938 8.30355 11.2535 8.21957C11.477 7.90503 11.5377 7.5742 11.3312 7.23135C11.2343 7.07047 11.2316 6.92782 11.2935 6.75133C11.5045 6.14923 11.3556 5.84657 10.7597 5.62978C10.5251 5.54446 10.2815 5.50879 10.0307 5.49987C9.51916 5.4817 9.01278 5.52673 8.51161 5.61877C8.21764 5.67278 8.1494 5.56858 8.24279 5.30713C8.37065 4.94925 8.47565 4.58377 8.50476 4.20477C8.54301 3.70698 8.45242 3.23854 8.07985 2.87049C7.64654 2.44245 7.14023 2.57551 6.98236 3.15572C6.95177 3.26813 6.91909 3.38818 6.92763 3.50171C6.98996 4.33117 6.65956 5.02667 6.21703 5.69295C5.89669 6.17527 5.66683 6.68769 5.62837 7.2879C5.57483 8.12388 5.58536 8.95895 5.60808 9.79324C5.6253 10.4259 5.85779 10.635 6.52167 10.6651C7.05579 10.6893 7.59184 10.6701 8.12705 10.6701ZM5.18122 8.59022C5.18122 8.08081 5.18956 7.57123 5.17872 7.06205C5.1692 6.61419 5.00444 6.45776 4.55253 6.44543C4.29167 6.4383 4.02991 6.43628 3.76943 6.44938C3.43613 6.4662 3.2297 6.62726 3.22953 6.98656C3.22906 8.03149 3.22849 9.07643 3.22909 10.1214C3.2293 10.4918 3.42006 10.6736 3.78729 10.6746C4.04841 10.6753 4.30977 10.6823 4.57055 10.6732C5.01403 10.6576 5.17248 10.496 5.18048 10.0401C5.18895 9.55689 5.18237 9.07349 5.18122 8.59022Z" fill="#898989"/>
</svg>
