<svg width="46" height="40" viewBox="0 0 46 40" fill="none" xmlns="http://www.w3.org/2000/svg">
<path d="M45.9796 13.9566V35.0871C45.9796 37.7961 43.7114 40 40.9235 40H5.05613C2.26815 40.0001 0 37.7961 0 35.0871V10.6173C0 7.90835 2.26815 5.70447 5.05613 5.70447H25.4806C25.955 5.70447 26.3395 6.07807 26.3395 6.53903C26.3395 6.99998 25.955 7.37359 25.4806 7.37359H5.05613C3.21533 7.37349 1.71779 8.82869 1.71779 10.6173V13.0918L21.3511 22.3563C22.391 22.847 23.5824 22.8441 24.6197 22.3482L35.79 17.0097C36.2158 16.8063 36.7304 16.9767 36.9399 17.3903C37.1492 17.8039 36.9739 18.304 36.5482 18.5076L25.3779 23.8461C23.863 24.5701 22.1218 24.5755 20.6007 23.8577L1.71779 14.9473V35.0871C1.71779 36.8758 3.21533 38.3309 5.05613 38.3309H40.9235C42.7642 38.3309 44.2617 36.8758 44.2617 35.0871V13.9566C44.2617 13.4956 44.6462 13.122 45.1206 13.122C45.595 13.122 45.9796 13.4957 45.9796 13.9566ZM13.4157 25.7843L5.04506 33.9177C4.50214 34.4452 4.89418 35.3424 5.6524 35.3424C5.87218 35.3424 6.09196 35.2609 6.25973 35.098L14.6303 26.9645C14.9658 26.6386 14.9658 26.1101 14.6303 25.7842C14.2949 25.4584 13.751 25.4584 13.4157 25.7843ZM32.564 25.7843C32.2285 25.4584 31.6848 25.4584 31.3492 25.7843C31.0138 26.1102 31.0138 26.6387 31.3492 26.9646L39.7199 35.0981C40.0555 35.424 40.5991 35.4239 40.9346 35.0981C41.2701 34.7721 41.2701 34.2437 40.9346 33.9177L32.564 25.7843ZM30.3407 4.79229L44.866 0.0448452C45.5373 -0.174644 46.1799 0.448958 45.9538 1.10186L41.0679 15.2157C40.8277 15.9098 39.8455 15.9866 39.4941 15.3387L36.2912 9.43356L30.2141 6.32158C29.5485 5.98089 29.6252 5.02606 30.3407 4.79229ZM32.7886 5.75333L36.7673 7.79077L39.646 4.9937C39.9815 4.66785 40.5252 4.66785 40.8608 4.9937C41.1962 5.31964 41.1962 5.8481 40.8608 6.17404L37.9821 8.97112L40.079 12.8373L43.7743 2.16277L32.7886 5.75333Z" fill="white"/>
</svg>
