<svg width="14" height="14" viewBox="0 0 14 14" fill="none" xmlns="http://www.w3.org/2000/svg">
<path d="M12.885 7.61513C12.5702 6.11514 11.8651 4.72464 10.8408 3.58387C9.8166 2.4431 8.50943 1.59241 7.05118 1.1176C7.05118 1.1176 6.59227 1.00981 6.76649 0.317865C6.77773 0.263746 6.80011 0.212552 6.83219 0.167529C6.86427 0.122505 6.90537 0.0846355 6.95288 0.056321C7.00038 0.0280065 7.05325 0.00986487 7.10814 0.00304681C7.16303 -0.00377125 7.21874 0.000882977 7.27173 0.0167142C8.9692 0.545858 10.4913 1.52502 11.6761 2.85C12.8609 4.17497 13.664 5.79617 14 7.54105C14 7.54105 13.6946 8.07964 13.4388 8.09668C13.1422 8.11668 12.885 7.61513 12.885 7.61513ZM11.7574 7.68922C11.7574 7.68922 11.6402 8.24003 11.2147 8.09668C11.0664 8.0239 10.9492 7.90016 10.8848 7.74811C10.6153 6.68338 10.0894 5.70063 9.35285 4.88548C8.61632 4.07032 7.69152 3.44748 6.65899 3.07119C6.55964 3.02781 6.47877 2.95079 6.43063 2.8537C6.38249 2.75661 6.37016 2.64566 6.39581 2.54038C6.4996 2.08551 6.83062 2.21923 6.83062 2.21923C8.0483 2.63925 9.13921 3.36156 10.001 4.31835C10.8628 5.27514 11.4671 6.43505 11.7574 7.68922ZM9.50176 7.83961C9.50539 7.89139 9.49408 7.94313 9.46918 7.9887C9.44428 8.03426 9.40683 8.07173 9.36127 8.09668C9.31547 8.11678 9.26599 8.12715 9.21596 8.12711C9.16593 8.12708 9.11646 8.11664 9.07069 8.09647C9.02492 8.0763 8.98384 8.04684 8.95008 8.00995C8.91632 7.97306 8.8906 7.92956 8.87457 7.88221C8.66299 7.25151 8.32181 6.67197 7.87291 6.18079C7.42402 5.6896 6.87733 5.29761 6.26792 5.02997C6.20853 5.00896 6.15527 4.97357 6.1129 4.92697C6.07053 4.88036 6.04037 4.82399 6.02513 4.7629C6.01898 4.71459 6.02441 4.66551 6.04096 4.6197C6.05751 4.57389 6.08472 4.53267 6.12034 4.49943C6.15595 4.46619 6.19897 4.44188 6.24583 4.4285C6.29269 4.41512 6.34206 4.41306 6.38988 4.42249C7.13002 4.7255 7.79333 5.18946 8.33161 5.78067C8.86989 6.37187 9.26962 7.07547 9.50176 7.84035V7.83961ZM7.57421 9.46945C7.66651 9.56465 8.82823 8.62638 8.93054 8.72047C9.88588 9.5351 10.9219 10.2502 12.0224 10.8548C12.0909 10.9253 12.1286 11.02 12.1272 11.1182C12.1259 11.2165 12.0855 11.3101 12.015 11.3786L9.62446 13.7022C9.27009 14.0464 7.94638 14.6342 5.20814 11.8187L2.11331 8.63638C-0.666813 5.77785 -0.0303507 4.48323 0.324022 4.13911L2.71641 1.81584C2.7869 1.74737 2.88172 1.70969 2.98002 1.71108C3.07831 1.71247 3.17203 1.75282 3.24056 1.82325C3.81385 2.94329 4.50141 4.00115 5.29229 4.97997C5.37754 5.07813 4.40042 6.20495 4.48679 6.29385L7.57421 9.46945ZM4.17838 4.98515C3.67361 4.41974 3.25358 3.78415 2.93141 3.09824C2.88876 3.03811 2.82493 2.99633 2.75274 2.98129C2.68055 2.96624 2.60533 2.97904 2.54219 3.01711L1.10653 4.411C0.629836 4.88736 0.344039 5.75303 2.81501 8.29374L5.56585 11.1223C7.99976 13.6252 8.93907 13.347 9.37314 12.9114L10.8084 11.5175C10.8482 11.4555 10.8631 11.3807 10.8502 11.3082C10.8372 11.2357 10.7972 11.1707 10.7384 11.1263C10.043 10.7696 9.40211 10.3158 8.8349 9.77838C8.68181 9.63873 7.47153 10.5307 7.3366 10.3918L3.55786 6.50758C3.4107 6.35571 4.32555 5.15814 4.17838 4.98515Z" fill="white"/>
</svg>
