<svg width="15" height="13" viewBox="0 0 15 13" fill="none" xmlns="http://www.w3.org/2000/svg">
<path d="M6.60127 10.1877L6.18346 8.69706C6.12774 8.50291 5.99844 8.33778 5.82377 8.23771C5.6491 8.13763 5.44322 8.11071 5.25104 8.16283C5.05886 8.21494 4.89597 8.34187 4.79789 8.51591C4.6998 8.68996 4.67449 8.89701 4.72747 9.09191L5.57783 12.1299C5.61663 12.2693 5.69368 12.3953 5.80005 12.4933C5.90641 12.5913 6.03773 12.6572 6.17876 12.6834C6.31979 12.7097 6.46476 12.6951 6.59684 12.6415C6.72892 12.5879 6.84271 12.4975 6.92499 12.3806L14.131 2.15376C14.2139 2.03617 14.2616 1.89667 14.2683 1.75165C14.2749 1.60663 14.2404 1.46212 14.1687 1.33513C14.0969 1.20814 13.991 1.10394 13.8634 1.03478C13.7357 0.965629 13.5917 0.934392 13.4481 0.944749L0.969322 1.83556C0.824758 1.84582 0.686743 1.89782 0.571724 1.98536C0.456705 2.07291 0.369533 2.1923 0.320596 2.32932C0.271658 2.46635 0.263018 2.61521 0.295707 2.75819C0.328396 2.90116 0.401035 3.03221 0.504966 3.13572L4.4537 7.06255C4.57158 7.17995 4.72367 7.25592 4.88692 7.27895C5.05017 7.30198 5.21568 7.27082 5.35836 7.19018L7.98299 5.70783C8.15702 5.60955 8.28423 5.44503 8.33666 5.25047C8.38908 5.05591 8.36241 4.84725 8.26252 4.67038C8.16263 4.49352 7.9977 4.36295 7.80402 4.30739C7.61033 4.25183 7.40376 4.27583 7.22973 4.37411L5.09984 5.57704L2.74959 3.23924L11.96 2.58212L6.60127 10.1877Z" fill="#121F38"/>
</svg>
