<svg width="17" height="17" viewBox="0 0 17 17" fill="none" xmlns="http://www.w3.org/2000/svg">
<g clip-path="url(#clip0_80_3643)">
<mask id="mask0_80_3643" style="mask-type:luminance" maskUnits="userSpaceOnUse" x="0" y="0" width="17" height="17">
<path d="M0.314453 0.428589H16.7145V16.4286H0.314453V0.428589Z" fill="white"/>
</mask>
<g mask="url(#mask0_80_3643)">
<path fill-rule="evenodd" clip-rule="evenodd" d="M15.7879 0.462778L1.0174 6.0022C0.87966 6.05414 0.761605 6.14609 0.679214 6.26565C0.596823 6.3852 0.554076 6.52656 0.55676 6.67059C0.559445 6.81463 0.60743 6.95439 0.694221 7.07094C0.781012 7.18748 0.902417 7.2752 1.042 7.32221L4.322 8.44335C4.46612 8.49262 4.61962 8.51017 4.77151 8.49475C4.92341 8.47935 5.06992 8.43135 5.20057 8.3542L12.3674 4.1382C12.4156 4.11418 12.471 4.10723 12.524 4.11854C12.5769 4.12985 12.6241 4.15873 12.6578 4.20025C12.6914 4.24176 12.7091 4.29335 12.708 4.34623C12.707 4.3991 12.6872 4.44999 12.652 4.4902L7.27517 9.8182C7.17991 9.90027 7.10344 10.001 7.05076 10.1138C6.99808 10.2267 6.97036 10.3491 6.96942 10.4731L6.94365 15.9714C6.95041 16.0787 6.99334 16.1808 7.06576 16.262C7.13818 16.3431 7.23604 16.3986 7.34412 16.4198C7.45219 16.4411 7.56444 16.4269 7.6634 16.3795C7.76236 16.332 7.84249 16.2541 7.89134 16.1576L9.86637 12.2491C9.98305 12.067 10.168 11.9366 10.3819 11.8859C10.5957 11.835 10.8214 11.8678 11.0109 11.9771L14.5146 13.8628C14.6267 13.9228 14.7525 13.9543 14.8804 13.9543C15.0084 13.9543 15.1342 13.9229 15.2464 13.8628C15.3585 13.8028 15.4533 13.716 15.5219 13.6108C15.5906 13.5055 15.631 13.3851 15.6392 13.2605L16.4685 0.906207C16.4689 0.827131 16.4491 0.749214 16.411 0.679409C16.3729 0.609605 16.3177 0.550088 16.2503 0.506172C16.1829 0.462257 16.1054 0.43531 16.0247 0.427738C15.9441 0.420166 15.8627 0.432204 15.7879 0.462778Z" fill="white"/>
</g>
</g>
<defs>
<clipPath id="clip0_80_3643">
<rect width="16.4" height="16" fill="white" transform="translate(0.314453 0.428589)"/>
</clipPath>
</defs>
</svg>
