<svg width="20" height="17" viewBox="0 0 20 17" fill="none" xmlns="http://www.w3.org/2000/svg">
<path d="M3.73526 3.71601L5.21785 5.27042C5.41002 5.47443 5.51499 5.7458 5.50985 6.02534C5.50472 6.30487 5.38989 6.5699 5.19042 6.76261C4.99095 6.95532 4.72302 7.06009 4.44506 7.05407C4.1671 7.04804 3.90166 6.93171 3.70663 6.73044L0.684168 3.56384C0.545331 3.4188 0.449818 3.23756 0.408711 3.04113C0.367605 2.8447 0.38259 2.64114 0.451928 2.45406C0.521265 2.26699 0.642114 2.10407 0.800451 1.98421C0.958788 1.86434 1.14812 1.79246 1.34649 1.77688L18.7092 0.407194C18.909 0.391285 19.1097 0.433132 19.2877 0.527811C19.4657 0.622491 19.6137 0.766067 19.7142 0.941656C19.8147 1.11724 19.8636 1.31755 19.8551 1.519C19.8466 1.72046 19.781 1.9147 19.6662 2.07888L9.69282 16.3573C9.57735 16.5228 9.41669 16.6508 9.22999 16.7263C9.04328 16.8017 8.8384 16.8214 8.63976 16.7828C8.44112 16.7443 8.2571 16.6492 8.10963 16.509C7.96215 16.3687 7.85744 16.1892 7.80798 15.9917L5.93569 8.49412C5.87959 8.27018 5.8974 8.03469 5.98644 7.82335C6.07547 7.612 6.23087 7.43632 6.42907 7.32293L10.0739 5.23652C10.3155 5.09818 10.6029 5.06265 10.8728 5.13775C11.1427 5.21285 11.3729 5.39242 11.5129 5.63697C11.6529 5.88151 11.6911 6.17099 11.6192 6.44173C11.5473 6.71247 11.3712 6.94228 11.1295 7.08062L8.17175 8.77375L9.28682 13.2367L16.6475 2.69773L3.73526 3.71601Z" fill="white"/>
</svg>
