<svg width="18" height="17" viewBox="0 0 18 17" fill="none" xmlns="http://www.w3.org/2000/svg">
<path d="M8.39764 1.82143C12.0358 1.82143 14.9958 4.81743 14.9958 8.50002C14.9958 12.1826 12.0359 15.1786 8.39764 15.1786C4.7594 15.1786 1.79949 12.1826 1.79949 8.50002C1.79949 4.81743 4.75938 1.82143 8.39764 1.82143ZM8.39764 0C3.75978 0 0 3.80562 0 8.50002C0 13.1944 3.75978 17 8.39764 17C13.0355 17 16.7952 13.1944 16.7952 8.50002C16.7952 3.80562 13.0355 0 8.39764 0Z" fill="white"/>
<path d="M16.995 16.9997C16.7648 16.9997 16.5346 16.9108 16.3588 16.7329L13.9595 14.3043C13.6081 13.9489 13.6081 13.372 13.9595 13.0165C14.311 12.6608 14.8804 12.6608 15.2318 13.0165L17.6311 15.4451C17.9826 15.8005 17.9826 16.3775 17.6311 16.7329C17.4554 16.9108 17.2252 16.9997 16.995 16.9997Z" fill="white"/>
</svg>
