<svg width="18" height="19" viewBox="0 0 18 19" fill="none" xmlns="http://www.w3.org/2000/svg">
<g clip-path="url(#clip0_70_1091)">
<path d="M9 0.753204C4.05 0.753204 0 4.79412 0 9.73301C0 14.6719 4.05 18.7128 9 18.7128C13.95 18.7128 18 14.6719 18 9.73301C18 4.79412 13.95 0.753204 9 0.753204ZM14.85 7.15132L7.3125 14.6719L3.15 10.5187C2.7 10.0698 2.7 9.39627 3.15 8.94728C3.6 8.49829 4.275 8.49829 4.725 8.94728L7.3125 11.529L13.275 5.57985C13.725 5.13086 14.4 5.13086 14.85 5.57985C15.3 6.02884 15.3 6.70233 14.85 7.15132Z" fill="#F05B30"/>
</g>
<defs>
<clipPath id="clip0_70_1091">
<rect width="18" height="17.9596" fill="white" transform="translate(0 0.753204)"/>
</clipPath>
</defs>
</svg>
