<svg width="28" height="28" viewBox="0 0 28 28" fill="none" xmlns="http://www.w3.org/2000/svg">
<circle cx="14.1398" cy="13.86" r="13.86" fill="#121F38"/>
<g clip-path="url(#clip0_1_86)">
<path d="M14.9205 5.55847C15.8715 5.54395 16.8153 5.55121 17.7591 5.54395C17.8172 6.65471 18.2165 7.78725 19.0296 8.57132C19.8427 9.37717 20.9898 9.74743 22.1078 9.87085V12.7966C21.0624 12.7603 20.0097 12.5425 19.0586 12.0924C18.6448 11.9036 18.26 11.664 17.8825 11.4172C17.8753 13.5371 17.8898 15.657 17.868 17.7696C17.8099 18.786 17.476 19.7951 16.8879 20.63C15.9369 22.0239 14.2889 22.9314 12.5973 22.9604C11.5592 23.0185 10.521 22.7354 9.63528 22.2127C8.16878 21.3488 7.13788 19.7661 6.98542 18.0673C6.9709 17.7043 6.96364 17.3413 6.97816 16.9855C7.10884 15.6062 7.79127 14.2849 8.85121 13.3846C10.0564 12.3392 11.7407 11.8383 13.3161 12.1359C13.3306 13.2104 13.287 14.2849 13.287 15.3593C12.5683 15.127 11.7261 15.1924 11.0945 15.6279C10.6372 15.9256 10.2887 16.383 10.1072 16.8984C9.95472 17.2687 9.99828 17.6752 10.0055 18.0673C10.1798 19.2579 11.3268 20.2598 12.5465 20.1509C13.3596 20.1436 14.1364 19.6717 14.5575 18.982C14.6954 18.7424 14.8479 18.4956 14.8552 18.2125C14.9278 16.913 14.8987 15.6207 14.906 14.3212C14.9132 11.3954 14.8987 8.47695 14.9205 5.55847Z" fill="white"/>
</g>
<defs>
<clipPath id="clip0_1_86">
<rect width="17.424" height="17.424" fill="white" transform="translate(5.82373 5.54395)"/>
</clipPath>
</defs>
</svg>
