<svg width="28" height="28" viewBox="0 0 28 28" fill="none" xmlns="http://www.w3.org/2000/svg">
<circle cx="13.9719" cy="13.86" r="13.86" fill="#05ABED"/>
<g clip-path="url(#clip0_1_66)">
<path d="M23.459 8.76939C23.1728 8.89079 22.8786 8.99326 22.578 9.07644C22.9339 8.69143 23.2053 8.23841 23.3709 7.74267C23.4081 7.63155 23.3696 7.50992 23.2741 7.43724C23.1787 7.36451 23.0462 7.3558 22.9412 7.41532C22.3028 7.77751 21.614 8.03781 20.8917 8.19001C20.1642 7.51003 19.1761 7.12305 18.1546 7.12305C15.9983 7.12305 14.2441 8.80098 14.2441 10.8634C14.2441 11.0258 14.2548 11.1874 14.2761 11.3467C11.6004 11.122 9.11288 9.86401 7.40469 7.85974C7.34381 7.78831 7.25003 7.7498 7.15401 7.75717C7.05794 7.76436 6.97162 7.81618 6.92308 7.89583C6.57662 8.46447 6.39346 9.11483 6.39346 9.77655C6.39346 10.6778 6.72987 11.5329 7.32413 12.2011C7.14343 12.1413 6.96809 12.0665 6.80074 11.9776C6.71089 11.9298 6.60124 11.9305 6.51199 11.9794C6.42267 12.0284 6.36667 12.1184 6.36432 12.2169C6.36391 12.2334 6.36391 12.25 6.36391 12.2668C6.36391 13.6121 7.12087 14.8233 8.27817 15.4835C8.17875 15.474 8.07938 15.4602 7.98066 15.4422C7.87889 15.4235 7.77424 15.4577 7.7056 15.5319C7.63685 15.6061 7.61411 15.7095 7.64578 15.804C8.07415 17.0832 9.17704 18.0242 10.5103 18.311C9.40451 18.9735 8.13991 19.3206 6.81237 19.3206C6.53537 19.3206 6.25679 19.305 5.98413 19.2741C5.84869 19.2587 5.71918 19.3352 5.67305 19.4584C5.62692 19.5817 5.67581 19.7191 5.79104 19.7898C7.49647 20.8357 9.46844 21.3886 11.4936 21.3886C15.475 21.3886 17.9655 19.5928 19.3538 18.0863C21.0849 16.2078 22.0777 13.7214 22.0777 11.2647C22.0777 11.162 22.0761 11.0584 22.0728 10.9551C22.7558 10.4629 23.3438 9.86721 23.8223 9.18256C23.895 9.07858 23.8871 8.94115 23.8029 8.84544C23.7188 8.74966 23.5787 8.71869 23.459 8.76939Z" fill="white"/>
</g>
<defs>
<clipPath id="clip0_1_66">
<rect width="18.216" height="17.424" fill="white" transform="translate(5.65594 5.54395)"/>
</clipPath>
</defs>
</svg>
