<svg width="24" height="24" viewBox="0 0 24 24" fill="none" xmlns="http://www.w3.org/2000/svg">
<path d="M18.3431 0H5.65688C2.53267 0 0 2.53267 0 5.65688V18.3431C0 21.4673 2.53267 24 5.65688 24H18.3431C21.4673 24 24 21.4673 24 18.3431V5.65688C24 2.53267 21.4673 0 18.3431 0Z" fill="url(#paint0_linear_67_60)"/>
<path d="M20.055 11.804C19.7423 11.804 19.4423 11.9282 19.2211 12.1494C19 12.3705 18.8757 12.6705 18.8757 12.9833V15.7953C18.8748 16.569 18.5671 17.3108 18.02 17.8579C17.4729 18.405 16.7311 18.7127 15.9574 18.7136H8.04257C7.26886 18.7127 6.5271 18.405 5.98001 17.8579C5.43291 17.3108 5.12517 16.569 5.12428 15.7953V12.9833C5.12428 12.6705 5.00003 12.3705 4.77887 12.1494C4.5577 11.9282 4.25773 11.804 3.94495 11.804C3.63218 11.804 3.33221 11.9282 3.11104 12.1494C2.88988 12.3705 2.76563 12.6705 2.76562 12.9833V15.7953C2.76769 17.1942 3.32431 18.5352 4.31348 19.5244C5.30265 20.5136 6.64367 21.0702 8.04257 21.0723H15.9574C17.3563 21.0702 18.6973 20.5136 19.6865 19.5244C20.6757 18.5352 21.2323 17.1942 21.2344 15.7953V12.9833C21.2344 12.6705 21.1101 12.3705 20.889 12.1494C20.6678 11.9282 20.3678 11.804 20.055 11.804Z" fill="white"/>
<path d="M9.19036 8.08947C9.34535 8.08972 9.49886 8.05932 9.64206 8.00004C9.78527 7.94075 9.91534 7.85374 10.0248 7.74402L10.8147 6.95353V14.0251C10.8147 14.3377 10.9389 14.6375 11.16 14.8586C11.381 15.0796 11.6809 15.2038 11.9935 15.2038C12.1483 15.2038 12.3017 15.1733 12.4447 15.1141C12.5878 15.0548 12.7177 14.9679 12.8272 14.8584C12.9367 14.7489 13.0235 14.6189 13.0827 14.4758C13.1419 14.3327 13.1723 14.1793 13.1723 14.0245V6.95298L13.9739 7.75403C14.1952 7.97533 14.4953 8.09966 14.8083 8.09966C15.1213 8.09966 15.4214 7.97533 15.6427 7.75403C15.8641 7.53272 15.9884 7.23257 15.9884 6.9196C15.9884 6.60663 15.8641 6.30647 15.6427 6.08517L12.8263 3.27202C12.8073 3.25311 12.7873 3.23531 12.7678 3.21639L12.7539 3.20471C12.7125 3.16988 12.6688 3.13774 12.6232 3.10847L12.6165 3.10458C12.5692 3.07485 12.5197 3.04864 12.4686 3.02614C12.4172 3.00415 12.3644 2.98557 12.3106 2.97051H12.305C12.253 2.95611 12.2 2.94551 12.1465 2.9388H12.132C12.1075 2.9388 12.0831 2.93324 12.0586 2.93213H12.0536C12.0285 2.93213 12.003 2.93213 11.9779 2.93213H11.959C11.934 2.93213 11.9089 2.93213 11.8845 2.93658C11.8583 2.93658 11.8327 2.9427 11.8066 2.94715H11.7916C11.7375 2.9567 11.6842 2.96989 11.6319 2.98665H11.6269C11.5714 3.0051 11.5173 3.0276 11.465 3.05396C11.4394 3.06731 11.4138 3.08121 11.3883 3.09679C11.3654 3.1107 11.3432 3.12516 11.3209 3.14074L11.312 3.14686C11.2905 3.16243 11.2694 3.17856 11.2486 3.19525C11.2459 3.19814 11.2429 3.20075 11.2397 3.20304C11.2234 3.21713 11.2073 3.2316 11.1913 3.24643C11.1857 3.25134 11.1803 3.25654 11.1752 3.26201L11.1635 3.27258L8.36094 6.07682C8.19618 6.24182 8.08403 6.45195 8.03866 6.68067C7.99328 6.90938 8.01673 7.14641 8.10603 7.36181C8.19533 7.5772 8.34648 7.76129 8.54037 7.8908C8.73426 8.02032 8.9622 8.08946 9.19537 8.08947H9.19036Z" fill="white"/>
<defs>
<linearGradient id="paint0_linear_67_60" x1="12" y1="0" x2="12" y2="24" gradientUnits="userSpaceOnUse">
<stop stop-color="#00AFFF"/>
<stop offset="1" stop-color="#0063FF"/>
</linearGradient>
</defs>
</svg>
