<svg width="28" height="28" viewBox="0 0 28 28" fill="none" xmlns="http://www.w3.org/2000/svg">
<circle cx="14.0279" cy="13.86" r="13.86" fill="#E24642"/>
<g clip-path="url(#clip0_1_71)">
<path d="M15.7851 17.1552V19.3933C15.7851 19.8671 15.6472 20.104 15.3715 20.104C15.2088 20.104 15.0497 20.0262 14.8941 19.8707V16.6779C15.0497 16.5223 15.2088 16.4446 15.3715 16.4446C15.6472 16.4446 15.7851 16.6814 15.7851 17.1552ZM19.3703 17.1658V17.6538H18.4157V17.1658C18.4157 16.685 18.5748 16.4446 18.893 16.4446C19.2112 16.4446 19.3703 16.685 19.3703 17.1658ZM9.12386 14.8535H10.2588V13.8564H6.94939V14.8535H8.06314V20.8889H9.12386V14.8535ZM12.1787 20.8889H13.1227V15.649H12.1787V19.6585C11.9666 19.9555 11.765 20.104 11.5741 20.104C11.4468 20.104 11.3726 20.0298 11.3514 19.8813C11.3443 19.8601 11.3407 19.7363 11.3407 19.51V15.649H10.3967V19.7964C10.3967 20.1429 10.425 20.401 10.4816 20.5707C10.5664 20.8324 10.7715 20.9632 11.0968 20.9632C11.4362 20.9632 11.7969 20.7475 12.1787 20.3162V20.8889ZM16.7292 19.3191V17.2295C16.7292 16.7133 16.6973 16.3632 16.6337 16.1794C16.5135 15.7834 16.2625 15.5854 15.8806 15.5854C15.527 15.5854 15.1982 15.7763 14.8941 16.1582V13.8564H13.9501V20.8889H14.8941V20.3798C15.2123 20.7687 15.5412 20.9632 15.8806 20.9632C16.2625 20.9632 16.5135 20.7687 16.6337 20.3798C16.6973 20.1889 16.7292 19.8353 16.7292 19.3191ZM20.3144 19.213V19.0751H19.3491C19.3491 19.4358 19.3421 19.6514 19.3279 19.7222C19.2784 19.9767 19.137 20.104 18.9036 20.104C18.5783 20.104 18.4157 19.8601 18.4157 19.3721V18.4493H20.3144V17.3568C20.3144 16.7981 20.2189 16.388 20.028 16.1263C19.7522 15.7657 19.3774 15.5854 18.9036 15.5854C18.4228 15.5854 18.0445 15.7657 17.7687 16.1263C17.5707 16.388 17.4717 16.7981 17.4717 17.3568V19.1918C17.4717 19.7504 17.5742 20.1606 17.7793 20.4222C18.0551 20.7829 18.4369 20.9632 18.9248 20.9632C19.434 20.9632 19.8158 20.7758 20.0704 20.401C20.1977 20.2101 20.272 20.0192 20.2932 19.8282C20.3073 19.7646 20.3144 19.5595 20.3144 19.213ZM13.8652 9.5287V7.30121C13.8652 6.81328 13.7132 6.56932 13.4091 6.56932C13.1051 6.56932 12.953 6.81328 12.953 7.30121V9.5287C12.953 10.0237 13.1051 10.2712 13.4091 10.2712C13.7132 10.2712 13.8652 10.0237 13.8652 9.5287ZM21.4918 17.4947C21.4918 19.1494 21.3998 20.3869 21.216 21.2072C21.117 21.6244 20.9119 21.9744 20.6008 22.2573C20.2896 22.5401 19.929 22.7028 19.5188 22.7452C18.2177 22.8937 16.2554 22.9679 13.6319 22.9679C11.0084 22.9679 9.04607 22.8937 7.74493 22.7452C7.33479 22.7028 6.97238 22.5401 6.6577 22.2573C6.34302 21.9744 6.13972 21.6244 6.04779 21.2072C5.86393 20.4152 5.772 19.1777 5.772 17.4947C5.772 15.8399 5.86393 14.6024 6.04779 13.7822C6.14679 13.365 6.35186 13.0149 6.663 12.7321C6.97414 12.4492 7.33832 12.283 7.75554 12.2335C9.04961 12.0921 11.0084 12.0214 13.6319 12.0214C16.2554 12.0214 18.2177 12.0921 19.5188 12.2335C19.929 12.283 20.2914 12.4492 20.6061 12.7321C20.9208 13.0149 21.1241 13.365 21.216 13.7822C21.3998 14.5742 21.4918 15.8117 21.4918 17.4947ZM10.9059 3.95996H11.9878L10.7043 8.19221V11.0667H9.64361V8.19221C9.54461 7.66892 9.32893 6.91935 8.99657 5.94349C8.73493 5.21514 8.50511 4.55396 8.30711 3.95996H9.43146L10.1846 6.74964L10.9059 3.95996ZM14.8305 7.49214V9.34838C14.8305 9.92117 14.7315 10.3384 14.5335 10.6C14.2719 10.9607 13.8971 11.141 13.4091 11.141C12.9354 11.141 12.5641 10.9607 12.2954 10.6C12.0974 10.3313 11.9984 9.9141 11.9984 9.34838V7.49214C11.9984 6.92642 12.0974 6.51274 12.2954 6.2511C12.5641 5.89046 12.9354 5.71014 13.4091 5.71014C13.8971 5.71014 14.2719 5.89046 14.5335 6.2511C14.7315 6.51274 14.8305 6.92642 14.8305 7.49214ZM18.3839 5.77378V11.0667H17.4186V10.4833C17.0438 10.9218 16.6797 11.141 16.3261 11.141C16.0008 11.141 15.7922 11.0102 15.7003 10.7485C15.6437 10.5788 15.6154 10.3136 15.6154 9.95299V5.77378H16.5807V9.6666C16.5807 9.89995 16.5842 10.0237 16.5913 10.0378C16.6125 10.1934 16.6867 10.2712 16.814 10.2712C17.005 10.2712 17.2065 10.1192 17.4186 9.8151V5.77378H18.3839Z" fill="white"/>
</g>
<defs>
<clipPath id="clip0_1_71">
<rect width="19.008" height="19.008" fill="white" transform="translate(4.1279 3.95996)"/>
</clipPath>
</defs>
</svg>
