<svg width="20" height="14" viewBox="0 0 20 14" fill="none" xmlns="http://www.w3.org/2000/svg">
<path d="M19.5949 0.904883C19.5047 0.548242 19.2297 0.264648 18.8773 0.163672C18.7871 0.137891 18.6926 0.122851 18.5938 0.122851H1.40625C1.30742 0.122851 1.21289 0.137891 1.12266 0.163672C0.770313 0.264648 0.495313 0.548242 0.405078 0.904883C0.385742 0.986523 0.375 1.07031 0.375 1.15625V12.8437C0.375 13.4109 0.839063 13.875 1.40625 13.875H18.5938C19.1609 13.875 19.625 13.4109 19.625 12.8437V1.15625C19.625 1.07031 19.6143 0.986523 19.5949 0.904883ZM17.8848 1.15625L10.3652 8.67578C10.1654 8.87559 9.83672 8.87559 9.63691 8.67578L2.11523 1.15625H17.8848ZM18.5938 12.3281C18.5938 12.6117 18.3617 12.8437 18.0781 12.8437H1.92188C1.63828 12.8437 1.40625 12.6117 1.40625 12.3281V1.90605L9.27168 9.77148C9.67344 10.1732 10.3287 10.1732 10.7305 9.77148L18.5938 1.90605V12.3281Z" fill="#121F38"/>
</svg>
