<svg width="53" height="39" viewBox="0 0 53 39" fill="none" xmlns="http://www.w3.org/2000/svg">
<path d="M16.8833 27.0551C17.4786 27.4349 17.7924 27.9976 17.7924 28.6841V30.9884H16.6989C15.6435 30.9884 14.7836 31.8494 14.7836 32.9059V37.0854C14.7836 38.1405 15.642 39 16.6989 39H36.2983C37.3566 39 38.2178 38.1419 38.2178 37.0854V32.9059C38.2178 31.848 37.3566 30.9884 36.2983 30.9884H35.209V28.6841C35.209 27.999 35.5229 27.4349 36.1195 27.0551C38.4768 25.5414 39.8841 23.005 39.8841 20.2674V13.5233V9.16795V8.74169C39.8841 6.67655 38.1756 4.99686 36.0745 4.99686C35.5144 4.99686 34.981 5.11784 34.5012 5.33308C34.321 3.43253 32.6886 1.93853 30.7085 1.93853C30.0527 1.93853 29.4335 2.10313 28.8945 2.39152C28.3414 0.993183 26.9581 0 25.3439 0C23.6326 0 22.1817 1.11698 21.7047 2.64896C21.1854 2.3887 20.5999 2.24099 19.9779 2.24099C17.8796 2.24099 16.1726 3.92068 16.1726 5.98582V8.21978C14.4078 8.73888 13.1174 10.3496 13.1174 12.2502V20.266C13.1174 23.0036 14.5247 25.5414 16.8833 27.0551ZM35.9676 36.7506H17.0339V33.2379H35.9661V36.7506H35.9676ZM36.0745 7.24629C36.9344 7.24629 37.6338 7.91732 37.6338 8.74169V9.16795V13.5219C37.6338 14.3463 36.9344 15.0173 36.0745 15.0173C35.2161 15.0173 34.5195 14.3463 34.5195 13.5219V10.4608V8.74169C34.5195 7.91732 35.2175 7.24629 36.0745 7.24629ZM30.7099 4.18797C31.5698 4.18797 32.2692 4.859 32.2692 5.68337V8.74169V10.4608C32.2692 11.288 31.5698 11.9604 30.7099 11.9604C29.8515 11.9604 29.1549 11.288 29.1549 10.4608V9.16935V5.68337C29.1534 4.859 29.8515 4.18797 30.7099 4.18797ZM23.7889 3.74483C23.7889 2.92046 24.4869 2.24943 25.3439 2.24943C26.2038 2.24943 26.9032 2.92046 26.9032 3.74483V5.68337V8.04393H23.7874V5.98582V3.74483H23.7889ZM19.9779 4.49042C20.8378 4.49042 21.5372 5.16145 21.5372 5.98582V8.04393H18.4229V5.98582C18.4229 5.16145 19.1209 4.49042 19.9779 4.49042ZM15.3676 12.2502C15.3676 11.1712 16.2781 10.292 17.3983 10.292H26.9046V10.4594V10.5072V10.9222C26.9046 12.2685 25.7548 13.2828 24.2322 13.2828H19.6753C19.1363 13.2828 18.6733 13.664 18.5706 14.1929C18.4679 14.7219 18.755 15.2494 19.2546 15.4506C21.4907 16.3509 22.5378 18.0574 22.5504 20.8203C22.5533 21.4392 23.0557 21.9401 23.6749 21.9401H23.6805C24.3025 21.9372 24.8035 21.4308 24.8007 20.8104C24.7908 18.6341 24.2364 16.87 23.1457 15.5322H24.2307C25.9983 15.5322 27.5196 14.7008 28.3851 13.4248C29.0282 13.9144 29.8346 14.207 30.7085 14.207C31.2714 14.207 31.8048 14.086 32.2847 13.8694C32.4634 15.7713 34.0945 17.2653 36.0731 17.2653C36.629 17.2653 37.1567 17.1472 37.6324 16.9362V20.2646C37.6324 22.2327 36.6121 24.0629 34.9051 25.1587C33.668 25.9494 32.9574 27.2337 32.9574 28.6827V30.987H20.0412V28.6841C20.0412 27.2351 19.332 25.9508 18.0964 25.1616C16.3865 24.0643 15.3662 22.2341 15.3662 20.266V12.2502H15.3676ZM45.5611 14.902H51.8756C52.4976 14.902 53 15.4056 53 16.026C53 16.6464 52.4962 17.15 51.8756 17.15H45.5611C44.939 17.15 44.4366 16.6464 44.4366 16.026C44.4366 15.4056 44.939 14.902 45.5611 14.902ZM49.9448 23.5128C50.4978 23.797 50.716 24.4736 50.4317 25.0265C50.2319 25.4148 49.8378 25.6371 49.4297 25.6371C49.2566 25.6371 49.0807 25.5977 48.9175 25.5133L42.8183 22.3832C42.2652 22.099 42.0471 21.4224 42.3313 20.8695C42.6156 20.3166 43.2925 20.0986 43.8456 20.3827L49.9448 23.5128ZM42.3299 11.181C42.0471 10.6282 42.2652 9.95011 42.8183 9.66735L48.9175 6.5415C49.4705 6.25874 50.1488 6.47679 50.4317 7.02965C50.7146 7.58251 50.4964 8.26058 49.9434 8.54334L43.8442 11.6692C43.6795 11.7536 43.505 11.793 43.3319 11.793C42.9238 11.7916 42.5298 11.5693 42.3299 11.181ZM0 16.0274C0 15.4056 0.50381 14.9034 1.12443 14.9034H7.43894C8.06097 14.9034 8.56337 15.407 8.56337 16.0274C8.56337 16.6478 8.05956 17.1514 7.43894 17.1514H1.12583C0.50381 17.1514 0 16.6478 0 16.0274ZM10.6673 20.8681C10.9515 21.4209 10.7334 22.099 10.1803 22.3818L4.08537 25.5118C3.92071 25.5963 3.7448 25.6356 3.57171 25.6356C3.16359 25.6356 2.76955 25.4134 2.56971 25.0251C2.28544 24.4722 2.50357 23.7942 3.05664 23.5114L9.15162 20.3813C9.70468 20.0986 10.383 20.3166 10.6673 20.8681ZM2.56971 7.02824C2.85399 6.47538 3.53089 6.25733 4.08396 6.5415L10.1789 9.66735C10.732 9.95152 10.9501 10.6282 10.6659 11.181C10.466 11.5693 10.072 11.793 9.66387 11.793C9.49077 11.793 9.31627 11.7536 9.15162 11.6692L3.05804 8.54193C2.50498 8.25776 2.28685 7.5797 2.56971 7.02824Z" fill="#FFD83E"/>
</svg>
