<svg width="65" height="80" viewBox="0 0 65 80" fill="none" xmlns="http://www.w3.org/2000/svg">
<path d="M13.5992 41.2289C13.5679 41.9035 12.9957 42.4251 12.321 42.3938C11.6463 42.3625 11.1247 41.7903 11.156 41.1156C11.1873 40.441 11.7596 39.9194 12.4342 39.9506C13.1089 39.9819 13.6305 40.5542 13.5992 41.2289ZM62.4966 61.8164L58.827 63.239C58.4667 63.3787 58.0903 63.4485 57.7141 63.4485C57.29 63.4485 56.8661 63.3598 56.4655 63.183C55.7095 62.8495 55.1297 62.2434 54.8322 61.4763L54.6081 60.8981L52.0512 61.965C52.1508 62.8042 51.9936 63.6633 51.5789 64.4174C51.0684 65.3457 50.2364 66.0288 49.2264 66.352C49.4838 67.3354 49.3822 68.4115 48.859 69.3624C48.0704 70.7961 46.5459 71.573 45.0116 71.485C45.0063 72.1401 44.8443 72.8012 44.509 73.4108C43.9787 74.3751 43.1011 75.0744 42.0386 75.3804C41.4788 75.5417 40.9047 75.5823 40.3468 75.5064C40.3186 76.112 40.1559 76.7194 39.8459 77.2833C39.3156 78.2475 38.4011 78.9715 37.3369 79.2697C36.969 79.3729 36.5958 79.424 36.2261 79.424C35.5335 79.424 34.8527 79.2447 34.2403 78.8929L33.4268 78.4257C32.9023 79.0824 32.1915 79.5666 31.3668 79.8166C30.9623 79.9392 30.5493 80 30.1389 80C29.4588 80 28.7862 79.8332 28.1715 79.5045C27.3399 79.0597 26.7071 78.366 26.3345 77.5508C25.2519 77.9349 24.0223 77.8754 22.9497 77.3015C22.2142 76.9081 21.6317 76.3131 21.2489 75.6106C20.0938 76.1447 18.7122 76.1518 17.5085 75.5081C16.5229 74.9809 15.8006 74.0986 15.475 73.0238C15.3192 72.5098 15.2634 71.9822 15.3048 71.4639C14.6966 71.435 14.0911 71.274 13.5328 70.9756C11.4926 69.8842 10.7202 67.3367 11.8113 65.2962L12.7429 63.5543C12.5405 63.0295 12.4344 62.4724 12.3391 61.9598C12.1713 61.0581 12.0371 60.4576 11.7136 60.3319C11.5455 60.2666 11.1576 60.1056 9.8033 59.5032L9.51136 60.1637C9.17879 60.9161 8.57122 61.4948 7.80091 61.793C7.43769 61.9335 7.05931 62.0037 6.68205 62.0037C6.25884 62.0037 5.83691 61.9155 5.43901 61.7397L1.83923 60.1487C0.282159 59.4602 -0.424605 57.6333 0.263287 56.0764L8.52816 37.377C8.86073 36.6244 9.4683 36.0459 10.2388 35.7477C11.0091 35.4496 11.8479 35.4686 12.6005 35.8012L16.2001 37.3921C17.7574 38.0805 18.4643 39.9073 17.7761 41.4645L17.259 42.6342L19.3707 43.6085C19.402 43.6228 19.4328 43.6387 19.463 43.6556C20.6044 44.2978 21.7828 44.0682 23.6111 43.6398C25.8485 43.1158 28.5951 42.4738 31.8136 44.3053C36.265 41.6185 39.6807 43.0114 42.2086 44.0446C44.0006 44.777 45.0643 45.1662 46.0834 44.6356L47.9216 43.6516L47.442 42.4146C47.1446 41.6476 47.1645 40.8087 47.498 40.0529C47.8316 39.2971 48.4378 38.7171 49.2049 38.4197L52.8744 36.9972C53.6413 36.6999 54.4802 36.7197 55.2361 37.0531C55.9921 37.3867 56.5721 37.9928 56.8695 38.76L64.2594 57.8221C64.8747 59.4092 64.0839 61.2013 62.4966 61.8164ZM15.4156 40.4208C15.5268 40.1694 15.4082 39.8632 15.1568 39.7521L11.5571 38.1612C11.4862 38.1299 11.4181 38.1189 11.3578 38.1189C11.2783 38.1189 11.2121 38.1379 11.17 38.1542C11.0962 38.1828 10.9613 38.2553 10.8886 38.42L2.62341 57.1192C2.51228 57.3707 2.63083 57.677 2.88228 57.7881L6.4819 59.3789C6.73351 59.4905 7.03947 59.3715 7.1506 59.1202L15.4156 40.4208ZM16.4669 68.5749L18.788 64.5578C19.1146 63.7912 18.8038 62.8943 18.0662 62.5006C17.2795 62.0806 16.2982 62.3779 15.8785 63.1629L14.0866 66.513C13.6666 67.2984 13.9639 68.2794 14.7495 68.6997C15.2982 68.9936 15.9679 68.9392 16.4669 68.5749ZM18.0622 71.0458C17.8603 71.4235 17.8183 71.8601 17.9443 72.2753C18.0703 72.6904 18.3474 73.0306 18.7252 73.2325C19.5101 73.6524 20.4925 73.3501 20.9173 72.5595L23.5047 67.5489C23.6207 66.8709 23.2868 66.1689 22.6781 65.8441C22.1234 65.5481 21.4484 65.6052 20.9488 65.9762L18.0622 71.0458ZM26.1987 74.5967L28.4815 70.209C28.5969 69.5316 28.2632 68.8305 27.6548 68.5057C27.049 68.1824 26.2867 68.2892 25.7882 68.7513L23.3168 73.537C23.2944 74.1509 23.62 74.7338 24.1665 75.0261C24.8582 75.3957 25.7182 75.2089 26.1987 74.5967ZM31.575 76.5663L33.2931 73.3538C33.5847 72.8087 33.5336 72.1309 33.1632 71.6274C33.0223 71.4356 32.8433 71.281 32.6303 71.1671C32.025 70.8437 31.2618 70.9508 30.7631 71.4145L28.5415 75.6843C28.4985 76.3123 28.8299 76.9307 29.388 77.2292C29.7659 77.4315 30.2022 77.4736 30.6178 77.3473C31.0333 77.2212 31.3731 76.9439 31.575 76.5663ZM36.9754 73.9488C36.9145 73.9146 36.8587 73.8753 36.8056 73.8333L35.9866 73.3698C35.9098 73.7841 35.7722 74.1898 35.5687 74.5706L34.7055 76.1846L35.5253 76.6554C35.859 76.847 36.2546 76.8928 36.64 76.7852C37.0414 76.6726 37.3858 76.4009 37.5843 76.0397C37.9899 75.3025 37.7169 74.3644 36.9754 73.9488ZM49.3451 61.7748C49.3449 61.7745 49.3452 61.7751 49.3451 61.7748C49.2039 61.4847 48.9796 61.2451 48.697 61.084L38.9372 55.5214C37.3891 54.639 35.3726 55.4551 33.0374 56.4004C31.2107 57.1399 29.1578 57.9705 27.0732 57.9707C25.0221 57.971 22.94 57.1673 21.0088 54.6822C20.7212 54.3133 20.6062 53.8366 20.6949 53.3759C20.7836 52.915 21.0675 52.5146 21.4734 52.2777C24.206 50.6827 26.5125 48.9434 28.329 47.1078C28.7032 46.7296 29.0802 46.3755 29.4581 46.0443C27.579 45.3602 25.9266 45.7472 24.1997 46.1517C22.2836 46.6005 20.3034 47.0646 18.2453 45.9306L16.2156 44.9941L10.8462 57.1428C12.0442 57.6755 12.4944 57.8668 12.647 57.926C13.9669 58.4384 14.4447 59.5766 14.7 60.6353C15.9701 59.6339 17.7654 59.4147 19.2814 60.224C20.4263 60.8351 21.1775 61.9122 21.4163 63.1046C22.2524 63.005 23.1176 63.1532 23.8931 63.5672C24.8421 64.0736 25.5287 64.9012 25.8692 65.8594C26.8537 65.6114 27.9217 65.723 28.8698 66.2289C29.8186 66.7354 30.5052 67.5628 30.8457 68.5207C31.8308 68.2729 32.8989 68.3844 33.8468 68.891C34.3232 69.1457 34.7358 69.4815 35.0777 69.8898L40.1741 72.7746C40.5239 72.9687 40.9322 73.0135 41.3247 72.9006C41.7228 72.7861 42.0507 72.5256 42.2478 72.1672C42.6508 71.4345 42.375 70.4986 41.6329 70.081C41.5715 70.0463 41.5152 70.0065 41.4617 69.9639L34.4231 66.0033C33.8019 65.6539 33.5818 64.8672 33.9313 64.2461C34.2808 63.6249 35.0672 63.4045 35.6885 63.7543L44.5156 68.7212L44.5179 68.7223C45.2582 69.1294 46.1909 68.8584 46.5979 68.1184C47.0009 67.3857 46.7251 66.4499 45.983 66.0322C45.9827 66.032 45.9834 66.0323 45.983 66.0322C43.91 64.8712 41.56 63.5549 39.2577 62.2366C38.6393 61.8826 38.4249 61.0942 38.779 60.4758C39.1328 59.8573 39.9209 59.6427 40.5397 59.9971C42.8331 61.31 45.1777 62.6232 47.2464 63.782C47.5927 63.9759 47.9986 64.0211 48.3893 63.9093C48.7901 63.7946 49.1198 63.5332 49.3178 63.1735C49.5564 62.74 49.5662 62.2303 49.3451 61.7748ZM53.6748 58.4913L48.8614 46.0751L47.2877 46.9173C45.145 48.0321 43.1557 47.2189 41.2321 46.4328C38.6522 45.3783 36.2155 44.3825 32.5602 46.8899C31.77 47.43 30.9641 48.1136 30.1633 48.9229C28.4138 50.691 26.2637 52.3667 23.761 53.9138C26.0958 56.2447 28.5117 55.4483 32.0692 54.008C34.7787 52.9113 37.5804 51.7769 40.2152 53.279L49.9751 58.8416C50.3459 59.0531 50.6781 59.316 50.9641 59.6223L53.6748 58.4913ZM61.8534 58.7542L54.4635 39.6923C54.3985 39.5245 54.2671 39.4458 54.1947 39.4137C54.1495 39.3937 54.0756 39.3692 53.9856 39.3692C53.9311 39.3692 53.8708 39.3782 53.8074 39.4028L50.138 40.8253C49.9701 40.8905 49.8914 41.0218 49.8593 41.0942C49.8273 41.1668 49.7833 41.3134 49.8485 41.4811L57.2383 60.5434C57.3033 60.7111 57.4348 60.7898 57.5072 60.8219C57.5796 60.854 57.7262 60.8979 57.8943 60.8327L61.5639 59.4102C61.8202 59.311 61.9526 59.0107 61.8534 58.7542ZM52.8481 41.15C52.1726 41.15 51.6252 41.6974 51.6252 42.3729C51.6252 43.0483 52.1728 43.5957 52.8481 43.5957C53.5234 43.5957 54.071 43.0482 54.071 42.3729C54.071 41.6974 53.5236 41.15 52.8481 41.15ZM7.48446 24.3333V5.20927C7.48446 2.3369 9.82136 0 12.6939 0H51.7744C54.6468 0 56.9837 2.3369 56.9837 5.20927V24.3335C56.9837 27.2059 54.6468 29.5428 51.7744 29.5428H51.1147L44.4806 36.2607C44.1131 36.6331 43.5568 36.7467 43.0726 36.5476C42.5884 36.3489 42.2723 35.8773 42.2723 35.3541V29.5428H26.2951L19.6609 36.2607C19.4136 36.5112 19.0809 36.6444 18.7425 36.6444C18.5777 36.6444 18.4114 36.6128 18.2528 36.5476C17.7687 36.3489 17.4525 35.8773 17.4525 35.3541V29.5428H12.6939C9.82136 29.5428 7.48446 27.2059 7.48446 24.3333ZM10.0651 24.3333C10.0651 25.7828 11.2444 26.962 12.6939 26.962H18.7428C19.4554 26.962 20.0331 27.5397 20.0331 28.2523V32.2111L24.8379 27.3457C25.0803 27.1002 25.4111 26.962 25.7559 26.962H43.5624C44.275 26.962 44.8527 27.5397 44.8527 28.2523V32.2111L49.6573 27.3457C49.8997 27.1002 50.2305 26.962 50.5754 26.962H51.7742C53.2236 26.962 54.4029 25.7826 54.4029 24.3333V5.20927C54.4029 3.75978 53.2236 2.5806 51.7742 2.5806H12.6939C11.2444 2.5806 10.0651 3.75994 10.0651 5.20927V24.3333ZM28.5244 15.1127C28.5244 13.0672 30.1885 11.403 32.2341 11.403C34.2797 11.403 35.9437 13.0672 35.9437 15.1127C35.9437 17.1581 34.2797 18.8223 32.2341 18.8223C30.1885 18.8223 28.5244 17.1581 28.5244 15.1127ZM31.1051 15.1127C31.1051 15.7352 31.6117 16.2417 32.2341 16.2417C32.8565 16.2417 33.3631 15.7352 33.3631 15.1127C33.3631 14.4901 32.8565 13.9836 32.2341 13.9836C31.6117 13.9836 31.1051 14.4901 31.1051 15.1127ZM41.2446 15.1127C41.2446 13.0672 42.9086 11.403 44.9542 11.403C46.9998 11.403 48.6638 13.0672 48.6638 15.1127C48.6638 17.1581 46.9998 18.8223 44.9542 18.8223C42.9086 18.8223 41.2446 17.1581 41.2446 15.1127ZM43.8252 15.1127C43.8252 15.7352 44.3318 16.2417 44.9542 16.2417C45.5766 16.2417 46.0832 15.7352 46.0832 15.1127C46.0832 14.4901 45.5766 13.9836 44.9542 13.9836C44.3318 13.9836 43.8252 14.4901 43.8252 15.1127ZM15.8042 15.1127C15.8042 13.0672 17.4682 11.403 19.5138 11.403C21.5594 11.403 23.2234 13.0672 23.2234 15.1127C23.2234 17.1581 21.5594 18.8223 19.5138 18.8223C17.4682 18.8223 15.8042 17.1581 15.8042 15.1127ZM18.3848 15.1127C18.3848 15.7352 18.8914 16.2417 19.5138 16.2417C20.1362 16.2417 20.6428 15.7352 20.6428 15.1127C20.6428 14.4901 20.1362 13.9836 19.5138 13.9836C18.8914 13.9836 18.3848 14.4901 18.3848 15.1127Z" fill="white"/>
</svg>
