<svg width="67" height="80" viewBox="0 0 67 80" fill="none" xmlns="http://www.w3.org/2000/svg">
<path d="M2.66703 26.5516C2.37656 26.2608 1.97344 26.0938 1.5625 26.0938C1.15156 26.0938 0.748594 26.2609 0.457812 26.5516C0.167031 26.8422 0 27.2453 0 27.6563C0 28.0672 0.167031 28.4703 0.457812 28.7608C0.748437 29.0516 1.15156 29.2188 1.5625 29.2188C1.97344 29.2188 2.37656 29.0516 2.66703 28.7608C2.95781 28.4703 3.125 28.0672 3.125 27.6563C3.125 27.2453 2.95781 26.8422 2.66703 26.5516Z" fill="white"/>
<path d="M61.5625 0H29.948C29.0852 0 28.3855 0.699688 28.3855 1.5625C28.3855 2.42531 29.0852 3.125 29.948 3.125H61.5625C62.4241 3.125 63.125 3.82594 63.125 4.6875V75.3125C63.125 76.1741 62.4241 76.875 61.5625 76.875H4.6875C3.82594 76.875 3.125 76.1741 3.125 75.3125V33.4895C3.125 32.6267 2.42531 31.927 1.5625 31.927C0.699687 31.927 0 32.6267 0 33.4895V75.3125C0 77.8972 2.10281 80 4.6875 80H61.5625C64.1472 80 66.25 77.8972 66.25 75.3125V4.6875C66.25 2.10281 64.1472 0 61.5625 0Z" fill="white"/>
<path d="M33.125 6.25C32.0619 6.25 30.9934 6.33125 29.9494 6.49125C29.0964 6.62219 28.5109 7.41953 28.6417 8.2725C28.7725 9.12547 29.5703 9.71016 30.423 9.58016C31.3109 9.44391 32.22 9.375 33.125 9.375C42.8608 9.375 50.7814 17.2956 50.7814 27.0314C50.7814 31.3548 49.2186 35.3194 46.6292 38.3923C45.4834 36.422 43.9184 34.7225 42.0189 33.4042C40.9103 32.6348 39.7192 32.0208 38.4723 31.5662C39.8955 30.1752 40.7812 28.2366 40.7812 26.0941V24.5706C40.7812 20.3487 37.3467 16.9142 33.125 16.9142C28.9033 16.9142 25.4687 20.3487 25.4687 24.5706V26.0941C25.4687 28.2366 26.3544 30.1752 27.7777 31.5662C26.5309 32.0208 25.3398 32.6348 24.2311 33.4042C22.3225 34.7289 20.7512 36.438 19.6041 38.4202C17.6311 36.0756 16.252 33.1919 15.7125 29.9748C15.5698 29.1241 14.7634 28.55 13.9131 28.6923C13.062 28.835 12.4878 29.6406 12.6305 30.4917C13.4339 35.2823 15.9209 39.6673 19.6336 42.8388C23.3884 46.0464 28.1798 47.813 33.1248 47.813C44.5837 47.813 53.9062 38.4905 53.9062 27.0316C53.9062 15.5727 44.5839 6.25 33.125 6.25ZM28.5937 24.5705C28.5937 22.0719 30.6266 20.0391 33.125 20.0391C35.6234 20.0391 37.6562 22.0719 37.6562 24.5705V26.0939C37.6562 28.5923 35.6234 30.6252 33.125 30.6252C30.6266 30.6252 28.5937 28.5923 28.5937 26.0939V24.5705ZM33.125 44.6878C28.8947 44.6878 24.9837 43.2106 21.9228 40.7062C24.0209 36.4481 28.3102 33.7502 33.125 33.7502C37.9298 33.7502 42.2109 36.437 44.3137 40.6797C41.2658 43.183 37.3678 44.6878 33.125 44.6878Z" fill="white"/>
<path d="M47.5558 62.1878H25.3683C24.5055 62.1878 23.8058 62.8875 23.8058 63.7503C23.8058 64.6131 24.5055 65.3128 25.3683 65.3128H47.5558C48.4187 65.3128 49.1183 64.6131 49.1183 63.7503C49.1183 62.8875 48.4186 62.1878 47.5558 62.1878Z" fill="white"/>
<path d="M19.7984 53.8953C19.5078 53.6045 19.1047 53.4375 18.6937 53.4375C18.2828 53.4375 17.8797 53.6047 17.5891 53.8953C17.2984 54.1859 17.1312 54.5891 17.1312 55C17.1312 55.4123 17.2986 55.8141 17.5891 56.1045C17.8797 56.3953 18.2828 56.5625 18.6937 56.5625C19.1047 56.5625 19.5078 56.3953 19.7984 56.1045C20.0906 55.8141 20.2562 55.4109 20.2562 55C20.2562 54.5891 20.0906 54.1859 19.7984 53.8953Z" fill="white"/>
<path d="M19.7984 62.6453C19.5078 62.3545 19.1062 62.1875 18.6937 62.1875C18.2828 62.1875 17.8797 62.3547 17.5891 62.6453C17.2984 62.9359 17.1312 63.3391 17.1312 63.75C17.1312 64.1623 17.2986 64.5641 17.5891 64.8545C17.8797 65.1453 18.2828 65.3125 18.6937 65.3125C19.1047 65.3125 19.5078 65.1453 19.7984 64.8545C20.0906 64.5641 20.2562 64.1625 20.2562 63.75C20.2562 63.3391 20.0906 62.9359 19.7984 62.6453Z" fill="white"/>
<path d="M47.5558 53.4378H25.3683C24.5055 53.4378 23.8058 54.1375 23.8058 55.0003C23.8058 55.8631 24.5055 56.5628 25.3683 56.5628H47.5558C48.4187 56.5628 49.1183 55.8631 49.1183 55.0003C49.1183 54.1375 48.4186 53.4378 47.5558 53.4378Z" fill="white"/>
<path d="M18.3791 9.00453C17.7686 8.39453 16.7795 8.39453 16.1692 9.00453L11.0808 14.093L9.34187 12.3541C8.73141 11.7441 7.74234 11.7441 7.13203 12.3541C6.52187 12.9644 6.52187 13.9538 7.13203 14.5639L9.97578 17.4077C10.2809 17.7127 10.6806 17.8653 11.0806 17.8653C11.4806 17.8653 11.8803 17.7127 12.1856 17.4078L18.3791 11.2144C18.9892 10.6041 18.9892 9.61469 18.3791 9.00453Z" fill="white"/>
<path d="M12.8125 0C5.74766 0 0 5.74766 0 12.8125C0 19.8773 5.74766 25.625 12.8125 25.625C19.8773 25.625 25.625 19.8773 25.625 12.8125C25.625 5.74766 19.8773 0 12.8125 0ZM12.8125 22.5C7.47078 22.5 3.125 18.1542 3.125 12.8125C3.125 7.47078 7.47078 3.125 12.8125 3.125C18.1542 3.125 22.5 7.47078 22.5 12.8125C22.5 18.1542 18.1542 22.5 12.8125 22.5Z" fill="white"/>
</svg>
