<svg width="80" height="80" viewBox="0 0 80 80" fill="none" xmlns="http://www.w3.org/2000/svg">
<path d="M71.5483 64.2766C72.5787 63.3567 73.3917 62.2193 73.9287 60.9467C74.4656 59.6741 74.7131 58.2981 74.6532 56.9181C74.5933 55.5382 74.2275 54.1888 73.5822 52.9675C72.937 51.7462 72.0284 50.6836 70.9222 49.8565C69.816 49.0293 68.5398 48.4583 67.186 48.1847C65.8321 47.9111 64.4343 47.9418 63.0938 48.2745C61.7532 48.6072 60.5033 49.2337 59.4344 50.1086C58.3656 50.9835 57.5045 52.0849 56.9135 53.3333H23.0865C22.496 52.084 21.6351 50.9815 20.5661 50.1057C19.4972 49.2299 18.2469 48.6026 16.9058 48.2693C15.5647 47.936 14.1663 47.905 12.8117 48.1785C11.4571 48.452 10.1803 49.0232 9.07355 49.8508C7.96683 50.6784 7.05791 51.7416 6.41254 52.9635C5.76717 54.1855 5.4015 55.5356 5.34198 56.9162C5.28247 58.2969 5.53059 59.6735 6.0684 60.9464C6.60622 62.2194 7.42027 63.3569 8.45167 64.2766C6.42374 64.7737 4.62076 65.9357 3.33052 67.5773C2.04027 69.2189 1.33713 71.2454 1.33333 73.3333V78.6667C1.33333 79.0203 1.47381 79.3594 1.72386 79.6095C1.97391 79.8595 2.31304 80 2.66667 80C3.02029 80 3.35943 79.8595 3.60948 79.6095C3.85952 79.3594 4 79.0203 4 78.6667V73.3333C4.00208 71.5659 4.70512 69.8714 5.95491 68.6216C7.20471 67.3718 8.89919 66.6687 10.6667 66.6667H18.6667C20.4341 66.6687 22.1286 67.3718 23.3784 68.6216C24.6282 69.8714 25.3313 71.5659 25.3333 73.3333V78.6667C25.3333 79.0203 25.4738 79.3594 25.7239 79.6095C25.9739 79.8595 26.313 80 26.6667 80C27.0203 80 27.3594 79.8595 27.6095 79.6095C27.8595 79.3594 28 79.0203 28 78.6667V74.6667H52V78.6667C52 79.0203 52.1405 79.3594 52.3905 79.6095C52.6406 79.8595 52.9797 80 53.3333 80C53.687 80 54.0261 79.8595 54.2761 79.6095C54.5262 79.3594 54.6667 79.0203 54.6667 78.6667V73.3333C54.6687 71.5659 55.3718 69.8714 56.6216 68.6216C57.8714 67.3718 59.5659 66.6687 61.3333 66.6667H69.3333C71.1008 66.6687 72.7953 67.3718 74.0451 68.6216C75.2949 69.8714 75.9979 71.5659 76 73.3333V78.6667C76 79.0203 76.1405 79.3594 76.3905 79.6095C76.6406 79.8595 76.9797 80 77.3333 80C77.687 80 78.0261 79.8595 78.2761 79.6095C78.5262 79.3594 78.6667 79.0203 78.6667 78.6667V73.3333C78.6629 71.2454 77.9597 69.2189 76.6695 67.5773C75.3792 65.9357 73.5763 64.7737 71.5483 64.2766ZM65.3333 50.6667C66.6519 50.6667 67.9408 51.0577 69.0371 51.7902C70.1335 52.5227 70.9879 53.5639 71.4925 54.7821C71.9971 56.0003 72.1291 57.3407 71.8719 58.6339C71.6147 59.9271 70.9797 61.115 70.0474 62.0474C69.115 62.9797 67.9271 63.6147 66.6339 63.8719C65.3407 64.1291 64.0003 63.9971 62.7821 63.4925C61.5639 62.9879 60.5227 62.1335 59.7902 61.0371C59.0577 59.9408 58.6667 58.6519 58.6667 57.3333C58.6687 55.5659 59.3718 53.8714 60.6216 52.6216C61.8714 51.3718 63.5659 50.6687 65.3333 50.6667ZM8 57.3333C8 56.0148 8.39099 54.7259 9.12354 53.6295C9.85608 52.5332 10.8973 51.6787 12.1154 51.1741C13.3336 50.6696 14.6741 50.5375 15.9673 50.7948C17.2605 51.052 18.4484 51.6869 19.3807 52.6193C20.3131 53.5516 20.948 54.7395 21.2052 56.0327C21.4625 57.3259 21.3305 58.6664 20.8259 59.8846C20.3213 61.1027 19.4668 62.1439 18.3705 62.8765C17.2741 63.609 15.9852 64 14.6667 64C12.8992 63.9979 11.2047 63.2949 9.95491 62.0451C8.70512 60.7953 8.00208 59.1008 8 57.3333ZM52.1065 72H27.8935C27.6251 70.1614 26.8146 68.4445 25.5656 67.0688C24.3166 65.6931 22.6859 64.7209 20.8817 64.2766C22.0391 63.2616 22.9219 61.971 23.4483 60.5243C23.9748 59.0776 24.1279 57.5215 23.8935 56H56.1065C55.8721 57.5215 56.0252 59.0776 56.5517 60.5243C57.0781 61.971 57.9609 63.2616 59.1183 64.2766C57.3141 64.7209 55.6834 65.6931 54.4344 67.0688C53.1854 68.4445 52.3749 70.1614 52.1065 72ZM26.6667 49.3333C26.6667 49.687 26.8071 50.0261 27.0572 50.2761C27.3072 50.5262 27.6464 50.6667 28 50.6667C28.3536 50.6667 28.6928 50.5262 28.9428 50.2761C29.1929 50.0261 29.3333 49.687 29.3333 49.3333C29.3354 47.5659 30.0385 45.8714 31.2882 44.6216C32.538 43.3718 34.2325 42.6687 36 42.6667H44C45.7675 42.6687 47.462 43.3718 48.7118 44.6216C49.9615 45.8714 50.6646 47.5659 50.6667 49.3333C50.6667 49.687 50.8071 50.0261 51.0572 50.2761C51.3072 50.5262 51.6464 50.6667 52 50.6667C52.3536 50.6667 52.6928 50.5262 52.9428 50.2761C53.1929 50.0261 53.3333 49.687 53.3333 49.3333C53.3295 47.2454 52.6264 45.2189 51.3362 43.5773C50.0459 41.9357 48.2429 40.7737 46.215 40.2766C47.6258 39.0174 48.6208 37.3593 49.0683 35.5219C49.5158 33.6846 49.3945 31.7546 48.7207 29.9877C48.0468 28.2208 46.8521 26.7002 45.2948 25.6274C43.7375 24.5546 41.8911 23.9802 40 23.9802C38.1089 23.9802 36.2625 24.5546 34.7052 25.6274C33.1479 26.7002 31.9532 28.2208 31.2793 29.9877C30.6055 31.7546 30.4842 33.6846 30.9317 35.5219C31.3792 37.3593 32.3742 39.0174 33.785 40.2766C31.7571 40.7737 29.9541 41.9357 28.6639 43.5773C27.3736 45.2189 26.6705 47.2454 26.6667 49.3333ZM33.3333 33.3333C33.3333 32.0148 33.7243 30.7259 34.4569 29.6295C35.1894 28.5332 36.2306 27.6787 37.4488 27.1741C38.667 26.6696 40.0074 26.5375 41.3006 26.7948C42.5938 27.052 43.7817 27.6869 44.714 28.6193C45.6464 29.5516 46.2813 30.7395 46.5386 32.0327C46.7958 33.3259 46.6638 34.6664 46.1592 35.8846C45.6546 37.1027 44.8001 38.1439 43.7038 38.8765C42.6075 39.609 41.3185 40 40 40C38.2325 39.9979 36.538 39.2949 35.2882 38.0451C34.0385 36.7953 33.3354 35.1008 33.3333 33.3333ZM76 0H46.6667C45.6062 0.00115759 44.5894 0.422957 43.8395 1.17285C43.0896 1.92275 42.6678 2.93949 42.6667 4V18.6667C42.6678 19.7272 43.0896 20.7439 43.8395 21.4938C44.5894 22.2437 45.6062 22.6655 46.6667 22.6667H52V24.7813C52 25.4179 52.1888 26.0402 52.5425 26.5695C52.8962 27.0988 53.3989 27.5113 53.987 27.755C54.5752 27.9986 55.2224 28.0623 55.8467 27.9381C56.4711 27.8139 57.0446 27.5074 57.4948 27.0573L61.8854 22.6667H76C77.0605 22.6655 78.0773 22.2437 78.8271 21.4938C79.577 20.7439 79.9988 19.7272 80 18.6667V4C79.9988 2.93949 79.577 1.92275 78.8271 1.17285C78.0773 0.422957 77.0605 0.00115759 76 0ZM77.3333 18.6667C77.333 19.0202 77.1924 19.3591 76.9424 19.6091C76.6925 19.8591 76.3535 19.9996 76 20H61.3333C60.9797 20.0001 60.6407 20.1406 60.3907 20.3907L55.6101 25.1707C55.5299 25.2397 55.4322 25.2851 55.3278 25.3019C55.2234 25.3188 55.1164 25.3063 55.0187 25.266C54.9209 25.2256 54.8363 25.159 54.7741 25.0734C54.712 24.9878 54.6748 24.8867 54.6667 24.7813V21.3333C54.6667 21.1582 54.6323 20.9848 54.5653 20.823C54.4983 20.6612 54.4001 20.5142 54.2762 20.3904C54.1524 20.2666 54.0054 20.1684 53.8436 20.1014C53.6818 20.0344 53.5084 20 53.3333 20H46.6667C46.3132 19.9996 45.9742 19.8591 45.7243 19.6091C45.4743 19.3591 45.3337 19.0202 45.3333 18.6667V4C45.3337 3.64649 45.4743 3.30755 45.7243 3.05758C45.9742 2.80761 46.3132 2.66702 46.6667 2.66667H76C76.3535 2.66702 76.6925 2.80761 76.9424 3.05758C77.1924 3.30755 77.333 3.64649 77.3333 4V18.6667ZM12.7813 32L17.1725 36.392C17.6229 36.8418 18.1965 37.1479 18.8208 37.2718C19.4451 37.3957 20.0921 37.3318 20.6801 37.088C21.2681 36.8443 21.7706 36.4318 22.1242 35.9025C22.4778 35.3733 22.6666 34.7511 22.6667 34.1146V32H25.3333C26.3938 31.9988 27.4106 31.577 28.1605 30.8271C28.9104 30.0773 29.3322 29.0605 29.3333 28V13.3333C29.3322 12.2728 28.9104 11.2561 28.1605 10.5062C27.4106 9.75629 26.3938 9.33449 25.3333 9.33333H4C2.93949 9.33449 1.92275 9.75629 1.17285 10.5062C0.422957 11.2561 0.00115759 12.2728 0 13.3333V28C0.00115759 29.0605 0.422957 30.0773 1.17285 30.8271C1.92275 31.577 2.93949 31.9988 4 32H12.7813ZM2.66667 28V13.3333C2.66702 12.9798 2.80761 12.6409 3.05758 12.3909C3.30755 12.1409 3.64649 12.0004 4 12H25.3333C25.6868 12.0004 26.0258 12.1409 26.2758 12.3909C26.5257 12.6409 26.6663 12.9798 26.6667 13.3333V28C26.6663 28.3535 26.5257 28.6924 26.2758 28.9424C26.0258 29.1924 25.6868 29.333 25.3333 29.3333H21.3333C21.1582 29.3333 20.9848 29.3677 20.823 29.4347C20.6612 29.5017 20.5142 29.5999 20.3904 29.7238C20.2666 29.8476 20.1684 29.9946 20.1014 30.1564C20.0344 30.3182 20 30.4916 20 30.6667V34.1146C19.9916 34.2198 19.9543 34.3206 19.8922 34.406C19.8301 34.4914 19.7457 34.5579 19.6482 34.5983C19.5507 34.6387 19.4439 34.6514 19.3397 34.635C19.2354 34.6186 19.1377 34.5737 19.0573 34.5053L14.276 29.724C14.026 29.4739 13.6869 29.3334 13.3333 29.3333H4C3.64649 29.333 3.30755 29.1924 3.05758 28.9424C2.80761 28.6924 2.66702 28.3535 2.66667 28ZM73.3333 8C73.3334 8.17511 73.2989 8.34851 73.2319 8.5103C73.1649 8.67209 73.0667 8.81909 72.9429 8.94291C72.8191 9.06673 72.6721 9.16494 72.5103 9.23193C72.3485 9.29892 72.1751 9.33338 72 9.33333H64C63.6464 9.33333 63.3072 9.19286 63.0572 8.94281C62.8071 8.69276 62.6667 8.35362 62.6667 8C62.6667 7.64638 62.8071 7.30724 63.0572 7.05719C63.3072 6.80714 63.6464 6.66667 64 6.66667H72C72.1751 6.66662 72.3485 6.70108 72.5103 6.76807C72.6721 6.83506 72.8191 6.93327 72.9429 7.05709C73.0667 7.18091 73.1649 7.32791 73.2319 7.4897C73.2989 7.65149 73.3334 7.82489 73.3333 8ZM49.3333 8C49.3333 7.82489 49.3677 7.65149 49.4347 7.4897C49.5017 7.32791 49.5999 7.18091 49.7238 7.05709C49.8476 6.93327 49.9946 6.83506 50.1564 6.76807C50.3182 6.70108 50.4916 6.66662 50.6667 6.66667H58.6667C59.0203 6.66667 59.3594 6.80714 59.6095 7.05719C59.8595 7.30724 60 7.64638 60 8C60 8.35362 59.8595 8.69276 59.6095 8.94281C59.3594 9.19286 59.0203 9.33333 58.6667 9.33333H50.6667C50.4916 9.33338 50.3182 9.29892 50.1564 9.23193C49.9946 9.16494 49.8476 9.06673 49.7238 8.94291C49.5999 8.81909 49.5017 8.67209 49.4347 8.5103C49.3677 8.34851 49.3333 8.17511 49.3333 8ZM65.3333 14.6667C65.3334 14.8418 65.2989 15.0152 65.2319 15.177C65.1649 15.3388 65.0667 15.4858 64.9429 15.6096C64.8191 15.7334 64.6721 15.8316 64.5103 15.8986C64.3485 15.9656 64.1751 16 64 16H50.6667C50.313 16 49.9739 15.8595 49.7239 15.6095C49.4738 15.3594 49.3333 15.0203 49.3333 14.6667C49.3333 14.313 49.4738 13.9739 49.7239 13.7239C49.9739 13.4738 50.313 13.3333 50.6667 13.3333H64C64.1751 13.3333 64.3485 13.3677 64.5103 13.4347C64.6721 13.5017 64.8191 13.5999 64.9429 13.7238C65.0667 13.8476 65.1649 13.9946 65.2319 14.1564C65.2989 14.3182 65.3334 14.4916 65.3333 14.6667ZM6.66667 17.3333C6.66662 17.1582 6.70108 16.9848 6.76807 16.823C6.83506 16.6612 6.93327 16.5142 7.05709 16.3904C7.18091 16.2666 7.32791 16.1684 7.4897 16.1014C7.65149 16.0344 7.82489 16 8 16H21.3333C21.687 16 22.0261 16.1405 22.2761 16.3905C22.5262 16.6406 22.6667 16.9797 22.6667 17.3333C22.6667 17.687 22.5262 18.0261 22.2761 18.2761C22.0261 18.5262 21.687 18.6667 21.3333 18.6667H8C7.82489 18.6667 7.65149 18.6323 7.4897 18.5653C7.32791 18.4983 7.18091 18.4001 7.05709 18.2762C6.93327 18.1524 6.83506 18.0054 6.76807 17.8436C6.70108 17.6818 6.66662 17.5084 6.66667 17.3333ZM6.66667 24C6.66662 23.8249 6.70108 23.6515 6.76807 23.4897C6.83506 23.3279 6.93327 23.1809 7.05709 23.0571C7.18091 22.9333 7.32791 22.8351 7.4897 22.7681C7.65149 22.7011 7.82489 22.6666 8 22.6667H14.6667C15.0203 22.6667 15.3594 22.8071 15.6095 23.0572C15.8595 23.3072 16 23.6464 16 24C16 24.3536 15.8595 24.6928 15.6095 24.9428C15.3594 25.1929 15.0203 25.3333 14.6667 25.3333H8C7.82489 25.3334 7.65149 25.2989 7.4897 25.2319C7.32791 25.1649 7.18091 25.0667 7.05709 24.9429C6.93327 24.8191 6.83506 24.6721 6.76807 24.5103C6.70108 24.3485 6.66662 24.1751 6.66667 24Z" fill="white"/>
</svg>
