<svg width="90" height="80" viewBox="0 0 90 80" fill="none" xmlns="http://www.w3.org/2000/svg">
<path d="M78.8642 30.5031L78.8499 30.4444C78.6181 29.5079 77.6711 28.9369 76.7348 29.1685C75.7985 29.4003 75.2271 30.3471 75.4589 31.2838L75.4694 31.3262C75.6631 32.1256 76.3777 32.6617 77.1654 32.6617C77.3016 32.6617 77.4402 32.6456 77.5783 32.6121C78.5157 32.3847 79.0916 31.4405 78.8642 30.5031Z" fill="white"/>
<path d="M32.6118 52.2721C28.2691 49.6518 25.6764 45.0635 25.6764 39.9987C25.6764 38.4332 25.927 36.8949 26.4212 35.4268C26.729 34.5127 26.2373 33.5219 25.3232 33.2142C24.409 32.9068 23.4184 33.3984 23.1106 34.3125C22.4953 36.1404 22.1834 38.0536 22.1834 39.9989C22.1834 46.2986 25.4074 52.005 30.8072 55.2634C31.0897 55.4338 31.4007 55.5148 31.7079 55.5148C32.2998 55.5148 32.8769 55.2137 33.205 54.67C33.7034 53.8441 33.4378 52.7707 32.6118 52.2721Z" fill="white"/>
<path d="M52.2106 27.0255C48.8939 23.9026 44.5571 22.1827 39.9994 22.1827C37.8649 22.1827 35.7764 22.5568 33.7919 23.2944C32.8878 23.6306 32.4273 24.6359 32.7634 25.5403C33.0995 26.4446 34.1048 26.9051 35.0093 26.5688C36.6031 25.9763 38.2819 25.6759 39.9996 25.6759C43.6636 25.6759 47.1498 27.0583 49.8159 29.5687C50.1532 29.8865 50.5834 30.0439 51.0128 30.0439C51.4775 30.0439 51.9411 29.8596 52.2849 29.4945C52.9461 28.7922 52.9127 27.6867 52.2106 27.0255Z" fill="white"/>
<path d="M87.6925 40.525H74.5516V36.9115C74.5516 35.155 73.1225 33.7259 71.366 33.7259H69.0212C67.8204 28.1447 65.0549 23.0613 60.9961 19.0023C54.1088 12.115 44.2682 9.04349 34.6722 10.7846C33.7231 10.9568 33.0932 11.8659 33.2654 12.8151C33.4377 13.7644 34.3469 14.3936 35.296 14.2219C43.7646 12.685 52.4489 15.3954 58.5259 21.4727C61.9286 24.8754 64.3019 29.0927 65.4389 33.7261H55.9035C54.147 33.7261 52.7179 35.1552 52.7179 36.9116V40.5252H39.577C38.6124 40.5252 37.8303 41.3074 37.8303 42.2719V52.9869C37.8303 54.6265 38.4688 56.1189 39.5087 57.2316V66.1955C32.6946 66.0791 26.3309 63.3835 21.4731 58.5255C15.2377 52.2901 12.5664 43.4016 14.3274 34.7483C14.5197 33.8031 13.9094 32.8808 12.9641 32.6884C12.0186 32.4959 11.0966 33.1065 10.9042 34.0517C8.90898 43.8566 11.9363 53.929 19.0027 60.9956C24.4399 66.4329 31.8454 69.5541 39.5085 69.686V76.0154C39.5085 76.1793 39.5195 76.3403 39.5389 76.499C19.6211 76.2512 3.49319 59.9745 3.49319 39.999C3.49319 33.7528 5.08196 27.6472 8.09966 22.2365L13.993 28.1578C14.3209 28.4872 14.7665 28.6724 15.231 28.6724H26.217L36.9869 39.4423C37.3281 39.7835 37.7751 39.954 38.222 39.954C38.669 39.954 39.1162 39.7835 39.457 39.4423C40.1391 38.7602 40.1391 37.6542 39.457 36.9719L28.6869 26.202V15.216C28.6869 14.752 28.5023 14.3071 28.1737 13.9794L22.2639 8.08411C27.6676 5.07655 33.7631 3.49319 39.9987 3.49319C54.1685 3.49319 67.1763 11.8035 73.1382 24.6649C73.4337 25.3025 74.0647 25.6774 74.724 25.6774C74.9699 25.6774 75.2197 25.6252 75.4575 25.515C76.3326 25.1092 76.7133 24.0708 76.3077 23.1957C73.1425 16.3675 68.1287 10.5814 61.8077 6.46303C55.3186 2.23476 47.7771 0 39.9989 0C32.8329 0 25.8339 1.90914 19.7007 5.52724L14.6738 0.512004C14.1737 0.0132761 13.4229 -0.135556 12.7708 0.135207C12.1185 0.405795 11.6936 1.04235 11.6936 1.74843V11.6474H1.76415C1.05825 11.6474 0.422041 12.072 0.151278 12.7236C-0.119485 13.3753 0.0282991 14.1258 0.526154 14.6261L5.5454 19.6691C1.91543 25.8105 0 32.8205 0 39.9989C0 50.683 4.16067 60.7278 11.7155 68.2826C19.2703 75.8376 29.3151 79.9981 39.9992 79.9981L83.776 80C85.9732 80 87.7608 78.2126 87.7608 76.0152V57.2323C88.8438 56.0759 89.4392 54.5759 89.4392 52.9836V42.2715C89.4392 41.3071 88.6571 40.525 87.6925 40.525ZM15.1868 5.95819L25.1939 15.9404V22.7015L15.1868 12.6719V5.95819ZM12.7156 15.1409L22.7237 25.1783H15.957L5.96692 15.1409H12.7156ZM56.2111 37.2193H71.0578V40.525H56.2111V37.2193ZM84.2672 68.1212H72.8047C71.8401 68.1212 71.058 68.9034 71.058 69.8679C71.058 70.8323 71.8401 71.6146 72.8047 71.6146H84.2672V76.0151C84.2672 76.2862 84.047 76.5066 83.776 76.5066H45.6344C45.6218 76.5065 45.6098 76.5047 45.5972 76.5047H43.4744C43.2122 76.4948 43.0017 76.2799 43.0017 76.0152V59.1186C43.3436 59.1769 43.6943 59.2091 44.0525 59.2091H58.4577C58.7675 61.7913 60.9703 63.7998 63.6346 63.7998C66.3029 63.7998 68.5085 61.785 68.8128 59.197L83.2125 59.2061C83.2139 59.2061 83.2151 59.2061 83.2165 59.2061C83.5723 59.2061 83.9233 59.1747 84.2671 59.1165L84.2672 68.1212ZM61.9127 58.5844V55.5139H65.3568V58.5844C65.3568 59.534 64.5842 60.3064 63.6347 60.3064C62.6853 60.3064 61.9127 59.534 61.9127 58.5844ZM85.9458 52.9836C85.9458 53.7131 85.6618 54.3986 85.1457 54.9141C84.6302 55.4292 83.9453 55.7129 83.2165 55.7129C83.216 55.7129 83.2155 55.7129 83.2148 55.7129L68.85 55.7038V54.103C68.85 52.9548 67.9159 52.0206 66.7676 52.0206H60.5014C59.3532 52.0206 58.419 52.9546 58.419 54.103V55.7157H44.0525C42.5475 55.7157 41.3233 54.4913 41.3233 52.9866V44.0184H85.9456L85.9458 52.9836Z" fill="white"/>
<path d="M65.4817 68.633C65.1568 68.3081 64.7061 68.1212 64.2468 68.1212C63.7857 68.1212 63.3369 68.3079 63.0102 68.633C62.6853 68.9579 62.5002 69.4086 62.5002 69.8679C62.5002 70.3273 62.6853 70.7778 63.0102 71.1026C63.3369 71.4275 63.7858 71.6146 64.2468 71.6146C64.7063 71.6146 65.1552 71.4277 65.4817 71.1026C65.8066 70.7778 65.9935 70.3271 65.9935 69.8679C65.9935 69.4086 65.8066 68.9579 65.4817 68.633Z" fill="white"/>
</svg>
