<svg width="78" height="72" viewBox="0 0 78 72" fill="none" xmlns="http://www.w3.org/2000/svg">
<path d="M61.8067 40.6542H50.6398C50.0507 40.6542 49.5732 40.1824 49.5732 39.6006V34.7672C49.5732 34.1853 50.0507 33.7136 50.6398 33.7136H61.8067C62.3958 33.7136 62.8734 34.1854 62.8734 34.7672V39.6006C62.8734 40.1824 62.3958 40.6542 61.8067 40.6542ZM51.7065 38.5469H60.7401V35.8208H51.7065V38.5469Z" fill="#58A8E3"/>
<path d="M67.1958 3.61302H62.6056V1.0536C62.6056 0.471644 62.128 0 61.5389 0H40.764C40.1749 0 39.6973 0.471794 39.6973 1.0536V3.61318H35.1073C34.5182 3.61318 34.0406 4.08497 34.0406 4.66677V18.8298H17.9855C17.3964 18.8298 16.9188 19.3016 16.9188 19.8834V22.443H13.5723C12.9832 22.443 12.5056 22.9147 12.5056 23.4966V37.3309C12.5056 37.9128 12.9832 38.3845 13.5723 38.3845C14.1614 38.3845 14.639 37.9127 14.639 37.3309V24.5502H40.2372V39.8649C40.2372 40.4468 40.7148 40.9185 41.3039 40.9185C41.893 40.9185 42.3705 40.4467 42.3705 39.8649V23.4967C42.3705 22.9147 41.893 22.4431 41.3039 22.4431H37.9529V19.8835C37.9529 19.3016 37.4753 18.8299 36.8862 18.8299H36.1739V5.72037H66.1292V39.9844C66.1292 40.5663 66.6067 41.038 67.1958 41.038C67.7849 41.038 68.2625 40.5662 68.2625 39.9844V4.66677C68.2625 4.08482 67.7849 3.61302 67.1958 3.61302ZM19.0522 22.443V20.9371H35.8196V22.443H19.0522ZM41.8306 2.1072H60.4723V3.61302H41.8306V2.1072Z" fill="#58A8E3"/>
<path d="M29.7613 55.7769H26.0737C25.4846 55.7769 25.007 56.2487 25.007 56.8305C25.007 57.4123 25.4846 57.8841 26.0737 57.8841H29.7613C30.3504 57.8841 30.828 57.4123 30.828 56.8305C30.828 56.2487 30.3504 55.7769 29.7613 55.7769Z" fill="#58A8E3"/>
<path d="M61.8067 8.22878H50.6398C50.0507 8.22878 49.5732 8.70058 49.5732 9.28238V14.1157C49.5732 14.6977 50.0507 15.1693 50.6398 15.1693H61.8067C62.3958 15.1693 62.8734 14.6976 62.8734 14.1157V9.28253C62.8734 8.70058 62.3958 8.22878 61.8067 8.22878ZM60.7401 13.0622H51.7065V10.3361H60.7401V13.0622Z" fill="#58A8E3"/>
<path d="M61.8067 16.7223H50.6398C50.0507 16.7223 49.5732 17.1941 49.5732 17.7759V22.6135C49.5732 23.1954 50.0507 23.6671 50.6398 23.6671H61.8067C62.3958 23.6671 62.8734 23.1953 62.8734 22.6135V17.7759C62.8734 17.1941 62.3958 16.7223 61.8067 16.7223ZM60.7401 21.5599H51.7065V18.8296H60.7401V21.5599Z" fill="#58A8E3"/>
<path d="M61.8067 25.2158H50.6398C50.0507 25.2158 49.5732 25.6876 49.5732 26.2694V31.107C49.5732 31.6889 50.0507 32.1606 50.6398 32.1606H61.8067C62.3958 32.1606 62.8734 31.6888 62.8734 31.107V26.2694C62.8734 25.6876 62.3958 25.2158 61.8067 25.2158ZM60.7401 30.0534H51.7065V27.3231H60.7401V30.0534Z" fill="#58A8E3"/>
<path d="M45.2377 9.58969C44.6486 9.58969 44.171 10.0615 44.171 10.6433V38.2396C44.171 38.8215 44.6486 39.2932 45.2377 39.2932C45.8268 39.2932 46.3043 38.8214 46.3043 38.2396V10.6434C46.3043 10.0615 45.8269 9.58969 45.2377 9.58969Z" fill="#58A8E3"/>
<path d="M41.347 9.58969C40.7579 9.58969 40.2803 10.0615 40.2803 10.6433V19.7851C40.2803 20.3671 40.7579 20.8387 41.347 20.8387C41.9361 20.8387 42.4136 20.3669 42.4136 19.7851V10.6434C42.4136 10.0615 41.9361 9.58969 41.347 9.58969Z" fill="#58A8E3"/>
<path d="M21.7164 26.743H17.1047C16.5156 26.743 16.038 27.2148 16.038 27.7966V32.3568C16.038 32.9388 16.5156 33.4104 17.1047 33.4104H21.7164C22.3055 33.4104 22.7831 32.9386 22.7831 32.3568V27.7967C22.7831 27.2148 22.3055 26.743 21.7164 26.743ZM20.6497 31.3034H18.1712V28.8505H20.6497V31.3034Z" fill="#58A8E3"/>
<path d="M29.6793 33.4105C30.2684 33.4105 30.746 32.9388 30.746 32.357V27.7967C30.746 27.2148 30.2684 26.7431 29.6793 26.7431H25.0631C24.474 26.7431 23.9964 27.2149 23.9964 27.7967V32.357C23.9964 32.9389 24.474 33.4105 25.0631 33.4105H29.6793ZM26.1297 28.8503H28.6127V31.3032H26.1297V28.8503Z" fill="#58A8E3"/>
<path d="M37.7672 26.743H33.1554C32.5663 26.743 32.0887 27.2148 32.0887 27.7966V32.3568C32.0887 32.9388 32.5663 33.4104 33.1554 33.4104H37.7672C38.3563 33.4104 38.8339 32.9386 38.8339 32.3568V27.7967C38.8339 27.2148 38.3563 26.743 37.7672 26.743ZM36.7006 31.3034H34.2219V28.8505H36.7006V31.3034Z" fill="#58A8E3"/>
<path d="M27.1403 46.895V42.5184C27.1403 40.9258 25.8289 39.6303 24.2168 39.6303H19.7691V38.7557C19.7691 37.3891 18.6434 36.2773 17.2601 36.2773H9.88027C8.49933 36.2773 7.3757 37.3891 7.3757 38.7557V39.6303H2.92792C1.31345 39.6303 0 40.9258 0 42.5184V57.2188C0 58.8135 1.31345 60.1111 2.92792 60.1111H24.2167C25.8287 60.1111 27.1402 58.8135 27.1402 57.2188V46.9052C27.1403 46.9018 27.1403 46.8984 27.1403 46.895ZM9.50887 38.7559C9.50887 38.5547 9.67888 38.3848 9.88027 38.3848H17.2601C17.4638 38.3848 17.6357 38.5547 17.6357 38.7559V39.6304H9.50887V38.7559ZM2.92792 41.7376H24.2167C24.6524 41.7376 25.007 42.0878 25.007 42.5184V46.2078L16.3532 49.8627V49.8431C16.3532 48.8598 15.5435 48.0599 14.5482 48.0599H12.5964C11.6012 48.0599 10.7912 48.8598 10.7912 49.8431V49.8636L2.13333 46.2083V42.5185C2.13333 42.0879 2.48979 41.7376 2.92792 41.7376ZM12.9246 51.4683C12.9246 51.4656 12.9246 51.4627 12.9246 51.46V50.1671H14.2199V53.4562H12.9246V51.4683ZM24.2167 58.0037H2.92792C2.49726 58.0037 2.13333 57.6442 2.13333 57.2188V48.5L10.7912 52.1554V53.7805C10.7912 54.7636 11.6011 55.5637 12.5964 55.5637H14.5483C15.5435 55.5637 16.3534 54.7638 16.3534 53.7805V52.1549L25.007 48.4992V57.2188C25.007 57.6442 24.6452 58.0037 24.2167 58.0037Z" fill="#58A8E3"/>
<path d="M67.1786 51.4171C70.6621 51.4171 73.4963 48.6174 73.4963 45.1761C73.4963 41.7323 70.6622 38.9308 67.1786 38.9308C63.6927 38.9308 60.8568 41.7323 60.8568 45.1761C60.8568 48.6174 63.6927 51.4171 67.1786 51.4171ZM67.1786 41.0381C69.4859 41.0381 71.363 42.8944 71.363 45.1761C71.363 47.4554 69.4859 49.3098 67.1786 49.3098C64.869 49.3098 62.9901 47.4554 62.9901 45.1761C62.9901 42.8944 64.869 41.0381 67.1786 41.0381Z" fill="#58A8E3"/>
<path d="M71.7716 50.614C71.5065 50.5747 71.2359 50.6355 71.0141 50.7843C69.8814 51.5443 68.555 51.9461 67.1784 51.9461C65.8021 51.9461 64.4757 51.5445 63.3429 50.7843C63.1216 50.6358 62.8515 50.5751 62.5869 50.6137C61.1266 50.828 59.7953 51.4725 58.7399 52.426C59.347 51.468 59.6993 50.3372 59.6993 49.1262C59.6993 45.6826 56.8634 42.8809 53.3775 42.8809C49.894 42.8809 47.0598 45.6825 47.0598 49.1262C47.0598 50.057 47.2686 50.9401 47.64 51.7344C46.6396 50.9241 45.4203 50.3739 44.0903 50.1786C43.8257 50.1396 43.5556 50.2006 43.3342 50.3491C42.2014 51.1091 40.875 51.5109 39.4987 51.5109C38.1193 51.5109 36.7915 51.1092 35.6587 50.3491C35.4374 50.2007 35.1682 50.1395 34.9028 50.1784C31.3537 50.6988 28.6771 53.7639 28.6771 57.3082V64.7821C28.6771 65.2218 28.9536 65.6154 29.3707 65.7692C32.7061 66.9997 36.0894 67.6174 39.4755 67.6174C40.5038 67.6174 41.5327 67.5593 42.5602 67.4452V69.1674C42.5602 69.6072 42.8367 70.0007 43.2538 70.1545C46.589 71.3848 49.9598 72 53.3431 72C56.7245 72 60.1182 71.3855 63.5004 70.1563C63.9201 70.0039 64.1989 69.609 64.1989 69.1674V67.8958C65.1723 67.999 66.1488 68.0517 67.1274 68.0517C70.512 68.0517 73.9193 67.4348 77.3015 66.206C77.7211 66.0536 78 65.6588 78 65.2171V57.7478C78.0001 54.2065 75.3224 51.1398 71.7716 50.614ZM49.9174 54.9683C49.8105 54.6611 49.6836 54.3638 49.5381 54.0778C50.6031 54.8857 51.9342 55.3674 53.3776 55.3674C54.9784 55.3674 56.4411 54.7758 57.5561 53.8039C57.3279 54.1483 57.1277 54.5135 56.9594 54.898C55.8813 55.5518 54.6498 55.8964 53.3775 55.8964C52.1504 55.8964 50.9634 55.5763 49.9174 54.9683ZM53.3776 44.9884C55.6872 44.9884 57.5661 46.8446 57.5661 49.1263C57.5661 51.4057 55.6872 53.2601 53.3776 53.2601C51.0703 53.2601 49.1932 51.4057 49.1932 49.1263C49.1932 46.8447 51.0703 44.9884 53.3776 44.9884ZM30.8106 64.0414V57.3083C30.8106 54.9277 32.5172 52.8525 34.8387 52.3329C36.2397 53.1752 37.8416 53.6182 39.4988 53.6182C41.1535 53.6182 42.7537 53.1752 44.1547 52.3327C45.608 52.6572 46.837 53.5887 47.5434 54.8604C44.6306 55.8314 42.5603 58.5768 42.5603 61.6935V65.3229C38.6398 65.7946 34.6953 65.3654 30.8106 64.0414ZM62.0657 68.4231C56.257 70.3763 50.4197 70.3777 44.6937 68.4266V61.6937C44.6937 59.313 46.4003 57.2379 48.7218 56.7182C50.1227 57.5605 51.7228 58.0036 53.3776 58.0036C55.0308 58.0036 56.6322 57.5604 58.0369 56.7181C60.3588 57.2373 62.0657 59.3127 62.0657 61.6937V68.4231ZM75.8668 64.4727C71.9722 65.7822 68.0547 66.2182 64.199 65.7749V61.6937C64.199 58.6317 62.2007 55.9291 59.3686 54.9141C60.101 53.8333 61.2257 53.0575 62.5227 52.768C63.9236 53.6104 65.5238 54.0535 67.1786 54.0535C68.833 54.0535 70.433 53.6106 71.8337 52.7686C74.1584 53.2918 75.867 55.3686 75.867 57.7478V64.4727H75.8668Z" fill="#58A8E3"/>
<path d="M39.4988 50.9819C42.9823 50.9819 45.8164 48.1803 45.8164 44.7366C45.8164 41.2953 42.9823 38.4955 39.4988 38.4955C36.0129 38.4955 33.1768 41.2953 33.1768 44.7366C33.1768 48.1803 36.0131 50.9819 39.4988 50.9819ZM39.4988 40.6029C41.8061 40.6029 43.6831 42.4573 43.6831 44.7366C43.6831 47.0182 41.8061 48.8746 39.4988 48.8746C37.1892 48.8746 35.3102 47.0184 35.3102 44.7366C35.3102 42.4574 37.1892 40.6029 39.4988 40.6029Z" fill="#58A8E3"/>
</svg>
