<svg width="66" height="70" viewBox="0 0 66 70" fill="none" xmlns="http://www.w3.org/2000/svg">
<path d="M23.4769 59.6329V59.6497C23.4769 60.123 23.0922 60.5068 22.6179 60.5068C22.1436 60.5068 21.7589 60.123 21.7589 59.6497C21.7589 59.1766 22.1436 58.7842 22.6179 58.7842C23.0922 58.7842 23.4769 59.1595 23.4769 59.6329ZM0 19.7768V5.61203C0 3.75913 1.51124 2.25148 3.36836 2.25148H24.5883C26.4454 2.25148 27.9565 3.75913 27.9565 5.61203V19.7766C27.9565 21.6297 26.4452 23.1373 24.5883 23.1373H23.2916V25.456C23.2916 25.8147 23.0676 26.1354 22.7304 26.2599C22.6333 26.2957 22.5323 26.3131 22.4328 26.3131C22.1868 26.3131 21.9469 26.2075 21.7805 26.0138L19.309 23.1375H3.36836C1.51124 23.1375 0 21.6298 0 19.7768ZM1.71807 19.7768C1.71807 20.6848 2.45825 21.4235 3.36836 21.4235H19.7042C19.9548 21.4235 20.193 21.5328 20.3562 21.7228L21.5735 23.1397V22.2804C21.5735 21.8072 21.9581 21.4235 22.4324 21.4235H24.5881C25.4981 21.4235 26.2384 20.6848 26.2384 19.7768V5.61203C26.2384 4.70413 25.4981 3.96549 24.5881 3.96549H3.36836C2.45839 3.96549 1.71807 4.70413 1.71807 5.61203V19.7768ZM65.8824 8.45178V26.5819C65.8824 28.8243 64.0543 30.6482 61.8068 30.6482H41.3004L38.0374 34.4175C37.8709 34.6098 37.6319 34.7145 37.3869 34.7145C37.2869 34.7145 37.1853 34.6968 37.0877 34.6607C36.7513 34.536 36.5282 34.2157 36.5282 33.8575V30.6483H34.6423C32.3949 30.6483 30.5668 28.8244 30.5668 26.582V8.45178C30.5668 6.20983 32.3951 4.38563 34.6423 4.38563H37.8926V0.857218C37.8926 0.383879 38.2772 0 38.7515 0H54.8348C55.3089 0 55.6938 0.383739 55.6938 0.857218V2.83975H57.6978C58.172 2.83975 58.5567 3.22363 58.5567 3.69683V4.38577H61.8071C64.0543 4.38563 65.8824 6.20983 65.8824 8.45178ZM55.6936 4.55377V23.2381C55.6936 23.7113 55.3089 24.0951 54.8346 24.0951H42.4735V25.2375H56.8386V4.55377H55.6936ZM39.6105 22.3811H53.9757V1.71402H39.6105V22.3811ZM64.1644 8.45178C64.1644 7.15483 63.1067 6.09965 61.8069 6.09965H58.5566V26.0947C58.5566 26.5677 58.1718 26.9516 57.6977 26.9516H41.6144C41.14 26.9516 40.7553 26.5677 40.7553 26.0947V24.0951H38.7515C38.2772 24.0951 37.8926 23.7113 37.8926 23.2381V6.09965H34.6423C33.3423 6.09965 32.2848 7.15497 32.2848 8.45178V26.5819C32.2848 27.8788 33.3425 28.9342 34.6423 28.9342H37.3872C37.8615 28.9342 38.2462 29.318 38.2462 29.7912V31.5541L40.2573 29.2312C40.4205 29.0428 40.6577 28.9342 40.9074 28.9342H61.8069C63.1068 28.9342 64.1644 27.8788 64.1644 26.5819V8.45178ZM16.1004 42.2084C16.1004 38.6228 19.0242 35.7057 22.6179 35.7057C26.2024 35.7057 29.1183 38.6228 29.1183 42.2084C29.1183 45.7845 26.2024 48.6944 22.6179 48.6944C19.0242 48.6943 16.1004 45.7845 16.1004 42.2084ZM17.8183 42.2084C17.8183 44.8395 19.9713 46.9801 22.6179 46.9801C25.2551 46.9801 27.4004 44.8394 27.4004 42.2084C27.4004 39.5677 25.2551 37.4195 22.6179 37.4195C19.9713 37.4195 17.8183 39.5677 17.8183 42.2084ZM8.10062 18.483V6.92271C8.10062 6.61653 8.26452 6.33373 8.53 6.18057C8.7959 6.02783 9.12327 6.02713 9.38903 6.18057L19.4263 11.9606C19.6921 12.1136 19.856 12.3966 19.856 12.7027C19.856 13.0089 19.6921 13.2917 19.4263 13.4447L9.38903 19.2252C9.25615 19.3018 9.10798 19.3401 8.9598 19.3401C8.81148 19.3401 8.6633 19.3015 8.53 19.2252C8.26452 19.072 8.10062 18.7892 8.10062 18.483ZM9.81855 16.9992L17.2786 12.7027L9.81855 8.4067V16.9992ZM43.8205 6.09965H51.6856C52.1597 6.09965 52.5446 5.71591 52.5446 5.24257C52.5446 4.76937 52.1598 4.38563 51.6856 4.38563H43.8205C43.3464 4.38563 42.9616 4.76937 42.9616 5.24257C42.9616 5.71591 43.3463 6.09965 43.8205 6.09965ZM41.9008 10.6362H51.6856C52.1597 10.6362 52.5446 10.2526 52.5446 9.77926C52.5446 9.30592 52.1598 8.92232 51.6856 8.92232H41.9008C41.4266 8.92232 41.0419 9.30592 41.0419 9.77926C41.0419 10.2526 41.4266 10.6362 41.9008 10.6362ZM41.9008 15.173H51.6856C52.1597 15.173 52.5446 14.7893 52.5446 14.3161C52.5446 13.8428 52.1598 13.4589 51.6856 13.4589H41.9008C41.4266 13.4589 41.0419 13.8426 41.0419 14.3161C41.0418 14.7893 41.4266 15.173 41.9008 15.173ZM41.9008 19.7097H51.6856C52.1597 19.7097 52.5446 19.326 52.5446 18.8526C52.5446 18.3794 52.1598 17.9956 51.6856 17.9956H41.9008C41.4266 17.9956 41.0419 18.3793 41.0419 18.8526C41.0418 19.326 41.4266 19.7097 41.9008 19.7097ZM63.2046 61.1744V66.6393C63.2046 68.4923 61.6935 70 59.8364 70H38.6167C36.7594 70 35.2483 68.4922 35.2483 66.6393V63.1445H27.6534V64.8414H28.0238C29.6118 64.8414 30.9036 66.1231 30.9036 67.6981V69.1429C30.9036 69.6163 30.519 70 30.0447 70H15.174C14.6998 70 14.3151 69.6163 14.3151 69.1429V67.6981C14.3151 66.1231 15.607 64.8414 17.1948 64.8414H17.5653V63.1445H0.859034C0.384755 63.1445 0 62.7608 0 62.2874V35.7059C0 35.2327 0.384755 34.8489 0.859034 34.8489H11.3765C11.3513 34.7673 11.3341 34.6827 11.3341 34.5956C11.3344 34.3678 11.4258 34.1494 11.5877 33.9888L14.3834 31.2163C14.7175 30.8841 15.258 30.8838 15.5934 31.2153L16.9455 32.5523C17.8329 32.0349 18.7914 31.6366 19.7715 31.3776V29.4886C19.7715 29.0155 20.1561 28.6316 20.6306 28.6316H24.5884C25.0627 28.6316 25.4473 29.0155 25.4473 29.4886V31.3769C26.4316 31.6349 27.382 32.0287 28.2854 32.5525L29.6228 31.2178C29.9572 30.8842 30.4999 30.883 30.8355 31.2162L33.6313 33.9887C33.7931 34.1493 33.8845 34.3677 33.8848 34.5955C33.8848 34.6826 33.868 34.767 33.8424 34.8487H44.3599C44.8341 34.8487 45.219 35.2326 45.219 35.7058V49.0973H59.8368C61.694 49.0973 63.2051 50.6126 63.2051 52.4748V61.1727C63.2046 61.1729 63.2046 61.174 63.2046 61.1744ZM59.8364 50.8114H43.5006C43.2508 50.8114 43.0133 50.703 42.8502 50.5141L41.6144 49.0843V49.9544C41.6144 50.4276 41.23 50.8114 40.7553 50.8114H38.6167C37.7221 50.8114 36.9662 51.5731 36.9662 52.4748V63.1119L51.4467 53.5418C51.7352 53.351 52.1093 53.3522 52.3968 53.5425L61.4867 59.5788V52.4748C61.4869 51.5732 60.7311 50.8114 59.8364 50.8114ZM13.4095 34.5984L14.6363 35.8222C14.9287 36.1142 14.9711 36.5727 14.737 36.913C14.0236 37.9501 13.5366 39.1249 13.2891 40.4046C13.2113 40.808 12.8574 41.0994 12.4457 41.0994H10.7281V43.3175H12.4457C12.8574 43.3175 13.2113 43.6088 13.2891 44.012C13.5321 45.2702 14.0204 46.4467 14.7404 47.5085C14.9708 47.8487 14.9273 48.3041 14.6363 48.5946L13.4228 49.8052L14.9906 51.3791L16.2171 50.1552C16.5101 49.8636 16.9696 49.8207 17.3105 50.0545C18.3481 50.765 19.5206 51.2514 20.795 51.4995C21.1983 51.578 21.4896 51.9305 21.4896 52.3406V54.0711H23.7294V52.3406C23.7294 51.9305 24.0207 51.578 24.4238 51.4995C25.6922 51.2525 26.872 50.765 27.93 50.051C28.2719 49.8204 28.7306 49.865 29.0212 50.158L30.233 51.3779L31.8082 49.8063L30.5855 48.5974C30.2922 48.3073 30.2472 47.8501 30.4783 47.5086C31.1941 46.4529 31.6827 45.2759 31.93 44.0104C32.0086 43.6082 32.3619 43.3177 32.7729 43.3177H34.4906V41.0997H32.7729C32.3614 41.0997 32.0074 40.8082 31.9298 40.4049C31.6822 39.1252 31.1952 37.9504 30.4818 36.9133C30.2478 36.5728 30.2901 36.1143 30.5824 35.8224L31.8092 34.5987L30.2318 33.0346L29.0186 34.2452C28.7294 34.533 28.2777 34.5784 27.9371 34.3538C26.8408 33.6302 25.6588 33.1413 24.4238 32.9009C24.0205 32.8224 23.7294 32.4699 23.7294 32.0598V30.3461H21.4896V32.0598C21.4896 32.4699 21.1983 32.8224 20.795 32.9009C19.5704 33.1396 18.3631 33.6407 17.3032 34.3507C16.9635 34.5783 16.5107 34.5349 16.2199 34.248L14.9896 33.0318L13.4095 34.5984ZM1.71807 56.1379H35.2483V52.4748C35.2483 50.6126 36.7595 49.0973 38.6167 49.0973H39.8964V46.7787C39.8964 46.4207 40.1198 46.1002 40.4562 45.9755C40.7923 45.85 41.1713 45.9479 41.4056 46.2188L43.5006 48.6422V36.5627H32.2926C32.8097 37.4369 33.2003 38.3816 33.4597 39.3854H35.3495C35.8238 39.3854 36.2084 39.7692 36.2084 40.2424V44.1743C36.2084 44.6474 35.8239 45.0313 35.3495 45.0313H33.458C33.1973 46.0307 32.8041 46.9789 32.2836 47.8635L33.63 49.1944C33.7922 49.3549 33.8838 49.5735 33.8844 49.8011C33.885 50.0292 33.7942 50.248 33.6329 50.4091L30.8374 53.1985C30.6759 53.3596 30.4443 53.4485 30.228 53.4494C29.9997 53.4487 29.7806 53.3574 29.62 53.1956L28.2858 51.8523C27.3993 52.3715 26.4489 52.7637 25.4472 53.0239V54.928C25.4472 55.4011 25.0625 55.7851 24.5883 55.7851H20.6304C20.1561 55.7851 19.7714 55.4011 19.7714 54.928V53.0239C18.767 52.7635 17.8205 52.3715 16.9441 51.8532L15.5961 53.1985C15.4347 53.3591 15.2162 53.4494 14.9886 53.4494C14.9879 53.4494 14.9878 53.4494 14.9873 53.4494C14.7592 53.449 14.5404 53.358 14.3793 53.1964L11.6005 50.407C11.2669 50.0722 11.2678 49.5309 11.6023 49.1969L12.9362 47.8665C12.4125 46.9777 12.0186 46.0285 11.7592 45.0312H9.86907C9.39479 45.0312 9.01017 44.6474 9.01017 44.1741V40.2422C9.01017 39.769 9.39479 39.3853 9.86907 39.3853H11.7586C12.0181 38.3815 12.4088 37.4368 12.9256 36.5626H1.71807V56.1379ZM28.0238 66.5554H17.1948C16.554 66.5554 16.0331 67.0681 16.0331 67.6981V68.286H29.1857V67.6981C29.1857 67.0683 28.6645 66.5554 28.0238 66.5554ZM25.9355 63.1446H19.2834V64.8416H25.9355V63.1446ZM35.2483 61.4306V57.8519H1.71807V61.4306H35.2483ZM61.4869 66.6395V61.6378L51.92 55.2846L36.9662 65.1675V66.6395C36.9662 67.5476 37.7066 68.2861 38.6167 68.2861H59.8364C60.7465 68.2861 61.4869 67.5475 61.4869 66.6395ZM44.0396 54.9617C44.0396 56.5551 42.7325 57.8519 41.1259 57.8519C39.5287 57.8519 38.2292 56.5553 38.2292 54.9617C38.2292 53.368 39.5287 52.0716 41.1259 52.0716C42.7325 52.0716 44.0396 53.368 44.0396 54.9617ZM42.3217 54.9617C42.3217 54.3133 41.7854 53.7857 41.1259 53.7857C40.476 53.7857 39.9473 54.3135 39.9473 54.9617C39.9473 55.6101 40.4762 56.1378 41.1259 56.1378C41.7854 56.1379 42.3217 55.6103 42.3217 54.9617Z" fill="#E55B5B"/>
</svg>
