<svg width="58" height="81" viewBox="0 0 58 81" fill="none" xmlns="http://www.w3.org/2000/svg">
<path d="M40.3034 64.5654V50.7952M16.6796 50.3191V79L28.4915 70.5423L40.3034 79V66.9051M21.4044 57.4288V59.7987M47.5088 64.6084H57.037M46.5005 56.6294L55.7042 54.1554M46.4241 72.5771L55.6278 75.0511M9.52825 64.6084H0M10.5365 56.6294L1.33301 54.1554M10.6129 72.5771L1.40939 75.0511M28.4915 33.5454L24.6043 34.5342L24.3403 30.5199L22.2018 27.1167L25.9258 25.6244L28.4915 22.5325L31.057 25.6244L34.7811 27.1167L32.6427 30.5199L32.3787 34.5342L28.4915 33.5454ZM41.4795 28.99C41.4795 36.186 35.6646 42.0194 28.4915 42.0194C21.3184 42.0194 15.5035 36.186 15.5035 28.99C15.5035 21.7941 21.3184 15.9606 28.4915 15.9606C35.6646 15.9606 41.4795 21.7941 41.4795 28.99ZM46.2043 28.99C46.2043 38.8037 38.274 46.7592 28.4915 46.7592C18.709 46.7592 10.7787 38.8037 10.7787 28.99C10.7787 19.1764 18.709 11.2208 28.4915 11.2208C38.274 11.2208 46.2043 19.1764 46.2043 28.99ZM51.3009 28.99L54.0855 20.648L46.9473 15.5408L44.3075 7.1539L35.5426 7.22153L28.4915 2L21.4404 7.22153L12.6756 7.1539L10.0355 15.5408L2.89753 20.6478L5.68199 28.99L2.89737 37.3321L10.0355 42.4392L12.6756 50.8261L21.4403 50.7585L28.4915 55.98L35.5424 50.7585L44.3075 50.8261L46.9473 42.4392L54.0853 37.3322L51.3009 28.99Z" stroke="#38C0C2" stroke-width="2" stroke-miterlimit="10"/>
</svg>
