<svg width="76" height="77" viewBox="0 0 76 77" fill="none" xmlns="http://www.w3.org/2000/svg">
<path d="M61.7486 67.3925C61.6483 67.3925 61.5475 67.4059 61.447 67.4085C60.7547 66.3938 59.8495 65.5461 58.7959 64.9261C57.7423 64.306 56.5663 63.9289 55.352 63.8215C54.1376 63.7142 52.9148 63.8793 51.7708 64.3051C50.6268 64.7308 49.5899 65.4068 48.734 66.2847C47.0339 64.8708 44.9441 64.0214 42.7494 63.8522V61.3878H45.1243C45.2803 61.3879 45.4347 61.3569 45.5788 61.2966C45.7229 61.2363 45.8539 61.1478 45.9642 61.0363C46.0745 60.9248 46.1619 60.7923 46.2216 60.6466C46.2812 60.5008 46.3119 60.3446 46.3118 60.1869V55.3832H49.8741C50.091 55.3832 50.3037 55.323 50.4891 55.2093C50.6746 55.0956 50.8256 54.9326 50.9259 54.7381L54.4883 47.8456C54.5648 47.6696 54.6107 47.4816 54.6239 47.2897V44.5344L62.325 49.2073C62.5051 49.3167 62.7108 49.3758 62.921 49.3785C63.1311 49.3813 63.3382 49.3275 63.5211 49.2228C63.7041 49.1181 63.8562 48.9662 63.962 48.7825C64.0679 48.5989 64.1236 48.3901 64.1235 48.1775V38.0013C64.118 36.1369 63.6383 34.3054 62.7305 32.6828C61.8227 31.0602 60.5174 29.7011 58.94 28.7362L54.4488 26.0073C53.9608 20.7599 52.2787 15.6979 49.5342 11.2175C46.7896 6.73702 43.0571 2.95972 38.6287 0.181194C38.4398 0.0627526 38.2219 0 37.9996 0C37.7773 0 37.5594 0.0627526 37.3705 0.181194C32.9421 2.9596 29.2095 6.73681 26.465 11.2172C23.7204 15.6976 22.0384 20.7596 21.5505 26.0069L17.0592 28.7362C15.4817 29.701 14.1763 31.0601 13.2685 32.6827C12.3607 34.3053 11.881 36.1369 11.8757 38.0013V48.1775C11.8757 48.3901 11.9315 48.5988 12.0373 48.7824C12.1432 48.966 12.2953 49.1179 12.4782 49.2226C12.6611 49.3273 12.8681 49.381 13.0783 49.3783C13.2884 49.3756 13.494 49.3166 13.6742 49.2073L21.3753 44.5344V47.2897C21.3883 47.4815 21.434 47.6696 21.5104 47.8456L25.0727 54.7381C25.1732 54.9326 25.3244 55.0955 25.5099 55.2092C25.6954 55.3229 25.9082 55.3831 26.1251 55.3832H29.6874V60.1869C29.6874 60.3446 29.7181 60.5008 29.7778 60.6465C29.8374 60.7923 29.9249 60.9247 30.0351 61.0362C30.1454 61.1477 30.2763 61.2362 30.4204 61.2965C30.5645 61.3568 30.7189 61.3879 30.8749 61.3878H33.2498V63.8522C31.0548 64.0214 28.9648 64.8709 27.2646 66.2851C26.4089 65.4071 25.372 64.7311 24.2281 64.3052C23.0841 63.8794 21.8613 63.7142 20.6469 63.8215C19.4326 63.9288 18.2566 64.3059 17.203 64.926C16.1495 65.5461 15.2442 66.3937 14.552 67.4085C14.4515 67.4059 14.3509 67.3925 14.2506 67.3925C9.01256 67.3925 4.75095 71.1642 4.75095 75.7991C4.75095 76.1176 4.87606 76.423 5.09875 76.6482C5.32144 76.8735 5.62347 77 5.9384 77C6.25334 77 6.55537 76.8735 6.77806 76.6482C7.00075 76.423 7.12586 76.1176 7.12586 75.7991C7.12586 72.7309 9.87221 70.1967 13.4013 69.8411C13.1782 70.6059 13.0643 71.3989 13.0631 72.1963C13.0631 72.5148 13.1882 72.8202 13.4109 73.0454C13.6336 73.2707 13.9356 73.3972 14.2506 73.3972C14.5655 73.3972 14.8675 73.2707 15.0902 73.0454C15.3129 72.8202 15.438 72.5148 15.438 72.1963C15.4373 70.9887 15.7968 69.809 16.4696 68.8114C17.1423 67.8138 18.097 67.0447 19.2089 66.6045C20.3207 66.1643 21.538 66.0736 22.7016 66.3442C23.8652 66.6148 24.921 67.2341 25.7311 68.1213C25.2179 68.9906 24.9439 69.9829 24.9376 70.9953C24.9376 71.3138 25.0627 71.6193 25.2854 71.8445C25.5081 72.0697 25.8102 72.1963 26.1251 72.1963C26.44 72.1963 26.7421 72.0697 26.9647 71.8445C27.1874 71.6193 27.3125 71.3138 27.3125 70.9953C27.3125 68.6642 29.9302 66.6616 33.2498 66.267V69.7944C33.2498 70.1129 33.3749 70.4184 33.5976 70.6436C33.8203 70.8688 34.1223 70.9953 34.4372 70.9953C34.7522 70.9953 35.0542 70.8688 35.2769 70.6436C35.4996 70.4184 35.6247 70.1129 35.6247 69.7944V61.3878H40.3745V69.7944C40.3745 70.1129 40.4996 70.4184 40.7223 70.6436C40.945 70.8688 41.247 70.9953 41.562 70.9953C41.8769 70.9953 42.1789 70.8688 42.4016 70.6436C42.6243 70.4184 42.7494 70.1129 42.7494 69.7944V66.267C46.0685 66.6617 48.6867 68.6642 48.6867 70.9953C48.6867 71.3138 48.8118 71.6193 49.0345 71.8445C49.2572 72.0697 49.5592 72.1963 49.8741 72.1963C50.1891 72.1963 50.4911 72.0697 50.7138 71.8445C50.9365 71.6193 51.0616 71.3138 51.0616 70.9953C51.0553 69.9832 50.7815 68.9911 50.2685 68.122C51.0784 67.2347 52.1342 66.6151 53.2978 66.3444C54.4614 66.0736 55.6787 66.1642 56.7906 66.6043C57.9025 67.0445 58.8572 67.8136 59.5299 68.8113C60.2026 69.809 60.562 70.9887 60.5612 72.1963C60.5612 72.5148 60.6863 72.8202 60.909 73.0454C61.1317 73.2707 61.4337 73.3972 61.7486 73.3972C62.0636 73.3972 62.3656 73.2707 62.5883 73.0454C62.811 72.8202 62.9361 72.5148 62.9361 72.1963C62.9349 71.3989 62.821 70.6059 62.5979 69.8411C66.127 70.1967 68.8734 72.7309 68.8734 75.7991C68.8734 76.1176 68.9985 76.423 69.2211 76.6482C69.4438 76.8735 69.7459 77 70.0608 77C70.3757 77 70.6778 76.8735 70.9005 76.6482C71.1232 76.423 71.2483 76.1176 71.2483 75.7991C71.2483 71.1642 66.9866 67.3925 61.7486 67.3925ZM23.7502 29.3543C23.7434 24.2008 24.969 19.1222 27.3226 14.5514H48.6766C51.0302 19.1222 52.2558 24.2008 52.249 29.3543V46.0888H23.7502V29.3543ZM57.7178 30.7957C58.9446 31.5459 59.9598 32.6029 60.6657 33.8649C61.3717 35.1269 61.7446 36.5513 61.7486 38.0013V46.0559L54.6239 41.7332V29.3543C54.6239 29.2044 54.6118 29.0569 54.6099 28.9073L57.7178 30.7957ZM37.9996 2.62645C41.7314 5.10071 44.9027 8.34627 47.3047 12.1495H28.6945C31.0966 8.34627 34.2678 5.10071 37.9996 2.62645ZM14.2506 46.056V38.0013C14.2546 36.5512 14.6276 35.1266 15.3338 33.8646C16.0399 32.6026 17.0555 31.5457 18.2826 30.7957L21.3893 28.9078C21.3874 29.0572 21.3753 29.2047 21.3753 29.3544V41.7332L14.2506 46.056ZM24.5231 48.4907H51.4756L49.1552 52.9813H26.8441L24.5231 48.4907ZM32.0623 55.3832H43.9369V58.986H32.0623V55.3832Z" fill="#6E71B8"/>
<path d="M74.9579 49.3879C74.7607 49.3632 70.1478 48.8144 66.9658 51.656C65.2882 53.2212 64.2872 55.3913 64.1792 57.6971C61.5886 57.5387 59.0119 58.1826 56.7924 59.543C56.5322 59.7225 56.3532 59.9992 56.2947 60.3122C56.2362 60.6251 56.303 60.9488 56.4805 61.2119C56.658 61.4751 56.9315 61.6562 57.241 61.7153C57.5504 61.7745 57.8705 61.7069 58.1307 61.5274C60.9172 59.604 65.1023 60.1693 65.144 60.1751C65.3123 60.1988 65.4837 60.1858 65.6466 60.137C65.8095 60.0881 65.9602 60.0045 66.0885 59.8919C66.2168 59.7792 66.3198 59.6401 66.3905 59.4838C66.4612 59.3276 66.498 59.1578 66.4985 58.986C66.422 57.9721 66.5638 56.9536 66.9141 56.0006C67.2645 55.0475 67.815 54.1827 68.5278 53.4656C70.8923 51.3417 74.6274 51.7651 74.6634 51.771C74.8182 51.7908 74.9754 51.7796 75.126 51.7379C75.2766 51.6963 75.4175 51.625 75.5408 51.5282C75.6641 51.4314 75.7673 51.3109 75.8446 51.1737C75.9218 51.0365 75.9715 50.8852 75.9908 50.7286C76.0102 50.5719 75.9988 50.413 75.9574 50.2608C75.9159 50.1086 75.8452 49.9661 75.7492 49.8416C75.6533 49.7171 75.534 49.6129 75.3982 49.535C75.2624 49.4572 75.1128 49.4072 74.9579 49.3879Z" fill="#6E71B8"/>
<path d="M9.50076 58.986C9.50079 59.1581 9.53739 59.3282 9.60808 59.4848C9.67878 59.6414 9.78192 59.7808 9.91052 59.8936C10.0391 60.0063 10.1902 60.0898 10.3535 60.1384C10.5167 60.187 10.6884 60.1995 10.8569 60.1752C10.8981 60.1681 15.0635 59.59 17.8674 61.5274C18.1276 61.7061 18.4473 61.773 18.7562 61.7137C19.0652 61.6543 19.3383 61.4735 19.5156 61.2108C19.6929 60.9481 19.76 60.625 19.7021 60.3124C19.6442 59.9997 19.4661 59.7231 19.2068 59.5431C16.9869 58.1837 14.4105 57.5398 11.82 57.6971C11.7124 55.3912 10.7111 53.2209 9.0329 51.656C5.85202 48.8155 1.2344 49.3632 1.04135 49.3879C0.72888 49.427 0.444569 49.59 0.250965 49.8411C0.0573597 50.0923 -0.0296797 50.4109 0.00899393 50.7269C0.0476676 51.0429 0.208886 51.3305 0.457184 51.5263C0.705481 51.7221 1.02052 51.8101 1.33299 51.771C1.36952 51.7663 5.1064 51.3441 7.47202 53.4657C8.18472 54.1827 8.73516 55.0476 9.08541 56.0006C9.43565 56.9537 9.57736 57.9722 9.50076 58.986Z" fill="#6E71B8"/>
<path d="M37.9996 22.9579C36.5905 22.9579 35.213 23.3805 34.0413 24.1723C32.8697 24.964 31.9565 26.0894 31.4172 27.4061C30.878 28.7227 30.7369 30.1715 31.0118 31.5693C31.2867 32.967 31.9653 34.2509 32.9617 35.2587C33.9581 36.2664 35.2276 36.9527 36.6096 37.2307C37.9917 37.5087 39.4242 37.366 40.7261 36.8206C42.028 36.2753 43.1407 35.3517 43.9236 34.1667C44.7065 32.9818 45.1243 31.5887 45.1243 30.1635C45.1222 28.2531 44.3709 26.4216 43.0353 25.0707C41.6996 23.7198 39.8886 22.96 37.9996 22.9579ZM37.9996 34.9673C37.0602 34.9673 36.1419 34.6855 35.3608 34.1577C34.5797 33.6298 33.9709 32.8796 33.6114 32.0018C33.2519 31.1241 33.1578 30.1582 33.3411 29.2264C33.5243 28.2945 33.9767 27.4386 34.641 26.7668C35.3053 26.095 36.1516 25.6374 37.073 25.4521C37.9943 25.2667 38.9494 25.3619 39.8173 25.7254C40.6852 26.089 41.427 26.7047 41.9489 27.4947C42.4708 28.2847 42.7494 29.2134 42.7494 30.1635C42.7481 31.4371 42.2472 32.6582 41.3567 33.5588C40.4663 34.4594 39.2589 34.9659 37.9996 34.9673Z" fill="#6E71B8"/>
</svg>
