<svg width="68" height="72" viewBox="0 0 68 72" fill="none" xmlns="http://www.w3.org/2000/svg">
<path d="M13.6254 37.2237H8.51637C7.97525 37.2237 7.53656 36.7829 7.53656 36.2392V31.1049C7.53656 30.5611 7.97525 30.1204 8.51637 30.1204H13.6255C14.1666 30.1204 14.6053 30.5612 14.6053 31.1049V36.2392C14.6052 36.7829 14.1666 37.2237 13.6254 37.2237ZM9.49619 35.2545H12.6457V32.0894H9.49619V35.2545Z" fill="#FF6D3E"/>
<path d="M35.7076 66.3555C35.1665 66.3555 34.7278 66.7964 34.7278 67.34C34.7278 67.8837 35.1665 68.3246 35.7076 68.3246H61.9627C62.5038 68.3246 62.9425 67.8837 62.9425 67.34C62.9425 66.7964 62.5038 66.3555 61.9627 66.3555H35.7076Z" fill="#FF6D3E"/>
<path d="M63.9779 64.7848C64.519 64.7848 64.9577 64.344 64.9577 63.8003V5.05456C64.9577 4.51076 64.519 4.07003 63.9779 4.07003H58.6944V0.984531C58.6944 0.440726 58.2557 0 57.7146 0H34.712C34.1709 0 33.7322 0.440866 33.7322 0.984531V4.06989H28.4487C27.9076 4.06989 27.4689 4.51076 27.4689 5.05442V21.2069H9.49213C8.95101 21.2069 8.51231 21.6477 8.51231 22.1914V25.2768H4.60522C4.0641 25.2768 3.62541 25.7176 3.62541 26.2613V46.0214C3.62541 46.5652 4.0641 47.0059 4.60522 47.0059C5.14635 47.0059 5.58504 46.565 5.58504 46.0214V27.2461H34.327V62.8158H29.8528C29.3117 62.8158 28.873 63.2566 28.873 63.8003C28.873 64.344 29.3117 64.7848 29.8528 64.7848H63.9779ZM40.6422 62.8156V50.3864H57.0284V62.8156H40.6422ZM35.6918 1.96906H56.7348V4.06989H35.6918V1.96906ZM10.4719 23.1761H29.4403V25.2768H10.4719V23.1761ZM31.3999 25.2769V22.1915C31.3999 21.6477 30.9612 21.207 30.4201 21.207H29.4285V6.03909H62.9981V62.8156H58.988V49.4018C58.988 48.858 58.5493 48.4172 58.0082 48.4172H39.6624C39.1213 48.4172 38.6826 48.8581 38.6826 49.4018V62.8156H36.2868V26.2614C36.2868 25.7176 35.8481 25.2769 35.307 25.2769H31.3999Z" fill="#FF6D3E"/>
<path d="M45.644 16.6825H58.008C58.5491 16.6825 58.9878 16.2416 58.9878 15.6979V10.2526C58.9878 9.70876 58.5491 9.26803 58.008 9.26803H45.644C45.1029 9.26803 44.6642 9.7089 44.6642 10.2526V15.6978C44.6642 16.2416 45.1029 16.6825 45.644 16.6825ZM46.6239 11.2371H57.0284V14.7131H46.6239V11.2371Z" fill="#FF6D3E"/>
<path d="M45.644 26.2495H58.008C58.5491 26.2495 58.9878 25.8086 58.9878 25.2649V19.8197C58.9878 19.2759 58.5491 18.8352 58.008 18.8352H45.644C45.1029 18.8352 44.6642 19.2761 44.6642 19.8197V25.2649C44.6642 25.8087 45.1029 26.2495 45.644 26.2495ZM46.6239 20.8042H57.0284V24.2803H46.6239V20.8042Z" fill="#FF6D3E"/>
<path d="M45.644 35.8166H58.008C58.5491 35.8166 58.9878 35.3758 58.9878 34.8321V29.3867C58.9878 28.8429 58.5491 28.4022 58.008 28.4022H45.644C45.1029 28.4022 44.6642 28.8431 44.6642 29.3867V34.8321C44.6642 35.3758 45.1029 35.8166 45.644 35.8166ZM46.6239 30.3713H57.0284V33.8474H46.6239V30.3713Z" fill="#FF6D3E"/>
<path d="M45.644 45.3836H58.008C58.5491 45.3836 58.9878 44.9428 58.9878 44.3991V38.9539C58.9878 38.4101 58.5491 37.9693 58.008 37.9693H45.644C45.1029 37.9693 44.6642 38.4102 44.6642 38.9539V44.3991C44.6642 44.9429 45.1029 45.3836 45.644 45.3836ZM46.6239 39.9384H57.0284V43.4144H46.6239V39.9384Z" fill="#FF6D3E"/>
<path d="M39.6624 43.849C40.2035 43.849 40.6422 43.4081 40.6422 42.8644V11.7872C40.6422 11.2434 40.2035 10.8027 39.6624 10.8027C39.1213 10.8027 38.6826 11.2436 38.6826 11.7872V42.8643C38.6826 43.4081 39.1213 43.849 39.6624 43.849Z" fill="#FF6D3E"/>
<path d="M36.3384 22.0838V11.7872C36.3384 11.2434 35.8997 10.8027 35.3586 10.8027C34.8175 10.8027 34.3788 11.2436 34.3788 11.7872V22.0838C34.3788 22.6276 34.8175 23.0683 35.3586 23.0683C35.8997 23.0683 36.3384 22.6276 36.3384 22.0838Z" fill="#FF6D3E"/>
<path d="M22.4392 30.1202H17.3302C16.7891 30.1202 16.3504 30.5611 16.3504 31.1048V36.2391C16.3504 36.7829 16.7891 37.2236 17.3302 37.2236H22.4392C22.9804 37.2236 23.419 36.7827 23.419 36.2391V31.1048C23.419 30.5611 22.9804 30.1202 22.4392 30.1202ZM21.4594 35.2545H18.3101V32.0894H21.4594V35.2545Z" fill="#FF6D3E"/>
<path d="M32.3758 36.2391V31.1048C32.3758 30.561 31.9371 30.1202 31.396 30.1202H26.2868C25.7457 30.1202 25.307 30.5611 25.307 31.1048V36.2391C25.307 36.7829 25.7457 37.2236 26.2868 37.2236H31.396C31.9371 37.2237 32.3758 36.7829 32.3758 36.2391ZM30.4162 35.2545H27.2667V32.0894H30.4162V35.2545Z" fill="#FF6D3E"/>
<path d="M67.0202 70.0309H32.0503C31.5092 70.0309 31.0705 70.4718 31.0705 71.0155C31.0705 71.5591 31.5092 72 32.0503 72H67.0202C67.5613 72 68 71.5591 68 71.0155C68 70.4718 67.5613 70.0309 67.0202 70.0309Z" fill="#FF6D3E"/>
<path d="M30.8327 53.317V48.178C30.8327 46.4461 29.4288 45.037 27.703 45.037H22.3164V43.7573C22.3164 42.2933 21.1311 41.1025 19.6746 41.1025H11.1541C9.69755 41.1025 8.51231 42.2935 8.51231 43.7573V45.037H3.1257C1.40228 45.037 0 46.4461 0 48.178V65.4466C0 67.1787 1.40228 68.5878 3.1257 68.5878H27.703C29.4288 68.5878 30.8327 67.1786 30.8327 65.4466V53.3268C30.8327 53.3236 30.8327 53.3202 30.8327 53.317ZM10.4719 43.7573C10.4719 43.3856 10.7843 43.0717 11.1541 43.0717H19.6746C20.0507 43.0717 20.3567 43.3793 20.3567 43.7573V45.037H10.4719V43.7573ZM3.1257 47.006H27.703C28.3482 47.006 28.8731 47.5317 28.8731 48.1779V52.6733L18.3735 57.1652V56.7803C18.3735 55.7649 17.5513 54.9387 16.5409 54.9387H14.2877C13.2772 54.9387 12.4551 55.7649 12.4551 56.7803V57.1582L1.95949 52.673V48.1779C1.95963 47.5318 2.48285 47.006 3.1257 47.006ZM16.4138 56.908V61.277H14.4149V56.908H16.4138ZM27.703 66.6186H3.1257C2.48271 66.6186 1.95963 66.0928 1.95963 65.4466V54.8131L12.4552 59.2983V61.4046C12.4552 62.4201 13.2773 63.2462 14.2878 63.2462H16.541C17.5515 63.2462 18.3736 62.4201 18.3736 61.4046V59.3057L28.8732 54.8137V65.4466C28.8731 66.0928 28.3482 66.6186 27.703 66.6186Z" fill="#FF6D3E"/>
</svg>
